<?xml version="1.0" encoding="UTF-8" standalone="no"?>
<!DOCTYPE svg PUBLIC "-//W3C//DTD SVG 1.1//EN"
 "http://www.w3.org/Graphics/SVG/1.1/DTD/svg11.dtd">
<!-- Generated by graphviz version 12.1.1 (20240910.0053)
 -->
<!-- Title: G Pages: 1 -->
<svg width="691pt" height="147pt"
 viewBox="0.00 0.00 691.07 147.26" xmlns="http://www.w3.org/2000/svg" xmlns:xlink="http://www.w3.org/1999/xlink">
<g id="graph0" class="graph" transform="scale(1 1) rotate(0) translate(4 143.26)">
<title>G</title>
<polygon fill="white" stroke="none" points="-4,4 -4,-143.26 687.07,-143.26 687.07,4 -4,4"/>
<!-- n__ -->
<g id="node1" class="node">
<title>n__</title>
</g>
<!-- 0 -->
<g id="node2" class="node">
<title>0</title>
<ellipse fill="none" stroke="black" cx="57.85" cy="-20.63" rx="20.13" ry="20.13"/>
<text text-anchor="middle" x="57.85" y="-15.58" font-family="Times New Roman,serif" font-size="14.00">q0</text>
</g>
<!-- n__&#45;&gt;0 -->
<g id="edge1" class="edge">
<title>n__&#45;&gt;0</title>
<path fill="none" stroke="black" d="M0.88,-20.63C2.37,-20.63 13.93,-20.63 26.16,-20.63"/>
<polygon fill="black" stroke="black" points="25.79,-24.13 35.79,-20.63 25.79,-17.13 25.79,-24.13"/>
</g>
<!-- 1 -->
<g id="node3" class="node">
<title>1</title>
<ellipse fill="none" stroke="black" cx="140.86" cy="-84.63" rx="20.13" ry="20.13"/>
<text text-anchor="middle" x="140.86" y="-79.58" font-family="Times New Roman,serif" font-size="14.00">q1</text>
</g>
<!-- 0&#45;&gt;1 -->
<g id="edge2" class="edge">
<title>0&#45;&gt;1</title>
<path fill="none" stroke="black" d="M74.09,-32.67C85.78,-41.91 102.15,-54.84 115.64,-65.49"/>
<polygon fill="black" stroke="black" points="113.21,-68.04 123.23,-71.49 117.55,-62.55 113.21,-68.04"/>
<text text-anchor="middle" x="99.36" y="-57.75" font-family="Times New Roman,serif" font-size="14.00">0</text>
</g>
<!-- 2 -->
<g id="node4" class="node">
<title>2</title>
<ellipse fill="none" stroke="black" cx="223.88" cy="-34.63" rx="20.13" ry="20.13"/>
<text text-anchor="middle" x="223.88" y="-29.58" font-family="Times New Roman,serif" font-size="14.00">q3</text>
</g>
<!-- 0&#45;&gt;2 -->
<g id="edge12" class="edge">
<title>0&#45;&gt;2</title>
<path fill="none" stroke="black" d="M78.31,-22.29C106.43,-24.69 158.69,-29.15 192.07,-32"/>
<polygon fill="black" stroke="black" points="191.67,-35.48 201.93,-32.85 192.27,-28.51 191.67,-35.48"/>
<text text-anchor="middle" x="140.86" y="-32.45" font-family="Times New Roman,serif" font-size="14.00">1</text>
</g>
<!-- 3 -->
<g id="node5" class="node">
<title>3</title>
<ellipse fill="none" stroke="black" cx="306.89" cy="-34.63" rx="20.13" ry="20.13"/>
<text text-anchor="middle" x="306.89" y="-29.58" font-family="Times New Roman,serif" font-size="14.00">q2</text>
</g>
<!-- 0&#45;&gt;3 -->
<g id="edge3" class="edge">
<title>0&#45;&gt;3</title>
<path fill="none" stroke="black" d="M77.77,-15.43C111.56,-6.95 184.35,7.65 244.01,-5.63 256.17,-8.34 268.76,-13.71 279.39,-19.09"/>
<polygon fill="black" stroke="black" points="277.47,-22.04 287.94,-23.67 280.78,-15.87 277.47,-22.04"/>
<text text-anchor="middle" x="182.37" y="-3.63" font-family="Times New Roman,serif" font-size="14.00">0</text>
</g>
<!-- 1&#45;&gt;1 -->
<g id="edge4" class="edge">
<title>1&#45;&gt;1</title>
<path fill="none" stroke="black" d="M133.4,-103.47C132.13,-113.56 134.62,-122.76 140.86,-122.76 144.57,-122.76 146.95,-119.52 148.01,-114.77"/>
<polygon fill="black" stroke="black" points="151.5,-115.07 148.28,-104.98 144.51,-114.88 151.5,-115.07"/>
<text text-anchor="middle" x="140.86" y="-125.96" font-family="Times New Roman,serif" font-size="14.00">0</text>
</g>
<!-- 1&#45;&gt;2 -->
<g id="edge13" class="edge">
<title>1&#45;&gt;2</title>
<path fill="none" stroke="black" d="M155.31,-70.23C161.96,-63.74 170.39,-56.37 178.99,-51.13 183.5,-48.39 188.53,-45.98 193.53,-43.91"/>
<polygon fill="black" stroke="black" points="194.67,-47.22 202.82,-40.45 192.22,-40.66 194.67,-47.22"/>
<text text-anchor="middle" x="182.37" y="-54.33" font-family="Times New Roman,serif" font-size="14.00">1</text>
</g>
<!-- 1&#45;&gt;3 -->
<g id="edge5" class="edge">
<title>1&#45;&gt;3</title>
<path fill="none" stroke="black" d="M159.59,-92.48C180.56,-100.56 216.16,-110.44 244.01,-98.63 262.33,-90.86 277.88,-74.71 288.81,-60.58"/>
<polygon fill="black" stroke="black" points="291.34,-63.05 294.41,-52.92 285.68,-58.92 291.34,-63.05"/>
<text text-anchor="middle" x="223.88" y="-107.28" font-family="Times New Roman,serif" font-size="14.00">0</text>
</g>
<!-- 2&#45;&gt;1 -->
<g id="edge6" class="edge">
<title>2&#45;&gt;1</title>
<path fill="none" stroke="black" d="M210.52,-50.14C203.88,-57.58 195.13,-66.06 185.74,-71.63 181.52,-74.14 176.77,-76.2 172,-77.87"/>
<polygon fill="black" stroke="black" points="171.11,-74.49 162.52,-80.69 173.1,-81.2 171.11,-74.49"/>
<text text-anchor="middle" x="182.37" y="-78.24" font-family="Times New Roman,serif" font-size="14.00">0</text>
</g>
<!-- 2&#45;&gt;2 -->
<g id="edge14" class="edge">
<title>2&#45;&gt;2</title>
<path fill="none" stroke="black" d="M216.41,-53.47C215.15,-63.56 217.63,-72.76 223.88,-72.76 227.58,-72.76 229.96,-69.52 231.02,-64.77"/>
<polygon fill="black" stroke="black" points="234.52,-65.07 231.29,-54.98 227.52,-64.88 234.52,-65.07"/>
<text text-anchor="middle" x="223.88" y="-75.96" font-family="Times New Roman,serif" font-size="14.00">1</text>
</g>
<!-- 2&#45;&gt;3 -->
<g id="edge7" class="edge">
<title>2&#45;&gt;3</title>
<path fill="none" stroke="black" d="M244.49,-34.63C253.64,-34.63 264.76,-34.63 275,-34.63"/>
<polygon fill="black" stroke="black" points="274.94,-38.13 284.94,-34.63 274.94,-31.13 274.94,-38.13"/>
<text text-anchor="middle" x="265.38" y="-37.83" font-family="Times New Roman,serif" font-size="14.00">0</text>
</g>
<!-- 4 -->
<g id="node6" class="node">
<title>4</title>
<ellipse fill="none" stroke="black" cx="389.9" cy="-34.63" rx="20.13" ry="20.13"/>
<text text-anchor="middle" x="389.9" y="-29.58" font-family="Times New Roman,serif" font-size="14.00">q4</text>
</g>
<!-- 3&#45;&gt;4 -->
<g id="edge8" class="edge">
<title>3&#45;&gt;4</title>
<path fill="none" stroke="black" d="M327.5,-34.63C336.65,-34.63 347.77,-34.63 358.01,-34.63"/>
<polygon fill="black" stroke="black" points="357.96,-38.13 367.96,-34.63 357.96,-31.13 357.96,-38.13"/>
<text text-anchor="middle" x="348.39" y="-37.83" font-family="Times New Roman,serif" font-size="14.00">0</text>
</g>
<!-- 5 -->
<g id="node7" class="node">
<title>5</title>
<ellipse fill="none" stroke="black" cx="476.91" cy="-34.63" rx="20.13" ry="20.13"/>
<ellipse fill="none" stroke="black" cx="476.91" cy="-34.63" rx="24.13" ry="24.13"/>
<text text-anchor="middle" x="476.91" y="-29.58" font-family="Times New Roman,serif" font-size="14.00">q5</text>
</g>
<!-- 4&#45;&gt;5 -->
<g id="edge15" class="edge">
<title>4&#45;&gt;5</title>
<path fill="none" stroke="black" d="M410.19,-34.63C419.3,-34.63 430.47,-34.63 440.99,-34.63"/>
<polygon fill="black" stroke="black" points="440.94,-38.13 450.94,-34.63 440.94,-31.13 440.94,-38.13"/>
<text text-anchor="middle" x="431.41" y="-37.83" font-family="Times New Roman,serif" font-size="14.00">1</text>
</g>
<!-- 6 -->
<g id="node8" class="node">
<title>6</title>
<ellipse fill="none" stroke="black" cx="567.92" cy="-77.63" rx="20.13" ry="20.13"/>
<ellipse fill="none" stroke="black" cx="567.92" cy="-77.63" rx="24.13" ry="24.13"/>
<text text-anchor="middle" x="567.92" y="-72.58" font-family="Times New Roman,serif" font-size="14.00">q6</text>
</g>
<!-- 5&#45;&gt;6 -->
<g id="edge9" class="edge">
<title>5&#45;&gt;6</title>
<path fill="none" stroke="black" d="M499.01,-44.82C509.9,-50.09 523.41,-56.61 535.51,-62.46"/>
<polygon fill="black" stroke="black" points="533.78,-65.51 544.31,-66.71 536.83,-59.21 533.78,-65.51"/>
<text text-anchor="middle" x="522.42" y="-60.62" font-family="Times New Roman,serif" font-size="14.00">0</text>
</g>
<!-- 7 -->
<g id="node9" class="node">
<title>7</title>
<ellipse fill="none" stroke="black" cx="658.94" cy="-51.63" rx="20.13" ry="20.13"/>
<ellipse fill="none" stroke="black" cx="658.94" cy="-51.63" rx="24.13" ry="24.13"/>
<text text-anchor="middle" x="658.94" y="-46.58" font-family="Times New Roman,serif" font-size="14.00">q7</text>
</g>
<!-- 5&#45;&gt;7 -->
<g id="edge16" class="edge">
<title>5&#45;&gt;7</title>
<path fill="none" stroke="black" d="M500.83,-30.29C524,-26.61 560.76,-22.72 592.06,-28.13 603.42,-30.1 615.43,-33.84 626.03,-37.77"/>
<polygon fill="black" stroke="black" points="624.49,-40.93 635.07,-41.32 627.04,-34.41 624.49,-40.93"/>
<text text-anchor="middle" x="567.92" y="-31.33" font-family="Times New Roman,serif" font-size="14.00">1</text>
</g>
<!-- 6&#45;&gt;6 -->
<g id="edge10" class="edge">
<title>6&#45;&gt;6</title>
<path fill="none" stroke="black" d="M559.53,-100.6C558.73,-110.88 561.53,-119.76 567.92,-119.76 571.72,-119.76 574.25,-116.63 575.52,-111.93"/>
<polygon fill="black" stroke="black" points="579,-112.33 576.22,-102.11 572.01,-111.84 579,-112.33"/>
<text text-anchor="middle" x="567.92" y="-122.96" font-family="Times New Roman,serif" font-size="14.00">0</text>
</g>
<!-- 6&#45;&gt;7 -->
<g id="edge17" class="edge">
<title>6&#45;&gt;7</title>
<path fill="none" stroke="black" d="M586.49,-61.97C593.35,-56.84 601.6,-51.78 610.06,-49.13 614.4,-47.77 619.07,-47.11 623.74,-46.91"/>
<polygon fill="black" stroke="black" points="623.51,-50.4 633.6,-47.17 623.7,-43.4 623.51,-50.4"/>
<text text-anchor="middle" x="613.43" y="-52.33" font-family="Times New Roman,serif" font-size="14.00">1</text>
</g>
<!-- 7&#45;&gt;6 -->
<g id="edge11" class="edge">
<title>7&#45;&gt;6</title>
<path fill="none" stroke="black" d="M636.96,-62C630.61,-64.81 623.53,-67.63 616.81,-69.63 612.48,-70.92 607.86,-72.02 603.27,-72.95"/>
<polygon fill="black" stroke="black" points="602.8,-69.48 593.57,-74.68 604.03,-76.37 602.8,-69.48"/>
<text text-anchor="middle" x="613.43" y="-74.55" font-family="Times New Roman,serif" font-size="14.00">0</text>
</g>
<!-- 7&#45;&gt;7 -->
<g id="edge18" class="edge">
<title>7&#45;&gt;7</title>
<path fill="none" stroke="black" d="M650.54,-74.6C649.74,-84.88 652.54,-93.76 658.94,-93.76 662.74,-93.76 665.27,-90.63 666.53,-85.93"/>
<polygon fill="black" stroke="black" points="670.01,-86.33 667.23,-76.11 663.03,-85.84 670.01,-86.33"/>
<text text-anchor="middle" x="658.94" y="-96.96" font-family="Times New Roman,serif" font-size="14.00">1</text>
</g>
</g>
</svg>
