<?xml version="1.0" encoding="UTF-8" standalone="no"?>
<!DOCTYPE svg PUBLIC "-//W3C//DTD SVG 1.1//EN"
 "http://www.w3.org/Graphics/SVG/1.1/DTD/svg11.dtd">
<!-- Generated by graphviz version 12.1.0 (20240811.2233)
 -->
<!-- Title: G Pages: 1 -->
<svg width="681pt" height="227pt"
 viewBox="0.00 0.00 680.82 226.50" xmlns="http://www.w3.org/2000/svg" xmlns:xlink="http://www.w3.org/1999/xlink">
<g id="graph0" class="graph" transform="scale(1 1) rotate(0) translate(4 222.5)">
<title>G</title>
<polygon fill="white" stroke="none" points="-4,4 -4,-222.5 676.82,-222.5 676.82,4 -4,4"/>
<!-- n__ -->
<g id="node1" class="node">
<title>n__</title>
</g>
<!-- 0 -->
<g id="node2" class="node">
<title>0</title>
<ellipse fill="none" stroke="black" cx="57.85" cy="-56" rx="20.13" ry="20.13"/>
<text text-anchor="middle" x="57.85" y="-50.95" font-family="Times New Roman,serif" font-size="14.00">q0</text>
</g>
<!-- n__&#45;&gt;0 -->
<g id="edge1" class="edge">
<title>n__&#45;&gt;0</title>
<path fill="none" stroke="black" d="M0.88,-56C2.37,-56 13.93,-56 26.16,-56"/>
<polygon fill="black" stroke="black" points="25.79,-59.5 35.79,-56 25.79,-52.5 25.79,-59.5"/>
</g>
<!-- 1 -->
<g id="node3" class="node">
<title>1</title>
<ellipse fill="none" stroke="black" cx="140.11" cy="-56" rx="20.13" ry="20.13"/>
<text text-anchor="middle" x="140.11" y="-50.95" font-family="Times New Roman,serif" font-size="14.00">q1</text>
</g>
<!-- 0&#45;&gt;1 -->
<g id="edge2" class="edge">
<title>0&#45;&gt;1</title>
<path fill="none" stroke="black" d="M78.28,-56C87.28,-56 98.2,-56 108.29,-56"/>
<polygon fill="black" stroke="black" points="108.07,-59.5 118.07,-56 108.07,-52.5 108.07,-59.5"/>
<text text-anchor="middle" x="98.98" y="-59.2" font-family="Times New Roman,serif" font-size="14.00">a</text>
</g>
<!-- 3 -->
<g id="node5" class="node">
<title>3</title>
<ellipse fill="none" stroke="black" cx="561.67" cy="-68" rx="20.13" ry="20.13"/>
<text text-anchor="middle" x="561.67" y="-62.95" font-family="Times New Roman,serif" font-size="14.00">q3</text>
</g>
<!-- 0&#45;&gt;3 -->
<g id="edge8" class="edge">
<title>0&#45;&gt;3</title>
<path fill="none" stroke="black" d="M70.92,-40.4C85.23,-23.83 110.74,0 139.11,0 139.11,0 139.11,0 475.66,0 503.76,0 527.9,-22.93 543.19,-42.16"/>
<polygon fill="black" stroke="black" points="540.26,-44.09 549.06,-49.98 545.86,-39.88 540.26,-44.09"/>
<text text-anchor="middle" x="305.39" y="-3.2" font-family="Times New Roman,serif" font-size="14.00">b</text>
</g>
<!-- 5 -->
<g id="node7" class="node">
<title>5</title>
<ellipse fill="none" stroke="black" cx="305.39" cy="-113" rx="20.13" ry="20.13"/>
<text text-anchor="middle" x="305.39" y="-107.95" font-family="Times New Roman,serif" font-size="14.00">q5</text>
</g>
<!-- 0&#45;&gt;5 -->
<g id="edge3" class="edge">
<title>0&#45;&gt;5</title>
<path fill="none" stroke="black" d="M75.5,-66.32C81.78,-69.97 89.08,-73.93 95.98,-77 106.26,-81.57 109.05,-82.37 119.98,-85 173.3,-97.83 236.78,-105.94 273.64,-109.96"/>
<polygon fill="black" stroke="black" points="273.25,-113.44 283.56,-111.01 273.98,-106.48 273.25,-113.44"/>
<text text-anchor="middle" x="181.62" y="-100.92" font-family="Times New Roman,serif" font-size="14.00">a</text>
</g>
<!-- 2 -->
<g id="node4" class="node">
<title>2</title>
<ellipse fill="none" stroke="black" cx="223.13" cy="-57" rx="20.13" ry="20.13"/>
<text text-anchor="middle" x="223.13" y="-51.95" font-family="Times New Roman,serif" font-size="14.00">q2</text>
</g>
<!-- 1&#45;&gt;2 -->
<g id="edge9" class="edge">
<title>1&#45;&gt;2</title>
<path fill="none" stroke="black" d="M156.05,-43.11C164.31,-37.52 174.92,-32.8 184.99,-35.5 188.85,-36.54 192.72,-38.08 196.43,-39.88"/>
<polygon fill="black" stroke="black" points="194.55,-42.84 204.99,-44.65 197.96,-36.72 194.55,-42.84"/>
<text text-anchor="middle" x="181.62" y="-38.7" font-family="Times New Roman,serif" font-size="14.00">b</text>
</g>
<!-- 2&#45;&gt;1 -->
<g id="edge4" class="edge">
<title>2&#45;&gt;1</title>
<path fill="none" stroke="black" d="M202.7,-56.76C193.57,-56.65 182.46,-56.51 172.2,-56.38"/>
<polygon fill="black" stroke="black" points="172.28,-52.88 162.24,-56.26 172.19,-59.88 172.28,-52.88"/>
<text text-anchor="middle" x="181.62" y="-59.73" font-family="Times New Roman,serif" font-size="14.00">a</text>
</g>
<!-- 2&#45;&gt;3 -->
<g id="edge10" class="edge">
<title>2&#45;&gt;3</title>
<path fill="none" stroke="black" d="M243.16,-52.9C259.36,-49.78 283.29,-46 304.39,-46 304.39,-46 304.39,-46 475.66,-46 494.99,-46 516.01,-51.39 532.32,-56.84"/>
<polygon fill="black" stroke="black" points="530.76,-60 541.35,-60.05 533.1,-53.4 530.76,-60"/>
<text text-anchor="middle" x="387.65" y="-49.2" font-family="Times New Roman,serif" font-size="14.00">b</text>
</g>
<!-- 2&#45;&gt;5 -->
<g id="edge5" class="edge">
<title>2&#45;&gt;5</title>
<path fill="none" stroke="black" d="M241.3,-66.35C249.36,-70.93 258.99,-76.71 267.26,-82.5 271.8,-85.68 276.49,-89.27 280.94,-92.84"/>
<polygon fill="black" stroke="black" points="278.51,-95.37 288.46,-99.03 282.97,-89.97 278.51,-95.37"/>
<text text-anchor="middle" x="264.26" y="-85.7" font-family="Times New Roman,serif" font-size="14.00">a</text>
</g>
<!-- 4 -->
<g id="node6" class="node">
<title>4</title>
<ellipse fill="none" stroke="black" cx="648.69" cy="-108" rx="20.13" ry="20.13"/>
<ellipse fill="none" stroke="black" cx="648.69" cy="-108" rx="24.13" ry="24.13"/>
<text text-anchor="middle" x="648.69" y="-102.95" font-family="Times New Roman,serif" font-size="14.00">q4</text>
</g>
<!-- 3&#45;&gt;4 -->
<g id="edge14" class="edge">
<title>3&#45;&gt;4</title>
<path fill="none" stroke="black" d="M581.67,-63.29C589.64,-62.23 598.83,-62.22 606.56,-65.5 614.23,-68.75 621.16,-74.21 627.07,-80.15"/>
<polygon fill="black" stroke="black" points="624.15,-82.14 633.43,-87.26 629.37,-77.47 624.15,-82.14"/>
<text text-anchor="middle" x="603.18" y="-68.7" font-family="Times New Roman,serif" font-size="14.00">c</text>
</g>
<!-- 4&#45;&gt;3 -->
<g id="edge11" class="edge">
<title>4&#45;&gt;3</title>
<path fill="none" stroke="black" d="M626.19,-98.24C617.92,-94.45 608.41,-90.06 599.81,-86 596.67,-84.52 593.39,-82.95 590.13,-81.39"/>
<polygon fill="black" stroke="black" points="591.91,-78.36 581.38,-77.16 588.86,-84.66 591.91,-78.36"/>
<text text-anchor="middle" x="603.18" y="-92.25" font-family="Times New Roman,serif" font-size="14.00">b</text>
</g>
<!-- 4&#45;&gt;5 -->
<g id="edge6" class="edge">
<title>4&#45;&gt;5</title>
<path fill="none" stroke="black" d="M639.1,-130.28C626.77,-158.07 601.18,-202 562.67,-202 386.65,-202 386.65,-202 386.65,-202 353.73,-202 330.85,-168.01 318.17,-142.04"/>
<polygon fill="black" stroke="black" points="321.49,-140.88 314.14,-133.25 315.12,-143.8 321.49,-140.88"/>
<text text-anchor="middle" x="474.66" y="-205.2" font-family="Times New Roman,serif" font-size="14.00">a</text>
</g>
<!-- 6 -->
<g id="node8" class="node">
<title>6</title>
<ellipse fill="none" stroke="black" cx="387.65" cy="-154" rx="20.13" ry="20.13"/>
<text text-anchor="middle" x="387.65" y="-148.95" font-family="Times New Roman,serif" font-size="14.00">q6</text>
</g>
<!-- 5&#45;&gt;6 -->
<g id="edge15" class="edge">
<title>5&#45;&gt;6</title>
<path fill="none" stroke="black" d="M323.8,-121.9C334.11,-127.16 347.4,-133.95 359.1,-139.93"/>
<polygon fill="black" stroke="black" points="357.42,-143 367.92,-144.43 360.61,-136.77 357.42,-143"/>
<text text-anchor="middle" x="346.52" y="-137.93" font-family="Times New Roman,serif" font-size="14.00">c</text>
</g>
<!-- 7 -->
<g id="node9" class="node">
<title>7</title>
<ellipse fill="none" stroke="black" cx="474.66" cy="-99" rx="20.13" ry="20.13"/>
<ellipse fill="none" stroke="black" cx="474.66" cy="-99" rx="24.13" ry="24.13"/>
<text text-anchor="middle" x="474.66" y="-93.95" font-family="Times New Roman,serif" font-size="14.00">q7</text>
</g>
<!-- 6&#45;&gt;7 -->
<g id="edge12" class="edge">
<title>6&#45;&gt;7</title>
<path fill="none" stroke="black" d="M405.04,-143.4C416.11,-136.23 431.05,-126.57 444.16,-118.09"/>
<polygon fill="black" stroke="black" points="445.97,-121.09 452.46,-112.72 442.16,-115.21 445.97,-121.09"/>
<text text-anchor="middle" x="429.16" y="-132.99" font-family="Times New Roman,serif" font-size="14.00">b</text>
</g>
<!-- 7&#45;&gt;3 -->
<g id="edge13" class="edge">
<title>7&#45;&gt;3</title>
<path fill="none" stroke="black" d="M497.56,-91.02C507.96,-87.22 520.54,-82.64 531.72,-78.56"/>
<polygon fill="black" stroke="black" points="532.69,-81.93 540.88,-75.22 530.29,-75.35 532.69,-81.93"/>
<text text-anchor="middle" x="520.17" y="-86.7" font-family="Times New Roman,serif" font-size="14.00">b</text>
</g>
<!-- 7&#45;&gt;5 -->
<g id="edge7" class="edge">
<title>7&#45;&gt;5</title>
<path fill="none" stroke="black" d="M450.25,-100.96C420.67,-103.44 369.69,-107.7 337.03,-110.44"/>
<polygon fill="black" stroke="black" points="337.09,-106.92 327.41,-111.24 337.67,-113.89 337.09,-106.92"/>
<text text-anchor="middle" x="387.65" y="-111.05" font-family="Times New Roman,serif" font-size="14.00">a</text>
</g>
</g>
</svg>
