<?xml version="1.0" encoding="UTF-8" standalone="no"?>
<!DOCTYPE svg PUBLIC "-//W3C//DTD SVG 1.1//EN"
 "http://www.w3.org/Graphics/SVG/1.1/DTD/svg11.dtd">
<!-- Generated by graphviz version 12.1.0 (20240811.2233)
 -->
<!-- Title: G Pages: 1 -->
<svg width="425pt" height="141pt"
 viewBox="0.00 0.00 425.28 141.13" xmlns="http://www.w3.org/2000/svg" xmlns:xlink="http://www.w3.org/1999/xlink">
<g id="graph0" class="graph" transform="scale(1 1) rotate(0) translate(4 137.13)">
<title>G</title>
<polygon fill="white" stroke="none" points="-4,4 -4,-137.13 421.28,-137.13 421.28,4 -4,4"/>
<!-- n__ -->
<g id="node1" class="node">
<title>n__</title>
</g>
<!-- 0 -->
<g id="node2" class="node">
<title>0</title>
<ellipse fill="none" stroke="black" cx="57.85" cy="-33" rx="20.13" ry="20.13"/>
<text text-anchor="middle" x="57.85" y="-27.95" font-family="Times New Roman,serif" font-size="14.00">q0</text>
</g>
<!-- n__&#45;&gt;0 -->
<g id="edge1" class="edge">
<title>n__&#45;&gt;0</title>
<path fill="none" stroke="black" d="M0.88,-33C2.37,-33 13.93,-33 26.16,-33"/>
<polygon fill="black" stroke="black" points="25.79,-36.5 35.79,-33 25.79,-29.5 25.79,-36.5"/>
</g>
<!-- 1 -->
<g id="node3" class="node">
<title>1</title>
<ellipse fill="none" stroke="black" cx="140.86" cy="-68" rx="20.13" ry="20.13"/>
<text text-anchor="middle" x="140.86" y="-62.95" font-family="Times New Roman,serif" font-size="14.00">q1</text>
</g>
<!-- 0&#45;&gt;1 -->
<g id="edge2" class="edge">
<title>0&#45;&gt;1</title>
<path fill="none" stroke="black" d="M76.09,-41.72C82.31,-44.77 89.41,-48.14 95.98,-51 100.83,-53.11 106.04,-55.24 111.11,-57.25"/>
<polygon fill="black" stroke="black" points="109.79,-60.49 120.38,-60.83 112.32,-53.96 109.79,-60.49"/>
<text text-anchor="middle" x="99.36" y="-56.7" font-family="Times New Roman,serif" font-size="14.00">a</text>
</g>
<!-- 3 -->
<g id="node5" class="node">
<title>3</title>
<ellipse fill="none" stroke="black" cx="397.15" cy="-33" rx="20.13" ry="20.13"/>
<text text-anchor="middle" x="397.15" y="-27.95" font-family="Times New Roman,serif" font-size="14.00">q3</text>
</g>
<!-- 0&#45;&gt;3 -->
<g id="edge3" class="edge">
<title>0&#45;&gt;3</title>
<path fill="none" stroke="black" d="M75.13,-22.01C90.95,-12.41 116.02,0 139.86,0 139.86,0 139.86,0 311.14,0 331.79,0 353.46,-8.57 369.76,-16.97"/>
<polygon fill="black" stroke="black" points="367.85,-19.91 378.3,-21.65 371.21,-13.77 367.85,-19.91"/>
<text text-anchor="middle" x="223.13" y="-3.2" font-family="Times New Roman,serif" font-size="14.00">b</text>
</g>
<!-- 1&#45;&gt;0 -->
<g id="edge4" class="edge">
<title>1&#45;&gt;0</title>
<path fill="none" stroke="black" d="M128.79,-51.86C122.26,-43.81 113.22,-34.87 102.73,-30.5 98.5,-28.73 93.83,-27.93 89.16,-27.75"/>
<polygon fill="black" stroke="black" points="89.15,-24.24 79.34,-28.26 89.51,-31.23 89.15,-24.24"/>
<text text-anchor="middle" x="99.36" y="-33.7" font-family="Times New Roman,serif" font-size="14.00">b</text>
</g>
<!-- 2 -->
<g id="node4" class="node">
<title>2</title>
<ellipse fill="none" stroke="black" cx="223.13" cy="-113" rx="20.13" ry="20.13"/>
<text text-anchor="middle" x="223.13" y="-107.95" font-family="Times New Roman,serif" font-size="14.00">q2</text>
</g>
<!-- 1&#45;&gt;2 -->
<g id="edge5" class="edge">
<title>1&#45;&gt;2</title>
<path fill="none" stroke="black" d="M158.88,-77.54C169.42,-83.45 183.18,-91.16 195.17,-97.89"/>
<polygon fill="black" stroke="black" points="193.37,-100.89 203.81,-102.73 196.8,-94.79 193.37,-100.89"/>
<text text-anchor="middle" x="181.99" y="-95.05" font-family="Times New Roman,serif" font-size="14.00">c</text>
</g>
<!-- 4 -->
<g id="node6" class="node">
<title>4</title>
<ellipse fill="none" stroke="black" cx="310.14" cy="-65" rx="20.13" ry="20.13"/>
<ellipse fill="none" stroke="black" cx="310.14" cy="-65" rx="24.13" ry="24.13"/>
<text text-anchor="middle" x="310.14" y="-59.95" font-family="Times New Roman,serif" font-size="14.00">q4</text>
</g>
<!-- 2&#45;&gt;4 -->
<g id="edge6" class="edge">
<title>2&#45;&gt;4</title>
<path fill="none" stroke="black" d="M240.92,-103.52C251.69,-97.44 265.98,-89.37 278.7,-82.18"/>
<polygon fill="black" stroke="black" points="280.16,-85.38 287.15,-77.41 276.72,-79.28 280.16,-85.38"/>
<text text-anchor="middle" x="264.63" y="-95.07" font-family="Times New Roman,serif" font-size="14.00">b</text>
</g>
<!-- 3&#45;&gt;4 -->
<g id="edge7" class="edge">
<title>3&#45;&gt;4</title>
<path fill="none" stroke="black" d="M376.9,-31.2C369.07,-31.09 360.04,-31.78 352.27,-34.5 347.09,-36.31 342.01,-39.02 337.29,-42.09"/>
<polygon fill="black" stroke="black" points="335.43,-39.12 329.41,-47.84 339.55,-44.78 335.43,-39.12"/>
<text text-anchor="middle" x="355.64" y="-37.7" font-family="Times New Roman,serif" font-size="14.00">c</text>
</g>
<!-- 4&#45;&gt;1 -->
<g id="edge8" class="edge">
<title>4&#45;&gt;1</title>
<path fill="none" stroke="black" d="M285.73,-65.42C256.15,-65.95 205.16,-66.86 172.51,-67.45"/>
<polygon fill="black" stroke="black" points="172.83,-63.94 162.89,-67.62 172.95,-70.94 172.83,-63.94"/>
<text text-anchor="middle" x="223.13" y="-70.1" font-family="Times New Roman,serif" font-size="14.00">a</text>
</g>
<!-- 4&#45;&gt;3 -->
<g id="edge9" class="edge">
<title>4&#45;&gt;3</title>
<path fill="none" stroke="black" d="M333.81,-59.21C341.86,-56.93 350.94,-54.12 359.02,-51 362.26,-49.75 365.6,-48.33 368.89,-46.85"/>
<polygon fill="black" stroke="black" points="370.13,-50.13 377.67,-42.68 367.13,-43.81 370.13,-50.13"/>
<text text-anchor="middle" x="355.64" y="-56.53" font-family="Times New Roman,serif" font-size="14.00">b</text>
</g>
</g>
</svg>
