<?xml version="1.0" encoding="UTF-8" standalone="no"?>
<!DOCTYPE svg PUBLIC "-//W3C//DTD SVG 1.1//EN"
 "http://www.w3.org/Graphics/SVG/1.1/DTD/svg11.dtd">
<!-- Generated by graphviz version 12.1.0 (20240811.2233)
 -->
<!-- Title: G Pages: 1 -->
<svg width="491pt" height="232pt"
 viewBox="0.00 0.00 490.72 231.50" xmlns="http://www.w3.org/2000/svg" xmlns:xlink="http://www.w3.org/1999/xlink">
<g id="graph0" class="graph" transform="scale(1 1) rotate(0) translate(4 227.5)">
<title>G</title>
<polygon fill="white" stroke="none" points="-4,4 -4,-227.5 486.72,-227.5 486.72,4 -4,4"/>
<!-- n__ -->
<g id="node1" class="node">
<title>n__</title>
</g>
<!-- 0 -->
<g id="node2" class="node">
<title>0</title>
<ellipse fill="none" stroke="black" cx="55.72" cy="-171" rx="18" ry="18"/>
</g>
<!-- n__&#45;&gt;0 -->
<g id="edge1" class="edge">
<title>n__&#45;&gt;0</title>
<path fill="none" stroke="black" d="M0.87,-171C2.34,-171 13.93,-171 25.99,-171"/>
<polygon fill="black" stroke="black" points="25.86,-174.5 35.86,-171 25.86,-167.5 25.86,-174.5"/>
</g>
<!-- 1 -->
<g id="node3" class="node">
<title>1</title>
<ellipse fill="none" stroke="black" cx="133.72" cy="-107" rx="18" ry="18"/>
</g>
<!-- 0&#45;&gt;1 -->
<g id="edge2" class="edge">
<title>0&#45;&gt;1</title>
<path fill="none" stroke="black" d="M69.96,-159.85C81.22,-150.37 97.63,-136.55 110.84,-125.42"/>
<polygon fill="black" stroke="black" points="112.83,-128.33 118.22,-119.21 108.32,-122.97 112.83,-128.33"/>
<text text-anchor="middle" x="94.72" y="-144.12" font-family="Times New Roman,serif" font-size="14.00">a</text>
</g>
<!-- 2 -->
<g id="node4" class="node">
<title>2</title>
<ellipse fill="none" stroke="black" cx="377.97" cy="-130" rx="18" ry="18"/>
</g>
<!-- 0&#45;&gt;2 -->
<g id="edge3" class="edge">
<title>0&#45;&gt;2</title>
<path fill="none" stroke="black" d="M70.37,-182C84.92,-192.58 109.07,-207 132.72,-207 132.72,-207 132.72,-207 296.22,-207 326.63,-207 350.1,-178.05 363.72,-155.66"/>
<polygon fill="black" stroke="black" points="366.59,-157.69 368.52,-147.27 360.51,-154.21 366.59,-157.69"/>
<text text-anchor="middle" x="212.47" y="-210.2" font-family="Times New Roman,serif" font-size="14.00">b</text>
</g>
<!-- 3 -->
<g id="node5" class="node">
<title>3</title>
<ellipse fill="none" stroke="black" cx="212.47" cy="-153" rx="18" ry="18"/>
</g>
<!-- 1&#45;&gt;3 -->
<g id="edge4" class="edge">
<title>1&#45;&gt;3</title>
<path fill="none" stroke="black" d="M150.46,-114.48C158.4,-118.4 168.09,-123.44 176.47,-128.5 180.36,-130.85 184.39,-133.47 188.27,-136.11"/>
<polygon fill="black" stroke="black" points="186.02,-138.81 196.22,-141.67 190.03,-133.07 186.02,-138.81"/>
<text text-anchor="middle" x="173.1" y="-131.7" font-family="Times New Roman,serif" font-size="14.00">b</text>
</g>
<!-- 4 -->
<g id="node6" class="node">
<title>4</title>
<ellipse fill="none" stroke="black" cx="212.47" cy="-99" rx="18" ry="18"/>
</g>
<!-- 1&#45;&gt;4 -->
<g id="edge5" class="edge">
<title>1&#45;&gt;4</title>
<path fill="none" stroke="black" d="M149.4,-97.2C155.43,-93.73 162.65,-90.25 169.72,-88.5 174.75,-87.25 180.12,-87.45 185.28,-88.41"/>
<polygon fill="black" stroke="black" points="183.98,-91.68 194.55,-91.02 185.88,-84.94 183.98,-91.68"/>
<text text-anchor="middle" x="173.1" y="-91.7" font-family="Times New Roman,serif" font-size="14.00">c</text>
</g>
<!-- 5 -->
<g id="node7" class="node">
<title>5</title>
<ellipse fill="none" stroke="black" cx="460.72" cy="-90" rx="18" ry="18"/>
<ellipse fill="none" stroke="black" cx="460.72" cy="-90" rx="22" ry="22"/>
</g>
<!-- 2&#45;&gt;5 -->
<g id="edge6" class="edge">
<title>2&#45;&gt;5</title>
<path fill="none" stroke="black" d="M388.31,-114.78C394.45,-106.28 403.31,-96.43 413.97,-91.5 418.07,-89.6 422.61,-88.48 427.19,-87.87"/>
<polygon fill="black" stroke="black" points="427.1,-91.38 436.91,-87.37 426.74,-84.39 427.1,-91.38"/>
<text text-anchor="middle" x="417.35" y="-94.7" font-family="Times New Roman,serif" font-size="14.00">c</text>
</g>
<!-- 3&#45;&gt;1 -->
<g id="edge7" class="edge">
<title>3&#45;&gt;1</title>
<path fill="none" stroke="black" d="M194.38,-152.17C186.47,-151.2 177.2,-149.16 169.72,-145 163.14,-141.34 157.11,-135.99 151.97,-130.45"/>
<polygon fill="black" stroke="black" points="154.79,-128.36 145.67,-122.97 149.44,-132.87 154.79,-128.36"/>
<text text-anchor="middle" x="173.1" y="-151.08" font-family="Times New Roman,serif" font-size="14.00">a</text>
</g>
<!-- 3&#45;&gt;2 -->
<g id="edge8" class="edge">
<title>3&#45;&gt;2</title>
<path fill="none" stroke="black" d="M230.52,-150.63C255.13,-147.2 302.04,-140.65 341.97,-135 344.16,-134.69 346.42,-134.37 348.7,-134.05"/>
<polygon fill="black" stroke="black" points="348.98,-137.54 358.38,-132.66 347.99,-130.61 348.98,-137.54"/>
<text text-anchor="middle" x="295.22" y="-147.77" font-family="Times New Roman,serif" font-size="14.00">b</text>
</g>
<!-- 6 -->
<g id="node8" class="node">
<title>6</title>
<ellipse fill="none" stroke="black" cx="295.22" cy="-95" rx="18" ry="18"/>
<ellipse fill="none" stroke="black" cx="295.22" cy="-95" rx="22" ry="22"/>
</g>
<!-- 4&#45;&gt;6 -->
<g id="edge9" class="edge">
<title>4&#45;&gt;6</title>
<path fill="none" stroke="black" d="M230.59,-98.15C239.54,-97.71 250.8,-97.15 261.35,-96.63"/>
<polygon fill="black" stroke="black" points="261.47,-100.13 271.29,-96.14 261.13,-93.14 261.47,-100.13"/>
<text text-anchor="middle" x="251.85" y="-100.44" font-family="Times New Roman,serif" font-size="14.00">b</text>
</g>
<!-- 5&#45;&gt;1 -->
<g id="edge10" class="edge">
<title>5&#45;&gt;1</title>
<path fill="none" stroke="black" d="M452.01,-69.58C440.5,-43.02 416.13,0 378.97,0 211.47,0 211.47,0 211.47,0 172.78,0 151.71,-46.75 141.86,-78.45"/>
<polygon fill="black" stroke="black" points="138.55,-77.3 139.15,-87.88 145.28,-79.23 138.55,-77.3"/>
<text text-anchor="middle" x="295.22" y="-3.2" font-family="Times New Roman,serif" font-size="14.00">a</text>
</g>
<!-- 5&#45;&gt;2 -->
<g id="edge11" class="edge">
<title>5&#45;&gt;2</title>
<path fill="none" stroke="black" d="M440.49,-99.52C429.74,-104.85 416.2,-111.56 404.56,-117.32"/>
<polygon fill="black" stroke="black" points="403.3,-114.04 395.9,-121.62 406.41,-120.31 403.3,-114.04"/>
<text text-anchor="middle" x="417.35" y="-115.59" font-family="Times New Roman,serif" font-size="14.00">b</text>
</g>
<!-- 6&#45;&gt;1 -->
<g id="edge12" class="edge">
<title>6&#45;&gt;1</title>
<path fill="none" stroke="black" d="M278.06,-80.89C258.4,-65.51 224.15,-44.47 194.47,-55.5 178.31,-61.5 163.59,-74.06 152.81,-85.27"/>
<polygon fill="black" stroke="black" points="150.52,-82.58 146.39,-92.33 155.7,-87.29 150.52,-82.58"/>
<text text-anchor="middle" x="212.47" y="-58.7" font-family="Times New Roman,serif" font-size="14.00">a</text>
</g>
<!-- 6&#45;&gt;2 -->
<g id="edge13" class="edge">
<title>6&#45;&gt;2</title>
<path fill="none" stroke="black" d="M315.77,-103.47C326.24,-108.01 339.28,-113.66 350.63,-118.58"/>
<polygon fill="black" stroke="black" points="348.9,-121.65 359.47,-122.42 351.69,-115.23 348.9,-121.65"/>
<text text-anchor="middle" x="338.6" y="-117.8" font-family="Times New Roman,serif" font-size="14.00">b</text>
</g>
</g>
</svg>
