<?xml version="1.0" encoding="UTF-8" standalone="no"?>
<!DOCTYPE svg PUBLIC "-//W3C//DTD SVG 1.1//EN"
 "http://www.w3.org/Graphics/SVG/1.1/DTD/svg11.dtd">
<!-- Generated by graphviz version 12.1.0 (20240811.2233)
 -->
<!-- Title: G Pages: 1 -->
<svg width="681pt" height="141pt"
 viewBox="0.00 0.00 680.82 140.63" xmlns="http://www.w3.org/2000/svg" xmlns:xlink="http://www.w3.org/1999/xlink">
<g id="graph0" class="graph" transform="scale(1 1) rotate(0) translate(4 136.63)">
<title>G</title>
<polygon fill="white" stroke="none" points="-4,4 -4,-136.63 676.82,-136.63 676.82,4 -4,4"/>
<!-- n__ -->
<g id="node1" class="node">
<title>n__</title>
</g>
<!-- 0 -->
<g id="node2" class="node">
<title>0</title>
<ellipse fill="none" stroke="black" cx="57.85" cy="-20.13" rx="20.13" ry="20.13"/>
<text text-anchor="middle" x="57.85" y="-15.08" font-family="Times New Roman,serif" font-size="14.00">q0</text>
</g>
<!-- n__&#45;&gt;0 -->
<g id="edge1" class="edge">
<title>n__&#45;&gt;0</title>
<path fill="none" stroke="black" d="M0.88,-20.13C2.37,-20.13 13.93,-20.13 26.16,-20.13"/>
<polygon fill="black" stroke="black" points="25.79,-23.63 35.79,-20.13 25.79,-16.63 25.79,-23.63"/>
</g>
<!-- 1 -->
<g id="node3" class="node">
<title>1</title>
<ellipse fill="none" stroke="black" cx="140.11" cy="-68.13" rx="20.13" ry="20.13"/>
<text text-anchor="middle" x="140.11" y="-63.08" font-family="Times New Roman,serif" font-size="14.00">q1</text>
</g>
<!-- 0&#45;&gt;1 -->
<g id="edge2" class="edge">
<title>0&#45;&gt;1</title>
<path fill="none" stroke="black" d="M75.48,-30.08C86.17,-36.47 100.3,-44.92 112.52,-52.23"/>
<polygon fill="black" stroke="black" points="110.55,-55.13 120.93,-57.26 114.14,-49.12 110.55,-55.13"/>
<text text-anchor="middle" x="98.98" y="-48.77" font-family="Times New Roman,serif" font-size="14.00">a</text>
</g>
<!-- 2 -->
<g id="node4" class="node">
<title>2</title>
<ellipse fill="none" stroke="black" cx="306.14" cy="-36.13" rx="20.13" ry="20.13"/>
<text text-anchor="middle" x="306.14" y="-31.08" font-family="Times New Roman,serif" font-size="14.00">q2</text>
</g>
<!-- 0&#45;&gt;2 -->
<g id="edge3" class="edge">
<title>0&#45;&gt;2</title>
<path fill="none" stroke="black" d="M78.34,-18.96C112.11,-17.26 183.6,-15.12 243.26,-23.13 253.74,-24.54 265.09,-26.73 275.17,-28.91"/>
<polygon fill="black" stroke="black" points="274.3,-32.3 284.83,-31.09 275.84,-25.47 274.3,-32.3"/>
<text text-anchor="middle" x="181.62" y="-21.37" font-family="Times New Roman,serif" font-size="14.00">b</text>
</g>
<!-- 3 -->
<g id="node5" class="node">
<title>3</title>
<ellipse fill="none" stroke="black" cx="223.13" cy="-52.13" rx="20.13" ry="20.13"/>
<text text-anchor="middle" x="223.13" y="-47.08" font-family="Times New Roman,serif" font-size="14.00">q3</text>
</g>
<!-- 1&#45;&gt;3 -->
<g id="edge4" class="edge">
<title>1&#45;&gt;3</title>
<path fill="none" stroke="black" d="M160.43,-66.03C168.11,-65.05 177.01,-63.75 184.99,-62.13 187.35,-61.66 189.77,-61.12 192.2,-60.54"/>
<polygon fill="black" stroke="black" points="193.06,-63.93 201.88,-58.06 191.32,-57.15 193.06,-63.93"/>
<text text-anchor="middle" x="181.62" y="-66.45" font-family="Times New Roman,serif" font-size="14.00">b</text>
</g>
<!-- 4 -->
<g id="node6" class="node">
<title>4</title>
<ellipse fill="none" stroke="black" cx="561.67" cy="-105.13" rx="20.13" ry="20.13"/>
<text text-anchor="middle" x="561.67" y="-100.08" font-family="Times New Roman,serif" font-size="14.00">q4</text>
</g>
<!-- 1&#45;&gt;4 -->
<g id="edge5" class="edge">
<title>1&#45;&gt;4</title>
<path fill="none" stroke="black" d="M154.87,-82.53C169.92,-96.67 195.48,-116.13 222.13,-116.13 222.13,-116.13 222.13,-116.13 480.41,-116.13 497.06,-116.13 515.47,-113.78 530.45,-111.25"/>
<polygon fill="black" stroke="black" points="530.93,-114.72 540.15,-109.5 529.69,-107.83 530.93,-114.72"/>
<text text-anchor="middle" x="347.64" y="-119.33" font-family="Times New Roman,serif" font-size="14.00">c</text>
</g>
<!-- 5 -->
<g id="node7" class="node">
<title>5</title>
<ellipse fill="none" stroke="black" cx="393.15" cy="-61.13" rx="20.13" ry="20.13"/>
<ellipse fill="none" stroke="black" cx="393.15" cy="-61.13" rx="24.13" ry="24.13"/>
<text text-anchor="middle" x="393.15" y="-56.08" font-family="Times New Roman,serif" font-size="14.00">q5</text>
</g>
<!-- 2&#45;&gt;5 -->
<g id="edge6" class="edge">
<title>2&#45;&gt;5</title>
<path fill="none" stroke="black" d="M324.07,-45.69C330.26,-48.82 337.42,-52.03 344.27,-54.13 348.57,-55.45 353.17,-56.53 357.76,-57.4"/>
<polygon fill="black" stroke="black" points="357.02,-60.83 367.45,-58.95 358.12,-53.92 357.02,-60.83"/>
<text text-anchor="middle" x="347.64" y="-59.06" font-family="Times New Roman,serif" font-size="14.00">c</text>
</g>
<!-- 3&#45;&gt;1 -->
<g id="edge7" class="edge">
<title>3&#45;&gt;1</title>
<path fill="none" stroke="black" d="M204.45,-43.51C196.38,-40.69 186.75,-38.91 178.24,-41.63 173.58,-43.13 169,-45.45 164.73,-48.11"/>
<polygon fill="black" stroke="black" points="162.82,-45.17 156.71,-53.82 166.88,-50.87 162.82,-45.17"/>
<text text-anchor="middle" x="181.62" y="-44.83" font-family="Times New Roman,serif" font-size="14.00">a</text>
</g>
<!-- 3&#45;&gt;2 -->
<g id="edge8" class="edge">
<title>3&#45;&gt;2</title>
<path fill="none" stroke="black" d="M243.32,-48.34C252.81,-46.47 264.47,-44.16 275.1,-42.06"/>
<polygon fill="black" stroke="black" points="275.46,-45.56 284.59,-40.19 274.1,-38.69 275.46,-45.56"/>
<text text-anchor="middle" x="264.63" y="-47.81" font-family="Times New Roman,serif" font-size="14.00">b</text>
</g>
<!-- 6 -->
<g id="node8" class="node">
<title>6</title>
<ellipse fill="none" stroke="black" cx="648.69" cy="-50.13" rx="20.13" ry="20.13"/>
<ellipse fill="none" stroke="black" cx="648.69" cy="-50.13" rx="24.13" ry="24.13"/>
<text text-anchor="middle" x="648.69" y="-45.08" font-family="Times New Roman,serif" font-size="14.00">q6</text>
</g>
<!-- 4&#45;&gt;6 -->
<g id="edge9" class="edge">
<title>4&#45;&gt;6</title>
<path fill="none" stroke="black" d="M579.07,-94.53C590.14,-87.36 605.07,-77.7 618.18,-69.22"/>
<polygon fill="black" stroke="black" points="619.99,-72.22 626.48,-63.85 616.19,-66.34 619.99,-72.22"/>
<text text-anchor="middle" x="603.18" y="-84.12" font-family="Times New Roman,serif" font-size="14.00">b</text>
</g>
<!-- 5&#45;&gt;2 -->
<g id="edge11" class="edge">
<title>5&#45;&gt;2</title>
<path fill="none" stroke="black" d="M374.1,-45.72C367.31,-40.87 359.24,-36.13 351.02,-33.63 346.71,-32.32 342.05,-31.75 337.43,-31.65"/>
<polygon fill="black" stroke="black" points="337.6,-28.13 327.78,-32.12 337.94,-35.12 337.6,-28.13"/>
<text text-anchor="middle" x="347.64" y="-36.83" font-family="Times New Roman,serif" font-size="14.00">b</text>
</g>
<!-- 7 -->
<g id="node9" class="node">
<title>7</title>
<ellipse fill="none" stroke="black" cx="479.41" cy="-61.13" rx="20.13" ry="20.13"/>
<text text-anchor="middle" x="479.41" y="-56.08" font-family="Times New Roman,serif" font-size="14.00">q7</text>
</g>
<!-- 5&#45;&gt;7 -->
<g id="edge10" class="edge">
<title>5&#45;&gt;7</title>
<path fill="none" stroke="black" d="M417.62,-61.13C426.9,-61.13 437.69,-61.13 447.58,-61.13"/>
<polygon fill="black" stroke="black" points="447.53,-64.63 457.53,-61.13 447.53,-57.63 447.53,-64.63"/>
<text text-anchor="middle" x="438.28" y="-64.33" font-family="Times New Roman,serif" font-size="14.00">a</text>
</g>
<!-- 6&#45;&gt;2 -->
<g id="edge13" class="edge">
<title>6&#45;&gt;2</title>
<path fill="none" stroke="black" d="M630.64,-33.96C614.47,-20.36 588.81,-3.13 562.67,-3.13 392.15,-3.13 392.15,-3.13 392.15,-3.13 371.5,-3.13 349.82,-11.7 333.53,-20.1"/>
<polygon fill="black" stroke="black" points="332.08,-16.91 324.99,-24.78 335.44,-23.04 332.08,-16.91"/>
<text text-anchor="middle" x="479.41" y="-6.33" font-family="Times New Roman,serif" font-size="14.00">b</text>
</g>
<!-- 6&#45;&gt;7 -->
<g id="edge12" class="edge">
<title>6&#45;&gt;7</title>
<path fill="none" stroke="black" d="M624.28,-51.67C594.7,-53.62 543.71,-56.97 511.06,-59.12"/>
<polygon fill="black" stroke="black" points="511.19,-55.6 501.44,-59.75 511.65,-62.58 511.19,-55.6"/>
<text text-anchor="middle" x="561.67" y="-60.28" font-family="Times New Roman,serif" font-size="14.00">a</text>
</g>
<!-- 7&#45;&gt;4 -->
<g id="edge14" class="edge">
<title>7&#45;&gt;4</title>
<path fill="none" stroke="black" d="M497.43,-70.46C507.9,-76.2 521.54,-83.68 533.48,-90.22"/>
<polygon fill="black" stroke="black" points="531.62,-93.2 542.07,-94.93 534.99,-87.06 531.62,-93.2"/>
<text text-anchor="middle" x="520.54" y="-87.65" font-family="Times New Roman,serif" font-size="14.00">c</text>
</g>
</g>
</svg>
