<?xml version="1.0" encoding="UTF-8" standalone="no"?>
<!DOCTYPE svg PUBLIC "-//W3C//DTD SVG 1.1//EN"
 "http://www.w3.org/Graphics/SVG/1.1/DTD/svg11.dtd">
<!-- Generated by graphviz version 12.1.1 (20240910.0053)
 -->
<!-- Title: G Pages: 1 -->
<svg width="608pt" height="300pt"
 viewBox="0.00 0.00 608.06 299.66" xmlns="http://www.w3.org/2000/svg" xmlns:xlink="http://www.w3.org/1999/xlink">
<g id="graph0" class="graph" transform="scale(1 1) rotate(0) translate(4 295.66)">
<title>G</title>
<polygon fill="white" stroke="none" points="-4,4 -4,-295.66 604.06,-295.66 604.06,4 -4,4"/>
<!-- n__ -->
<g id="node1" class="node">
<title>n__</title>
</g>
<!-- 0 -->
<g id="node2" class="node">
<title>0</title>
<ellipse fill="none" stroke="black" cx="61.85" cy="-72.13" rx="20.13" ry="20.13"/>
<ellipse fill="none" stroke="black" cx="61.85" cy="-72.13" rx="24.13" ry="24.13"/>
<text text-anchor="middle" x="61.85" y="-67.08" font-family="Times New Roman,serif" font-size="14.00">q0</text>
</g>
<!-- n__&#45;&gt;0 -->
<g id="edge1" class="edge">
<title>n__&#45;&gt;0</title>
<path fill="none" stroke="black" d="M0.76,-72.13C1.56,-72.13 13.19,-72.13 26.01,-72.13"/>
<polygon fill="black" stroke="black" points="25.83,-75.63 35.83,-72.13 25.83,-68.63 25.83,-75.63"/>
</g>
<!-- 1 -->
<g id="node3" class="node">
<title>1</title>
<ellipse fill="none" stroke="black" cx="152.86" cy="-24.13" rx="20.13" ry="20.13"/>
<ellipse fill="none" stroke="black" cx="152.86" cy="-24.13" rx="24.13" ry="24.13"/>
<text text-anchor="middle" x="152.86" y="-19.08" font-family="Times New Roman,serif" font-size="14.00">q1</text>
</g>
<!-- 0&#45;&gt;1 -->
<g id="edge2" class="edge">
<title>0&#45;&gt;1</title>
<path fill="none" stroke="black" d="M83.5,-61C94.65,-54.98 108.64,-47.44 121.06,-40.74"/>
<polygon fill="black" stroke="black" points="122.55,-43.92 129.69,-36.09 119.23,-37.75 122.55,-43.92"/>
<text text-anchor="middle" x="107.36" y="-52.77" font-family="Times New Roman,serif" font-size="14.00">0</text>
</g>
<!-- 2 -->
<g id="node4" class="node">
<title>2</title>
<ellipse fill="none" stroke="black" cx="239.88" cy="-109.13" rx="20.13" ry="20.13"/>
<text text-anchor="middle" x="239.88" y="-104.08" font-family="Times New Roman,serif" font-size="14.00">q2</text>
</g>
<!-- 0&#45;&gt;2 -->
<g id="edge3" class="edge">
<title>0&#45;&gt;2</title>
<path fill="none" stroke="black" d="M85.2,-79.78C97.86,-83.89 114.05,-88.79 128.73,-92.13 155.31,-98.19 186,-102.73 208.22,-105.58"/>
<polygon fill="black" stroke="black" points="207.76,-109.05 218.12,-106.81 208.62,-102.11 207.76,-109.05"/>
<text text-anchor="middle" x="152.86" y="-104.12" font-family="Times New Roman,serif" font-size="14.00">1</text>
</g>
<!-- 1&#45;&gt;1 -->
<g id="edge4" class="edge">
<title>1&#45;&gt;1</title>
<path fill="none" stroke="black" d="M144.46,-47.1C143.66,-57.38 146.46,-66.26 152.86,-66.26 156.66,-66.26 159.19,-63.13 160.46,-58.43"/>
<polygon fill="black" stroke="black" points="163.94,-58.83 161.15,-48.61 156.95,-58.34 163.94,-58.83"/>
<text text-anchor="middle" x="152.86" y="-69.46" font-family="Times New Roman,serif" font-size="14.00">0</text>
</g>
<!-- 1&#45;&gt;2 -->
<g id="edge5" class="edge">
<title>1&#45;&gt;2</title>
<path fill="none" stroke="black" d="M170.66,-40.92C183.93,-54.19 202.55,-72.81 216.98,-87.24"/>
<polygon fill="black" stroke="black" points="214.31,-89.52 223.86,-94.11 219.26,-84.57 214.31,-89.52"/>
<text text-anchor="middle" x="198.37" y="-74.92" font-family="Times New Roman,serif" font-size="14.00">1</text>
</g>
<!-- 3 -->
<g id="node5" class="node">
<title>3</title>
<ellipse fill="none" stroke="black" cx="322.89" cy="-157.13" rx="20.13" ry="20.13"/>
<text text-anchor="middle" x="322.89" y="-152.08" font-family="Times New Roman,serif" font-size="14.00">q3</text>
</g>
<!-- 2&#45;&gt;3 -->
<g id="edge6" class="edge">
<title>2&#45;&gt;3</title>
<path fill="none" stroke="black" d="M257.66,-119.08C268.52,-125.51 282.9,-134.03 295.3,-141.38"/>
<polygon fill="black" stroke="black" points="293.43,-144.34 303.82,-146.43 297,-138.32 293.43,-144.34"/>
<text text-anchor="middle" x="281.38" y="-137.77" font-family="Times New Roman,serif" font-size="14.00">0</text>
</g>
<!-- 4 -->
<g id="node6" class="node">
<title>4</title>
<ellipse fill="none" stroke="black" cx="492.91" cy="-82.13" rx="20.13" ry="20.13"/>
<ellipse fill="none" stroke="black" cx="492.91" cy="-82.13" rx="24.13" ry="24.13"/>
<text text-anchor="middle" x="492.91" y="-77.08" font-family="Times New Roman,serif" font-size="14.00">q4</text>
</g>
<!-- 2&#45;&gt;4 -->
<g id="edge7" class="edge">
<title>2&#45;&gt;4</title>
<path fill="none" stroke="black" d="M260.16,-107.06C302.43,-102.51 403.73,-91.62 457.32,-85.85"/>
<polygon fill="black" stroke="black" points="457.54,-89.35 467.11,-84.8 456.79,-82.39 457.54,-89.35"/>
<text text-anchor="middle" x="364.39" y="-99.14" font-family="Times New Roman,serif" font-size="14.00">1</text>
</g>
<!-- 5 -->
<g id="node7" class="node">
<title>5</title>
<ellipse fill="none" stroke="black" cx="405.9" cy="-227.13" rx="20.13" ry="20.13"/>
<text text-anchor="middle" x="405.9" y="-222.08" font-family="Times New Roman,serif" font-size="14.00">q5</text>
</g>
<!-- 3&#45;&gt;5 -->
<g id="edge8" class="edge">
<title>3&#45;&gt;5</title>
<path fill="none" stroke="black" d="M338.75,-169.97C350.74,-180.33 367.82,-195.09 381.63,-207.02"/>
<polygon fill="black" stroke="black" points="379.14,-209.49 388.99,-213.38 383.71,-204.2 379.14,-209.49"/>
<text text-anchor="middle" x="364.39" y="-197.43" font-family="Times New Roman,serif" font-size="14.00">0</text>
</g>
<!-- 6 -->
<g id="node8" class="node">
<title>6</title>
<ellipse fill="none" stroke="black" cx="579.92" cy="-235.13" rx="20.13" ry="20.13"/>
<text text-anchor="middle" x="579.92" y="-230.08" font-family="Times New Roman,serif" font-size="14.00">q6</text>
</g>
<!-- 3&#45;&gt;6 -->
<g id="edge9" class="edge">
<title>3&#45;&gt;6</title>
<path fill="none" stroke="black" d="M342.44,-150.78C367.6,-143.17 413.65,-132.84 450.78,-144.63 492.9,-158.01 533.11,-190.79 556.91,-213"/>
<polygon fill="black" stroke="black" points="554.46,-215.5 564.1,-219.88 559.3,-210.44 554.46,-215.5"/>
<text text-anchor="middle" x="447.41" y="-147.83" font-family="Times New Roman,serif" font-size="14.00">1</text>
</g>
<!-- 4&#45;&gt;1 -->
<g id="edge10" class="edge">
<title>4&#45;&gt;1</title>
<path fill="none" stroke="black" d="M477.07,-63.78C461.55,-46.79 435.49,-24.13 406.9,-24.13 238.88,-24.13 238.88,-24.13 238.88,-24.13 222.29,-24.13 203.89,-24.13 188.46,-24.13"/>
<polygon fill="black" stroke="black" points="188.83,-20.63 178.83,-24.13 188.83,-27.63 188.83,-20.63"/>
<text text-anchor="middle" x="322.89" y="-27.33" font-family="Times New Roman,serif" font-size="14.00">0</text>
</g>
<!-- 4&#45;&gt;2 -->
<g id="edge11" class="edge">
<title>4&#45;&gt;2</title>
<path fill="none" stroke="black" d="M468.63,-78.39C442.37,-74.76 398.44,-70.51 361.02,-75.63 329.31,-79.97 294.16,-90.47 270.12,-98.56"/>
<polygon fill="black" stroke="black" points="269.01,-95.24 260.7,-101.81 271.3,-101.86 269.01,-95.24"/>
<text text-anchor="middle" x="364.39" y="-78.83" font-family="Times New Roman,serif" font-size="14.00">1</text>
</g>
<!-- 5&#45;&gt;4 -->
<g id="edge13" class="edge">
<title>5&#45;&gt;4</title>
<path fill="none" stroke="black" d="M418.97,-211.53C428.21,-199.26 440.98,-181.55 450.78,-165.13 460.49,-148.86 469.97,-129.99 477.38,-114.35"/>
<polygon fill="black" stroke="black" points="480.46,-116.03 481.52,-105.49 474.12,-113.07 480.46,-116.03"/>
<text text-anchor="middle" x="447.41" y="-178.88" font-family="Times New Roman,serif" font-size="14.00">1</text>
</g>
<!-- 7 -->
<g id="node9" class="node">
<title>7</title>
<ellipse fill="none" stroke="black" cx="492.91" cy="-235.13" rx="20.13" ry="20.13"/>
<text text-anchor="middle" x="492.91" y="-230.08" font-family="Times New Roman,serif" font-size="14.00">q7</text>
</g>
<!-- 5&#45;&gt;7 -->
<g id="edge12" class="edge">
<title>5&#45;&gt;7</title>
<path fill="none" stroke="black" d="M426.16,-227.28C433.83,-227.47 442.74,-227.86 450.78,-228.63 454.27,-228.96 457.91,-229.41 461.52,-229.9"/>
<polygon fill="black" stroke="black" points="460.82,-233.33 471.23,-231.37 461.86,-226.41 460.82,-233.33"/>
<text text-anchor="middle" x="447.41" y="-231.83" font-family="Times New Roman,serif" font-size="14.00">0</text>
</g>
<!-- 6&#45;&gt;5 -->
<g id="edge14" class="edge">
<title>6&#45;&gt;5</title>
<path fill="none" stroke="black" d="M562.29,-245.49C556.01,-249.14 548.71,-253.09 541.79,-256.13 501.8,-273.69 484.17,-283.34 444.03,-266.13 436.87,-263.06 430.44,-257.86 425.02,-252.24"/>
<polygon fill="black" stroke="black" points="428,-250.34 418.83,-245.05 422.7,-254.91 428,-250.34"/>
<text text-anchor="middle" x="492.91" y="-278.36" font-family="Times New Roman,serif" font-size="14.00">0</text>
</g>
<!-- 6&#45;&gt;6 -->
<g id="edge15" class="edge">
<title>6&#45;&gt;6</title>
<path fill="none" stroke="black" d="M572.46,-253.97C571.2,-264.06 573.68,-273.26 579.92,-273.26 583.63,-273.26 586.01,-270.02 587.07,-265.27"/>
<polygon fill="black" stroke="black" points="590.56,-265.57 587.34,-255.48 583.57,-265.38 590.56,-265.57"/>
<text text-anchor="middle" x="579.92" y="-276.46" font-family="Times New Roman,serif" font-size="14.00">1</text>
</g>
<!-- 7&#45;&gt;5 -->
<g id="edge16" class="edge">
<title>7&#45;&gt;5</title>
<path fill="none" stroke="black" d="M474.14,-242.53C465.1,-245.36 453.96,-247.41 444.03,-245.13 440.65,-244.35 437.22,-243.23 433.88,-241.91"/>
<polygon fill="black" stroke="black" points="435.61,-238.85 425.06,-237.88 432.7,-245.22 435.61,-238.85"/>
<text text-anchor="middle" x="447.41" y="-249.23" font-family="Times New Roman,serif" font-size="14.00">0</text>
</g>
<!-- 7&#45;&gt;6 -->
<g id="edge17" class="edge">
<title>7&#45;&gt;6</title>
<path fill="none" stroke="black" d="M513.2,-235.13C523.46,-235.13 536.31,-235.13 547.92,-235.13"/>
<polygon fill="black" stroke="black" points="547.9,-238.63 557.9,-235.13 547.9,-231.63 547.9,-238.63"/>
<text text-anchor="middle" x="538.42" y="-238.33" font-family="Times New Roman,serif" font-size="14.00">1</text>
</g>
</g>
</svg>
