<?xml version="1.0" encoding="UTF-8" standalone="no"?>
<!DOCTYPE svg PUBLIC "-//W3C//DTD SVG 1.1//EN"
 "http://www.w3.org/Graphics/SVG/1.1/DTD/svg11.dtd">
<!-- Generated by graphviz version 12.1.0 (20240811.2233)
 -->
<!-- Title: G Pages: 1 -->
<svg width="707pt" height="342pt"
 viewBox="0.00 0.00 707.07 341.85" xmlns="http://www.w3.org/2000/svg" xmlns:xlink="http://www.w3.org/1999/xlink">
<g id="graph0" class="graph" transform="scale(1 1) rotate(0) translate(4 337.85)">
<title>G</title>
<polygon fill="white" stroke="none" points="-4,4 -4,-337.85 703.07,-337.85 703.07,4 -4,4"/>
<!-- n__ -->
<g id="node1" class="node">
<title>n__</title>
</g>
<!-- 0 -->
<g id="node2" class="node">
<title>0</title>
<ellipse fill="none" stroke="black" cx="57.85" cy="-279.22" rx="20.13" ry="20.13"/>
<text text-anchor="middle" x="57.85" y="-274.17" font-family="Times New Roman,serif" font-size="14.00">q0</text>
</g>
<!-- n__&#45;&gt;0 -->
<g id="edge1" class="edge">
<title>n__&#45;&gt;0</title>
<path fill="none" stroke="black" d="M0.88,-279.22C2.37,-279.22 13.93,-279.22 26.16,-279.22"/>
<polygon fill="black" stroke="black" points="25.79,-282.72 35.79,-279.22 25.79,-275.72 25.79,-282.72"/>
</g>
<!-- 1 -->
<g id="node3" class="node">
<title>1</title>
<ellipse fill="none" stroke="black" cx="140.86" cy="-243.22" rx="20.13" ry="20.13"/>
<text text-anchor="middle" x="140.86" y="-238.17" font-family="Times New Roman,serif" font-size="14.00">q1</text>
</g>
<!-- 0&#45;&gt;1 -->
<g id="edge2" class="edge">
<title>0&#45;&gt;1</title>
<path fill="none" stroke="black" d="M76.83,-271.23C87,-266.71 99.96,-260.95 111.47,-255.83"/>
<polygon fill="black" stroke="black" points="112.83,-259.06 120.55,-251.8 109.99,-252.66 112.83,-259.06"/>
<text text-anchor="middle" x="99.36" y="-265.5" font-family="Times New Roman,serif" font-size="14.00">0</text>
</g>
<!-- 2 -->
<g id="node4" class="node">
<title>2</title>
<ellipse fill="none" stroke="black" cx="223.88" cy="-279.22" rx="20.13" ry="20.13"/>
<text text-anchor="middle" x="223.88" y="-274.17" font-family="Times New Roman,serif" font-size="14.00">q2</text>
</g>
<!-- 0&#45;&gt;2 -->
<g id="edge3" class="edge">
<title>0&#45;&gt;2</title>
<path fill="none" stroke="black" d="M78.09,-281.69C83.84,-282.32 90.16,-282.9 95.98,-283.22 135.82,-285.36 145.91,-285.36 185.74,-283.22 187.93,-283.1 190.18,-282.94 192.45,-282.76"/>
<polygon fill="black" stroke="black" points="192.51,-286.27 202.13,-281.83 191.84,-279.3 192.51,-286.27"/>
<text text-anchor="middle" x="140.86" y="-288.02" font-family="Times New Roman,serif" font-size="14.00">1</text>
</g>
<!-- 1&#45;&gt;2 -->
<g id="edge5" class="edge">
<title>1&#45;&gt;2</title>
<path fill="none" stroke="black" d="M159.84,-251.21C170.02,-255.73 182.97,-261.48 194.48,-266.6"/>
<polygon fill="black" stroke="black" points="193,-269.77 203.56,-270.63 195.85,-263.37 193,-269.77"/>
<text text-anchor="middle" x="182.37" y="-265.5" font-family="Times New Roman,serif" font-size="14.00">1</text>
</g>
<!-- 3 -->
<g id="node5" class="node">
<title>3</title>
<ellipse fill="none" stroke="black" cx="223.88" cy="-186.22" rx="20.13" ry="20.13"/>
<text text-anchor="middle" x="223.88" y="-181.17" font-family="Times New Roman,serif" font-size="14.00">q3</text>
</g>
<!-- 1&#45;&gt;3 -->
<g id="edge4" class="edge">
<title>1&#45;&gt;3</title>
<path fill="none" stroke="black" d="M157.87,-231.95C169.19,-223.99 184.59,-213.15 197.56,-204.02"/>
<polygon fill="black" stroke="black" points="199.5,-206.94 205.67,-198.32 195.47,-201.22 199.5,-206.94"/>
<text text-anchor="middle" x="182.37" y="-219.63" font-family="Times New Roman,serif" font-size="14.00">0</text>
</g>
<!-- 2&#45;&gt;1 -->
<g id="edge6" class="edge">
<title>2&#45;&gt;1</title>
<path fill="none" stroke="black" d="M212.3,-262.64C205.79,-254.07 196.63,-244.42 185.74,-239.72 181.33,-237.8 176.42,-237.05 171.54,-236.99"/>
<polygon fill="black" stroke="black" points="171.62,-233.47 161.95,-237.79 172.2,-240.45 171.62,-233.47"/>
<text text-anchor="middle" x="182.37" y="-242.92" font-family="Times New Roman,serif" font-size="14.00">0</text>
</g>
<!-- 2&#45;&gt;2 -->
<g id="edge7" class="edge">
<title>2&#45;&gt;2</title>
<path fill="none" stroke="black" d="M216.41,-298.05C215.15,-308.15 217.63,-317.35 223.88,-317.35 227.58,-317.35 229.96,-314.1 231.02,-309.36"/>
<polygon fill="black" stroke="black" points="234.52,-309.66 231.29,-299.56 227.52,-309.46 234.52,-309.66"/>
<text text-anchor="middle" x="223.88" y="-320.55" font-family="Times New Roman,serif" font-size="14.00">1</text>
</g>
<!-- 3&#45;&gt;3 -->
<g id="edge8" class="edge">
<title>3&#45;&gt;3</title>
<path fill="none" stroke="black" d="M216.41,-205.05C215.15,-215.15 217.63,-224.35 223.88,-224.35 227.58,-224.35 229.96,-221.1 231.02,-216.36"/>
<polygon fill="black" stroke="black" points="234.52,-216.66 231.29,-206.56 227.52,-216.46 234.52,-216.66"/>
<text text-anchor="middle" x="223.88" y="-227.55" font-family="Times New Roman,serif" font-size="14.00">0</text>
</g>
<!-- 4 -->
<g id="node6" class="node">
<title>4</title>
<ellipse fill="none" stroke="black" cx="310.89" cy="-186.22" rx="20.13" ry="20.13"/>
<ellipse fill="none" stroke="black" cx="310.89" cy="-186.22" rx="24.13" ry="24.13"/>
<text text-anchor="middle" x="310.89" y="-181.17" font-family="Times New Roman,serif" font-size="14.00">q4</text>
</g>
<!-- 3&#45;&gt;4 -->
<g id="edge9" class="edge">
<title>3&#45;&gt;4</title>
<path fill="none" stroke="black" d="M244.17,-186.22C253.28,-186.22 264.44,-186.22 274.97,-186.22"/>
<polygon fill="black" stroke="black" points="274.92,-189.72 284.92,-186.22 274.92,-182.72 274.92,-189.72"/>
<text text-anchor="middle" x="265.38" y="-189.42" font-family="Times New Roman,serif" font-size="14.00">1</text>
</g>
<!-- 5 -->
<g id="node7" class="node">
<title>5</title>
<ellipse fill="none" stroke="black" cx="401.9" cy="-143.22" rx="20.13" ry="20.13"/>
<ellipse fill="none" stroke="black" cx="401.9" cy="-143.22" rx="24.13" ry="24.13"/>
<text text-anchor="middle" x="401.9" y="-138.17" font-family="Times New Roman,serif" font-size="14.00">q5</text>
</g>
<!-- 4&#45;&gt;5 -->
<g id="edge10" class="edge">
<title>4&#45;&gt;5</title>
<path fill="none" stroke="black" d="M332.98,-176.03C343.88,-170.76 357.39,-164.24 369.48,-158.39"/>
<polygon fill="black" stroke="black" points="370.8,-161.64 378.29,-154.14 367.76,-155.34 370.8,-161.64"/>
<text text-anchor="middle" x="356.39" y="-169.21" font-family="Times New Roman,serif" font-size="14.00">0</text>
</g>
<!-- 6 -->
<g id="node8" class="node">
<title>6</title>
<ellipse fill="none" stroke="black" cx="674.94" cy="-163.22" rx="20.13" ry="20.13"/>
<ellipse fill="none" stroke="black" cx="674.94" cy="-163.22" rx="24.13" ry="24.13"/>
<text text-anchor="middle" x="674.94" y="-158.17" font-family="Times New Roman,serif" font-size="14.00">q6</text>
</g>
<!-- 4&#45;&gt;6 -->
<g id="edge11" class="edge">
<title>4&#45;&gt;6</title>
<path fill="none" stroke="black" d="M330.1,-201.01C347.28,-213.45 374.3,-229.22 400.9,-229.22 400.9,-229.22 400.9,-229.22 584.92,-229.22 612.04,-229.22 636.28,-209.21 652.59,-191.23"/>
<polygon fill="black" stroke="black" points="655.1,-193.68 658.95,-183.81 649.78,-189.12 655.1,-193.68"/>
<text text-anchor="middle" x="492.91" y="-232.42" font-family="Times New Roman,serif" font-size="14.00">1</text>
</g>
<!-- 5&#45;&gt;6 -->
<g id="edge13" class="edge">
<title>5&#45;&gt;6</title>
<path fill="none" stroke="black" d="M424.79,-151.95C430.92,-154.04 437.66,-156.02 444.03,-157.22 512.29,-170.06 593.94,-168.22 639.26,-165.72"/>
<polygon fill="black" stroke="black" points="639.23,-169.23 649,-165.14 638.81,-162.24 639.23,-169.23"/>
<text text-anchor="middle" x="538.42" y="-170.13" font-family="Times New Roman,serif" font-size="14.00">1</text>
</g>
<!-- 7 -->
<g id="node9" class="node">
<title>7</title>
<ellipse fill="none" stroke="black" cx="492.91" cy="-56.22" rx="20.13" ry="20.13"/>
<ellipse fill="none" stroke="black" cx="492.91" cy="-56.22" rx="24.13" ry="24.13"/>
<text text-anchor="middle" x="492.91" y="-51.17" font-family="Times New Roman,serif" font-size="14.00">q7</text>
</g>
<!-- 5&#45;&gt;7 -->
<g id="edge12" class="edge">
<title>5&#45;&gt;7</title>
<path fill="none" stroke="black" d="M419.64,-126.85C432.99,-113.81 451.87,-95.35 466.99,-80.58"/>
<polygon fill="black" stroke="black" points="469.15,-83.35 473.86,-73.86 464.26,-78.35 469.15,-83.35"/>
<text text-anchor="middle" x="447.41" y="-105.52" font-family="Times New Roman,serif" font-size="14.00">0</text>
</g>
<!-- 6&#45;&gt;5 -->
<g id="edge14" class="edge">
<title>6&#45;&gt;5</title>
<path fill="none" stroke="black" d="M650.61,-159.59C624.27,-155.67 580.07,-149.58 541.79,-146.72 506.43,-144.07 465.89,-143.31 437.77,-143.14"/>
<polygon fill="black" stroke="black" points="438.05,-139.64 428.04,-143.11 438.03,-146.64 438.05,-139.64"/>
<text text-anchor="middle" x="538.42" y="-149.92" font-family="Times New Roman,serif" font-size="14.00">0</text>
</g>
<!-- 6&#45;&gt;6 -->
<g id="edge15" class="edge">
<title>6&#45;&gt;6</title>
<path fill="none" stroke="black" d="M666.54,-186.18C665.74,-196.46 668.54,-205.35 674.94,-205.35 678.74,-205.35 681.27,-202.21 682.53,-197.52"/>
<polygon fill="black" stroke="black" points="686.01,-197.92 683.23,-187.69 679.03,-197.42 686.01,-197.92"/>
<text text-anchor="middle" x="674.94" y="-208.55" font-family="Times New Roman,serif" font-size="14.00">1</text>
</g>
<!-- 7&#45;&gt;7 -->
<g id="edge16" class="edge">
<title>7&#45;&gt;7</title>
<path fill="none" stroke="black" d="M484.51,-79.18C483.71,-89.46 486.51,-98.35 492.91,-98.35 496.71,-98.35 499.24,-95.21 500.5,-90.52"/>
<polygon fill="black" stroke="black" points="503.98,-90.92 501.2,-80.69 497,-90.42 503.98,-90.92"/>
<text text-anchor="middle" x="492.91" y="-101.55" font-family="Times New Roman,serif" font-size="14.00">0</text>
</g>
<!-- 8 -->
<g id="node10" class="node">
<title>8</title>
<ellipse fill="none" stroke="black" cx="583.92" cy="-56.22" rx="20.13" ry="20.13"/>
<ellipse fill="none" stroke="black" cx="583.92" cy="-56.22" rx="24.13" ry="24.13"/>
<text text-anchor="middle" x="583.92" y="-51.17" font-family="Times New Roman,serif" font-size="14.00">q8</text>
</g>
<!-- 7&#45;&gt;8 -->
<g id="edge17" class="edge">
<title>7&#45;&gt;8</title>
<path fill="none" stroke="black" d="M517.3,-56.22C526.73,-56.22 537.81,-56.22 548.15,-56.22"/>
<polygon fill="black" stroke="black" points="547.87,-59.72 557.87,-56.22 547.87,-52.72 547.87,-59.72"/>
<text text-anchor="middle" x="538.42" y="-59.42" font-family="Times New Roman,serif" font-size="14.00">1</text>
</g>
<!-- 8&#45;&gt;5 -->
<g id="edge18" class="edge">
<title>8&#45;&gt;5</title>
<path fill="none" stroke="black" d="M566.27,-39.18C543.33,-17.83 501.16,13.61 468.78,-6.72 433.59,-28.8 416.75,-75.57 409.01,-108.17"/>
<polygon fill="black" stroke="black" points="405.67,-107.05 406.96,-117.57 412.51,-108.54 405.67,-107.05"/>
<text text-anchor="middle" x="492.91" y="-9.92" font-family="Times New Roman,serif" font-size="14.00">0</text>
</g>
<!-- 8&#45;&gt;6 -->
<g id="edge19" class="edge">
<title>8&#45;&gt;6</title>
<path fill="none" stroke="black" d="M600.32,-74.21C609.76,-85.27 622.04,-99.76 632.81,-112.72 639.07,-120.26 645.82,-128.49 651.99,-136.07"/>
<polygon fill="black" stroke="black" points="649.2,-138.18 658.22,-143.74 654.63,-133.77 649.2,-138.18"/>
<text text-anchor="middle" x="629.43" y="-115.92" font-family="Times New Roman,serif" font-size="14.00">1</text>
</g>
</g>
</svg>
