<?xml version="1.0" encoding="UTF-8" standalone="no"?>
<!DOCTYPE svg PUBLIC "-//W3C//DTD SVG 1.1//EN"
 "http://www.w3.org/Graphics/SVG/1.1/DTD/svg11.dtd">
<!-- Generated by graphviz version 12.1.0 (20240811.2233)
 -->
<!-- Title: G Pages: 1 -->
<svg width="725pt" height="178pt"
 viewBox="0.00 0.00 724.72 177.50" xmlns="http://www.w3.org/2000/svg" xmlns:xlink="http://www.w3.org/1999/xlink">
<g id="graph0" class="graph" transform="scale(1 1) rotate(0) translate(4 173.5)">
<title>G</title>
<polygon fill="white" stroke="none" points="-4,4 -4,-173.5 720.72,-173.5 720.72,4 -4,4"/>
<!-- n__ -->
<g id="node1" class="node">
<title>n__</title>
</g>
<!-- 0 -->
<g id="node2" class="node">
<title>0</title>
<ellipse fill="none" stroke="black" cx="55.72" cy="-126" rx="18" ry="18"/>
</g>
<!-- n__&#45;&gt;0 -->
<g id="edge1" class="edge">
<title>n__&#45;&gt;0</title>
<path fill="none" stroke="black" d="M0.87,-126C2.34,-126 13.93,-126 25.99,-126"/>
<polygon fill="black" stroke="black" points="25.86,-129.5 35.86,-126 25.86,-122.5 25.86,-129.5"/>
</g>
<!-- 1 -->
<g id="node3" class="node">
<title>1</title>
<ellipse fill="none" stroke="black" cx="133.72" cy="-68" rx="18" ry="18"/>
</g>
<!-- 0&#45;&gt;1 -->
<g id="edge2" class="edge">
<title>0&#45;&gt;1</title>
<path fill="none" stroke="black" d="M70.66,-115.36C81.59,-107.02 97.02,-95.24 109.77,-85.52"/>
<polygon fill="black" stroke="black" points="111.84,-88.34 117.67,-79.49 107.59,-82.77 111.84,-88.34"/>
<text text-anchor="middle" x="94.72" y="-101.94" font-family="Times New Roman,serif" font-size="14.00">a</text>
</g>
<!-- 2 -->
<g id="node4" class="node">
<title>2</title>
<ellipse fill="none" stroke="black" cx="369.22" cy="-88" rx="18" ry="18"/>
</g>
<!-- 0&#45;&gt;2 -->
<g id="edge3" class="edge">
<title>0&#45;&gt;2</title>
<path fill="none" stroke="black" d="M71.88,-134.84C86.83,-142.72 110.6,-153 132.72,-153 132.72,-153 132.72,-153 291.47,-153 317.37,-153 339.03,-131.18 352.66,-112.82"/>
<polygon fill="black" stroke="black" points="355.51,-114.85 358.34,-104.65 349.76,-110.86 355.51,-114.85"/>
<text text-anchor="middle" x="212.47" y="-156.2" font-family="Times New Roman,serif" font-size="14.00">b</text>
</g>
<!-- 3 -->
<g id="node5" class="node">
<title>3</title>
<ellipse fill="none" stroke="black" cx="212.47" cy="-99" rx="18" ry="18"/>
</g>
<!-- 1&#45;&gt;3 -->
<g id="edge4" class="edge">
<title>1&#45;&gt;3</title>
<path fill="none" stroke="black" d="M151,-74.57C160.77,-78.52 173.43,-83.64 184.65,-88.17"/>
<polygon fill="black" stroke="black" points="183.23,-91.37 193.81,-91.87 185.85,-84.88 183.23,-91.37"/>
<text text-anchor="middle" x="173.1" y="-87.63" font-family="Times New Roman,serif" font-size="14.00">b</text>
</g>
<!-- 4 -->
<g id="node6" class="node">
<title>4</title>
<ellipse fill="none" stroke="black" cx="611.97" cy="-19" rx="18" ry="18"/>
</g>
<!-- 1&#45;&gt;4 -->
<g id="edge5" class="edge">
<title>1&#45;&gt;4</title>
<path fill="none" stroke="black" d="M143.34,-52.23C155.61,-32.14 180.14,0 211.47,0 211.47,0 211.47,0 534.97,0 551.71,0 569.92,-4.39 584.32,-8.95"/>
<polygon fill="black" stroke="black" points="582.92,-12.18 593.52,-12.08 585.18,-5.55 582.92,-12.18"/>
<text text-anchor="middle" x="369.22" y="-3.2" font-family="Times New Roman,serif" font-size="14.00">c</text>
</g>
<!-- 5 -->
<g id="node7" class="node">
<title>5</title>
<ellipse fill="none" stroke="black" cx="451.97" cy="-62" rx="18" ry="18"/>
<ellipse fill="none" stroke="black" cx="451.97" cy="-62" rx="22" ry="22"/>
</g>
<!-- 2&#45;&gt;5 -->
<g id="edge6" class="edge">
<title>2&#45;&gt;5</title>
<path fill="none" stroke="black" d="M386.56,-82.74C396.1,-79.67 408.45,-75.69 419.79,-72.04"/>
<polygon fill="black" stroke="black" points="420.75,-75.41 429.2,-69.01 418.61,-68.74 420.75,-75.41"/>
<text text-anchor="middle" x="408.6" y="-79.76" font-family="Times New Roman,serif" font-size="14.00">c</text>
</g>
<!-- 6 -->
<g id="node8" class="node">
<title>6</title>
<ellipse fill="none" stroke="black" cx="290.47" cy="-88" rx="18" ry="18"/>
</g>
<!-- 3&#45;&gt;6 -->
<g id="edge7" class="edge">
<title>3&#45;&gt;6</title>
<path fill="none" stroke="black" d="M230.72,-96.5C239.66,-95.21 250.81,-93.6 260.98,-92.12"/>
<polygon fill="black" stroke="black" points="261.4,-95.6 270.79,-90.7 260.4,-88.67 261.4,-95.6"/>
<text text-anchor="middle" x="251.47" y="-97.03" font-family="Times New Roman,serif" font-size="14.00">c</text>
</g>
<!-- 7 -->
<g id="node9" class="node">
<title>7</title>
<ellipse fill="none" stroke="black" cx="694.72" cy="-73" rx="18" ry="18"/>
<ellipse fill="none" stroke="black" cx="694.72" cy="-73" rx="22" ry="22"/>
</g>
<!-- 4&#45;&gt;7 -->
<g id="edge8" class="edge">
<title>4&#45;&gt;7</title>
<path fill="none" stroke="black" d="M628.37,-26.95C636.4,-31.27 646.28,-36.87 654.72,-42.5 659.31,-45.56 664.04,-49 668.56,-52.44"/>
<polygon fill="black" stroke="black" points="666.2,-55.04 676.24,-58.44 670.52,-49.52 666.2,-55.04"/>
<text text-anchor="middle" x="651.35" y="-45.7" font-family="Times New Roman,serif" font-size="14.00">b</text>
</g>
<!-- 5&#45;&gt;2 -->
<g id="edge10" class="edge">
<title>5&#45;&gt;2</title>
<path fill="none" stroke="black" d="M431.32,-54.25C423.04,-52.12 413.44,-51.2 405.22,-54.5 399.07,-56.97 393.4,-61.09 388.48,-65.61"/>
<polygon fill="black" stroke="black" points="385.96,-63.18 381.57,-72.82 391.02,-68.02 385.96,-63.18"/>
<text text-anchor="middle" x="408.6" y="-57.7" font-family="Times New Roman,serif" font-size="14.00">b</text>
</g>
<!-- 8 -->
<g id="node10" class="node">
<title>8</title>
<ellipse fill="none" stroke="black" cx="533.97" cy="-62" rx="18" ry="18"/>
</g>
<!-- 5&#45;&gt;8 -->
<g id="edge9" class="edge">
<title>5&#45;&gt;8</title>
<path fill="none" stroke="black" d="M474.41,-62C483.56,-62 494.37,-62 504.2,-62"/>
<polygon fill="black" stroke="black" points="504,-65.5 514,-62 504,-58.5 504,-65.5"/>
<text text-anchor="middle" x="494.97" y="-65.2" font-family="Times New Roman,serif" font-size="14.00">a</text>
</g>
<!-- 6&#45;&gt;1 -->
<g id="edge11" class="edge">
<title>6&#45;&gt;1</title>
<path fill="none" stroke="black" d="M275.31,-77.51C263.87,-69.73 247.01,-59.75 230.47,-55.5 207.88,-49.69 181.57,-53.89 162.24,-58.93"/>
<polygon fill="black" stroke="black" points="161.32,-55.56 152.67,-61.68 163.25,-62.28 161.32,-55.56"/>
<text text-anchor="middle" x="212.47" y="-58.7" font-family="Times New Roman,serif" font-size="14.00">a</text>
</g>
<!-- 6&#45;&gt;2 -->
<g id="edge12" class="edge">
<title>6&#45;&gt;2</title>
<path fill="none" stroke="black" d="M308.89,-88C317.91,-88 329.17,-88 339.45,-88"/>
<polygon fill="black" stroke="black" points="339.36,-91.5 349.36,-88 339.36,-84.5 339.36,-91.5"/>
<text text-anchor="middle" x="329.85" y="-91.2" font-family="Times New Roman,serif" font-size="14.00">b</text>
</g>
<!-- 7&#45;&gt;2 -->
<g id="edge14" class="edge">
<title>7&#45;&gt;2</title>
<path fill="none" stroke="black" d="M678.49,-88.06C663.25,-101.48 638.46,-119 612.97,-119 450.97,-119 450.97,-119 450.97,-119 431.2,-119 410.42,-110.8 394.88,-102.84"/>
<polygon fill="black" stroke="black" points="396.83,-99.92 386.38,-98.19 393.47,-106.06 396.83,-99.92"/>
<text text-anchor="middle" x="533.97" y="-122.2" font-family="Times New Roman,serif" font-size="14.00">b</text>
</g>
<!-- 7&#45;&gt;8 -->
<g id="edge13" class="edge">
<title>7&#45;&gt;8</title>
<path fill="none" stroke="black" d="M672.43,-71.52C644.39,-69.58 595,-66.16 563.68,-63.99"/>
<polygon fill="black" stroke="black" points="563.99,-60.5 553.77,-63.3 563.51,-67.49 563.99,-60.5"/>
<text text-anchor="middle" x="611.97" y="-71.61" font-family="Times New Roman,serif" font-size="14.00">a</text>
</g>
<!-- 8&#45;&gt;4 -->
<g id="edge15" class="edge">
<title>8&#45;&gt;4</title>
<path fill="none" stroke="black" d="M549.99,-53.5C560.22,-47.71 574.03,-39.9 585.91,-33.18"/>
<polygon fill="black" stroke="black" points="587.43,-36.34 594.41,-28.37 583.98,-30.25 587.43,-36.34"/>
<text text-anchor="middle" x="572.97" y="-44.99" font-family="Times New Roman,serif" font-size="14.00">c</text>
</g>
</g>
</svg>
