<?xml version="1.0" encoding="UTF-8" standalone="no"?>
<!DOCTYPE svg PUBLIC "-//W3C//DTD SVG 1.1//EN"
 "http://www.w3.org/Graphics/SVG/1.1/DTD/svg11.dtd">
<!-- Generated by graphviz version 12.1.1 (20240910.0053)
 -->
<!-- Title: G Pages: 1 -->
<svg width="735pt" height="541pt"
 viewBox="0.00 0.00 735.28 540.50" xmlns="http://www.w3.org/2000/svg" xmlns:xlink="http://www.w3.org/1999/xlink">
<g id="graph0" class="graph" transform="scale(1 1) rotate(0) translate(4 536.5)">
<title>G</title>
<polygon fill="white" stroke="none" points="-4,4 -4,-536.5 731.28,-536.5 731.28,4 -4,4"/>
<!-- n__ -->
<g id="node1" class="node">
<title>n__</title>
</g>
<!-- 0 -->
<g id="node2" class="node">
<title>0</title>
<ellipse fill="none" stroke="black" cx="57.85" cy="-97" rx="20.13" ry="20.13"/>
<text text-anchor="middle" x="57.85" y="-91.95" font-family="Times New Roman,serif" font-size="14.00">q0</text>
</g>
<!-- n__&#45;&gt;0 -->
<g id="edge1" class="edge">
<title>n__&#45;&gt;0</title>
<path fill="none" stroke="black" d="M0.88,-97C2.37,-97 13.93,-97 26.16,-97"/>
<polygon fill="black" stroke="black" points="25.79,-100.5 35.79,-97 25.79,-93.5 25.79,-100.5"/>
</g>
<!-- 1 -->
<g id="node3" class="node">
<title>1</title>
<ellipse fill="none" stroke="black" cx="140.86" cy="-97" rx="20.13" ry="20.13"/>
<text text-anchor="middle" x="140.86" y="-91.95" font-family="Times New Roman,serif" font-size="14.00">q1</text>
</g>
<!-- 0&#45;&gt;1 -->
<g id="edge2" class="edge">
<title>0&#45;&gt;1</title>
<path fill="none" stroke="black" d="M78.46,-97C87.62,-97 98.73,-97 108.98,-97"/>
<polygon fill="black" stroke="black" points="108.92,-100.5 118.92,-97 108.92,-93.5 108.92,-100.5"/>
<text text-anchor="middle" x="99.36" y="-100.2" font-family="Times New Roman,serif" font-size="14.00">x</text>
</g>
<!-- 2 -->
<g id="node4" class="node">
<title>2</title>
<ellipse fill="none" stroke="black" cx="140.86" cy="-392" rx="20.13" ry="20.13"/>
<text text-anchor="middle" x="140.86" y="-386.95" font-family="Times New Roman,serif" font-size="14.00">q2</text>
</g>
<!-- 0&#45;&gt;2 -->
<g id="edge3" class="edge">
<title>0&#45;&gt;2</title>
<path fill="none" stroke="black" d="M64.17,-116.36C77.96,-166.57 114.96,-301.32 131.58,-361.84"/>
<polygon fill="black" stroke="black" points="128.1,-362.4 134.13,-371.11 134.85,-360.54 128.1,-362.4"/>
<text text-anchor="middle" x="99.36" y="-256.55" font-family="Times New Roman,serif" font-size="14.00">y</text>
</g>
<!-- 3 -->
<g id="node5" class="node">
<title>3</title>
<ellipse fill="none" stroke="black" cx="593.14" cy="-97" rx="20.13" ry="20.13"/>
<ellipse fill="none" stroke="black" cx="593.14" cy="-97" rx="24.13" ry="24.13"/>
<text text-anchor="middle" x="593.14" y="-91.95" font-family="Times New Roman,serif" font-size="14.00">q3</text>
</g>
<!-- 0&#45;&gt;3 -->
<g id="edge4" class="edge">
<title>0&#45;&gt;3</title>
<path fill="none" stroke="black" d="M65.06,-77.84C75.57,-49.57 99.71,0 139.86,0 139.86,0 139.86,0 503.12,0 538.79,0 564.05,-36.05 578.34,-64.19"/>
<polygon fill="black" stroke="black" points="575.15,-65.63 582.62,-73.14 581.46,-62.61 575.15,-65.63"/>
<text text-anchor="middle" x="314.89" y="-3.2" font-family="Times New Roman,serif" font-size="14.00">z</text>
</g>
<!-- 1&#45;&gt;3 -->
<g id="edge7" class="edge">
<title>1&#45;&gt;3</title>
<path fill="none" stroke="black" d="M155.07,-82.52C170.61,-67.13 197.98,-45 226.88,-45 226.88,-45 226.88,-45 503.12,-45 526.98,-45 550.13,-59.1 566.84,-72.62"/>
<polygon fill="black" stroke="black" points="564.4,-75.14 574.27,-78.99 568.96,-69.82 564.4,-75.14"/>
<text text-anchor="middle" x="356.39" y="-48.2" font-family="Times New Roman,serif" font-size="14.00">z</text>
</g>
<!-- 4 -->
<g id="node6" class="node">
<title>4</title>
<ellipse fill="none" stroke="black" cx="502.12" cy="-97" rx="20.13" ry="20.13"/>
<ellipse fill="none" stroke="black" cx="502.12" cy="-97" rx="24.13" ry="24.13"/>
<text text-anchor="middle" x="502.12" y="-91.95" font-family="Times New Roman,serif" font-size="14.00">q4</text>
</g>
<!-- 1&#45;&gt;4 -->
<g id="edge5" class="edge">
<title>1&#45;&gt;4</title>
<path fill="none" stroke="black" d="M161.45,-97C178.68,-97 204.44,-97 226.88,-97 226.88,-97 226.88,-97 407.51,-97 426.92,-97 448.6,-97 466.2,-97"/>
<polygon fill="black" stroke="black" points="466.14,-100.5 476.14,-97 466.14,-93.5 466.14,-100.5"/>
<text text-anchor="middle" x="314.89" y="-100.2" font-family="Times New Roman,serif" font-size="14.00">x</text>
</g>
<!-- 5 -->
<g id="node7" class="node">
<title>5</title>
<ellipse fill="none" stroke="black" cx="227.88" cy="-392" rx="20.13" ry="20.13"/>
<ellipse fill="none" stroke="black" cx="227.88" cy="-392" rx="24.13" ry="24.13"/>
<text text-anchor="middle" x="227.88" y="-386.95" font-family="Times New Roman,serif" font-size="14.00">q5</text>
</g>
<!-- 1&#45;&gt;5 -->
<g id="edge6" class="edge">
<title>1&#45;&gt;5</title>
<path fill="none" stroke="black" d="M147.44,-116.36C161.63,-165.59 199.23,-296.08 217.14,-358.21"/>
<polygon fill="black" stroke="black" points="213.69,-358.88 219.82,-367.52 220.42,-356.94 213.69,-358.88"/>
<text text-anchor="middle" x="182.37" y="-247.7" font-family="Times New Roman,serif" font-size="14.00">y</text>
</g>
<!-- 2&#45;&gt;5 -->
<g id="edge9" class="edge">
<title>2&#45;&gt;5</title>
<path fill="none" stroke="black" d="M161.15,-392C170.27,-392 181.43,-392 191.95,-392"/>
<polygon fill="black" stroke="black" points="191.91,-395.5 201.91,-392 191.91,-388.5 191.91,-395.5"/>
<text text-anchor="middle" x="182.37" y="-395.2" font-family="Times New Roman,serif" font-size="14.00">z</text>
</g>
<!-- 6 -->
<g id="node8" class="node">
<title>6</title>
<ellipse fill="none" stroke="black" cx="707.15" cy="-305" rx="20.13" ry="20.13"/>
<text text-anchor="middle" x="707.15" y="-299.95" font-family="Times New Roman,serif" font-size="14.00">q6</text>
</g>
<!-- 2&#45;&gt;6 -->
<g id="edge8" class="edge">
<title>2&#45;&gt;6</title>
<path fill="none" stroke="black" d="M145.88,-411.92C154.24,-446.97 177.02,-516 226.88,-516 226.88,-516 226.88,-516 594.14,-516 674.45,-516 697.36,-395.25 703.75,-336.44"/>
<polygon fill="black" stroke="black" points="707.2,-337.03 704.7,-326.74 700.24,-336.35 707.2,-337.03"/>
<text text-anchor="middle" x="406.51" y="-519.2" font-family="Times New Roman,serif" font-size="14.00">x, y</text>
</g>
<!-- 3&#45;&gt;6 -->
<g id="edge10" class="edge">
<title>3&#45;&gt;6</title>
<path fill="none" stroke="black" d="M613.96,-110.15C631.03,-122.48 655.04,-142.45 669.02,-165.5 689.34,-199.03 698.69,-243.67 702.89,-273.33"/>
<polygon fill="black" stroke="black" points="699.41,-273.69 704.16,-283.16 706.35,-272.8 699.41,-273.69"/>
<text text-anchor="middle" x="652.14" y="-168.7" font-family="Times New Roman,serif" font-size="14.00">x, y, z</text>
</g>
<!-- 4&#45;&gt;3 -->
<g id="edge13" class="edge">
<title>4&#45;&gt;3</title>
<path fill="none" stroke="black" d="M526.51,-97C535.94,-97 547.02,-97 557.36,-97"/>
<polygon fill="black" stroke="black" points="557.08,-100.5 567.08,-97 557.08,-93.5 557.08,-100.5"/>
<text text-anchor="middle" x="547.63" y="-100.2" font-family="Times New Roman,serif" font-size="14.00">z</text>
</g>
<!-- 4&#45;&gt;4 -->
<g id="edge11" class="edge">
<title>4&#45;&gt;4</title>
<path fill="none" stroke="black" d="M493.73,-119.97C492.93,-130.24 495.73,-139.13 502.12,-139.13 505.92,-139.13 508.46,-136 509.72,-131.3"/>
<polygon fill="black" stroke="black" points="513.2,-131.7 510.42,-121.48 506.21,-131.2 513.2,-131.7"/>
<text text-anchor="middle" x="502.12" y="-142.33" font-family="Times New Roman,serif" font-size="14.00">x</text>
</g>
<!-- 4&#45;&gt;6 -->
<g id="edge12" class="edge">
<title>4&#45;&gt;6</title>
<path fill="none" stroke="black" d="M523.74,-108.76C557.81,-129.08 626.36,-173.73 669.02,-227 680.56,-241.41 689.59,-260 695.85,-275.42"/>
<polygon fill="black" stroke="black" points="692.51,-276.49 699.38,-284.57 699.05,-273.98 692.51,-276.49"/>
<text text-anchor="middle" x="593.14" y="-178" font-family="Times New Roman,serif" font-size="14.00">y</text>
</g>
<!-- 5&#45;&gt;6 -->
<g id="edge16" class="edge">
<title>5&#45;&gt;6</title>
<path fill="none" stroke="black" d="M240.18,-413.31C254.14,-436.41 280.24,-470 313.89,-470 313.89,-470 313.89,-470 594.14,-470 658.27,-470 688.24,-383.62 699.9,-335.86"/>
<polygon fill="black" stroke="black" points="703.25,-336.91 702.09,-326.38 696.43,-335.34 703.25,-336.91"/>
<text text-anchor="middle" x="456.62" y="-473.2" font-family="Times New Roman,serif" font-size="14.00">z</text>
</g>
<!-- 7 -->
<g id="node9" class="node">
<title>7</title>
<ellipse fill="none" stroke="black" cx="502.12" cy="-384" rx="20.13" ry="20.13"/>
<text text-anchor="middle" x="502.12" y="-378.95" font-family="Times New Roman,serif" font-size="14.00">q7</text>
</g>
<!-- 5&#45;&gt;7 -->
<g id="edge14" class="edge">
<title>5&#45;&gt;7</title>
<path fill="none" stroke="black" d="M250.77,-400.72C256.9,-402.81 263.63,-404.79 270.01,-406 352.96,-421.79 378.61,-429.51 459.99,-407 465.1,-405.59 470.25,-403.42 475.11,-400.97"/>
<polygon fill="black" stroke="black" points="476.8,-404.03 483.79,-396.07 473.36,-397.93 476.8,-404.03"/>
<text text-anchor="middle" x="356.39" y="-423.73" font-family="Times New Roman,serif" font-size="14.00">x</text>
</g>
<!-- 8 -->
<g id="node10" class="node">
<title>8</title>
<ellipse fill="none" stroke="black" cx="314.89" cy="-312" rx="20.13" ry="20.13"/>
<text text-anchor="middle" x="314.89" y="-306.95" font-family="Times New Roman,serif" font-size="14.00">q8</text>
</g>
<!-- 5&#45;&gt;8 -->
<g id="edge15" class="edge">
<title>5&#45;&gt;8</title>
<path fill="none" stroke="black" d="M246.08,-375.81C259.1,-363.56 277.09,-346.63 291.27,-333.28"/>
<polygon fill="black" stroke="black" points="293.55,-335.95 298.43,-326.55 288.75,-330.85 293.55,-335.95"/>
<text text-anchor="middle" x="273.38" y="-355.2" font-family="Times New Roman,serif" font-size="14.00">y</text>
</g>
<!-- 6&#45;&gt;6 -->
<g id="edge17" class="edge">
<title>6&#45;&gt;6</title>
<path fill="none" stroke="black" d="M697.4,-323.05C695.41,-333.45 698.66,-343.13 707.15,-343.13 712.32,-343.13 715.55,-339.54 716.83,-334.37"/>
<polygon fill="black" stroke="black" points="720.33,-334.58 716.89,-324.56 713.33,-334.54 720.33,-334.58"/>
<text text-anchor="middle" x="707.15" y="-346.33" font-family="Times New Roman,serif" font-size="14.00">x, y, z</text>
</g>
<!-- 7&#45;&gt;5 -->
<g id="edge19" class="edge">
<title>7&#45;&gt;5</title>
<path fill="none" stroke="black" d="M481.69,-384.57C436.04,-385.91 321.46,-389.28 263.54,-390.98"/>
<polygon fill="black" stroke="black" points="263.49,-387.48 253.6,-391.27 263.7,-394.48 263.49,-387.48"/>
<text text-anchor="middle" x="356.39" y="-391.48" font-family="Times New Roman,serif" font-size="14.00">y</text>
</g>
<!-- 7&#45;&gt;6 -->
<g id="edge18" class="edge">
<title>7&#45;&gt;6</title>
<path fill="none" stroke="black" d="M522.51,-382.44C554.8,-379.13 620.82,-369.33 669.02,-342 675.1,-338.55 680.88,-333.83 685.99,-328.93"/>
<polygon fill="black" stroke="black" points="688.46,-331.41 692.84,-321.77 683.4,-326.57 688.46,-331.41"/>
<text text-anchor="middle" x="593.14" y="-378.6" font-family="Times New Roman,serif" font-size="14.00">x, z</text>
</g>
<!-- 8&#45;&gt;6 -->
<g id="edge21" class="edge">
<title>8&#45;&gt;6</title>
<path fill="none" stroke="black" d="M334.66,-306.61C346.83,-303.4 363.1,-299.64 377.77,-298 486.76,-285.82 617.32,-295.89 675.53,-301.66"/>
<polygon fill="black" stroke="black" points="675.01,-305.12 685.32,-302.66 675.72,-298.16 675.01,-305.12"/>
<text text-anchor="middle" x="502.12" y="-295.78" font-family="Times New Roman,serif" font-size="14.00">y</text>
</g>
<!-- 9 -->
<g id="node11" class="node">
<title>9</title>
<ellipse fill="none" stroke="black" cx="406.51" cy="-212" rx="20.13" ry="20.13"/>
<text text-anchor="middle" x="406.51" y="-206.95" font-family="Times New Roman,serif" font-size="14.00">q9</text>
</g>
<!-- 8&#45;&gt;9 -->
<g id="edge20" class="edge">
<title>8&#45;&gt;9</title>
<path fill="none" stroke="black" d="M323.96,-293.64C330.49,-280.15 340.62,-261.91 353.02,-248.5 360.46,-240.45 369.98,-233.17 378.86,-227.28"/>
<polygon fill="black" stroke="black" points="380.59,-230.32 387.19,-222.04 376.86,-224.4 380.59,-230.32"/>
<text text-anchor="middle" x="356.39" y="-251.7" font-family="Times New Roman,serif" font-size="14.00">x</text>
</g>
<!-- 10 -->
<g id="node12" class="node">
<title>10</title>
<ellipse fill="none" stroke="black" cx="406.51" cy="-336" rx="24.74" ry="24.74"/>
<ellipse fill="none" stroke="black" cx="406.51" cy="-336" rx="28.74" ry="28.74"/>
<text text-anchor="middle" x="406.51" y="-330.95" font-family="Times New Roman,serif" font-size="14.00">q10</text>
</g>
<!-- 8&#45;&gt;10 -->
<g id="edge22" class="edge">
<title>8&#45;&gt;10</title>
<path fill="none" stroke="black" d="M335.36,-310.92C343.06,-310.94 351.93,-311.53 359.77,-313.5 363.37,-314.4 367.03,-315.62 370.62,-317.01"/>
<polygon fill="black" stroke="black" points="369.13,-320.18 379.69,-321.02 371.95,-313.78 369.13,-320.18"/>
<text text-anchor="middle" x="356.39" y="-316.7" font-family="Times New Roman,serif" font-size="14.00">z</text>
</g>
<!-- 9&#45;&gt;3 -->
<g id="edge25" class="edge">
<title>9&#45;&gt;3</title>
<path fill="none" stroke="black" d="M426.38,-207.22C450.85,-200.44 494.18,-186.43 526.26,-165 542.85,-153.91 558.52,-138.05 570.41,-124.43"/>
<polygon fill="black" stroke="black" points="572.89,-126.93 576.68,-117.03 567.54,-122.4 572.89,-126.93"/>
<text text-anchor="middle" x="502.12" y="-192.98" font-family="Times New Roman,serif" font-size="14.00">z</text>
</g>
<!-- 9&#45;&gt;4 -->
<g id="edge23" class="edge">
<title>9&#45;&gt;4</title>
<path fill="none" stroke="black" d="M419.75,-196.97C434.73,-178.56 460.4,-147.03 478.9,-124.3"/>
<polygon fill="black" stroke="black" points="481.54,-126.6 485.14,-116.63 476.11,-122.18 481.54,-126.6"/>
<text text-anchor="middle" x="456.62" y="-157.7" font-family="Times New Roman,serif" font-size="14.00">x</text>
</g>
<!-- 9&#45;&gt;6 -->
<g id="edge24" class="edge">
<title>9&#45;&gt;6</title>
<path fill="none" stroke="black" d="M426.8,-212.63C471.87,-214.84 586.5,-224.75 669.02,-269 675.1,-272.26 680.88,-276.81 685.99,-281.58"/>
<polygon fill="black" stroke="black" points="683.32,-283.86 692.82,-288.55 688.32,-278.96 683.32,-283.86"/>
<text text-anchor="middle" x="547.63" y="-231.48" font-family="Times New Roman,serif" font-size="14.00">y</text>
</g>
<!-- 10&#45;&gt;6 -->
<g id="edge28" class="edge">
<title>10&#45;&gt;6</title>
<path fill="none" stroke="black" d="M435.33,-333.11C491.3,-327.3 617.1,-314.24 675.4,-308.19"/>
<polygon fill="black" stroke="black" points="675.68,-311.68 685.27,-307.17 674.96,-304.72 675.68,-311.68"/>
<text text-anchor="middle" x="547.63" y="-324.77" font-family="Times New Roman,serif" font-size="14.00">z</text>
</g>
<!-- 10&#45;&gt;7 -->
<g id="edge26" class="edge">
<title>10&#45;&gt;7</title>
<path fill="none" stroke="black" d="M432.64,-348.6C441.32,-352.97 451.1,-357.93 459.99,-362.5 464.55,-364.84 469.38,-367.35 474.07,-369.79"/>
<polygon fill="black" stroke="black" points="472.12,-372.72 482.6,-374.25 475.36,-366.51 472.12,-372.72"/>
<text text-anchor="middle" x="456.62" y="-365.7" font-family="Times New Roman,serif" font-size="14.00">x</text>
</g>
<!-- 10&#45;&gt;8 -->
<g id="edge27" class="edge">
<title>10&#45;&gt;8</title>
<path fill="none" stroke="black" d="M377.38,-334.55C369.39,-333.66 360.77,-332.25 353.02,-330 349.69,-329.03 346.29,-327.79 342.96,-326.4"/>
<polygon fill="black" stroke="black" points="344.7,-323.35 334.16,-322.32 341.76,-329.7 344.7,-323.35"/>
<text text-anchor="middle" x="356.39" y="-334.64" font-family="Times New Roman,serif" font-size="14.00">y</text>
</g>
</g>
</svg>
