<?xml version="1.0" encoding="UTF-8" standalone="no"?>
<!DOCTYPE svg PUBLIC "-//W3C//DTD SVG 1.1//EN"
 "http://www.w3.org/Graphics/SVG/1.1/DTD/svg11.dtd">
<!-- Generated by graphviz version 12.1.1 (20240910.0053)
 -->
<!-- Title: G Pages: 1 -->
<svg width="341pt" height="128pt"
 viewBox="0.00 0.00 341.22 127.50" xmlns="http://www.w3.org/2000/svg" xmlns:xlink="http://www.w3.org/1999/xlink">
<g id="graph0" class="graph" transform="scale(1 1) rotate(0) translate(4 123.5)">
<title>G</title>
<polygon fill="white" stroke="none" points="-4,4 -4,-123.5 337.22,-123.5 337.22,4 -4,4"/>
<!-- n__ -->
<g id="node1" class="node">
<title>n__</title>
</g>
<!-- 0 -->
<g id="node2" class="node">
<title>0</title>
<ellipse fill="none" stroke="black" cx="55.72" cy="-22" rx="18" ry="18"/>
</g>
<!-- n__&#45;&gt;0 -->
<g id="edge1" class="edge">
<title>n__&#45;&gt;0</title>
<path fill="none" stroke="black" d="M0.87,-22C2.34,-22 13.93,-22 25.99,-22"/>
<polygon fill="black" stroke="black" points="25.86,-25.5 35.86,-22 25.86,-18.5 25.86,-25.5"/>
</g>
<!-- 1 -->
<g id="node3" class="node">
<title>1</title>
<ellipse fill="none" stroke="black" cx="137.72" cy="-22" rx="18" ry="18"/>
<ellipse fill="none" stroke="black" cx="137.72" cy="-22" rx="22" ry="22"/>
</g>
<!-- 0&#45;&gt;1 -->
<g id="edge2" class="edge">
<title>0&#45;&gt;1</title>
<path fill="none" stroke="black" d="M74.08,-22C82.89,-22 93.9,-22 104.21,-22"/>
<polygon fill="black" stroke="black" points="103.89,-25.5 113.89,-22 103.89,-18.5 103.89,-25.5"/>
<text text-anchor="middle" x="94.72" y="-25.2" font-family="Times New Roman,serif" font-size="14.00">a</text>
</g>
<!-- 2 -->
<g id="node4" class="node">
<title>2</title>
<ellipse fill="none" stroke="black" cx="224.47" cy="-63" rx="18" ry="18"/>
<ellipse fill="none" stroke="black" cx="224.47" cy="-63" rx="22" ry="22"/>
</g>
<!-- 1&#45;&gt;2 -->
<g id="edge3" class="edge">
<title>1&#45;&gt;2</title>
<path fill="none" stroke="black" d="M157.95,-31.3C168.68,-36.49 182.26,-43.06 194.27,-48.88"/>
<polygon fill="black" stroke="black" points="192.43,-51.87 202.95,-53.07 195.47,-45.57 192.43,-51.87"/>
<text text-anchor="middle" x="181.1" y="-46.93" font-family="Times New Roman,serif" font-size="14.00">b</text>
</g>
<!-- 3 -->
<g id="node5" class="node">
<title>3</title>
<ellipse fill="none" stroke="black" cx="311.22" cy="-39" rx="18" ry="18"/>
<ellipse fill="none" stroke="black" cx="311.22" cy="-39" rx="22" ry="22"/>
</g>
<!-- 1&#45;&gt;3 -->
<g id="edge4" class="edge">
<title>1&#45;&gt;3</title>
<path fill="none" stroke="black" d="M159.55,-17.86C181.37,-14.19 216.58,-10.17 246.47,-15.5 257.93,-17.55 270.03,-21.51 280.58,-25.6"/>
<polygon fill="black" stroke="black" points="278.93,-28.71 289.51,-29.27 281.59,-22.24 278.93,-28.71"/>
<text text-anchor="middle" x="224.47" y="-18.7" font-family="Times New Roman,serif" font-size="14.00">c</text>
</g>
<!-- 2&#45;&gt;2 -->
<g id="edge5" class="edge">
<title>2&#45;&gt;2</title>
<path fill="none" stroke="black" d="M216.54,-83.99C215.56,-94.09 218.2,-103 224.47,-103 228.19,-103 230.64,-99.86 231.8,-95.19"/>
<polygon fill="black" stroke="black" points="235.28,-95.68 232.32,-85.5 228.29,-95.3 235.28,-95.68"/>
<text text-anchor="middle" x="224.47" y="-106.2" font-family="Times New Roman,serif" font-size="14.00">b</text>
</g>
<!-- 2&#45;&gt;3 -->
<g id="edge6" class="edge">
<title>2&#45;&gt;3</title>
<path fill="none" stroke="black" d="M246.7,-61.56C254.51,-60.68 263.37,-59.27 271.22,-57 274.38,-56.09 277.6,-54.96 280.78,-53.71"/>
<polygon fill="black" stroke="black" points="282.06,-56.97 289.84,-49.77 279.27,-50.55 282.06,-56.97"/>
<text text-anchor="middle" x="267.85" y="-61.75" font-family="Times New Roman,serif" font-size="14.00">c</text>
</g>
<!-- 3&#45;&gt;2 -->
<g id="edge7" class="edge">
<title>3&#45;&gt;2</title>
<path fill="none" stroke="black" d="M289.35,-34.83C281.41,-34.02 272.38,-34.07 264.47,-36.5 259.89,-37.91 255.37,-40.06 251.12,-42.53"/>
<polygon fill="black" stroke="black" points="249.45,-39.44 243.05,-47.88 253.32,-45.28 249.45,-39.44"/>
<text text-anchor="middle" x="267.85" y="-39.7" font-family="Times New Roman,serif" font-size="14.00">b</text>
</g>
<!-- 3&#45;&gt;3 -->
<g id="edge8" class="edge">
<title>3&#45;&gt;3</title>
<path fill="none" stroke="black" d="M303.29,-59.99C302.31,-70.09 304.95,-79 311.22,-79 314.94,-79 317.39,-75.86 318.55,-71.19"/>
<polygon fill="black" stroke="black" points="322.03,-71.68 319.07,-61.5 315.04,-71.3 322.03,-71.68"/>
<text text-anchor="middle" x="311.22" y="-82.2" font-family="Times New Roman,serif" font-size="14.00">c</text>
</g>
</g>
</svg>
