<?xml version="1.0" encoding="UTF-8" standalone="no"?>
<!DOCTYPE svg PUBLIC "-//W3C//DTD SVG 1.1//EN"
 "http://www.w3.org/Graphics/SVG/1.1/DTD/svg11.dtd">
<!-- Generated by graphviz version 12.1.0 (20240811.2233)
 -->
<!-- Title: G Pages: 1 -->
<svg width="798pt" height="142pt"
 viewBox="0.00 0.00 798.37 141.76" xmlns="http://www.w3.org/2000/svg" xmlns:xlink="http://www.w3.org/1999/xlink">
<g id="graph0" class="graph" transform="scale(1 1) rotate(0) translate(4 137.76)">
<title>G</title>
<polygon fill="white" stroke="none" points="-4,4 -4,-137.76 794.37,-137.76 794.37,4 -4,4"/>
<!-- n__ -->
<g id="node1" class="node">
<title>n__</title>
</g>
<!-- 0 -->
<g id="node2" class="node">
<title>0</title>
<ellipse fill="none" stroke="black" cx="55.72" cy="-21" rx="18" ry="18"/>
<text text-anchor="middle" x="55.72" y="-15.95" font-family="Times New Roman,serif" font-size="14.00">^</text>
</g>
<!-- n__&#45;&gt;0 -->
<g id="edge1" class="edge">
<title>n__&#45;&gt;0</title>
<path fill="none" stroke="black" d="M0.87,-21C2.34,-21 13.93,-21 25.99,-21"/>
<polygon fill="black" stroke="black" points="25.86,-24.5 35.86,-21 25.86,-17.5 25.86,-24.5"/>
</g>
<!-- 1 -->
<g id="node3" class="node">
<title>1</title>
<ellipse fill="none" stroke="black" cx="161.44" cy="-82" rx="45.72" ry="45.72"/>
<text text-anchor="middle" x="161.44" y="-76.95" font-family="Times New Roman,serif" font-size="14.00">a[1], a[5]</text>
</g>
<!-- 0&#45;&gt;1 -->
<g id="edge2" class="edge">
<title>0&#45;&gt;1</title>
<path fill="none" stroke="black" d="M71.58,-29.74C82.24,-36.01 97.25,-44.84 111.91,-53.46"/>
<polygon fill="black" stroke="black" points="109.74,-56.24 120.14,-58.3 113.29,-50.21 109.74,-56.24"/>
<text text-anchor="middle" x="94.72" y="-47.44" font-family="Times New Roman,serif" font-size="14.00">a</text>
</g>
<!-- 2 -->
<g id="node4" class="node">
<title>2</title>
<ellipse fill="none" stroke="black" cx="371.48" cy="-33" rx="26.27" ry="26.27"/>
<text text-anchor="middle" x="371.48" y="-27.95" font-family="Times New Roman,serif" font-size="14.00">b[3]</text>
</g>
<!-- 0&#45;&gt;2 -->
<g id="edge3" class="edge">
<title>0&#45;&gt;2</title>
<path fill="none" stroke="black" d="M74.03,-20.5C114.21,-19.5 216.92,-17.84 302.46,-24 312.62,-24.73 323.59,-25.98 333.68,-27.32"/>
<polygon fill="black" stroke="black" points="333.15,-30.78 343.54,-28.69 334.12,-23.84 333.15,-30.78"/>
<text text-anchor="middle" x="228.54" y="-23.72" font-family="Times New Roman,serif" font-size="14.00">b</text>
</g>
<!-- 3 -->
<g id="node5" class="node">
<title>3</title>
<ellipse fill="none" stroke="black" cx="276.19" cy="-59" rx="26.27" ry="26.27"/>
<text text-anchor="middle" x="276.19" y="-53.95" font-family="Times New Roman,serif" font-size="14.00">b[2]</text>
</g>
<!-- 1&#45;&gt;3 -->
<g id="edge4" class="edge">
<title>1&#45;&gt;3</title>
<path fill="none" stroke="black" d="M206.68,-72.98C217.35,-70.8 228.62,-68.5 238.88,-66.41"/>
<polygon fill="black" stroke="black" points="239.36,-69.88 248.46,-64.45 237.96,-63.02 239.36,-69.88"/>
<text text-anchor="middle" x="228.54" y="-72.32" font-family="Times New Roman,serif" font-size="14.00">b</text>
</g>
<!-- 4 -->
<g id="node6" class="node">
<title>4</title>
<ellipse fill="none" stroke="black" cx="661.31" cy="-108" rx="25.76" ry="25.76"/>
<text text-anchor="middle" x="661.31" y="-102.95" font-family="Times New Roman,serif" font-size="14.00">c[6]</text>
</g>
<!-- 1&#45;&gt;4 -->
<g id="edge5" class="edge">
<title>1&#45;&gt;4</title>
<path fill="none" stroke="black" d="M203.27,-101.14C224.28,-109.31 250.59,-117 275.19,-117 275.19,-117 275.19,-117 568.79,-117 587.21,-117 607.61,-115.17 624.48,-113.16"/>
<polygon fill="black" stroke="black" points="624.53,-116.68 634.01,-111.95 623.65,-109.74 624.53,-116.68"/>
<text text-anchor="middle" x="419.13" y="-120.2" font-family="Times New Roman,serif" font-size="14.00">c</text>
</g>
<!-- 5 -->
<g id="node7" class="node">
<title>5</title>
<ellipse fill="none" stroke="black" cx="470.27" cy="-59" rx="25.76" ry="25.76"/>
<ellipse fill="none" stroke="black" cx="470.27" cy="-59" rx="29.76" ry="29.76"/>
<text text-anchor="middle" x="470.27" y="-53.95" font-family="Times New Roman,serif" font-size="14.00">c[4]</text>
</g>
<!-- 2&#45;&gt;5 -->
<g id="edge6" class="edge">
<title>2&#45;&gt;5</title>
<path fill="none" stroke="black" d="M395.47,-43.79C401.92,-46.48 409.01,-49.12 415.75,-51 420.06,-52.2 424.61,-53.23 429.17,-54.11"/>
<polygon fill="black" stroke="black" points="428.45,-57.54 438.9,-55.75 429.62,-50.63 428.45,-57.54"/>
<text text-anchor="middle" x="419.13" y="-55.65" font-family="Times New Roman,serif" font-size="14.00">c</text>
</g>
<!-- 3&#45;&gt;1 -->
<g id="edge7" class="edge">
<title>3&#45;&gt;1</title>
<path fill="none" stroke="black" d="M251.46,-48.85C243.12,-46.53 233.71,-45.31 225.16,-47.5 220.29,-48.75 215.39,-50.47 210.6,-52.47"/>
<polygon fill="black" stroke="black" points="209.28,-49.23 201.69,-56.62 212.23,-55.58 209.28,-49.23"/>
<text text-anchor="middle" x="228.54" y="-50.7" font-family="Times New Roman,serif" font-size="14.00">a</text>
</g>
<!-- 3&#45;&gt;2 -->
<g id="edge8" class="edge">
<title>3&#45;&gt;2</title>
<path fill="none" stroke="black" d="M301.7,-52.17C311.8,-49.35 323.69,-46.04 334.73,-42.96"/>
<polygon fill="black" stroke="black" points="335.66,-46.34 344.35,-40.28 333.78,-39.6 335.66,-46.34"/>
<text text-anchor="middle" x="323.83" y="-49.98" font-family="Times New Roman,serif" font-size="14.00">b</text>
</g>
<!-- 6 -->
<g id="node8" class="node">
<title>6</title>
<ellipse fill="none" stroke="black" cx="760.09" cy="-48" rx="26.27" ry="26.27"/>
<ellipse fill="none" stroke="black" cx="760.09" cy="-48" rx="30.27" ry="30.27"/>
<text text-anchor="middle" x="760.09" y="-42.95" font-family="Times New Roman,serif" font-size="14.00">b[7]</text>
</g>
<!-- 4&#45;&gt;6 -->
<g id="edge9" class="edge">
<title>4&#45;&gt;6</title>
<path fill="none" stroke="black" d="M683.79,-94.68C695.71,-87.29 710.82,-77.92 724.38,-69.52"/>
<polygon fill="black" stroke="black" points="725.96,-72.66 732.62,-64.41 722.28,-66.71 725.96,-72.66"/>
<text text-anchor="middle" x="708.45" y="-83" font-family="Times New Roman,serif" font-size="14.00">b</text>
</g>
<!-- 5&#45;&gt;2 -->
<g id="edge11" class="edge">
<title>5&#45;&gt;2</title>
<path fill="none" stroke="black" d="M446.17,-41.51C438.97,-37.02 430.74,-32.81 422.5,-30.5 418.2,-29.29 413.61,-28.67 409.02,-28.45"/>
<polygon fill="black" stroke="black" points="409.23,-24.94 399.28,-28.59 409.33,-31.94 409.23,-24.94"/>
<text text-anchor="middle" x="419.13" y="-33.7" font-family="Times New Roman,serif" font-size="14.00">b</text>
</g>
<!-- 7 -->
<g id="node9" class="node">
<title>7</title>
<ellipse fill="none" stroke="black" cx="567.79" cy="-60" rx="25.76" ry="25.76"/>
<text text-anchor="middle" x="567.79" y="-54.95" font-family="Times New Roman,serif" font-size="14.00">a[5]</text>
</g>
<!-- 5&#45;&gt;7 -->
<g id="edge10" class="edge">
<title>5&#45;&gt;7</title>
<path fill="none" stroke="black" d="M500.44,-59.31C509.91,-59.4 520.53,-59.52 530.45,-59.62"/>
<polygon fill="black" stroke="black" points="530.11,-63.12 540.15,-59.72 530.18,-56.12 530.11,-63.12"/>
<text text-anchor="middle" x="521.03" y="-62.73" font-family="Times New Roman,serif" font-size="14.00">a</text>
</g>
<!-- 6&#45;&gt;2 -->
<g id="edge13" class="edge">
<title>6&#45;&gt;2</title>
<path fill="none" stroke="black" d="M736.01,-29.03C717.32,-15.61 689.69,0 662.31,0 469.27,0 469.27,0 469.27,0 447.11,0 423.55,-7.84 405.23,-15.88"/>
<polygon fill="black" stroke="black" points="403.79,-12.69 396.2,-20.07 406.74,-19.04 403.79,-12.69"/>
<text text-anchor="middle" x="567.79" y="-3.2" font-family="Times New Roman,serif" font-size="14.00">b</text>
</g>
<!-- 6&#45;&gt;7 -->
<g id="edge12" class="edge">
<title>6&#45;&gt;7</title>
<path fill="none" stroke="black" d="M729.52,-49.86C695.98,-51.98 641.27,-55.43 605.15,-57.71"/>
<polygon fill="black" stroke="black" points="604.94,-54.21 595.18,-58.34 605.38,-61.2 604.94,-54.21"/>
<text text-anchor="middle" x="661.31" y="-58.98" font-family="Times New Roman,serif" font-size="14.00">a</text>
</g>
<!-- 7&#45;&gt;4 -->
<g id="edge14" class="edge">
<title>7&#45;&gt;4</title>
<path fill="none" stroke="black" d="M590.94,-71.62C602.1,-77.47 615.84,-84.68 628.14,-91.13"/>
<polygon fill="black" stroke="black" points="626.22,-94.07 636.7,-95.62 629.47,-87.87 626.22,-94.07"/>
<text text-anchor="middle" x="614.55" y="-88.64" font-family="Times New Roman,serif" font-size="14.00">c</text>
</g>
</g>
</svg>
