<?xml version="1.0" encoding="UTF-8" standalone="no"?>
<!DOCTYPE svg PUBLIC "-//W3C//DTD SVG 1.1//EN"
 "http://www.w3.org/Graphics/SVG/1.1/DTD/svg11.dtd">
<!-- Generated by graphviz version 12.1.0 (20240811.2233)
 -->
<!-- Title: G Pages: 1 -->
<svg width="434pt" height="219pt"
 viewBox="0.00 0.00 434.03 219.48" xmlns="http://www.w3.org/2000/svg" xmlns:xlink="http://www.w3.org/1999/xlink">
<g id="graph0" class="graph" transform="scale(1 1) rotate(0) translate(4 215.48)">
<title>G</title>
<polygon fill="white" stroke="none" points="-4,4 -4,-215.48 430.03,-215.48 430.03,4 -4,4"/>
<!-- n__ -->
<g id="node1" class="node">
<title>n__</title>
</g>
<!-- 0 -->
<g id="node2" class="node">
<title>0</title>
<ellipse fill="none" stroke="black" cx="61.85" cy="-129.13" rx="20.13" ry="20.13"/>
<ellipse fill="none" stroke="black" cx="61.85" cy="-129.13" rx="24.13" ry="24.13"/>
<text text-anchor="middle" x="61.85" y="-124.08" font-family="Times New Roman,serif" font-size="14.00">q0</text>
</g>
<!-- n__&#45;&gt;0 -->
<g id="edge1" class="edge">
<title>n__&#45;&gt;0</title>
<path fill="none" stroke="black" d="M0.76,-129.13C1.56,-129.13 13.19,-129.13 26.01,-129.13"/>
<polygon fill="black" stroke="black" points="25.83,-132.63 35.83,-129.13 25.83,-125.63 25.83,-132.63"/>
</g>
<!-- 1 -->
<g id="node3" class="node">
<title>1</title>
<ellipse fill="none" stroke="black" cx="148.86" cy="-83.13" rx="20.13" ry="20.13"/>
<text text-anchor="middle" x="148.86" y="-78.08" font-family="Times New Roman,serif" font-size="14.00">q5</text>
</g>
<!-- 0&#45;&gt;1 -->
<g id="edge2" class="edge">
<title>0&#45;&gt;1</title>
<path fill="none" stroke="black" d="M83.43,-118C94.6,-111.95 108.56,-104.4 120.63,-97.87"/>
<polygon fill="black" stroke="black" points="122.16,-101.02 129.29,-93.18 118.83,-94.86 122.16,-101.02"/>
<text text-anchor="middle" x="107.36" y="-109.33" font-family="Times New Roman,serif" font-size="14.00">0</text>
</g>
<!-- 2 -->
<g id="node4" class="node">
<title>2</title>
<ellipse fill="none" stroke="black" cx="231.88" cy="-174.13" rx="20.13" ry="20.13"/>
<text text-anchor="middle" x="231.88" y="-169.08" font-family="Times New Roman,serif" font-size="14.00">q7</text>
</g>
<!-- 0&#45;&gt;2 -->
<g id="edge3" class="edge">
<title>0&#45;&gt;2</title>
<path fill="none" stroke="black" d="M85.4,-135.34C98.12,-138.83 114.3,-143.25 128.73,-147.13 153.02,-153.66 180.58,-160.94 200.95,-166.29"/>
<polygon fill="black" stroke="black" points="200.01,-169.66 210.57,-168.82 201.79,-162.89 200.01,-169.66"/>
<text text-anchor="middle" x="148.86" y="-160.72" font-family="Times New Roman,serif" font-size="14.00">1</text>
</g>
<!-- 1&#45;&gt;1 -->
<g id="edge4" class="edge">
<title>1&#45;&gt;1</title>
<path fill="none" stroke="black" d="M141.4,-101.97C140.13,-112.06 142.62,-121.26 148.86,-121.26 152.57,-121.26 154.95,-118.02 156.01,-113.27"/>
<polygon fill="black" stroke="black" points="159.5,-113.57 156.28,-103.48 152.51,-113.38 159.5,-113.57"/>
<text text-anchor="middle" x="148.86" y="-124.46" font-family="Times New Roman,serif" font-size="14.00">0</text>
</g>
<!-- 1&#45;&gt;2 -->
<g id="edge5" class="edge">
<title>1&#45;&gt;2</title>
<path fill="none" stroke="black" d="M162.88,-97.75C175.68,-112.13 195.41,-134.29 210.32,-151.04"/>
<polygon fill="black" stroke="black" points="207.35,-152.97 216.62,-158.11 212.58,-148.32 207.35,-152.97"/>
<text text-anchor="middle" x="190.37" y="-134.56" font-family="Times New Roman,serif" font-size="14.00">1</text>
</g>
<!-- 3 -->
<g id="node5" class="node">
<title>3</title>
<ellipse fill="none" stroke="black" cx="318.89" cy="-52.13" rx="20.13" ry="20.13"/>
<text text-anchor="middle" x="318.89" y="-47.08" font-family="Times New Roman,serif" font-size="14.00">q3</text>
</g>
<!-- 2&#45;&gt;3 -->
<g id="edge6" class="edge">
<title>2&#45;&gt;3</title>
<path fill="none" stroke="black" d="M244.16,-157.93C258.46,-137.42 283.24,-101.86 300.09,-77.68"/>
<polygon fill="black" stroke="black" points="302.84,-79.85 305.69,-69.64 297.1,-75.84 302.84,-79.85"/>
<text text-anchor="middle" x="273.38" y="-123.64" font-family="Times New Roman,serif" font-size="14.00">0</text>
</g>
<!-- 8 -->
<g id="node6" class="node">
<title>8</title>
<ellipse fill="none" stroke="black" cx="318.89" cy="-176.13" rx="20.13" ry="20.13"/>
<ellipse fill="none" stroke="black" cx="318.89" cy="-176.13" rx="24.13" ry="24.13"/>
<text text-anchor="middle" x="318.89" y="-171.08" font-family="Times New Roman,serif" font-size="14.00">q4</text>
</g>
<!-- 2&#45;&gt;8 -->
<g id="edge7" class="edge">
<title>2&#45;&gt;8</title>
<path fill="none" stroke="black" d="M249.16,-185.15C255.4,-188.76 262.76,-192.3 270.01,-194.13 275.78,-195.59 281.81,-195.05 287.57,-193.45"/>
<polygon fill="black" stroke="black" points="288.7,-196.77 296.76,-189.89 286.17,-190.24 288.7,-196.77"/>
<text text-anchor="middle" x="273.38" y="-198.18" font-family="Times New Roman,serif" font-size="14.00">1</text>
</g>
<!-- 3&#45;&gt;1 -->
<g id="edge8" class="edge">
<title>3&#45;&gt;1</title>
<path fill="none" stroke="black" d="M298.55,-53.4C277.15,-55.03 241.73,-58.43 211.74,-64.63 200.97,-66.86 189.37,-70.09 179.16,-73.24"/>
<polygon fill="black" stroke="black" points="178.24,-69.86 169.77,-76.23 180.37,-76.53 178.24,-69.86"/>
<text text-anchor="middle" x="231.88" y="-67.83" font-family="Times New Roman,serif" font-size="14.00">0</text>
</g>
<!-- 4 -->
<g id="node7" class="node">
<title>4</title>
<ellipse fill="none" stroke="black" cx="405.9" cy="-20.13" rx="20.13" ry="20.13"/>
<text text-anchor="middle" x="405.9" y="-15.08" font-family="Times New Roman,serif" font-size="14.00">q6</text>
</g>
<!-- 3&#45;&gt;4 -->
<g id="edge9" class="edge">
<title>3&#45;&gt;4</title>
<path fill="none" stroke="black" d="M337.92,-45.34C349,-41.17 363.45,-35.73 376.09,-30.98"/>
<polygon fill="black" stroke="black" points="377.06,-34.35 385.19,-27.55 374.6,-27.8 377.06,-34.35"/>
<text text-anchor="middle" x="364.39" y="-39.33" font-family="Times New Roman,serif" font-size="14.00">1</text>
</g>
<!-- 8&#45;&gt;1 -->
<g id="edge10" class="edge">
<title>8&#45;&gt;1</title>
<path fill="none" stroke="black" d="M307.62,-154.39C300.6,-141.76 290.15,-126.53 276.76,-117.13 247.97,-96.93 207.83,-88.73 180.45,-85.4"/>
<polygon fill="black" stroke="black" points="181.03,-81.94 170.72,-84.38 180.3,-88.91 181.03,-81.94"/>
<text text-anchor="middle" x="231.88" y="-106.17" font-family="Times New Roman,serif" font-size="14.00">0</text>
</g>
<!-- 8&#45;&gt;2 -->
<g id="edge11" class="edge">
<title>8&#45;&gt;2</title>
<path fill="none" stroke="black" d="M294.41,-174.46C288.64,-174.11 282.48,-173.8 276.76,-173.63 273.76,-173.54 273.01,-173.61 270.01,-173.63 267.92,-173.65 265.77,-173.66 263.6,-173.69"/>
<polygon fill="black" stroke="black" points="263.62,-170.18 253.66,-173.8 263.7,-177.18 263.62,-170.18"/>
<text text-anchor="middle" x="273.38" y="-176.83" font-family="Times New Roman,serif" font-size="14.00">1</text>
</g>
<!-- 4&#45;&gt;1 -->
<g id="edge12" class="edge">
<title>4&#45;&gt;1</title>
<path fill="none" stroke="black" d="M385.59,-18.75C363.43,-17.61 326.11,-17.03 294.76,-23.13 256.1,-30.66 248.2,-39.24 211.74,-54.13 200.41,-58.76 188.17,-64.37 177.58,-69.41"/>
<polygon fill="black" stroke="black" points="176.1,-66.24 168.62,-73.74 179.15,-72.54 176.1,-66.24"/>
<text text-anchor="middle" x="273.38" y="-32.35" font-family="Times New Roman,serif" font-size="14.00">0</text>
</g>
<!-- 4&#45;&gt;4 -->
<g id="edge13" class="edge">
<title>4&#45;&gt;4</title>
<path fill="none" stroke="black" d="M398.44,-38.97C397.17,-49.06 399.66,-58.26 405.9,-58.26 409.61,-58.26 411.99,-55.02 413.05,-50.27"/>
<polygon fill="black" stroke="black" points="416.54,-50.57 413.32,-40.48 409.54,-50.38 416.54,-50.57"/>
<text text-anchor="middle" x="405.9" y="-61.46" font-family="Times New Roman,serif" font-size="14.00">1</text>
</g>
</g>
</svg>
