<?xml version="1.0" encoding="UTF-8" standalone="no"?>
<!DOCTYPE svg PUBLIC "-//W3C//DTD SVG 1.1//EN"
 "http://www.w3.org/Graphics/SVG/1.1/DTD/svg11.dtd">
<!-- Generated by graphviz version 12.1.1 (20240910.0053)
 -->
<!-- Title: G Pages: 1 -->
<svg width="718pt" height="452pt"
 viewBox="0.00 0.00 718.07 451.50" xmlns="http://www.w3.org/2000/svg" xmlns:xlink="http://www.w3.org/1999/xlink">
<g id="graph0" class="graph" transform="scale(1 1) rotate(0) translate(4 447.5)">
<title>G</title>
<polygon fill="white" stroke="none" points="-4,4 -4,-447.5 714.07,-447.5 714.07,4 -4,4"/>
<!-- n__ -->
<g id="node1" class="node">
<title>n__</title>
</g>
<!-- 5 -->
<g id="node7" class="node">
<title>5</title>
<ellipse fill="none" stroke="black" cx="57.85" cy="-300" rx="20.13" ry="20.13"/>
<text text-anchor="middle" x="57.85" y="-294.95" font-family="Times New Roman,serif" font-size="14.00">q0</text>
</g>
<!-- n__&#45;&gt;5 -->
<g id="edge1" class="edge">
<title>n__&#45;&gt;5</title>
<path fill="none" stroke="black" d="M0.88,-300C2.37,-300 13.93,-300 26.16,-300"/>
<polygon fill="black" stroke="black" points="25.79,-303.5 35.79,-300 25.79,-296.5 25.79,-303.5"/>
</g>
<!-- 0 -->
<g id="node2" class="node">
<title>0</title>
<ellipse fill="none" stroke="black" cx="484.91" cy="-294" rx="20.13" ry="20.13"/>
<ellipse fill="none" stroke="black" cx="484.91" cy="-294" rx="24.13" ry="24.13"/>
<text text-anchor="middle" x="484.91" y="-288.95" font-family="Times New Roman,serif" font-size="14.00">q4</text>
</g>
<!-- 0&#45;&gt;0 -->
<g id="edge11" class="edge">
<title>0&#45;&gt;0</title>
<path fill="none" stroke="black" d="M476.51,-316.97C475.71,-327.24 478.51,-336.13 484.91,-336.13 488.71,-336.13 491.24,-333 492.5,-328.3"/>
<polygon fill="black" stroke="black" points="495.98,-328.7 493.2,-318.48 489,-328.2 495.98,-328.7"/>
<text text-anchor="middle" x="484.91" y="-339.33" font-family="Times New Roman,serif" font-size="14.00">x</text>
</g>
<!-- 4 -->
<g id="node6" class="node">
<title>4</title>
<ellipse fill="none" stroke="black" cx="689.94" cy="-144" rx="20.13" ry="20.13"/>
<text text-anchor="middle" x="689.94" y="-138.95" font-family="Times New Roman,serif" font-size="14.00">q6</text>
</g>
<!-- 0&#45;&gt;4 -->
<g id="edge12" class="edge">
<title>0&#45;&gt;4</title>
<path fill="none" stroke="black" d="M508.01,-286.08C542.08,-273.01 608.04,-244.21 651.81,-203 661.06,-194.29 668.97,-182.8 675.08,-172.27"/>
<polygon fill="black" stroke="black" points="678.13,-173.99 679.85,-163.54 671.98,-170.64 678.13,-173.99"/>
<text text-anchor="middle" x="575.92" y="-270.12" font-family="Times New Roman,serif" font-size="14.00">y</text>
</g>
<!-- 9 -->
<g id="node11" class="node">
<title>9</title>
<ellipse fill="none" stroke="black" cx="575.92" cy="-319" rx="20.13" ry="20.13"/>
<ellipse fill="none" stroke="black" cx="575.92" cy="-319" rx="24.13" ry="24.13"/>
<text text-anchor="middle" x="575.92" y="-313.95" font-family="Times New Roman,serif" font-size="14.00">q3</text>
</g>
<!-- 0&#45;&gt;9 -->
<g id="edge13" class="edge">
<title>0&#45;&gt;9</title>
<path fill="none" stroke="black" d="M508.37,-300.31C518.31,-303.1 530.21,-306.44 541.18,-309.52"/>
<polygon fill="black" stroke="black" points="540.13,-312.86 550.7,-312.2 542.02,-306.12 540.13,-312.86"/>
<text text-anchor="middle" x="530.42" y="-310.45" font-family="Times New Roman,serif" font-size="14.00">z</text>
</g>
<!-- 1 -->
<g id="node3" class="node">
<title>1</title>
<ellipse fill="none" stroke="black" cx="140.86" cy="-300" rx="20.13" ry="20.13"/>
<text text-anchor="middle" x="140.86" y="-294.95" font-family="Times New Roman,serif" font-size="14.00">q1</text>
</g>
<!-- 1&#45;&gt;0 -->
<g id="edge5" class="edge">
<title>1&#45;&gt;0</title>
<path fill="none" stroke="black" d="M161.45,-300C178.68,-300 204.44,-300 226.88,-300 226.88,-300 226.88,-300 398.9,-300 415.52,-300 433.93,-298.84 449.36,-297.55"/>
<polygon fill="black" stroke="black" points="449.34,-301.06 458.98,-296.68 448.71,-294.09 449.34,-301.06"/>
<text text-anchor="middle" x="314.89" y="-303.2" font-family="Times New Roman,serif" font-size="14.00">x</text>
</g>
<!-- 8 -->
<g id="node10" class="node">
<title>8</title>
<ellipse fill="none" stroke="black" cx="227.88" cy="-146" rx="20.13" ry="20.13"/>
<ellipse fill="none" stroke="black" cx="227.88" cy="-146" rx="24.13" ry="24.13"/>
<text text-anchor="middle" x="227.88" y="-140.95" font-family="Times New Roman,serif" font-size="14.00">q5</text>
</g>
<!-- 1&#45;&gt;8 -->
<g id="edge6" class="edge">
<title>1&#45;&gt;8</title>
<path fill="none" stroke="black" d="M151.45,-282.63C165.63,-256.94 192.42,-208.42 209.95,-176.65"/>
<polygon fill="black" stroke="black" points="212.79,-178.75 214.56,-168.3 206.67,-175.37 212.79,-178.75"/>
<text text-anchor="middle" x="182.37" y="-235.42" font-family="Times New Roman,serif" font-size="14.00">y</text>
</g>
<!-- 1&#45;&gt;9 -->
<g id="edge7" class="edge">
<title>1&#45;&gt;9</title>
<path fill="none" stroke="black" d="M150.62,-317.98C163.66,-341.84 190.59,-381 226.88,-381 226.88,-381 226.88,-381 485.91,-381 512.29,-381 536.45,-362.44 552.93,-345.63"/>
<polygon fill="black" stroke="black" points="555.11,-348.42 559.34,-338.71 549.97,-343.66 555.11,-348.42"/>
<text text-anchor="middle" x="356.39" y="-384.2" font-family="Times New Roman,serif" font-size="14.00">z</text>
</g>
<!-- 2 -->
<g id="node4" class="node">
<title>2</title>
<ellipse fill="none" stroke="black" cx="397.9" cy="-224" rx="20.13" ry="20.13"/>
<text text-anchor="middle" x="397.9" y="-218.95" font-family="Times New Roman,serif" font-size="14.00">q9</text>
</g>
<!-- 2&#45;&gt;0 -->
<g id="edge23" class="edge">
<title>2&#45;&gt;0</title>
<path fill="none" stroke="black" d="M414.1,-236.51C425.93,-246.26 442.66,-260.03 456.77,-271.65"/>
<polygon fill="black" stroke="black" points="454.48,-274.3 464.42,-277.95 458.93,-268.89 454.48,-274.3"/>
<text text-anchor="middle" x="439.41" y="-262.2" font-family="Times New Roman,serif" font-size="14.00">x</text>
</g>
<!-- 2&#45;&gt;4 -->
<g id="edge24" class="edge">
<title>2&#45;&gt;4</title>
<path fill="none" stroke="black" d="M417.81,-219.78C460.13,-210.19 565.53,-185.44 651.81,-158 654.56,-157.12 657.42,-156.16 660.26,-155.15"/>
<polygon fill="black" stroke="black" points="661.34,-158.48 669.52,-151.74 658.93,-151.91 661.34,-158.48"/>
<text text-anchor="middle" x="530.42" y="-196.41" font-family="Times New Roman,serif" font-size="14.00">y</text>
</g>
<!-- 2&#45;&gt;9 -->
<g id="edge25" class="edge">
<title>2&#45;&gt;9</title>
<path fill="none" stroke="black" d="M418.51,-223.88C441.6,-224.55 480.44,-228.3 509.04,-244.5 527.95,-255.21 544.2,-273.4 555.82,-289.12"/>
<polygon fill="black" stroke="black" points="552.95,-291.12 561.57,-297.27 558.66,-287.08 552.95,-291.12"/>
<text text-anchor="middle" x="484.91" y="-247.7" font-family="Times New Roman,serif" font-size="14.00">z</text>
</g>
<!-- 3 -->
<g id="node5" class="node">
<title>3</title>
<ellipse fill="none" stroke="black" cx="314.89" cy="-93" rx="20.13" ry="20.13"/>
<text text-anchor="middle" x="314.89" y="-87.95" font-family="Times New Roman,serif" font-size="14.00">q7</text>
</g>
<!-- 3&#45;&gt;4 -->
<g id="edge18" class="edge">
<title>3&#45;&gt;4</title>
<path fill="none" stroke="black" d="M335.2,-92.26C351.61,-91.69 375.8,-91 396.9,-91 396.9,-91 396.9,-91 576.92,-91 609.57,-91 642.88,-109.63 664.58,-124.79"/>
<polygon fill="black" stroke="black" points="662.33,-127.48 672.48,-130.55 666.46,-121.83 662.33,-127.48"/>
<text text-anchor="middle" x="484.91" y="-94.2" font-family="Times New Roman,serif" font-size="14.00">x, z</text>
</g>
<!-- 3&#45;&gt;8 -->
<g id="edge19" class="edge">
<title>3&#45;&gt;8</title>
<path fill="none" stroke="black" d="M297.31,-103.33C286.3,-110.2 271.53,-119.41 258.53,-127.51"/>
<polygon fill="black" stroke="black" points="256.94,-124.38 250.31,-132.64 260.64,-130.32 256.94,-124.38"/>
<text text-anchor="middle" x="273.38" y="-122.7" font-family="Times New Roman,serif" font-size="14.00">y</text>
</g>
<!-- 4&#45;&gt;4 -->
<g id="edge17" class="edge">
<title>4&#45;&gt;4</title>
<path fill="none" stroke="black" d="M680.19,-162.05C678.2,-172.45 681.45,-182.13 689.94,-182.13 695.11,-182.13 698.34,-178.54 699.62,-173.37"/>
<polygon fill="black" stroke="black" points="703.12,-173.58 699.67,-163.56 696.12,-173.54 703.12,-173.58"/>
<text text-anchor="middle" x="689.94" y="-185.33" font-family="Times New Roman,serif" font-size="14.00">x, y, z</text>
</g>
<!-- 5&#45;&gt;1 -->
<g id="edge2" class="edge">
<title>5&#45;&gt;1</title>
<path fill="none" stroke="black" d="M78.46,-300C87.62,-300 98.73,-300 108.98,-300"/>
<polygon fill="black" stroke="black" points="108.92,-303.5 118.92,-300 108.92,-296.5 108.92,-303.5"/>
<text text-anchor="middle" x="99.36" y="-303.2" font-family="Times New Roman,serif" font-size="14.00">x</text>
</g>
<!-- 7 -->
<g id="node9" class="node">
<title>7</title>
<ellipse fill="none" stroke="black" cx="140.86" cy="-146" rx="20.13" ry="20.13"/>
<text text-anchor="middle" x="140.86" y="-140.95" font-family="Times New Roman,serif" font-size="14.00">q2</text>
</g>
<!-- 5&#45;&gt;7 -->
<g id="edge3" class="edge">
<title>5&#45;&gt;7</title>
<path fill="none" stroke="black" d="M68.14,-282.33C82.18,-255.65 108.92,-204.83 125.48,-173.34"/>
<polygon fill="black" stroke="black" points="128.42,-175.28 129.97,-164.8 122.22,-172.02 128.42,-175.28"/>
<text text-anchor="middle" x="99.36" y="-230.82" font-family="Times New Roman,serif" font-size="14.00">y</text>
</g>
<!-- 5&#45;&gt;9 -->
<g id="edge4" class="edge">
<title>5&#45;&gt;9</title>
<path fill="none" stroke="black" d="M62.15,-320.12C69.29,-355.93 89.78,-427 139.86,-427 139.86,-427 139.86,-427 485.91,-427 525.04,-427 550.16,-384.28 563.41,-352.57"/>
<polygon fill="black" stroke="black" points="566.65,-353.9 567.06,-343.31 560.14,-351.34 566.65,-353.9"/>
<text text-anchor="middle" x="314.89" y="-430.2" font-family="Times New Roman,serif" font-size="14.00">z</text>
</g>
<!-- 6 -->
<g id="node8" class="node">
<title>6</title>
<ellipse fill="none" stroke="black" cx="314.89" cy="-186" rx="20.13" ry="20.13"/>
<text text-anchor="middle" x="314.89" y="-180.95" font-family="Times New Roman,serif" font-size="14.00">q8</text>
</g>
<!-- 6&#45;&gt;2 -->
<g id="edge20" class="edge">
<title>6&#45;&gt;2</title>
<path fill="none" stroke="black" d="M333.47,-194.25C343.8,-199.09 357.1,-205.33 368.85,-210.84"/>
<polygon fill="black" stroke="black" points="367.17,-213.92 377.71,-215 370.14,-207.58 367.17,-213.92"/>
<text text-anchor="middle" x="356.39" y="-209.34" font-family="Times New Roman,serif" font-size="14.00">x</text>
</g>
<!-- 6&#45;&gt;4 -->
<g id="edge21" class="edge">
<title>6&#45;&gt;4</title>
<path fill="none" stroke="black" d="M330.54,-172.94C345.93,-160.61 371.39,-144 396.9,-144 396.9,-144 396.9,-144 576.92,-144 604.45,-144 635.79,-144 658.3,-144"/>
<polygon fill="black" stroke="black" points="658,-147.5 668,-144 658,-140.5 658,-147.5"/>
<text text-anchor="middle" x="484.91" y="-147.2" font-family="Times New Roman,serif" font-size="14.00">y</text>
</g>
<!-- 6&#45;&gt;8 -->
<g id="edge22" class="edge">
<title>6&#45;&gt;8</title>
<path fill="none" stroke="black" d="M294.47,-187.95C286.6,-188.03 277.61,-187.17 270.01,-184 263.41,-181.25 257.22,-176.94 251.73,-172.2"/>
<polygon fill="black" stroke="black" points="254.48,-169.99 244.83,-165.61 249.64,-175.05 254.48,-169.99"/>
<text text-anchor="middle" x="273.38" y="-189.08" font-family="Times New Roman,serif" font-size="14.00">z</text>
</g>
<!-- 7&#45;&gt;4 -->
<g id="edge8" class="edge">
<title>7&#45;&gt;4</title>
<path fill="none" stroke="black" d="M144.21,-125.7C150.1,-85.58 169.39,0 226.88,0 226.88,0 226.88,0 576.92,0 634.08,0 666.31,-71.55 680.36,-113.78"/>
<polygon fill="black" stroke="black" points="676.97,-114.65 683.32,-123.14 683.64,-112.55 676.97,-114.65"/>
<text text-anchor="middle" x="397.9" y="-3.2" font-family="Times New Roman,serif" font-size="14.00">x, y</text>
</g>
<!-- 7&#45;&gt;8 -->
<g id="edge9" class="edge">
<title>7&#45;&gt;8</title>
<path fill="none" stroke="black" d="M161.15,-146C170.27,-146 181.43,-146 191.95,-146"/>
<polygon fill="black" stroke="black" points="191.91,-149.5 201.91,-146 191.91,-142.5 191.91,-149.5"/>
<text text-anchor="middle" x="182.37" y="-149.2" font-family="Times New Roman,serif" font-size="14.00">z</text>
</g>
<!-- 8&#45;&gt;3 -->
<g id="edge14" class="edge">
<title>8&#45;&gt;3</title>
<path fill="none" stroke="black" d="M238.09,-123.73C244.82,-110.6 255.35,-95.11 270.01,-87.5 274.38,-85.23 279.31,-84.44 284.25,-84.54"/>
<polygon fill="black" stroke="black" points="283.65,-87.99 294.03,-85.87 284.6,-81.05 283.65,-87.99"/>
<text text-anchor="middle" x="273.38" y="-90.7" font-family="Times New Roman,serif" font-size="14.00">x</text>
</g>
<!-- 8&#45;&gt;4 -->
<g id="edge16" class="edge">
<title>8&#45;&gt;4</title>
<path fill="none" stroke="black" d="M236.58,-123.08C248.21,-93.28 273.32,-45 313.89,-45 313.89,-45 313.89,-45 576.92,-45 620.34,-45 654.84,-87.27 673.54,-116.57"/>
<polygon fill="black" stroke="black" points="670.5,-118.3 678.7,-125.01 676.47,-114.65 670.5,-118.3"/>
<text text-anchor="middle" x="439.41" y="-48.2" font-family="Times New Roman,serif" font-size="14.00">z</text>
</g>
<!-- 8&#45;&gt;6 -->
<g id="edge15" class="edge">
<title>8&#45;&gt;6</title>
<path fill="none" stroke="black" d="M250.41,-155.45C258.68,-159.14 268.19,-163.45 276.76,-167.5 279.91,-168.99 283.2,-170.58 286.46,-172.18"/>
<polygon fill="black" stroke="black" points="284.71,-175.22 295.22,-176.52 287.82,-168.95 284.71,-175.22"/>
<text text-anchor="middle" x="273.38" y="-170.7" font-family="Times New Roman,serif" font-size="14.00">y</text>
</g>
<!-- 9&#45;&gt;4 -->
<g id="edge10" class="edge">
<title>9&#45;&gt;4</title>
<path fill="none" stroke="black" d="M599.06,-310.95C615.87,-303.74 638.33,-291.58 651.81,-274 673.92,-245.15 682.87,-203.63 686.48,-175.32"/>
<polygon fill="black" stroke="black" points="689.94,-175.91 687.56,-165.58 682.98,-175.14 689.94,-175.91"/>
<text text-anchor="middle" x="634.93" y="-304.13" font-family="Times New Roman,serif" font-size="14.00">x, y, z</text>
</g>
</g>
</svg>
