<?xml version="1.0" encoding="UTF-8" standalone="no"?>
<!DOCTYPE svg PUBLIC "-//W3C//DTD SVG 1.1//EN"
 "http://www.w3.org/Graphics/SVG/1.1/DTD/svg11.dtd">
<!-- Generated by graphviz version 12.1.1 (20240910.0053)
 -->
<!-- Title: G Pages: 1 -->
<svg width="509pt" height="164pt"
 viewBox="0.00 0.00 509.04 163.63" xmlns="http://www.w3.org/2000/svg" xmlns:xlink="http://www.w3.org/1999/xlink">
<g id="graph0" class="graph" transform="scale(1 1) rotate(0) translate(4 159.63)">
<title>G</title>
<polygon fill="white" stroke="none" points="-4,4 -4,-159.63 505.04,-159.63 505.04,4 -4,4"/>
<!-- n__ -->
<g id="node1" class="node">
<title>n__</title>
</g>
<!-- 1 -->
<g id="node3" class="node">
<title>1</title>
<ellipse fill="none" stroke="black" cx="61.85" cy="-33" rx="20.13" ry="20.13"/>
<ellipse fill="none" stroke="black" cx="61.85" cy="-33" rx="24.13" ry="24.13"/>
<text text-anchor="middle" x="61.85" y="-27.95" font-family="Times New Roman,serif" font-size="14.00">q0</text>
</g>
<!-- n__&#45;&gt;1 -->
<g id="edge1" class="edge">
<title>n__&#45;&gt;1</title>
<path fill="none" stroke="black" d="M0.76,-33C1.56,-33 13.19,-33 26.01,-33"/>
<polygon fill="black" stroke="black" points="25.83,-36.5 35.83,-33 25.83,-29.5 25.83,-36.5"/>
</g>
<!-- 0 -->
<g id="node2" class="node">
<title>0</title>
<ellipse fill="none" stroke="black" cx="148.86" cy="-64" rx="20.13" ry="20.13"/>
<text text-anchor="middle" x="148.86" y="-58.95" font-family="Times New Roman,serif" font-size="14.00">q1</text>
</g>
<!-- 0&#45;&gt;1 -->
<g id="edge5" class="edge">
<title>0&#45;&gt;1</title>
<path fill="none" stroke="black" d="M135.46,-48.5C128.93,-41.58 120.29,-34.18 110.73,-30.5 106.48,-28.87 101.86,-28.05 97.23,-27.76"/>
<polygon fill="black" stroke="black" points="97.3,-24.26 87.38,-27.98 97.46,-31.26 97.3,-24.26"/>
<text text-anchor="middle" x="107.36" y="-33.7" font-family="Times New Roman,serif" font-size="14.00">1</text>
</g>
<!-- 2 -->
<g id="node4" class="node">
<title>2</title>
<ellipse fill="none" stroke="black" cx="231.88" cy="-64" rx="20.13" ry="20.13"/>
<text text-anchor="middle" x="231.88" y="-58.95" font-family="Times New Roman,serif" font-size="14.00">q2</text>
</g>
<!-- 0&#45;&gt;2 -->
<g id="edge4" class="edge">
<title>0&#45;&gt;2</title>
<path fill="none" stroke="black" d="M169.47,-64C178.63,-64 189.74,-64 199.99,-64"/>
<polygon fill="black" stroke="black" points="199.93,-67.5 209.93,-64 199.93,-60.5 199.93,-67.5"/>
<text text-anchor="middle" x="190.37" y="-67.2" font-family="Times New Roman,serif" font-size="14.00">0</text>
</g>
<!-- 1&#45;&gt;0 -->
<g id="edge3" class="edge">
<title>1&#45;&gt;0</title>
<path fill="none" stroke="black" d="M83.99,-42.85C90.35,-45.65 97.39,-48.59 103.98,-51 108.52,-52.66 113.37,-54.26 118.13,-55.74"/>
<polygon fill="black" stroke="black" points="116.87,-59.01 127.45,-58.51 118.87,-52.31 116.87,-59.01"/>
<text text-anchor="middle" x="107.36" y="-56.26" font-family="Times New Roman,serif" font-size="14.00">1</text>
</g>
<!-- 1&#45;&gt;1 -->
<g id="edge2" class="edge">
<title>1&#45;&gt;1</title>
<path fill="none" stroke="black" d="M53.98,-55.97C53.23,-66.24 55.86,-75.13 61.85,-75.13 65.41,-75.13 67.78,-72 68.96,-67.3"/>
<polygon fill="black" stroke="black" points="72.45,-67.69 69.62,-57.48 65.46,-67.22 72.45,-67.69"/>
<text text-anchor="middle" x="61.85" y="-78.33" font-family="Times New Roman,serif" font-size="14.00">0</text>
</g>
<!-- 3 -->
<g id="node5" class="node">
<title>3</title>
<ellipse fill="none" stroke="black" cx="314.89" cy="-101" rx="20.13" ry="20.13"/>
<text text-anchor="middle" x="314.89" y="-95.95" font-family="Times New Roman,serif" font-size="14.00">q4</text>
</g>
<!-- 2&#45;&gt;3 -->
<g id="edge7" class="edge">
<title>2&#45;&gt;3</title>
<path fill="none" stroke="black" d="M250.45,-72.03C260.79,-76.75 274.09,-82.82 285.84,-88.19"/>
<polygon fill="black" stroke="black" points="284.14,-91.26 294.69,-92.23 287.05,-84.89 284.14,-91.26"/>
<text text-anchor="middle" x="273.38" y="-86.81" font-family="Times New Roman,serif" font-size="14.00">1</text>
</g>
<!-- 5 -->
<g id="node7" class="node">
<title>5</title>
<ellipse fill="none" stroke="black" cx="397.9" cy="-46" rx="20.13" ry="20.13"/>
<text text-anchor="middle" x="397.9" y="-40.95" font-family="Times New Roman,serif" font-size="14.00">q3</text>
</g>
<!-- 2&#45;&gt;5 -->
<g id="edge6" class="edge">
<title>2&#45;&gt;5</title>
<path fill="none" stroke="black" d="M252.08,-61.14C264.29,-59.38 280.43,-57.15 294.76,-55.5 318.75,-52.74 345.99,-50.24 366.3,-48.49"/>
<polygon fill="black" stroke="black" points="366.49,-51.99 376.16,-47.66 365.91,-45.01 366.49,-51.99"/>
<text text-anchor="middle" x="314.89" y="-58.7" font-family="Times New Roman,serif" font-size="14.00">0</text>
</g>
<!-- 3&#45;&gt;3 -->
<g id="edge11" class="edge">
<title>3&#45;&gt;3</title>
<path fill="none" stroke="black" d="M307.43,-119.83C306.16,-129.93 308.65,-139.13 314.89,-139.13 318.59,-139.13 320.98,-135.89 322.04,-131.14"/>
<polygon fill="black" stroke="black" points="325.53,-131.44 322.31,-121.35 318.53,-131.25 325.53,-131.44"/>
<text text-anchor="middle" x="314.89" y="-142.33" font-family="Times New Roman,serif" font-size="14.00">1</text>
</g>
<!-- 3&#45;&gt;5 -->
<g id="edge10" class="edge">
<title>3&#45;&gt;5</title>
<path fill="none" stroke="black" d="M331.89,-90.13C343.14,-82.5 358.42,-72.13 371.34,-63.36"/>
<polygon fill="black" stroke="black" points="373.09,-66.39 379.4,-57.88 369.16,-60.6 373.09,-66.39"/>
<text text-anchor="middle" x="356.39" y="-78.35" font-family="Times New Roman,serif" font-size="14.00">0</text>
</g>
<!-- 4 -->
<g id="node6" class="node">
<title>4</title>
<ellipse fill="none" stroke="black" cx="480.91" cy="-79" rx="20.13" ry="20.13"/>
<text text-anchor="middle" x="480.91" y="-73.95" font-family="Times New Roman,serif" font-size="14.00">q5</text>
</g>
<!-- 4&#45;&gt;3 -->
<g id="edge13" class="edge">
<title>4&#45;&gt;3</title>
<path fill="none" stroke="black" d="M460.79,-81.87C437.1,-85.38 395.5,-91.44 359.77,-96 355.49,-96.55 350.96,-97.1 346.52,-97.62"/>
<polygon fill="black" stroke="black" points="346.17,-94.13 336.63,-98.75 346.96,-101.09 346.17,-94.13"/>
<text text-anchor="middle" x="397.9" y="-96.82" font-family="Times New Roman,serif" font-size="14.00">1</text>
</g>
<!-- 4&#45;&gt;5 -->
<g id="edge12" class="edge">
<title>4&#45;&gt;5</title>
<path fill="none" stroke="black" d="M468.84,-62.86C462.31,-54.81 453.27,-45.87 442.78,-41.5 438.33,-39.64 433.41,-38.97 428.52,-39.02"/>
<polygon fill="black" stroke="black" points="428.5,-35.5 418.92,-40.04 429.24,-42.46 428.5,-35.5"/>
<text text-anchor="middle" x="439.41" y="-44.7" font-family="Times New Roman,serif" font-size="14.00">0</text>
</g>
<!-- 5&#45;&gt;1 -->
<g id="edge9" class="edge">
<title>5&#45;&gt;1</title>
<path fill="none" stroke="black" d="M383.03,-32.2C367.89,-18.65 342.25,0 315.89,0 147.86,0 147.86,0 147.86,0 128.83,0 108.92,-7.28 93.15,-15"/>
<polygon fill="black" stroke="black" points="91.54,-11.9 84.31,-19.63 94.79,-18.1 91.54,-11.9"/>
<text text-anchor="middle" x="231.88" y="-3.2" font-family="Times New Roman,serif" font-size="14.00">1</text>
</g>
<!-- 5&#45;&gt;4 -->
<g id="edge8" class="edge">
<title>5&#45;&gt;4</title>
<path fill="none" stroke="black" d="M416.88,-53.32C426.98,-57.44 439.83,-62.67 451.28,-67.34"/>
<polygon fill="black" stroke="black" points="449.72,-70.48 460.3,-71.01 452.36,-64 449.72,-70.48"/>
<text text-anchor="middle" x="439.41" y="-66.69" font-family="Times New Roman,serif" font-size="14.00">0</text>
</g>
</g>
</svg>
