<?xml version="1.0" encoding="UTF-8" standalone="no"?>
<!DOCTYPE svg PUBLIC "-//W3C//DTD SVG 1.1//EN"
 "http://www.w3.org/Graphics/SVG/1.1/DTD/svg11.dtd">
<!-- Generated by graphviz version 12.1.0 (20240811.2233)
 -->
<!-- Title: G Pages: 1 -->
<svg width="584pt" height="178pt"
 viewBox="0.00 0.00 583.94 177.76" xmlns="http://www.w3.org/2000/svg" xmlns:xlink="http://www.w3.org/1999/xlink">
<g id="graph0" class="graph" transform="scale(1 1) rotate(0) translate(4 173.76)">
<title>G</title>
<polygon fill="white" stroke="none" points="-4,4 -4,-173.76 579.94,-173.76 579.94,4 -4,4"/>
<!-- n__ -->
<g id="node1" class="node">
<title>n__</title>
</g>
<!-- 0 -->
<g id="node2" class="node">
<title>0</title>
<ellipse fill="none" stroke="black" cx="73.72" cy="-36" rx="36" ry="36"/>
<text text-anchor="middle" x="73.72" y="-30.95" font-family="Times New Roman,serif" font-size="14.00">^, b[2]</text>
</g>
<!-- n__&#45;&gt;0 -->
<g id="edge1" class="edge">
<title>n__&#45;&gt;0</title>
<path fill="none" stroke="black" d="M0.77,-36C1.62,-36 12.79,-36 26.08,-36"/>
<polygon fill="black" stroke="black" points="26.05,-39.5 36.05,-36 26.05,-32.5 26.05,-39.5"/>
</g>
<!-- 2 -->
<g id="node4" class="node">
<title>2</title>
<ellipse fill="none" stroke="black" cx="198.19" cy="-76" rx="45.72" ry="45.72"/>
<text text-anchor="middle" x="198.19" y="-70.95" font-family="Times New Roman,serif" font-size="14.00">a[1], a[5]</text>
</g>
<!-- 0&#45;&gt;2 -->
<g id="edge2" class="edge">
<title>0&#45;&gt;2</title>
<path fill="none" stroke="black" d="M108.33,-47.53C114.75,-49.7 121.44,-51.94 127.71,-54 132.78,-55.66 138.06,-57.37 143.35,-59.07"/>
<polygon fill="black" stroke="black" points="142.12,-62.35 152.71,-62.06 144.25,-55.69 142.12,-62.35"/>
<text text-anchor="middle" x="131.09" y="-59.03" font-family="Times New Roman,serif" font-size="14.00">a</text>
</g>
<!-- 3 -->
<g id="node5" class="node">
<title>3</title>
<ellipse fill="none" stroke="black" cx="549.67" cy="-38" rx="26.27" ry="26.27"/>
<text text-anchor="middle" x="549.67" y="-32.95" font-family="Times New Roman,serif" font-size="14.00">b[3]</text>
</g>
<!-- 0&#45;&gt;3 -->
<g id="edge3" class="edge">
<title>0&#45;&gt;3</title>
<path fill="none" stroke="black" d="M106.97,-21.05C131.24,-11.15 165.61,0 197.19,0 197.19,0 197.19,0 431.41,0 460.97,0 492.77,-11.06 515.78,-21.25"/>
<polygon fill="black" stroke="black" points="514.09,-24.32 524.64,-25.34 517.03,-17.97 514.09,-24.32"/>
<text text-anchor="middle" x="311.67" y="-3.2" font-family="Times New Roman,serif" font-size="14.00">b</text>
</g>
<!-- 1 -->
<g id="node3" class="node">
<title>1</title>
<ellipse fill="none" stroke="black" cx="430.41" cy="-78" rx="46.23" ry="46.23"/>
<ellipse fill="none" stroke="black" cx="430.41" cy="-78" rx="50.23" ry="50.23"/>
<text text-anchor="middle" x="430.41" y="-72.95" font-family="Times New Roman,serif" font-size="14.00">c[4], b[7]</text>
</g>
<!-- 1&#45;&gt;3 -->
<g id="edge9" class="edge">
<title>1&#45;&gt;3</title>
<path fill="none" stroke="black" d="M479.01,-64.65C487.84,-61.95 496.94,-59.01 505.4,-56 508.41,-54.93 511.53,-53.76 514.64,-52.55"/>
<polygon fill="black" stroke="black" points="515.67,-55.91 523.63,-48.92 513.05,-49.41 515.67,-55.91"/>
<text text-anchor="middle" x="502.02" y="-61.26" font-family="Times New Roman,serif" font-size="14.00">b</text>
</g>
<!-- 5 -->
<g id="node7" class="node">
<title>5</title>
<ellipse fill="none" stroke="black" cx="549.67" cy="-144" rx="25.76" ry="25.76"/>
<text text-anchor="middle" x="549.67" y="-138.95" font-family="Times New Roman,serif" font-size="14.00">a[5]</text>
</g>
<!-- 1&#45;&gt;5 -->
<g id="edge8" class="edge">
<title>1&#45;&gt;5</title>
<path fill="none" stroke="black" d="M474.74,-102.39C488.74,-110.27 504,-118.86 516.99,-126.17"/>
<polygon fill="black" stroke="black" points="515.11,-129.13 525.54,-130.98 518.55,-123.03 515.11,-129.13"/>
<text text-anchor="middle" x="502.02" y="-122.05" font-family="Times New Roman,serif" font-size="14.00">a</text>
</g>
<!-- 2&#45;&gt;0 -->
<g id="edge4" class="edge">
<title>2&#45;&gt;0</title>
<path fill="none" stroke="black" d="M162.28,-47.08C153.68,-41.5 144.15,-36.47 134.46,-33.5 130.18,-32.18 125.63,-31.38 121.05,-30.96"/>
<polygon fill="black" stroke="black" points="121.28,-27.47 111.18,-30.66 121.06,-34.46 121.28,-27.47"/>
<text text-anchor="middle" x="131.09" y="-36.7" font-family="Times New Roman,serif" font-size="14.00">b</text>
</g>
<!-- 4 -->
<g id="node6" class="node">
<title>4</title>
<ellipse fill="none" stroke="black" cx="311.67" cy="-78" rx="25.76" ry="25.76"/>
<text text-anchor="middle" x="311.67" y="-72.95" font-family="Times New Roman,serif" font-size="14.00">c[6]</text>
</g>
<!-- 2&#45;&gt;4 -->
<g id="edge5" class="edge">
<title>2&#45;&gt;4</title>
<path fill="none" stroke="black" d="M244.21,-76.81C254.26,-76.99 264.8,-77.18 274.44,-77.35"/>
<polygon fill="black" stroke="black" points="274.1,-80.84 284.16,-77.52 274.22,-73.85 274.1,-80.84"/>
<text text-anchor="middle" x="264.91" y="-80.38" font-family="Times New Roman,serif" font-size="14.00">c</text>
</g>
<!-- 3&#45;&gt;1 -->
<g id="edge6" class="edge">
<title>3&#45;&gt;1</title>
<path fill="none" stroke="black" d="M523.11,-36.38C515.15,-36.51 506.42,-37.31 498.65,-39.5 493.42,-40.97 488.17,-42.94 483.03,-45.21"/>
<polygon fill="black" stroke="black" points="481.52,-42.05 474.05,-49.56 484.58,-48.35 481.52,-42.05"/>
<text text-anchor="middle" x="502.02" y="-42.7" font-family="Times New Roman,serif" font-size="14.00">c</text>
</g>
<!-- 4&#45;&gt;1 -->
<g id="edge7" class="edge">
<title>4&#45;&gt;1</title>
<path fill="none" stroke="black" d="M337.71,-78C346.86,-78 357.65,-78 368.56,-78"/>
<polygon fill="black" stroke="black" points="368.39,-81.5 378.39,-78 368.39,-74.5 368.39,-81.5"/>
<text text-anchor="middle" x="358.8" y="-81.2" font-family="Times New Roman,serif" font-size="14.00">b</text>
</g>
<!-- 5&#45;&gt;4 -->
<g id="edge10" class="edge">
<title>5&#45;&gt;4</title>
<path fill="none" stroke="black" d="M523.9,-147.94C490.08,-152.23 428.17,-156.16 380.18,-137 363.5,-130.34 348.14,-117.7 336.3,-105.82"/>
<polygon fill="black" stroke="black" points="339.16,-103.75 329.74,-98.9 334.08,-108.57 339.16,-103.75"/>
<text text-anchor="middle" x="430.41" y="-154.67" font-family="Times New Roman,serif" font-size="14.00">c</text>
</g>
</g>
</svg>
