<?xml version="1.0" encoding="UTF-8" standalone="no"?>
<!DOCTYPE svg PUBLIC "-//W3C//DTD SVG 1.1//EN"
 "http://www.w3.org/Graphics/SVG/1.1/DTD/svg11.dtd">
<!-- Generated by graphviz version 12.1.0 (20240811.2233)
 -->
<!-- Title: G Pages: 1 -->
<svg width="282pt" height="171pt"
 viewBox="0.00 0.00 282.01 170.91" xmlns="http://www.w3.org/2000/svg" xmlns:xlink="http://www.w3.org/1999/xlink">
<g id="graph0" class="graph" transform="scale(1 1) rotate(0) translate(4 166.91)">
<title>G</title>
<polygon fill="white" stroke="none" points="-4,4 -4,-166.91 278.01,-166.91 278.01,4 -4,4"/>
<!-- n__ -->
<g id="node1" class="node">
<title>n__</title>
</g>
<!-- 0 -->
<g id="node2" class="node">
<title>0</title>
<ellipse fill="none" stroke="black" cx="73.09" cy="-100.64" rx="20.13" ry="20.13"/>
<text text-anchor="middle" x="73.09" y="-95.59" font-family="Times New Roman,serif" font-size="14.00">q0</text>
</g>
<!-- n__&#45;&gt;0 -->
<g id="edge1" class="edge">
<title>n__&#45;&gt;0</title>
<path fill="none" stroke="black" d="M0.57,-122.28C2.87,-121.6 23.8,-115.35 42.59,-109.75"/>
<polygon fill="black" stroke="black" points="43.5,-113.13 52.08,-106.91 41.5,-106.42 43.5,-113.13"/>
</g>
<!-- 2 -->
<g id="node4" class="node">
<title>2</title>
<ellipse fill="none" stroke="black" cx="141.95" cy="-142.78" rx="20.13" ry="20.13"/>
<text text-anchor="middle" x="141.95" y="-137.73" font-family="Times New Roman,serif" font-size="14.00">q2</text>
</g>
<!-- 0&#45;&gt;2 -->
<g id="edge2" class="edge">
<title>0&#45;&gt;2</title>
<path fill="none" stroke="black" d="M86.69,-115.86C93.98,-121.3 103.23,-127.23 112.07,-132.22"/>
<polygon fill="black" stroke="black" points="110.31,-135.25 120.79,-136.84 113.59,-129.06 110.31,-135.25"/>
<text text-anchor="middle" x="96.38" y="-127.24" font-family="Times New Roman,serif" font-size="14.00">a</text>
</g>
<!-- 3 -->
<g id="node5" class="node">
<title>3</title>
<ellipse fill="none" stroke="black" cx="104.53" cy="-26.23" rx="20.13" ry="20.13"/>
<text text-anchor="middle" x="104.53" y="-21.18" font-family="Times New Roman,serif" font-size="14.00">q3</text>
</g>
<!-- 0&#45;&gt;3 -->
<g id="edge3" class="edge">
<title>0&#45;&gt;3</title>
<path fill="none" stroke="black" d="M81.03,-81.87C84.41,-73.85 88.45,-64.3 92.21,-55.39"/>
<polygon fill="black" stroke="black" points="95.34,-56.97 96.01,-46.4 88.9,-54.24 95.34,-56.97"/>
<text text-anchor="middle" x="83.24" y="-55.33" font-family="Times New Roman,serif" font-size="14.00">b</text>
</g>
<!-- 1 -->
<g id="node3" class="node">
<title>1</title>
<ellipse fill="none" stroke="black" cx="183.4" cy="-24.13" rx="20.13" ry="20.13"/>
<ellipse fill="none" stroke="black" cx="183.4" cy="-24.13" rx="24.13" ry="24.13"/>
<text text-anchor="middle" x="183.4" y="-19.08" font-family="Times New Roman,serif" font-size="14.00">q1</text>
</g>
<!-- 1&#45;&gt;3 -->
<g id="edge9" class="edge">
<title>1&#45;&gt;3</title>
<path fill="none" stroke="black" d="M159.57,-18.52C151.94,-18.21 143.37,-18.31 135.31,-18.8"/>
<polygon fill="black" stroke="black" points="135.21,-15.29 125.55,-19.65 135.81,-22.27 135.21,-15.29"/>
<text text-anchor="middle" x="144.07" y="-21.86" font-family="Times New Roman,serif" font-size="14.00">b</text>
</g>
<!-- 5 -->
<g id="node7" class="node">
<title>5</title>
<ellipse fill="none" stroke="black" cx="253.87" cy="-42.37" rx="20.13" ry="20.13"/>
<text text-anchor="middle" x="253.87" y="-37.32" font-family="Times New Roman,serif" font-size="14.00">q5</text>
</g>
<!-- 1&#45;&gt;5 -->
<g id="edge8" class="edge">
<title>1&#45;&gt;5</title>
<path fill="none" stroke="black" d="M206.87,-30.21C212.1,-31.56 217.72,-33.01 223.19,-34.43"/>
<polygon fill="black" stroke="black" points="222.02,-37.74 232.58,-36.86 223.77,-30.97 222.02,-37.74"/>
<text text-anchor="middle" x="212.03" y="-35.52" font-family="Times New Roman,serif" font-size="14.00">a</text>
</g>
<!-- 2&#45;&gt;0 -->
<g id="edge4" class="edge">
<title>2&#45;&gt;0</title>
<path fill="none" stroke="black" d="M128.35,-127.57C121.06,-122.13 111.82,-116.2 102.98,-111.21"/>
<polygon fill="black" stroke="black" points="104.73,-108.18 94.26,-106.58 101.45,-114.36 104.73,-108.18"/>
<text text-anchor="middle" x="112.29" y="-122.59" font-family="Times New Roman,serif" font-size="14.00">b</text>
</g>
<!-- 4 -->
<g id="node6" class="node">
<title>4</title>
<ellipse fill="none" stroke="black" cx="207.32" cy="-98.43" rx="20.13" ry="20.13"/>
<text text-anchor="middle" x="207.32" y="-93.38" font-family="Times New Roman,serif" font-size="14.00">q4</text>
</g>
<!-- 2&#45;&gt;4 -->
<g id="edge5" class="edge">
<title>2&#45;&gt;4</title>
<path fill="none" stroke="black" d="M158.79,-131.36C165.52,-126.79 173.44,-121.42 180.9,-116.35"/>
<polygon fill="black" stroke="black" points="182.75,-119.32 189.06,-110.81 178.82,-113.53 182.75,-119.32"/>
<text text-anchor="middle" x="166.84" y="-127.05" font-family="Times New Roman,serif" font-size="14.00">c</text>
</g>
<!-- 3&#45;&gt;1 -->
<g id="edge6" class="edge">
<title>3&#45;&gt;1</title>
<path fill="none" stroke="black" d="M124.19,-31.62C131.52,-32.1 140.09,-32.14 148.39,-31.78"/>
<polygon fill="black" stroke="black" points="148.54,-35.28 158.29,-31.12 148.07,-28.29 148.54,-35.28"/>
<text text-anchor="middle" x="133.29" y="-34.9" font-family="Times New Roman,serif" font-size="14.00">c</text>
</g>
<!-- 4&#45;&gt;1 -->
<g id="edge7" class="edge">
<title>4&#45;&gt;1</title>
<path fill="none" stroke="black" d="M201.04,-78.91C199,-72.59 196.68,-65.38 194.41,-58.32"/>
<polygon fill="black" stroke="black" points="197.78,-57.37 191.39,-48.93 191.12,-59.52 197.78,-57.37"/>
<text text-anchor="middle" x="194.35" y="-55.31" font-family="Times New Roman,serif" font-size="14.00">b</text>
</g>
<!-- 5&#45;&gt;4 -->
<g id="edge10" class="edge">
<title>5&#45;&gt;4</title>
<path fill="none" stroke="black" d="M240.91,-57.99C236.77,-62.97 232.09,-68.6 227.56,-74.05"/>
<polygon fill="black" stroke="black" points="224.88,-71.8 221.19,-81.73 230.27,-76.27 224.88,-71.8"/>
<text text-anchor="middle" x="231.24" y="-69.22" font-family="Times New Roman,serif" font-size="14.00">c</text>
</g>
</g>
</svg>
