<?xml version="1.0" encoding="UTF-8" standalone="no"?>
<!DOCTYPE svg PUBLIC "-//W3C//DTD SVG 1.1//EN"
 "http://www.w3.org/Graphics/SVG/1.1/DTD/svg11.dtd">
<!-- Generated by graphviz version 12.1.0 (20240811.2233)
 -->
<!-- Title: G Pages: 1 -->
<svg width="425pt" height="157pt"
 viewBox="0.00 0.00 425.28 157.13" xmlns="http://www.w3.org/2000/svg" xmlns:xlink="http://www.w3.org/1999/xlink">
<g id="graph0" class="graph" transform="scale(1 1) rotate(0) translate(4 153.13)">
<title>G</title>
<polygon fill="white" stroke="none" points="-4,4 -4,-153.13 421.28,-153.13 421.28,4 -4,4"/>
<!-- n__ -->
<g id="node1" class="node">
<title>n__</title>
</g>
<!-- 0 -->
<g id="node2" class="node">
<title>0</title>
<ellipse fill="none" stroke="black" cx="57.85" cy="-33" rx="20.13" ry="20.13"/>
<text text-anchor="middle" x="57.85" y="-27.95" font-family="Times New Roman,serif" font-size="14.00">q0</text>
</g>
<!-- n__&#45;&gt;0 -->
<g id="edge1" class="edge">
<title>n__&#45;&gt;0</title>
<path fill="none" stroke="black" d="M0.88,-33C2.37,-33 13.93,-33 26.16,-33"/>
<polygon fill="black" stroke="black" points="25.79,-36.5 35.79,-33 25.79,-29.5 25.79,-36.5"/>
</g>
<!-- 2 -->
<g id="node4" class="node">
<title>2</title>
<ellipse fill="none" stroke="black" cx="140.86" cy="-73" rx="20.13" ry="20.13"/>
<text text-anchor="middle" x="140.86" y="-67.95" font-family="Times New Roman,serif" font-size="14.00">q2</text>
</g>
<!-- 0&#45;&gt;2 -->
<g id="edge2" class="edge">
<title>0&#45;&gt;2</title>
<path fill="none" stroke="black" d="M76.43,-41.68C86.83,-46.82 100.25,-53.44 112.06,-59.27"/>
<polygon fill="black" stroke="black" points="110.45,-62.38 120.96,-63.67 113.55,-56.1 110.45,-62.38"/>
<text text-anchor="middle" x="99.36" y="-57.4" font-family="Times New Roman,serif" font-size="14.00">a</text>
</g>
<!-- 3 -->
<g id="node5" class="node">
<title>3</title>
<ellipse fill="none" stroke="black" cx="397.15" cy="-33" rx="20.13" ry="20.13"/>
<text text-anchor="middle" x="397.15" y="-27.95" font-family="Times New Roman,serif" font-size="14.00">q3</text>
</g>
<!-- 0&#45;&gt;3 -->
<g id="edge3" class="edge">
<title>0&#45;&gt;3</title>
<path fill="none" stroke="black" d="M75.13,-22.01C90.95,-12.41 116.02,0 139.86,0 139.86,0 139.86,0 311.14,0 331.79,0 353.46,-8.57 369.76,-16.97"/>
<polygon fill="black" stroke="black" points="367.85,-19.91 378.3,-21.65 371.21,-13.77 367.85,-19.91"/>
<text text-anchor="middle" x="223.13" y="-3.2" font-family="Times New Roman,serif" font-size="14.00">b</text>
</g>
<!-- 1 -->
<g id="node3" class="node">
<title>1</title>
<ellipse fill="none" stroke="black" cx="310.14" cy="-73" rx="20.13" ry="20.13"/>
<ellipse fill="none" stroke="black" cx="310.14" cy="-73" rx="24.13" ry="24.13"/>
<text text-anchor="middle" x="310.14" y="-67.95" font-family="Times New Roman,serif" font-size="14.00">q1</text>
</g>
<!-- 1&#45;&gt;3 -->
<g id="edge9" class="edge">
<title>1&#45;&gt;3</title>
<path fill="none" stroke="black" d="M332.63,-63.24C340.9,-59.45 350.42,-55.06 359.02,-51 362.16,-49.52 365.44,-47.95 368.69,-46.39"/>
<polygon fill="black" stroke="black" points="369.96,-49.66 377.44,-42.16 366.92,-43.36 369.96,-49.66"/>
<text text-anchor="middle" x="355.64" y="-57.25" font-family="Times New Roman,serif" font-size="14.00">b</text>
</g>
<!-- 5 -->
<g id="node7" class="node">
<title>5</title>
<ellipse fill="none" stroke="black" cx="397.15" cy="-129" rx="20.13" ry="20.13"/>
<text text-anchor="middle" x="397.15" y="-123.95" font-family="Times New Roman,serif" font-size="14.00">q5</text>
</g>
<!-- 1&#45;&gt;5 -->
<g id="edge8" class="edge">
<title>1&#45;&gt;5</title>
<path fill="none" stroke="black" d="M330.86,-85.99C342.54,-93.69 357.5,-103.54 370.14,-111.87"/>
<polygon fill="black" stroke="black" points="368.14,-114.74 378.42,-117.32 371.99,-108.9 368.14,-114.74"/>
<text text-anchor="middle" x="355.64" y="-107.55" font-family="Times New Roman,serif" font-size="14.00">a</text>
</g>
<!-- 2&#45;&gt;0 -->
<g id="edge4" class="edge">
<title>2&#45;&gt;0</title>
<path fill="none" stroke="black" d="M129.77,-56.04C123.31,-46.93 114.03,-36.55 102.73,-31.5 98.55,-29.63 93.9,-28.72 89.25,-28.42"/>
<polygon fill="black" stroke="black" points="89.33,-24.92 79.43,-28.71 89.53,-31.92 89.33,-24.92"/>
<text text-anchor="middle" x="99.36" y="-34.7" font-family="Times New Roman,serif" font-size="14.00">b</text>
</g>
<!-- 4 -->
<g id="node6" class="node">
<title>4</title>
<ellipse fill="none" stroke="black" cx="223.13" cy="-73" rx="20.13" ry="20.13"/>
<text text-anchor="middle" x="223.13" y="-67.95" font-family="Times New Roman,serif" font-size="14.00">q4</text>
</g>
<!-- 2&#45;&gt;4 -->
<g id="edge5" class="edge">
<title>2&#45;&gt;4</title>
<path fill="none" stroke="black" d="M161.29,-73C170.3,-73 181.21,-73 191.3,-73"/>
<polygon fill="black" stroke="black" points="191.08,-76.5 201.08,-73 191.08,-69.5 191.08,-76.5"/>
<text text-anchor="middle" x="181.99" y="-76.2" font-family="Times New Roman,serif" font-size="14.00">c</text>
</g>
<!-- 3&#45;&gt;1 -->
<g id="edge6" class="edge">
<title>3&#45;&gt;1</title>
<path fill="none" stroke="black" d="M376.73,-30.76C368.87,-30.59 359.87,-31.35 352.27,-34.5 345.63,-37.25 339.41,-41.6 333.92,-46.4"/>
<polygon fill="black" stroke="black" points="331.76,-43.62 327.02,-53.09 336.64,-48.64 331.76,-43.62"/>
<text text-anchor="middle" x="355.64" y="-37.7" font-family="Times New Roman,serif" font-size="14.00">c</text>
</g>
<!-- 4&#45;&gt;1 -->
<g id="edge7" class="edge">
<title>4&#45;&gt;1</title>
<path fill="none" stroke="black" d="M243.42,-73C252.53,-73 263.69,-73 274.22,-73"/>
<polygon fill="black" stroke="black" points="274.17,-76.5 284.17,-73 274.17,-69.5 274.17,-76.5"/>
<text text-anchor="middle" x="264.63" y="-76.2" font-family="Times New Roman,serif" font-size="14.00">b</text>
</g>
<!-- 5&#45;&gt;4 -->
<g id="edge10" class="edge">
<title>5&#45;&gt;4</title>
<path fill="none" stroke="black" d="M376.82,-128.03C369.13,-127.43 360.24,-126.49 352.27,-125 310.27,-117.14 299.1,-113.85 261.26,-94 257.91,-92.25 254.43,-90.36 250.99,-88.46"/>
<polygon fill="black" stroke="black" points="252.76,-85.44 242.33,-83.59 249.33,-91.54 252.76,-85.44"/>
<text text-anchor="middle" x="310.14" y="-124.55" font-family="Times New Roman,serif" font-size="14.00">c</text>
</g>
</g>
</svg>
