<?xml version="1.0" encoding="UTF-8" standalone="no"?>
<!DOCTYPE svg PUBLIC "-//W3C//DTD SVG 1.1//EN"
 "http://www.w3.org/Graphics/SVG/1.1/DTD/svg11.dtd">
<!-- Generated by graphviz version 12.1.0 (20240811.2233)
 -->
<!-- Title: G Pages: 1 -->
<svg width="343pt" height="126pt"
 viewBox="0.00 0.00 343.02 125.76" xmlns="http://www.w3.org/2000/svg" xmlns:xlink="http://www.w3.org/1999/xlink">
<g id="graph0" class="graph" transform="scale(1 1) rotate(0) translate(4 121.76)">
<title>G</title>
<polygon fill="white" stroke="none" points="-4,4 -4,-121.76 339.02,-121.76 339.02,4 -4,4"/>
<!-- n__ -->
<g id="node1" class="node">
<title>n__</title>
</g>
<!-- 4 -->
<g id="node2" class="node">
<title>4</title>
<ellipse fill="none" stroke="black" cx="57.85" cy="-24.13" rx="20.13" ry="20.13"/>
<text text-anchor="middle" x="57.85" y="-19.08" font-family="Times New Roman,serif" font-size="14.00">q0</text>
</g>
<!-- n__&#45;&gt;4 -->
<g id="edge1" class="edge">
<title>n__&#45;&gt;4</title>
<path fill="none" stroke="black" d="M0.88,-24.13C2.37,-24.13 13.93,-24.13 26.16,-24.13"/>
<polygon fill="black" stroke="black" points="25.79,-27.63 35.79,-24.13 25.79,-20.63 25.79,-27.63"/>
</g>
<!-- 3 -->
<g id="node3" class="node">
<title>3</title>
<ellipse fill="none" stroke="black" cx="140.86" cy="-63.13" rx="20.13" ry="20.13"/>
<text text-anchor="middle" x="140.86" y="-58.08" font-family="Times New Roman,serif" font-size="14.00">q1</text>
</g>
<!-- 4&#45;&gt;3 -->
<g id="edge2" class="edge">
<title>4&#45;&gt;3</title>
<path fill="none" stroke="black" d="M76.43,-32.59C86.83,-37.6 100.25,-44.06 112.06,-49.74"/>
<polygon fill="black" stroke="black" points="110.43,-52.84 120.96,-54.03 113.46,-46.54 110.43,-52.84"/>
<text text-anchor="middle" x="99.36" y="-48" font-family="Times New Roman,serif" font-size="14.00">0</text>
</g>
<!-- 1 -->
<g id="node4" class="node">
<title>1</title>
<ellipse fill="none" stroke="black" cx="227.88" cy="-24.13" rx="20.13" ry="20.13"/>
<ellipse fill="none" stroke="black" cx="227.88" cy="-24.13" rx="24.13" ry="24.13"/>
<text text-anchor="middle" x="227.88" y="-19.08" font-family="Times New Roman,serif" font-size="14.00">q4</text>
</g>
<!-- 4&#45;&gt;1 -->
<g id="edge3" class="edge">
<title>4&#45;&gt;1</title>
<path fill="none" stroke="black" d="M78.32,-21.56C90.49,-20.08 106.49,-18.38 120.73,-17.63 138.6,-16.7 143.12,-16.75 160.99,-17.63 171.14,-18.13 182.14,-19.06 192.19,-20.06"/>
<polygon fill="black" stroke="black" points="191.62,-23.52 201.93,-21.09 192.36,-16.56 191.62,-23.52"/>
<text text-anchor="middle" x="140.86" y="-20.83" font-family="Times New Roman,serif" font-size="14.00">1</text>
</g>
<!-- 3&#45;&gt;3 -->
<g id="edge4" class="edge">
<title>3&#45;&gt;3</title>
<path fill="none" stroke="black" d="M133.4,-81.97C132.13,-92.06 134.62,-101.26 140.86,-101.26 144.57,-101.26 146.95,-98.02 148.01,-93.27"/>
<polygon fill="black" stroke="black" points="151.5,-93.57 148.28,-83.48 144.51,-93.38 151.5,-93.57"/>
<text text-anchor="middle" x="140.86" y="-104.46" font-family="Times New Roman,serif" font-size="14.00">0</text>
</g>
<!-- 3&#45;&gt;1 -->
<g id="edge5" class="edge">
<title>3&#45;&gt;1</title>
<path fill="none" stroke="black" d="M159.48,-55.05C169.78,-50.32 183.11,-44.21 195.18,-38.67"/>
<polygon fill="black" stroke="black" points="196.36,-41.98 203.99,-34.63 193.44,-35.62 196.36,-41.98"/>
<text text-anchor="middle" x="182.37" y="-49.17" font-family="Times New Roman,serif" font-size="14.00">1</text>
</g>
<!-- 1&#45;&gt;1 -->
<g id="edge7" class="edge">
<title>1&#45;&gt;1</title>
<path fill="none" stroke="black" d="M219.48,-47.1C218.68,-57.38 221.48,-66.26 227.88,-66.26 231.68,-66.26 234.21,-63.13 235.47,-58.43"/>
<polygon fill="black" stroke="black" points="238.95,-58.83 236.17,-48.61 231.97,-58.34 238.95,-58.83"/>
<text text-anchor="middle" x="227.88" y="-69.46" font-family="Times New Roman,serif" font-size="14.00">1</text>
</g>
<!-- 2 -->
<g id="node5" class="node">
<title>2</title>
<ellipse fill="none" stroke="black" cx="314.89" cy="-24.13" rx="20.13" ry="20.13"/>
<text text-anchor="middle" x="314.89" y="-19.08" font-family="Times New Roman,serif" font-size="14.00">q3</text>
</g>
<!-- 1&#45;&gt;2 -->
<g id="edge6" class="edge">
<title>1&#45;&gt;2</title>
<path fill="none" stroke="black" d="M252.11,-24.13C261.65,-24.13 272.83,-24.13 283.04,-24.13"/>
<polygon fill="black" stroke="black" points="282.91,-27.63 292.91,-24.13 282.91,-20.63 282.91,-27.63"/>
<text text-anchor="middle" x="273.38" y="-27.33" font-family="Times New Roman,serif" font-size="14.00">0</text>
</g>
<!-- 2&#45;&gt;1 -->
<g id="edge8" class="edge">
<title>2&#45;&gt;1</title>
<path fill="none" stroke="black" d="M297.64,-12.84C291.4,-9.14 284.03,-5.51 276.76,-3.63 270.52,-2.02 264.04,-2.9 257.95,-5"/>
<polygon fill="black" stroke="black" points="256.49,-1.82 248.89,-9.2 259.43,-8.17 256.49,-1.82"/>
<text text-anchor="middle" x="273.38" y="-6.83" font-family="Times New Roman,serif" font-size="14.00">0</text>
</g>
<!-- 2&#45;&gt;2 -->
<g id="edge9" class="edge">
<title>2&#45;&gt;2</title>
<path fill="none" stroke="black" d="M307.43,-42.97C306.16,-53.06 308.65,-62.26 314.89,-62.26 318.59,-62.26 320.98,-59.02 322.04,-54.27"/>
<polygon fill="black" stroke="black" points="325.53,-54.57 322.31,-44.48 318.53,-54.38 325.53,-54.57"/>
<text text-anchor="middle" x="314.89" y="-65.46" font-family="Times New Roman,serif" font-size="14.00">1</text>
</g>
</g>
</svg>
