<?xml version="1.0" encoding="UTF-8" standalone="no"?>
<!DOCTYPE svg PUBLIC "-//W3C//DTD SVG 1.1//EN"
 "http://www.w3.org/Graphics/SVG/1.1/DTD/svg11.dtd">
<!-- Generated by graphviz version 12.1.0 (20240811.2233)
 -->
<!-- Title: G Pages: 1 -->
<svg width="404pt" height="155pt"
 viewBox="0.00 0.00 403.97 155.00" xmlns="http://www.w3.org/2000/svg" xmlns:xlink="http://www.w3.org/1999/xlink">
<g id="graph0" class="graph" transform="scale(1 1) rotate(0) translate(4 151)">
<title>G</title>
<polygon fill="white" stroke="none" points="-4,4 -4,-151 399.97,-151 399.97,4 -4,4"/>
<!-- n__ -->
<g id="node1" class="node">
<title>n__</title>
</g>
<!-- 0 -->
<g id="node2" class="node">
<title>0</title>
<ellipse fill="none" stroke="black" cx="55.72" cy="-46" rx="18" ry="18"/>
</g>
<!-- n__&#45;&gt;0 -->
<g id="edge1" class="edge">
<title>n__&#45;&gt;0</title>
<path fill="none" stroke="black" d="M0.87,-46C2.34,-46 13.93,-46 25.99,-46"/>
<polygon fill="black" stroke="black" points="25.86,-49.5 35.86,-46 25.86,-42.5 25.86,-49.5"/>
</g>
<!-- 2 -->
<g id="node4" class="node">
<title>2</title>
<ellipse fill="none" stroke="black" cx="133.72" cy="-99" rx="18" ry="18"/>
</g>
<!-- 0&#45;&gt;2 -->
<g id="edge2" class="edge">
<title>0&#45;&gt;2</title>
<path fill="none" stroke="black" d="M71.02,-55.97C81.67,-63.4 96.46,-73.71 108.89,-82.38"/>
<polygon fill="black" stroke="black" points="106.78,-85.18 116.99,-88.03 110.79,-79.44 106.78,-85.18"/>
<text text-anchor="middle" x="94.72" y="-77.29" font-family="Times New Roman,serif" font-size="14.00">a</text>
</g>
<!-- 3 -->
<g id="node5" class="node">
<title>3</title>
<ellipse fill="none" stroke="black" cx="377.97" cy="-33" rx="18" ry="18"/>
</g>
<!-- 0&#45;&gt;3 -->
<g id="edge3" class="edge">
<title>0&#45;&gt;3</title>
<path fill="none" stroke="black" d="M68.8,-32.94C82.76,-19.34 107.12,0 132.72,0 132.72,0 132.72,0 296.22,0 316.28,0 337.19,-8.83 352.71,-17.36"/>
<polygon fill="black" stroke="black" points="350.81,-20.3 361.21,-22.33 354.35,-14.26 350.81,-20.3"/>
<text text-anchor="middle" x="212.47" y="-3.2" font-family="Times New Roman,serif" font-size="14.00">b</text>
</g>
<!-- 1 -->
<g id="node3" class="node">
<title>1</title>
<ellipse fill="none" stroke="black" cx="295.22" cy="-80" rx="18" ry="18"/>
<ellipse fill="none" stroke="black" cx="295.22" cy="-80" rx="22" ry="22"/>
</g>
<!-- 1&#45;&gt;3 -->
<g id="edge10" class="edge">
<title>1&#45;&gt;3</title>
<path fill="none" stroke="black" d="M306.58,-61.08C313.28,-50.9 323.03,-39.27 335.22,-33.5 339.38,-31.53 344.04,-30.51 348.69,-30.08"/>
<polygon fill="black" stroke="black" points="348.48,-33.58 358.47,-30.06 348.46,-26.58 348.48,-33.58"/>
<text text-anchor="middle" x="338.6" y="-36.7" font-family="Times New Roman,serif" font-size="14.00">b</text>
</g>
<!-- 6 -->
<g id="node8" class="node">
<title>6</title>
<ellipse fill="none" stroke="black" cx="377.97" cy="-129" rx="18" ry="18"/>
</g>
<!-- 1&#45;&gt;6 -->
<g id="edge9" class="edge">
<title>1&#45;&gt;6</title>
<path fill="none" stroke="black" d="M314.54,-91.12C325.74,-97.91 340.2,-106.69 352.38,-114.08"/>
<polygon fill="black" stroke="black" points="350.3,-116.91 360.67,-119.11 353.93,-110.93 350.3,-116.91"/>
<text text-anchor="middle" x="338.6" y="-110.63" font-family="Times New Roman,serif" font-size="14.00">a</text>
</g>
<!-- 4 -->
<g id="node6" class="node">
<title>4</title>
<ellipse fill="none" stroke="black" cx="212.47" cy="-59" rx="18" ry="18"/>
</g>
<!-- 2&#45;&gt;4 -->
<g id="edge4" class="edge">
<title>2&#45;&gt;4</title>
<path fill="none" stroke="black" d="M150.25,-90.91C160.45,-85.59 174.02,-78.52 185.8,-72.38"/>
<polygon fill="black" stroke="black" points="187.37,-75.51 194.62,-67.78 184.13,-69.3 187.37,-75.51"/>
<text text-anchor="middle" x="173.1" y="-83.4" font-family="Times New Roman,serif" font-size="14.00">b</text>
</g>
<!-- 5 -->
<g id="node7" class="node">
<title>5</title>
<ellipse fill="none" stroke="black" cx="212.47" cy="-119" rx="18" ry="18"/>
</g>
<!-- 2&#45;&gt;5 -->
<g id="edge5" class="edge">
<title>2&#45;&gt;5</title>
<path fill="none" stroke="black" d="M151.37,-103.34C160.76,-105.79 172.74,-108.91 183.53,-111.72"/>
<polygon fill="black" stroke="black" points="182.56,-115.08 193.12,-114.22 184.32,-108.31 182.56,-115.08"/>
<text text-anchor="middle" x="173.1" y="-112.8" font-family="Times New Roman,serif" font-size="14.00">c</text>
</g>
<!-- 3&#45;&gt;1 -->
<g id="edge6" class="edge">
<title>3&#45;&gt;1</title>
<path fill="none" stroke="black" d="M361.96,-41.74C351.38,-47.89 336.9,-56.32 324.22,-63.7"/>
<polygon fill="black" stroke="black" points="322.73,-60.52 315.85,-68.57 326.25,-66.57 322.73,-60.52"/>
<text text-anchor="middle" x="338.6" y="-59.7" font-family="Times New Roman,serif" font-size="14.00">c</text>
</g>
<!-- 4&#45;&gt;0 -->
<g id="edge7" class="edge">
<title>4&#45;&gt;0</title>
<path fill="none" stroke="black" d="M194.24,-57.55C167.82,-55.33 117,-51.06 85.09,-48.38"/>
<polygon fill="black" stroke="black" points="85.64,-44.92 75.38,-47.57 85.05,-51.89 85.64,-44.92"/>
<text text-anchor="middle" x="133.72" y="-56.99" font-family="Times New Roman,serif" font-size="14.00">c</text>
</g>
<!-- 5&#45;&gt;1 -->
<g id="edge8" class="edge">
<title>5&#45;&gt;1</title>
<path fill="none" stroke="black" d="M229.04,-111.48C239.18,-106.58 252.72,-100.04 264.84,-94.19"/>
<polygon fill="black" stroke="black" points="266.15,-97.44 273.63,-89.94 263.1,-91.14 266.15,-97.44"/>
<text text-anchor="middle" x="251.85" y="-105.04" font-family="Times New Roman,serif" font-size="14.00">b</text>
</g>
<!-- 6&#45;&gt;5 -->
<g id="edge11" class="edge">
<title>6&#45;&gt;5</title>
<path fill="none" stroke="black" d="M359.49,-128.76C352.02,-128.61 343.19,-128.37 335.22,-128 296.61,-126.2 287,-124.98 248.47,-122 246.37,-121.84 244.2,-121.66 242.02,-121.49"/>
<polygon fill="black" stroke="black" points="242.32,-118 232.06,-120.65 241.73,-124.97 242.32,-118"/>
<text text-anchor="middle" x="295.22" y="-130.28" font-family="Times New Roman,serif" font-size="14.00">c</text>
</g>
</g>
</svg>
