<?xml version="1.0" encoding="UTF-8" standalone="no"?>
<!DOCTYPE svg PUBLIC "-//W3C//DTD SVG 1.1//EN"
 "http://www.w3.org/Graphics/SVG/1.1/DTD/svg11.dtd">
<!-- Generated by graphviz version 12.1.0 (20240811.2233)
 -->
<!-- Title: G Pages: 1 -->
<svg width="425pt" height="149pt"
 viewBox="0.00 0.00 424.53 149.26" xmlns="http://www.w3.org/2000/svg" xmlns:xlink="http://www.w3.org/1999/xlink">
<g id="graph0" class="graph" transform="scale(1 1) rotate(0) translate(4 145.26)">
<title>G</title>
<polygon fill="white" stroke="none" points="-4,4 -4,-145.26 420.53,-145.26 420.53,4 -4,4"/>
<!-- n__ -->
<g id="node1" class="node">
<title>n__</title>
</g>
<!-- 3 -->
<g id="node5" class="node">
<title>3</title>
<ellipse fill="none" stroke="black" cx="57.85" cy="-49.13" rx="20.13" ry="20.13"/>
<text text-anchor="middle" x="57.85" y="-44.08" font-family="Times New Roman,serif" font-size="14.00">q0</text>
</g>
<!-- n__&#45;&gt;3 -->
<g id="edge1" class="edge">
<title>n__&#45;&gt;3</title>
<path fill="none" stroke="black" d="M0.88,-49.13C2.37,-49.13 13.93,-49.13 26.16,-49.13"/>
<polygon fill="black" stroke="black" points="25.79,-52.63 35.79,-49.13 25.79,-45.63 25.79,-52.63"/>
</g>
<!-- 0 -->
<g id="node2" class="node">
<title>0</title>
<ellipse fill="none" stroke="black" cx="227.88" cy="-82.13" rx="20.13" ry="20.13"/>
<ellipse fill="none" stroke="black" cx="227.88" cy="-82.13" rx="24.13" ry="24.13"/>
<text text-anchor="middle" x="227.88" y="-77.08" font-family="Times New Roman,serif" font-size="14.00">q4</text>
</g>
<!-- 2 -->
<g id="node4" class="node">
<title>2</title>
<ellipse fill="none" stroke="black" cx="140.86" cy="-89.13" rx="20.13" ry="20.13"/>
<text text-anchor="middle" x="140.86" y="-84.08" font-family="Times New Roman,serif" font-size="14.00">q2</text>
</g>
<!-- 0&#45;&gt;2 -->
<g id="edge9" class="edge">
<title>0&#45;&gt;2</title>
<path fill="none" stroke="black" d="M206.98,-69.53C198.43,-65.61 188.28,-62.94 178.99,-65.63 174.87,-66.83 170.76,-68.63 166.86,-70.73"/>
<polygon fill="black" stroke="black" points="165.13,-67.68 158.46,-75.91 168.81,-73.64 165.13,-67.68"/>
<text text-anchor="middle" x="182.37" y="-68.83" font-family="Times New Roman,serif" font-size="14.00">b</text>
</g>
<!-- 5 -->
<g id="node7" class="node">
<title>5</title>
<ellipse fill="none" stroke="black" cx="314.14" cy="-121.13" rx="20.13" ry="20.13"/>
<text text-anchor="middle" x="314.14" y="-116.08" font-family="Times New Roman,serif" font-size="14.00">q5</text>
</g>
<!-- 0&#45;&gt;5 -->
<g id="edge8" class="edge">
<title>0&#45;&gt;5</title>
<path fill="none" stroke="black" d="M250.14,-91.97C260.71,-96.86 273.61,-102.84 284.99,-108.1"/>
<polygon fill="black" stroke="black" points="283.38,-111.22 293.93,-112.24 286.32,-104.86 283.38,-111.22"/>
<text text-anchor="middle" x="273.01" y="-106" font-family="Times New Roman,serif" font-size="14.00">a</text>
</g>
<!-- 1 -->
<g id="node3" class="node">
<title>1</title>
<ellipse fill="none" stroke="black" cx="396.4" cy="-66.13" rx="20.13" ry="20.13"/>
<text text-anchor="middle" x="396.4" y="-61.08" font-family="Times New Roman,serif" font-size="14.00">q3</text>
</g>
<!-- 1&#45;&gt;0 -->
<g id="edge7" class="edge">
<title>1&#45;&gt;0</title>
<path fill="none" stroke="black" d="M375.96,-67.92C355.55,-69.8 322.52,-72.87 294.01,-75.63 284.2,-76.58 273.56,-77.63 263.78,-78.61"/>
<polygon fill="black" stroke="black" points="263.49,-75.12 253.89,-79.6 264.19,-82.08 263.49,-75.12"/>
<text text-anchor="middle" x="314.14" y="-78.83" font-family="Times New Roman,serif" font-size="14.00">b</text>
</g>
<!-- 2&#45;&gt;0 -->
<g id="edge6" class="edge">
<title>2&#45;&gt;0</title>
<path fill="none" stroke="black" d="M161.15,-87.54C170.27,-86.79 181.43,-85.87 191.95,-85.01"/>
<polygon fill="black" stroke="black" points="192.23,-88.5 201.91,-84.19 191.66,-81.52 192.23,-88.5"/>
<text text-anchor="middle" x="182.37" y="-89.25" font-family="Times New Roman,serif" font-size="14.00">c</text>
</g>
<!-- 3&#45;&gt;2 -->
<g id="edge3" class="edge">
<title>3&#45;&gt;2</title>
<path fill="none" stroke="black" d="M76.43,-57.81C86.83,-62.95 100.25,-69.57 112.06,-75.4"/>
<polygon fill="black" stroke="black" points="110.45,-78.51 120.96,-79.8 113.55,-72.23 110.45,-78.51"/>
<text text-anchor="middle" x="99.36" y="-73.53" font-family="Times New Roman,serif" font-size="14.00">b</text>
</g>
<!-- 4 -->
<g id="node6" class="node">
<title>4</title>
<ellipse fill="none" stroke="black" cx="140.86" cy="-20.13" rx="20.13" ry="20.13"/>
<text text-anchor="middle" x="140.86" y="-15.08" font-family="Times New Roman,serif" font-size="14.00">q1</text>
</g>
<!-- 3&#45;&gt;4 -->
<g id="edge2" class="edge">
<title>3&#45;&gt;4</title>
<path fill="none" stroke="black" d="M77.23,-42.55C87.18,-38.99 99.69,-34.51 110.91,-30.5"/>
<polygon fill="black" stroke="black" points="111.89,-33.86 120.13,-27.2 109.53,-27.27 111.89,-33.86"/>
<text text-anchor="middle" x="99.36" y="-38.7" font-family="Times New Roman,serif" font-size="14.00">a</text>
</g>
<!-- 4&#45;&gt;1 -->
<g id="edge5" class="edge">
<title>4&#45;&gt;1</title>
<path fill="none" stroke="black" d="M160.92,-23.59C204.6,-31.51 312.26,-51.05 365.12,-60.64"/>
<polygon fill="black" stroke="black" points="364.17,-64.02 374.63,-62.36 365.42,-57.13 364.17,-64.02"/>
<text text-anchor="middle" x="273.01" y="-47.39" font-family="Times New Roman,serif" font-size="14.00">c</text>
</g>
<!-- 4&#45;&gt;3 -->
<g id="edge4" class="edge">
<title>4&#45;&gt;3</title>
<path fill="none" stroke="black" d="M121.43,-13.23C113.39,-11.26 103.99,-10.42 95.98,-13.63 89.62,-16.18 83.73,-20.4 78.6,-25.06"/>
<polygon fill="black" stroke="black" points="76.29,-22.41 71.8,-32.01 81.3,-27.31 76.29,-22.41"/>
<text text-anchor="middle" x="99.36" y="-16.83" font-family="Times New Roman,serif" font-size="14.00">b</text>
</g>
<!-- 5&#45;&gt;1 -->
<g id="edge10" class="edge">
<title>5&#45;&gt;1</title>
<path fill="none" stroke="black" d="M331.38,-110C342.48,-102.4 357.4,-92.17 370.05,-83.5"/>
<polygon fill="black" stroke="black" points="371.66,-86.64 377.93,-78.1 367.71,-80.87 371.66,-86.64"/>
<text text-anchor="middle" x="355.27" y="-98.48" font-family="Times New Roman,serif" font-size="14.00">c</text>
</g>
</g>
</svg>
