<?xml version="1.0" encoding="UTF-8" standalone="no"?>
<!DOCTYPE svg PUBLIC "-//W3C//DTD SVG 1.1//EN"
 "http://www.w3.org/Graphics/SVG/1.1/DTD/svg11.dtd">
<!-- Generated by graphviz version 12.1.1 (20240910.0053)
 -->
<!-- Title: G Pages: 1 -->
<svg width="267pt" height="126pt"
 viewBox="0.00 0.00 267.26 125.76" xmlns="http://www.w3.org/2000/svg" xmlns:xlink="http://www.w3.org/1999/xlink">
<g id="graph0" class="graph" transform="scale(1 1) rotate(0) translate(4 121.76)">
<title>G</title>
<polygon fill="white" stroke="none" points="-4,4 -4,-121.76 263.26,-121.76 263.26,4 -4,4"/>
<!-- n__ -->
<g id="node1" class="node">
<title>n__</title>
</g>
<!-- 1 -->
<g id="node3" class="node">
<title>1</title>
<ellipse fill="none" stroke="black" cx="61.85" cy="-24.13" rx="20.13" ry="20.13"/>
<ellipse fill="none" stroke="black" cx="61.85" cy="-24.13" rx="24.13" ry="24.13"/>
<text text-anchor="middle" x="61.85" y="-19.08" font-family="Times New Roman,serif" font-size="14.00">q0</text>
</g>
<!-- n__&#45;&gt;1 -->
<g id="edge1" class="edge">
<title>n__&#45;&gt;1</title>
<path fill="none" stroke="black" d="M0.76,-24.13C1.56,-24.13 13.19,-24.13 26.01,-24.13"/>
<polygon fill="black" stroke="black" points="25.83,-27.63 35.83,-24.13 25.83,-20.63 25.83,-27.63"/>
</g>
<!-- 0 -->
<g id="node2" class="node">
<title>0</title>
<ellipse fill="none" stroke="black" cx="148.11" cy="-63.13" rx="20.13" ry="20.13"/>
<text text-anchor="middle" x="148.11" y="-58.08" font-family="Times New Roman,serif" font-size="14.00">q1</text>
</g>
<!-- 0&#45;&gt;0 -->
<g id="edge4" class="edge">
<title>0&#45;&gt;0</title>
<path fill="none" stroke="black" d="M140.67,-82.36C139.53,-92.3 142.01,-101.26 148.11,-101.26 151.64,-101.26 153.96,-98.27 155.07,-93.82"/>
<polygon fill="black" stroke="black" points="158.56,-94.01 155.49,-83.87 151.57,-93.71 158.56,-94.01"/>
<text text-anchor="middle" x="148.11" y="-104.46" font-family="Times New Roman,serif" font-size="14.00">a</text>
</g>
<!-- 2 -->
<g id="node4" class="node">
<title>2</title>
<ellipse fill="none" stroke="black" cx="235.13" cy="-24.13" rx="20.13" ry="20.13"/>
<ellipse fill="none" stroke="black" cx="235.13" cy="-24.13" rx="24.13" ry="24.13"/>
<text text-anchor="middle" x="235.13" y="-19.08" font-family="Times New Roman,serif" font-size="14.00">q2</text>
</g>
<!-- 0&#45;&gt;2 -->
<g id="edge5" class="edge">
<title>0&#45;&gt;2</title>
<path fill="none" stroke="black" d="M166.73,-55.05C177.03,-50.32 190.36,-44.21 202.43,-38.67"/>
<polygon fill="black" stroke="black" points="203.61,-41.98 211.24,-34.63 200.69,-35.62 203.61,-41.98"/>
<text text-anchor="middle" x="189.62" y="-49.17" font-family="Times New Roman,serif" font-size="14.00">b</text>
</g>
<!-- 1&#45;&gt;0 -->
<g id="edge2" class="edge">
<title>1&#45;&gt;0</title>
<path fill="none" stroke="black" d="M84.11,-33.97C94.68,-38.86 107.59,-44.84 118.97,-50.1"/>
<polygon fill="black" stroke="black" points="117.36,-53.22 127.9,-54.24 120.3,-46.86 117.36,-53.22"/>
<text text-anchor="middle" x="106.98" y="-48" font-family="Times New Roman,serif" font-size="14.00">a</text>
</g>
<!-- 1&#45;&gt;2 -->
<g id="edge3" class="edge">
<title>1&#45;&gt;2</title>
<path fill="none" stroke="black" d="M86.02,-21.25C98.44,-19.85 114.02,-18.33 127.98,-17.63 145.85,-16.74 150.37,-16.75 168.24,-17.63 178.39,-18.13 189.39,-19.06 199.44,-20.06"/>
<polygon fill="black" stroke="black" points="198.87,-23.52 209.18,-21.09 199.61,-16.56 198.87,-23.52"/>
<text text-anchor="middle" x="148.11" y="-20.83" font-family="Times New Roman,serif" font-size="14.00">b</text>
</g>
</g>
</svg>
