<?xml version="1.0" encoding="UTF-8" standalone="no"?>
<!DOCTYPE svg PUBLIC "-//W3C//DTD SVG 1.1//EN"
 "http://www.w3.org/Graphics/SVG/1.1/DTD/svg11.dtd">
<!-- Generated by graphviz version 12.1.0 (20240811.2233)
 -->
<!-- Title: G Pages: 1 -->
<svg width="343pt" height="125pt"
 viewBox="0.00 0.00 343.02 125.26" xmlns="http://www.w3.org/2000/svg" xmlns:xlink="http://www.w3.org/1999/xlink">
<g id="graph0" class="graph" transform="scale(1 1) rotate(0) translate(4 121.26)">
<title>G</title>
<polygon fill="white" stroke="none" points="-4,4 -4,-121.26 339.02,-121.26 339.02,4 -4,4"/>
<!-- n__ -->
<g id="node1" class="node">
<title>n__</title>
</g>
<!-- 0 -->
<g id="node2" class="node">
<title>0</title>
<ellipse fill="none" stroke="black" cx="57.85" cy="-24.13" rx="20.13" ry="20.13"/>
<text text-anchor="middle" x="57.85" y="-19.08" font-family="Times New Roman,serif" font-size="14.00">q0</text>
</g>
<!-- n__&#45;&gt;0 -->
<g id="edge1" class="edge">
<title>n__&#45;&gt;0</title>
<path fill="none" stroke="black" d="M0.88,-24.13C2.37,-24.13 13.93,-24.13 26.16,-24.13"/>
<polygon fill="black" stroke="black" points="25.79,-27.63 35.79,-24.13 25.79,-20.63 25.79,-27.63"/>
</g>
<!-- 0&#45;&gt;0 -->
<g id="edge3" class="edge">
<title>0&#45;&gt;0</title>
<path fill="none" stroke="black" d="M50.86,-43.36C49.79,-53.3 52.12,-62.26 57.85,-62.26 61.17,-62.26 63.34,-59.27 64.38,-54.82"/>
<polygon fill="black" stroke="black" points="67.88,-55 64.78,-44.87 60.88,-54.72 67.88,-55"/>
<text text-anchor="middle" x="57.85" y="-65.46" font-family="Times New Roman,serif" font-size="14.00">1</text>
</g>
<!-- 3 -->
<g id="node5" class="node">
<title>3</title>
<ellipse fill="none" stroke="black" cx="140.86" cy="-24.13" rx="20.13" ry="20.13"/>
<text text-anchor="middle" x="140.86" y="-19.08" font-family="Times New Roman,serif" font-size="14.00">q3</text>
</g>
<!-- 0&#45;&gt;3 -->
<g id="edge2" class="edge">
<title>0&#45;&gt;3</title>
<path fill="none" stroke="black" d="M78.46,-24.13C87.62,-24.13 98.73,-24.13 108.98,-24.13"/>
<polygon fill="black" stroke="black" points="108.92,-27.63 118.92,-24.13 108.92,-20.63 108.92,-27.63"/>
<text text-anchor="middle" x="99.36" y="-27.33" font-family="Times New Roman,serif" font-size="14.00">0</text>
</g>
<!-- 1 -->
<g id="node3" class="node">
<title>1</title>
<ellipse fill="none" stroke="black" cx="310.89" cy="-24.13" rx="20.13" ry="20.13"/>
<ellipse fill="none" stroke="black" cx="310.89" cy="-24.13" rx="24.13" ry="24.13"/>
<text text-anchor="middle" x="310.89" y="-19.08" font-family="Times New Roman,serif" font-size="14.00">q1</text>
</g>
<!-- 1&#45;&gt;1 -->
<g id="edge8" class="edge">
<title>1&#45;&gt;1</title>
<path fill="none" stroke="black" d="M306.65,-48.38C306.41,-58.1 307.82,-66.26 310.89,-66.26 312.61,-66.26 313.81,-63.68 314.49,-59.69"/>
<polygon fill="black" stroke="black" points="317.98,-60.07 315.04,-49.89 310.99,-59.68 317.98,-60.07"/>
<text text-anchor="middle" x="310.89" y="-69.46" font-family="Times New Roman,serif" font-size="14.00">0</text>
</g>
<!-- 1&#45;&gt;1 -->
<g id="edge9" class="edge">
<title>1&#45;&gt;1</title>
<path fill="none" stroke="black" d="M303.46,-47.59C300.68,-65.74 303.16,-84.26 310.89,-84.26 316.99,-84.26 319.82,-72.73 319.38,-58.95"/>
<polygon fill="black" stroke="black" points="322.87,-58.72 318.46,-49.09 315.9,-59.37 322.87,-58.72"/>
<text text-anchor="middle" x="310.89" y="-87.46" font-family="Times New Roman,serif" font-size="14.00">1</text>
</g>
<!-- 2 -->
<g id="node4" class="node">
<title>2</title>
<ellipse fill="none" stroke="black" cx="223.88" cy="-24.13" rx="20.13" ry="20.13"/>
<text text-anchor="middle" x="223.88" y="-19.08" font-family="Times New Roman,serif" font-size="14.00">q2</text>
</g>
<!-- 2&#45;&gt;1 -->
<g id="edge7" class="edge">
<title>2&#45;&gt;1</title>
<path fill="none" stroke="black" d="M244.17,-24.13C253.28,-24.13 264.44,-24.13 274.97,-24.13"/>
<polygon fill="black" stroke="black" points="274.92,-27.63 284.92,-24.13 274.92,-20.63 274.92,-27.63"/>
<text text-anchor="middle" x="265.38" y="-27.33" font-family="Times New Roman,serif" font-size="14.00">1</text>
</g>
<!-- 2&#45;&gt;2 -->
<g id="edge6" class="edge">
<title>2&#45;&gt;2</title>
<path fill="none" stroke="black" d="M216.41,-42.97C215.15,-53.06 217.63,-62.26 223.88,-62.26 227.58,-62.26 229.96,-59.02 231.02,-54.27"/>
<polygon fill="black" stroke="black" points="234.52,-54.57 231.29,-44.48 227.52,-54.38 234.52,-54.57"/>
<text text-anchor="middle" x="223.88" y="-65.46" font-family="Times New Roman,serif" font-size="14.00">0</text>
</g>
<!-- 3&#45;&gt;0 -->
<g id="edge5" class="edge">
<title>3&#45;&gt;0</title>
<path fill="none" stroke="black" d="M124.95,-11.33C116.69,-5.76 106.08,-1.03 95.98,-3.63 92.35,-4.57 88.68,-5.95 85.15,-7.55"/>
<polygon fill="black" stroke="black" points="83.66,-4.38 76.44,-12.13 86.92,-10.58 83.66,-4.38"/>
<text text-anchor="middle" x="99.36" y="-6.83" font-family="Times New Roman,serif" font-size="14.00">1</text>
</g>
<!-- 3&#45;&gt;2 -->
<g id="edge4" class="edge">
<title>3&#45;&gt;2</title>
<path fill="none" stroke="black" d="M161.47,-24.13C170.63,-24.13 181.74,-24.13 191.99,-24.13"/>
<polygon fill="black" stroke="black" points="191.93,-27.63 201.93,-24.13 191.93,-20.63 191.93,-27.63"/>
<text text-anchor="middle" x="182.37" y="-27.33" font-family="Times New Roman,serif" font-size="14.00">0</text>
</g>
</g>
</svg>
