<?xml version="1.0" encoding="UTF-8" standalone="no"?>
<!DOCTYPE svg PUBLIC "-//W3C//DTD SVG 1.1//EN"
 "http://www.w3.org/Graphics/SVG/1.1/DTD/svg11.dtd">
<!-- Generated by graphviz version 12.1.0 (20240811.2233)
 -->
<!-- Title: G Pages: 1 -->
<svg width="425pt" height="117pt"
 viewBox="0.00 0.00 425.28 116.84" xmlns="http://www.w3.org/2000/svg" xmlns:xlink="http://www.w3.org/1999/xlink">
<g id="graph0" class="graph" transform="scale(1 1) rotate(0) translate(4 112.84)">
<title>G</title>
<polygon fill="white" stroke="none" points="-4,4 -4,-112.84 421.28,-112.84 421.28,4 -4,4"/>
<!-- n__ -->
<g id="node1" class="node">
<title>n__</title>
</g>
<!-- 0 -->
<g id="node2" class="node">
<title>0</title>
<ellipse fill="none" stroke="black" cx="57.85" cy="-33" rx="20.13" ry="20.13"/>
<text text-anchor="middle" x="57.85" y="-27.95" font-family="Times New Roman,serif" font-size="14.00">q0</text>
</g>
<!-- n__&#45;&gt;0 -->
<g id="edge1" class="edge">
<title>n__&#45;&gt;0</title>
<path fill="none" stroke="black" d="M0.88,-33C2.37,-33 13.93,-33 26.16,-33"/>
<polygon fill="black" stroke="black" points="25.79,-36.5 35.79,-33 25.79,-29.5 25.79,-36.5"/>
</g>
<!-- 2 -->
<g id="node4" class="node">
<title>2</title>
<ellipse fill="none" stroke="black" cx="140.86" cy="-70" rx="20.13" ry="20.13"/>
<text text-anchor="middle" x="140.86" y="-64.95" font-family="Times New Roman,serif" font-size="14.00">q1</text>
</g>
<!-- 0&#45;&gt;2 -->
<g id="edge2" class="edge">
<title>0&#45;&gt;2</title>
<path fill="none" stroke="black" d="M76.16,-41.58C82.38,-44.61 89.47,-48.01 95.98,-51 101,-53.3 106.37,-55.69 111.58,-57.96"/>
<polygon fill="black" stroke="black" points="109.9,-61.05 120.46,-61.81 112.67,-54.62 109.9,-61.05"/>
<text text-anchor="middle" x="99.36" y="-56.88" font-family="Times New Roman,serif" font-size="14.00">a</text>
</g>
<!-- 4 -->
<g id="node6" class="node">
<title>4</title>
<ellipse fill="none" stroke="black" cx="397.15" cy="-33" rx="20.13" ry="20.13"/>
<text text-anchor="middle" x="397.15" y="-27.95" font-family="Times New Roman,serif" font-size="14.00">q3</text>
</g>
<!-- 0&#45;&gt;4 -->
<g id="edge3" class="edge">
<title>0&#45;&gt;4</title>
<path fill="none" stroke="black" d="M75.13,-22.01C90.95,-12.41 116.02,0 139.86,0 139.86,0 139.86,0 311.14,0 331.79,0 353.46,-8.57 369.76,-16.97"/>
<polygon fill="black" stroke="black" points="367.85,-19.91 378.3,-21.65 371.21,-13.77 367.85,-19.91"/>
<text text-anchor="middle" x="223.13" y="-3.2" font-family="Times New Roman,serif" font-size="14.00">b</text>
</g>
<!-- 1 -->
<g id="node3" class="node">
<title>1</title>
<ellipse fill="none" stroke="black" cx="310.14" cy="-69" rx="20.13" ry="20.13"/>
<ellipse fill="none" stroke="black" cx="310.14" cy="-69" rx="24.13" ry="24.13"/>
<text text-anchor="middle" x="310.14" y="-63.95" font-family="Times New Roman,serif" font-size="14.00">q4</text>
</g>
<!-- 1&#45;&gt;2 -->
<g id="edge8" class="edge">
<title>1&#45;&gt;2</title>
<path fill="none" stroke="black" d="M287.7,-78.51C281.45,-80.96 274.55,-83.36 268.01,-85 229.63,-94.63 217.28,-94.95 178.99,-85 176.17,-84.27 173.27,-83.37 170.4,-82.38"/>
<polygon fill="black" stroke="black" points="171.68,-79.12 161.09,-78.83 169.18,-85.66 171.68,-79.12"/>
<text text-anchor="middle" x="223.13" y="-95.54" font-family="Times New Roman,serif" font-size="14.00">a</text>
</g>
<!-- 1&#45;&gt;4 -->
<g id="edge9" class="edge">
<title>1&#45;&gt;4</title>
<path fill="none" stroke="black" d="M333.24,-61.17C341.4,-58.16 350.7,-54.57 359.02,-51 362.21,-49.63 365.52,-48.14 368.79,-46.61"/>
<polygon fill="black" stroke="black" points="370.05,-49.89 377.56,-42.41 367.03,-43.58 370.05,-49.89"/>
<text text-anchor="middle" x="355.64" y="-56.88" font-family="Times New Roman,serif" font-size="14.00">b</text>
</g>
<!-- 2&#45;&gt;0 -->
<g id="edge4" class="edge">
<title>2&#45;&gt;0</title>
<path fill="none" stroke="black" d="M129.28,-53.43C122.78,-44.85 113.62,-35.21 102.73,-30.5 98.52,-28.68 93.86,-27.85 89.2,-27.65"/>
<polygon fill="black" stroke="black" points="89.19,-24.15 79.38,-28.16 89.55,-31.14 89.19,-24.15"/>
<text text-anchor="middle" x="99.36" y="-33.7" font-family="Times New Roman,serif" font-size="14.00">b</text>
</g>
<!-- 3 -->
<g id="node5" class="node">
<title>3</title>
<ellipse fill="none" stroke="black" cx="223.13" cy="-59" rx="20.13" ry="20.13"/>
<text text-anchor="middle" x="223.13" y="-53.95" font-family="Times New Roman,serif" font-size="14.00">q2</text>
</g>
<!-- 2&#45;&gt;3 -->
<g id="edge5" class="edge">
<title>2&#45;&gt;3</title>
<path fill="none" stroke="black" d="M161.29,-67.34C170.36,-66.09 181.38,-64.58 191.53,-63.19"/>
<polygon fill="black" stroke="black" points="191.94,-66.67 201.38,-61.84 190.99,-59.73 191.94,-66.67"/>
<text text-anchor="middle" x="181.99" y="-68.03" font-family="Times New Roman,serif" font-size="14.00">c</text>
</g>
<!-- 3&#45;&gt;1 -->
<g id="edge6" class="edge">
<title>3&#45;&gt;1</title>
<path fill="none" stroke="black" d="M243.42,-61.27C252.63,-62.35 263.93,-63.68 274.56,-64.93"/>
<polygon fill="black" stroke="black" points="273.84,-68.37 284.18,-66.06 274.66,-61.42 273.84,-68.37"/>
<text text-anchor="middle" x="264.63" y="-67.2" font-family="Times New Roman,serif" font-size="14.00">b</text>
</g>
<!-- 4&#45;&gt;1 -->
<g id="edge7" class="edge">
<title>4&#45;&gt;1</title>
<path fill="none" stroke="black" d="M376.82,-30.97C368.97,-30.83 359.96,-31.55 352.27,-34.5 346.39,-36.75 340.76,-40.21 335.64,-44.09"/>
<polygon fill="black" stroke="black" points="333.59,-41.25 328.22,-50.38 338.11,-46.59 333.59,-41.25"/>
<text text-anchor="middle" x="355.64" y="-37.7" font-family="Times New Roman,serif" font-size="14.00">c</text>
</g>
</g>
</svg>
