<?xml version="1.0" encoding="UTF-8" standalone="no"?>
<!DOCTYPE svg PUBLIC "-//W3C//DTD SVG 1.1//EN"
 "http://www.w3.org/Graphics/SVG/1.1/DTD/svg11.dtd">
<!-- Generated by graphviz version 12.1.1 (20240910.0053)
 -->
<!-- Title: G Pages: 1 -->
<svg width="168pt" height="87pt"
 viewBox="0.00 0.00 167.72 86.50" xmlns="http://www.w3.org/2000/svg" xmlns:xlink="http://www.w3.org/1999/xlink">
<g id="graph0" class="graph" transform="scale(1 1) rotate(0) translate(4 82.5)">
<title>G</title>
<polygon fill="white" stroke="none" points="-4,4 -4,-82.5 163.72,-82.5 163.72,4 -4,4"/>
<!-- n__ -->
<g id="node1" class="node">
<title>n__</title>
</g>
<!-- 0 -->
<g id="node2" class="node">
<title>0</title>
<ellipse fill="none" stroke="black" cx="55.72" cy="-22" rx="18" ry="18"/>
</g>
<!-- n__&#45;&gt;0 -->
<g id="edge1" class="edge">
<title>n__&#45;&gt;0</title>
<path fill="none" stroke="black" d="M0.87,-22C2.34,-22 13.93,-22 25.99,-22"/>
<polygon fill="black" stroke="black" points="25.86,-25.5 35.86,-22 25.86,-18.5 25.86,-25.5"/>
</g>
<!-- 1 -->
<g id="node3" class="node">
<title>1</title>
<ellipse fill="none" stroke="black" cx="137.72" cy="-22" rx="18" ry="18"/>
<ellipse fill="none" stroke="black" cx="137.72" cy="-22" rx="22" ry="22"/>
</g>
<!-- 0&#45;&gt;1 -->
<g id="edge2" class="edge">
<title>0&#45;&gt;1</title>
<path fill="none" stroke="black" d="M74.08,-22C82.89,-22 93.9,-22 104.21,-22"/>
<polygon fill="black" stroke="black" points="103.89,-25.5 113.89,-22 103.89,-18.5 103.89,-25.5"/>
<text text-anchor="middle" x="94.72" y="-25.2" font-family="Times New Roman,serif" font-size="14.00">a</text>
</g>
<!-- 1&#45;&gt;1 -->
<g id="edge3" class="edge">
<title>1&#45;&gt;1</title>
<path fill="none" stroke="black" d="M129.85,-42.99C128.88,-53.09 131.51,-62 137.72,-62 141.41,-62 143.83,-58.86 144.99,-54.19"/>
<polygon fill="black" stroke="black" points="148.47,-54.67 145.51,-44.5 141.48,-54.3 148.47,-54.67"/>
<text text-anchor="middle" x="137.72" y="-65.2" font-family="Times New Roman,serif" font-size="14.00">b, c</text>
</g>
</g>
</svg>
