<?xml version="1.0" encoding="UTF-8" standalone="no"?>
<!DOCTYPE svg PUBLIC "-//W3C//DTD SVG 1.1//EN"
 "http://www.w3.org/Graphics/SVG/1.1/DTD/svg11.dtd">
<!-- Generated by graphviz version 12.1.0 (20240811.2233)
 -->
<!-- Title: G Pages: 1 -->
<svg width="404pt" height="115pt"
 viewBox="0.00 0.00 403.97 114.72" xmlns="http://www.w3.org/2000/svg" xmlns:xlink="http://www.w3.org/1999/xlink">
<g id="graph0" class="graph" transform="scale(1 1) rotate(0) translate(4 110.72)">
<title>G</title>
<polygon fill="white" stroke="none" points="-4,4 -4,-110.72 399.97,-110.72 399.97,4 -4,4"/>
<!-- n__ -->
<g id="node1" class="node">
<title>n__</title>
</g>
<!-- 0 -->
<g id="node2" class="node">
<title>0</title>
<ellipse fill="none" stroke="black" cx="55.72" cy="-33" rx="18" ry="18"/>
</g>
<!-- n__&#45;&gt;0 -->
<g id="edge1" class="edge">
<title>n__&#45;&gt;0</title>
<path fill="none" stroke="black" d="M0.87,-33C2.34,-33 13.93,-33 25.99,-33"/>
<polygon fill="black" stroke="black" points="25.86,-36.5 35.86,-33 25.86,-29.5 25.86,-36.5"/>
</g>
<!-- 2 -->
<g id="node4" class="node">
<title>2</title>
<ellipse fill="none" stroke="black" cx="134.47" cy="-70" rx="18" ry="18"/>
</g>
<!-- 0&#45;&gt;2 -->
<g id="edge2" class="edge">
<title>0&#45;&gt;2</title>
<path fill="none" stroke="black" d="M71.97,-41.05C78.08,-44.21 85.2,-47.84 91.72,-51 96.74,-53.43 102.14,-55.96 107.34,-58.34"/>
<polygon fill="black" stroke="black" points="105.6,-61.39 116.15,-62.33 108.49,-55.02 105.6,-61.39"/>
<text text-anchor="middle" x="95.1" y="-56.89" font-family="Times New Roman,serif" font-size="14.00">a</text>
</g>
<!-- 3 -->
<g id="node5" class="node">
<title>3</title>
<ellipse fill="none" stroke="black" cx="377.97" cy="-33" rx="18" ry="18"/>
</g>
<!-- 0&#45;&gt;3 -->
<g id="edge3" class="edge">
<title>0&#45;&gt;3</title>
<path fill="none" stroke="black" d="M70.94,-22.74C85.78,-13.05 110.12,0 133.47,0 133.47,0 133.47,0 296.22,0 316.28,0 337.19,-8.83 352.71,-17.36"/>
<polygon fill="black" stroke="black" points="350.81,-20.3 361.21,-22.33 354.35,-14.26 350.81,-20.3"/>
<text text-anchor="middle" x="212.47" y="-3.2" font-family="Times New Roman,serif" font-size="14.00">b</text>
</g>
<!-- 1 -->
<g id="node3" class="node">
<title>1</title>
<ellipse fill="none" stroke="black" cx="295.22" cy="-69" rx="18" ry="18"/>
<ellipse fill="none" stroke="black" cx="295.22" cy="-69" rx="22" ry="22"/>
</g>
<!-- 1&#45;&gt;2 -->
<g id="edge8" class="edge">
<title>1&#45;&gt;2</title>
<path fill="none" stroke="black" d="M274.76,-77.92C268.63,-80.33 261.76,-82.65 255.22,-84 218.33,-91.62 207.37,-92.57 170.47,-85 167.42,-84.37 164.3,-83.47 161.25,-82.41"/>
<polygon fill="black" stroke="black" points="162.69,-79.22 152.11,-78.69 160.06,-85.7 162.69,-79.22"/>
<text text-anchor="middle" x="212.47" y="-93.42" font-family="Times New Roman,serif" font-size="14.00">a</text>
</g>
<!-- 1&#45;&gt;3 -->
<g id="edge9" class="edge">
<title>1&#45;&gt;3</title>
<path fill="none" stroke="black" d="M316.44,-61.54C324.47,-58.46 333.73,-54.73 341.97,-51 345.17,-49.55 348.49,-47.96 351.76,-46.35"/>
<polygon fill="black" stroke="black" points="353.13,-49.57 360.45,-41.91 349.95,-43.34 353.13,-49.57"/>
<text text-anchor="middle" x="338.6" y="-56.89" font-family="Times New Roman,serif" font-size="14.00">b</text>
</g>
<!-- 2&#45;&gt;0 -->
<g id="edge4" class="edge">
<title>2&#45;&gt;0</title>
<path fill="none" stroke="black" d="M124.55,-54.67C118.46,-45.81 109.5,-35.46 98.47,-30.5 94.27,-28.61 89.59,-27.81 84.92,-27.68"/>
<polygon fill="black" stroke="black" points="84.87,-24.17 75.14,-28.37 85.36,-31.15 84.87,-24.17"/>
<text text-anchor="middle" x="95.1" y="-33.7" font-family="Times New Roman,serif" font-size="14.00">b</text>
</g>
<!-- 4 -->
<g id="node6" class="node">
<title>4</title>
<ellipse fill="none" stroke="black" cx="212.47" cy="-58" rx="18" ry="18"/>
</g>
<!-- 2&#45;&gt;4 -->
<g id="edge5" class="edge">
<title>2&#45;&gt;4</title>
<path fill="none" stroke="black" d="M152.72,-67.28C161.66,-65.87 172.81,-64.1 182.98,-62.5"/>
<polygon fill="black" stroke="black" points="183.47,-65.97 192.8,-60.95 182.37,-59.05 183.47,-65.97"/>
<text text-anchor="middle" x="173.47" y="-67.56" font-family="Times New Roman,serif" font-size="14.00">c</text>
</g>
<!-- 3&#45;&gt;1 -->
<g id="edge6" class="edge">
<title>3&#45;&gt;1</title>
<path fill="none" stroke="black" d="M359.77,-31.04C352.02,-30.8 342.9,-31.43 335.22,-34.5 329.24,-36.89 323.57,-40.62 318.49,-44.76"/>
<polygon fill="black" stroke="black" points="316.21,-42.11 311.19,-51.44 320.93,-47.28 316.21,-42.11"/>
<text text-anchor="middle" x="338.6" y="-37.7" font-family="Times New Roman,serif" font-size="14.00">c</text>
</g>
<!-- 4&#45;&gt;1 -->
<g id="edge7" class="edge">
<title>4&#45;&gt;1</title>
<path fill="none" stroke="black" d="M230.59,-60.33C239.71,-61.57 251.21,-63.14 261.93,-64.6"/>
<polygon fill="black" stroke="black" points="261.22,-68.04 271.6,-65.92 262.16,-61.1 261.22,-68.04"/>
<text text-anchor="middle" x="251.85" y="-66.7" font-family="Times New Roman,serif" font-size="14.00">b</text>
</g>
</g>
</svg>
