<?xml version="1.0" encoding="UTF-8" standalone="no"?>
<!DOCTYPE svg PUBLIC "-//W3C//DTD SVG 1.1//EN"
 "http://www.w3.org/Graphics/SVG/1.1/DTD/svg11.dtd">
<!-- Generated by graphviz version 12.1.1 (20240910.0053)
 -->
<!-- Title: G Pages: 1 -->
<svg width="432pt" height="280pt"
 viewBox="0.00 0.00 431.78 279.50" xmlns="http://www.w3.org/2000/svg" xmlns:xlink="http://www.w3.org/1999/xlink">
<g id="graph0" class="graph" transform="scale(1 1) rotate(0) translate(4 275.5)">
<title>G</title>
<polygon fill="white" stroke="none" points="-4,4 -4,-275.5 427.78,-275.5 427.78,4 -4,4"/>
<!-- n__ -->
<g id="node1" class="node">
<title>n__</title>
</g>
<!-- 0 -->
<g id="node2" class="node">
<title>0</title>
<ellipse fill="none" stroke="black" cx="61.85" cy="-126" rx="20.13" ry="20.13"/>
<ellipse fill="none" stroke="black" cx="61.85" cy="-126" rx="24.13" ry="24.13"/>
<text text-anchor="middle" x="61.85" y="-120.95" font-family="Times New Roman,serif" font-size="14.00">q0</text>
</g>
<!-- n__&#45;&gt;0 -->
<g id="edge1" class="edge">
<title>n__&#45;&gt;0</title>
<path fill="none" stroke="black" d="M0.76,-126C1.56,-126 13.19,-126 26.01,-126"/>
<polygon fill="black" stroke="black" points="25.83,-129.5 35.83,-126 25.83,-122.5 25.83,-129.5"/>
</g>
<!-- 1 -->
<g id="node3" class="node">
<title>1</title>
<ellipse fill="none" stroke="black" cx="399.65" cy="-172" rx="20.13" ry="20.13"/>
<ellipse fill="none" stroke="black" cx="399.65" cy="-172" rx="24.13" ry="24.13"/>
<text text-anchor="middle" x="399.65" y="-166.95" font-family="Times New Roman,serif" font-size="14.00">q5</text>
</g>
<!-- 0&#45;&gt;1 -->
<g id="edge12" class="edge">
<title>0&#45;&gt;1</title>
<path fill="none" stroke="black" d="M67.21,-149.96C75.54,-187.27 97.49,-255 147.11,-255 147.11,-255 147.11,-255 313.64,-255 344.5,-255 368.33,-226.65 382.8,-203.08"/>
<polygon fill="black" stroke="black" points="385.68,-205.09 387.66,-194.68 379.62,-201.58 385.68,-205.09"/>
<text text-anchor="middle" x="230.38" y="-258.2" font-family="Times New Roman,serif" font-size="14.00">b</text>
</g>
<!-- 6 -->
<g id="node4" class="node">
<title>6</title>
<ellipse fill="none" stroke="black" cx="148.11" cy="-126" rx="20.13" ry="20.13"/>
<text text-anchor="middle" x="148.11" y="-120.95" font-family="Times New Roman,serif" font-size="14.00">q2</text>
</g>
<!-- 0&#45;&gt;6 -->
<g id="edge3" class="edge">
<title>0&#45;&gt;6</title>
<path fill="none" stroke="black" d="M86.32,-126C95.6,-126 106.39,-126 116.29,-126"/>
<polygon fill="black" stroke="black" points="116.23,-129.5 126.23,-126 116.23,-122.5 116.23,-129.5"/>
<text text-anchor="middle" x="106.98" y="-129.2" font-family="Times New Roman,serif" font-size="14.00">a</text>
</g>
<!-- 7 -->
<g id="node5" class="node">
<title>7</title>
<ellipse fill="none" stroke="black" cx="230.38" cy="-73" rx="20.13" ry="20.13"/>
<text text-anchor="middle" x="230.38" y="-67.95" font-family="Times New Roman,serif" font-size="14.00">q1</text>
</g>
<!-- 0&#45;&gt;7 -->
<g id="edge2" class="edge">
<title>0&#45;&gt;7</title>
<path fill="none" stroke="black" d="M80.18,-109.98C92.52,-99.6 110.05,-86.88 127.98,-80.5 150.78,-72.39 178.24,-70.81 198.83,-71.1"/>
<polygon fill="black" stroke="black" points="198.45,-74.59 208.56,-71.4 198.67,-67.59 198.45,-74.59"/>
<text text-anchor="middle" x="148.11" y="-83.7" font-family="Times New Roman,serif" font-size="14.00">a</text>
</g>
<!-- 8 -->
<g id="node6" class="node">
<title>8</title>
<ellipse fill="none" stroke="black" cx="312.64" cy="-164" rx="20.13" ry="20.13"/>
<text text-anchor="middle" x="312.64" y="-158.95" font-family="Times New Roman,serif" font-size="14.00">q3</text>
</g>
<!-- 0&#45;&gt;8 -->
<g id="edge4" class="edge">
<title>0&#45;&gt;8</title>
<path fill="none" stroke="black" d="M76.25,-145.82C87.89,-161.11 106.27,-181.12 127.98,-190 179.98,-211.27 246.39,-191.48 283.43,-176.71"/>
<polygon fill="black" stroke="black" points="284.65,-179.99 292.54,-172.92 281.96,-173.53 284.65,-179.99"/>
<text text-anchor="middle" x="189.24" y="-202.35" font-family="Times New Roman,serif" font-size="14.00">a</text>
</g>
<!-- 9 -->
<g id="node7" class="node">
<title>9</title>
<ellipse fill="none" stroke="black" cx="399.65" cy="-46" rx="20.13" ry="20.13"/>
<ellipse fill="none" stroke="black" cx="399.65" cy="-46" rx="24.13" ry="24.13"/>
<text text-anchor="middle" x="399.65" y="-40.95" font-family="Times New Roman,serif" font-size="14.00">q4</text>
</g>
<!-- 0&#45;&gt;9 -->
<g id="edge11" class="edge">
<title>0&#45;&gt;9</title>
<path fill="none" stroke="black" d="M67.47,-102.3C76.1,-65.8 98.43,0 147.11,0 147.11,0 147.11,0 313.64,0 335.24,0 356.61,-11.63 372.53,-23.2"/>
<polygon fill="black" stroke="black" points="369.97,-25.65 380.03,-28.99 374.25,-20.11 369.97,-25.65"/>
<text text-anchor="middle" x="230.38" y="-3.2" font-family="Times New Roman,serif" font-size="14.00">b</text>
</g>
<!-- 6&#45;&gt;6 -->
<g id="edge6" class="edge">
<title>6&#45;&gt;6</title>
<path fill="none" stroke="black" d="M140.67,-145.23C139.53,-155.17 142.01,-164.13 148.11,-164.13 151.64,-164.13 153.96,-161.14 155.07,-156.69"/>
<polygon fill="black" stroke="black" points="158.56,-156.88 155.49,-146.74 151.57,-156.58 158.56,-156.88"/>
<text text-anchor="middle" x="148.11" y="-167.33" font-family="Times New Roman,serif" font-size="14.00">a</text>
</g>
<!-- 6&#45;&gt;7 -->
<g id="edge5" class="edge">
<title>6&#45;&gt;7</title>
<path fill="none" stroke="black" d="M162.15,-111.16C168.83,-104.21 177.41,-96.22 186.24,-90.5 190.64,-87.66 195.57,-85.13 200.48,-82.95"/>
<polygon fill="black" stroke="black" points="201.63,-86.26 209.6,-79.28 199.01,-79.77 201.63,-86.26"/>
<text text-anchor="middle" x="189.24" y="-93.7" font-family="Times New Roman,serif" font-size="14.00">a</text>
</g>
<!-- 6&#45;&gt;8 -->
<g id="edge7" class="edge">
<title>6&#45;&gt;8</title>
<path fill="none" stroke="black" d="M168.08,-130.43C196.01,-136.97 248.51,-149.24 281.69,-157"/>
<polygon fill="black" stroke="black" points="280.54,-160.32 291.07,-159.19 282.13,-153.51 280.54,-160.32"/>
<text text-anchor="middle" x="230.38" y="-152.6" font-family="Times New Roman,serif" font-size="14.00">a</text>
</g>
<!-- 7&#45;&gt;1 -->
<g id="edge14" class="edge">
<title>7&#45;&gt;1</title>
<path fill="none" stroke="black" d="M250.64,-75.19C277,-79 324.77,-88.89 357.52,-113 367.4,-120.27 375.75,-130.65 382.3,-140.68"/>
<polygon fill="black" stroke="black" points="379.27,-142.44 387.45,-149.18 385.26,-138.81 379.27,-142.44"/>
<text text-anchor="middle" x="312.64" y="-101.13" font-family="Times New Roman,serif" font-size="14.00">b</text>
</g>
<!-- 7&#45;&gt;6 -->
<g id="edge9" class="edge">
<title>7&#45;&gt;6</title>
<path fill="none" stroke="black" d="M215.83,-87.41C209.16,-93.96 200.74,-101.46 192.24,-107 187.81,-109.9 182.86,-112.54 177.93,-114.88"/>
<polygon fill="black" stroke="black" points="176.56,-111.66 168.8,-118.88 179.37,-118.07 176.56,-111.66"/>
<text text-anchor="middle" x="189.24" y="-113.51" font-family="Times New Roman,serif" font-size="14.00">a</text>
</g>
<!-- 7&#45;&gt;7 -->
<g id="edge8" class="edge">
<title>7&#45;&gt;7</title>
<path fill="none" stroke="black" d="M222.93,-92.23C221.79,-102.17 224.27,-111.13 230.38,-111.13 233.91,-111.13 236.22,-108.14 237.33,-103.69"/>
<polygon fill="black" stroke="black" points="240.82,-103.88 237.75,-93.74 233.83,-103.58 240.82,-103.88"/>
<text text-anchor="middle" x="230.38" y="-114.33" font-family="Times New Roman,serif" font-size="14.00">a</text>
</g>
<!-- 7&#45;&gt;8 -->
<g id="edge10" class="edge">
<title>7&#45;&gt;8</title>
<path fill="none" stroke="black" d="M244.27,-87.62C256.95,-102 276.5,-124.16 291.28,-140.91"/>
<polygon fill="black" stroke="black" points="288.27,-142.79 297.51,-147.98 293.52,-138.16 288.27,-142.79"/>
<text text-anchor="middle" x="271.51" y="-124.43" font-family="Times New Roman,serif" font-size="14.00">a</text>
</g>
<!-- 7&#45;&gt;9 -->
<g id="edge13" class="edge">
<title>7&#45;&gt;9</title>
<path fill="none" stroke="black" d="M250.31,-68.79C262.36,-66.2 278.3,-62.92 292.51,-60.5 316.37,-56.43 343.41,-52.75 364.23,-50.12"/>
<polygon fill="black" stroke="black" points="364.4,-53.62 373.89,-48.92 363.53,-46.68 364.4,-53.62"/>
<text text-anchor="middle" x="312.64" y="-63.7" font-family="Times New Roman,serif" font-size="14.00">b</text>
</g>
<!-- 8&#45;&gt;1 -->
<g id="edge16" class="edge">
<title>8&#45;&gt;1</title>
<path fill="none" stroke="black" d="M332.93,-165.82C342.14,-166.68 353.45,-167.75 364.07,-168.75"/>
<polygon fill="black" stroke="black" points="363.4,-172.2 373.69,-169.65 364.06,-165.23 363.4,-172.2"/>
<text text-anchor="middle" x="354.14" y="-171.2" font-family="Times New Roman,serif" font-size="14.00">b</text>
</g>
<!-- 8&#45;&gt;9 -->
<g id="edge15" class="edge">
<title>8&#45;&gt;9</title>
<path fill="none" stroke="black" d="M325.1,-148.09C338.67,-129.26 361.5,-97.57 378.13,-74.48"/>
<polygon fill="black" stroke="black" points="380.95,-76.56 383.95,-66.4 375.27,-72.47 380.95,-76.56"/>
<text text-anchor="middle" x="354.14" y="-115.26" font-family="Times New Roman,serif" font-size="14.00">b</text>
</g>
</g>
</svg>
