<?xml version="1.0" encoding="UTF-8" standalone="no"?>
<!DOCTYPE svg PUBLIC "-//W3C//DTD SVG 1.1//EN"
 "http://www.w3.org/Graphics/SVG/1.1/DTD/svg11.dtd">
<!-- Generated by graphviz version 12.1.0 (20240811.2233)
 -->
<!-- Title: G Pages: 1 -->
<svg width="727pt" height="664pt"
 viewBox="0.00 0.00 726.88 663.50" xmlns="http://www.w3.org/2000/svg" xmlns:xlink="http://www.w3.org/1999/xlink">
<g id="graph0" class="graph" transform="scale(1 1) rotate(0) translate(4 659.5)">
<title>G</title>
<polygon fill="white" stroke="none" points="-4,4 -4,-659.5 722.88,-659.5 722.88,4 -4,4"/>
<!-- n__ -->
<g id="node1" class="node">
<title>n__</title>
</g>
<!-- 0 -->
<g id="node2" class="node">
<title>0</title>
<ellipse fill="none" stroke="black" cx="57.85" cy="-455" rx="20.13" ry="20.13"/>
<text text-anchor="middle" x="57.85" y="-449.95" font-family="Times New Roman,serif" font-size="14.00">q0</text>
</g>
<!-- n__&#45;&gt;0 -->
<g id="edge1" class="edge">
<title>n__&#45;&gt;0</title>
<path fill="none" stroke="black" d="M0.88,-455C2.37,-455 13.93,-455 26.16,-455"/>
<polygon fill="black" stroke="black" points="25.79,-458.5 35.79,-455 25.79,-451.5 25.79,-458.5"/>
</g>
<!-- 4 -->
<g id="node4" class="node">
<title>4</title>
<ellipse fill="none" stroke="black" cx="140.11" cy="-455" rx="20.13" ry="20.13"/>
<text text-anchor="middle" x="140.11" y="-449.95" font-family="Times New Roman,serif" font-size="14.00">q4</text>
</g>
<!-- 0&#45;&gt;4 -->
<g id="edge2" class="edge">
<title>0&#45;&gt;4</title>
<path fill="none" stroke="black" d="M78.28,-455C87.28,-455 98.2,-455 108.29,-455"/>
<polygon fill="black" stroke="black" points="108.07,-458.5 118.07,-455 108.07,-451.5 108.07,-458.5"/>
<text text-anchor="middle" x="98.98" y="-458.2" font-family="Times New Roman,serif" font-size="14.00">a</text>
</g>
<!-- 12 -->
<g id="node11" class="node">
<title>12</title>
<ellipse fill="none" stroke="black" cx="593.92" cy="-385" rx="24.74" ry="24.74"/>
<text text-anchor="middle" x="593.92" y="-379.95" font-family="Times New Roman,serif" font-size="14.00">q12</text>
</g>
<!-- 0&#45;&gt;12 -->
<g id="edge13" class="edge">
<title>0&#45;&gt;12</title>
<path fill="none" stroke="black" d="M58.65,-475.39C59.35,-523.3 68.37,-639 139.11,-639 139.11,-639 139.11,-639 356.73,-639 389.4,-639 401.86,-636.78 426.21,-615 459.21,-585.47 443.51,-561.24 468.96,-525 489.81,-495.3 501.63,-493.5 526.43,-467 537.78,-454.87 540.6,-451.8 551.18,-439 557.93,-430.84 565.05,-421.8 571.47,-413.48"/>
<polygon fill="black" stroke="black" points="574.13,-415.76 577.43,-405.69 568.57,-411.5 574.13,-415.76"/>
<text text-anchor="middle" x="309.99" y="-642.2" font-family="Times New Roman,serif" font-size="14.00">b</text>
</g>
<!-- 16 -->
<g id="node14" class="node">
<title>16</title>
<ellipse fill="none" stroke="black" cx="309.99" cy="-327" rx="24.74" ry="24.74"/>
<text text-anchor="middle" x="309.99" y="-321.95" font-family="Times New Roman,serif" font-size="14.00">q16</text>
</g>
<!-- 0&#45;&gt;16 -->
<g id="edge3" class="edge">
<title>0&#45;&gt;16</title>
<path fill="none" stroke="black" d="M70.77,-439.13C90.25,-414.5 131.45,-367.61 178.24,-345.5 208.4,-331.25 246.5,-327.22 273.78,-326.4"/>
<polygon fill="black" stroke="black" points="273.67,-329.9 283.61,-326.25 273.56,-322.9 273.67,-329.9"/>
<text text-anchor="middle" x="181.62" y="-348.7" font-family="Times New Roman,serif" font-size="14.00">a</text>
</g>
<!-- 2 -->
<g id="node3" class="node">
<title>2</title>
<ellipse fill="none" stroke="black" cx="223.13" cy="-487" rx="20.13" ry="20.13"/>
<text text-anchor="middle" x="223.13" y="-481.95" font-family="Times New Roman,serif" font-size="14.00">q2</text>
</g>
<!-- 2&#45;&gt;4 -->
<g id="edge4" class="edge">
<title>2&#45;&gt;4</title>
<path fill="none" stroke="black" d="M203.21,-491.84C195.25,-492.98 186.05,-493.1 178.24,-490 171.91,-487.49 166.04,-483.33 160.91,-478.74"/>
<polygon fill="black" stroke="black" points="163.65,-476.52 154.12,-471.89 158.68,-481.45 163.65,-476.52"/>
<text text-anchor="middle" x="181.62" y="-494.87" font-family="Times New Roman,serif" font-size="14.00">a</text>
</g>
<!-- 4&#45;&gt;2 -->
<g id="edge15" class="edge">
<title>4&#45;&gt;2</title>
<path fill="none" stroke="black" d="M159.65,-460.58C167.54,-463.09 176.8,-466.23 184.99,-469.5 188.03,-470.71 191.18,-472.06 194.29,-473.44"/>
<polygon fill="black" stroke="black" points="192.65,-476.53 203.19,-477.55 195.58,-470.18 192.65,-476.53"/>
<text text-anchor="middle" x="181.62" y="-472.7" font-family="Times New Roman,serif" font-size="14.00">b</text>
</g>
<!-- 5 -->
<g id="node5" class="node">
<title>5</title>
<ellipse fill="none" stroke="black" cx="223.13" cy="-383" rx="20.13" ry="20.13"/>
<text text-anchor="middle" x="223.13" y="-377.95" font-family="Times New Roman,serif" font-size="14.00">q5</text>
</g>
<!-- 4&#45;&gt;5 -->
<g id="edge14" class="edge">
<title>4&#45;&gt;5</title>
<path fill="none" stroke="black" d="M151.85,-438.67C158.66,-429.13 168.07,-417.27 178.24,-408.5 183.17,-404.26 188.89,-400.34 194.55,-396.92"/>
<polygon fill="black" stroke="black" points="196.17,-400.02 203.16,-392.06 192.73,-393.93 196.17,-400.02"/>
<text text-anchor="middle" x="181.62" y="-411.7" font-family="Times New Roman,serif" font-size="14.00">b</text>
</g>
<!-- 6 -->
<g id="node6" class="node">
<title>6</title>
<ellipse fill="none" stroke="black" cx="223.13" cy="-545" rx="20.13" ry="20.13"/>
<text text-anchor="middle" x="223.13" y="-539.95" font-family="Times New Roman,serif" font-size="14.00">q6</text>
</g>
<!-- 4&#45;&gt;6 -->
<g id="edge16" class="edge">
<title>4&#45;&gt;6</title>
<path fill="none" stroke="black" d="M150.41,-472.58C157.19,-484.46 167.11,-500.09 178.24,-512 183.67,-517.8 190.21,-523.32 196.56,-528.13"/>
<polygon fill="black" stroke="black" points="194.2,-530.74 204.37,-533.73 198.28,-525.06 194.2,-530.74"/>
<text text-anchor="middle" x="181.62" y="-521.48" font-family="Times New Roman,serif" font-size="14.00">b</text>
</g>
<!-- 8 -->
<g id="node8" class="node">
<title>8</title>
<ellipse fill="none" stroke="black" cx="497.69" cy="-387" rx="20.13" ry="20.13"/>
<text text-anchor="middle" x="497.69" y="-381.95" font-family="Times New Roman,serif" font-size="14.00">q8</text>
</g>
<!-- 4&#45;&gt;8 -->
<g id="edge17" class="edge">
<title>4&#45;&gt;8</title>
<path fill="none" stroke="black" d="M160.23,-451.34C218.59,-440.18 394.82,-406.48 466.19,-392.83"/>
<polygon fill="black" stroke="black" points="466.83,-396.27 476,-390.96 465.52,-389.4 466.83,-396.27"/>
<text text-anchor="middle" x="309.99" y="-430.17" font-family="Times New Roman,serif" font-size="14.00">b</text>
</g>
<!-- 10 -->
<g id="node10" class="node">
<title>10</title>
<ellipse fill="none" stroke="black" cx="690.14" cy="-526" rx="24.74" ry="24.74"/>
<text text-anchor="middle" x="690.14" y="-520.95" font-family="Times New Roman,serif" font-size="14.00">q10</text>
</g>
<!-- 4&#45;&gt;10 -->
<g id="edge18" class="edge">
<title>4&#45;&gt;10</title>
<path fill="none" stroke="black" d="M144.39,-475.14C150.3,-503.73 165.77,-554.73 202.99,-574 357.25,-653.85 575.84,-575.21 657.1,-540.57"/>
<polygon fill="black" stroke="black" points="658.03,-543.98 665.81,-536.79 655.24,-537.56 658.03,-543.98"/>
<text text-anchor="middle" x="401.47" y="-611.57" font-family="Times New Roman,serif" font-size="14.00">b</text>
</g>
<!-- 14 -->
<g id="node13" class="node">
<title>14</title>
<ellipse fill="none" stroke="black" cx="690.14" cy="-65" rx="24.74" ry="24.74"/>
<text text-anchor="middle" x="690.14" y="-59.95" font-family="Times New Roman,serif" font-size="14.00">q14</text>
</g>
<!-- 4&#45;&gt;14 -->
<g id="edge19" class="edge">
<title>4&#45;&gt;14</title>
<path fill="none" stroke="black" d="M142.55,-434.57C149.06,-346.03 177.34,0 222.13,0 222.13,0 222.13,0 594.92,0 623.18,0 649.12,-20.06 666.6,-37.89"/>
<polygon fill="black" stroke="black" points="663.6,-39.81 672.98,-44.74 668.72,-35.04 663.6,-39.81"/>
<text text-anchor="middle" x="401.47" y="-3.2" font-family="Times New Roman,serif" font-size="14.00">b</text>
</g>
<!-- 5&#45;&gt;4 -->
<g id="edge5" class="edge">
<title>5&#45;&gt;4</title>
<path fill="none" stroke="black" d="M206.2,-371.28C197.45,-366.36 186.69,-362.94 178.24,-368.5 159.74,-380.7 150.42,-404.25 145.75,-423.7"/>
<polygon fill="black" stroke="black" points="142.34,-422.87 143.75,-433.37 149.2,-424.28 142.34,-422.87"/>
<text text-anchor="middle" x="181.62" y="-371.7" font-family="Times New Roman,serif" font-size="14.00">a</text>
</g>
<!-- 5&#45;&gt;12 -->
<g id="edge20" class="edge">
<title>5&#45;&gt;12</title>
<path fill="none" stroke="black" d="M242.68,-388.81C290.21,-402.88 420.1,-436.19 526.43,-416 538.76,-413.66 551.44,-408.53 562.39,-403.1"/>
<polygon fill="black" stroke="black" points="563.72,-406.36 570.94,-398.6 560.46,-400.16 563.72,-406.36"/>
<text text-anchor="middle" x="401.47" y="-424.75" font-family="Times New Roman,serif" font-size="14.00">b</text>
</g>
<!-- 5&#45;&gt;16 -->
<g id="edge6" class="edge">
<title>5&#45;&gt;16</title>
<path fill="none" stroke="black" d="M240.49,-372.2C251.47,-364.96 266.25,-355.21 279.27,-346.62"/>
<polygon fill="black" stroke="black" points="281.1,-349.6 287.52,-341.17 277.25,-343.75 281.1,-349.6"/>
<text text-anchor="middle" x="264.26" y="-361.55" font-family="Times New Roman,serif" font-size="14.00">a</text>
</g>
<!-- 6&#45;&gt;12 -->
<g id="edge21" class="edge">
<title>6&#45;&gt;12</title>
<path fill="none" stroke="black" d="M243.01,-540.81C295.09,-528.68 444.02,-490.13 551.18,-424 557.27,-420.24 563.25,-415.5 568.69,-410.63"/>
<polygon fill="black" stroke="black" points="570.79,-413.46 575.64,-404.04 565.97,-408.38 570.79,-413.46"/>
<text text-anchor="middle" x="401.47" y="-504.96" font-family="Times New Roman,serif" font-size="14.00">b</text>
</g>
<!-- 6&#45;&gt;16 -->
<g id="edge7" class="edge">
<title>6&#45;&gt;16</title>
<path fill="none" stroke="black" d="M235.79,-528.86C238.45,-524.78 241.12,-520.33 243.26,-516 268.75,-464.41 288.78,-400.45 299.74,-361.73"/>
<polygon fill="black" stroke="black" points="303,-363.07 302.31,-352.5 296.25,-361.19 303,-363.07"/>
<text text-anchor="middle" x="264.26" y="-474.08" font-family="Times New Roman,serif" font-size="14.00">a</text>
</g>
<!-- 7 -->
<g id="node7" class="node">
<title>7</title>
<ellipse fill="none" stroke="black" cx="690.14" cy="-297" rx="20.13" ry="20.13"/>
<ellipse fill="none" stroke="black" cx="690.14" cy="-297" rx="24.13" ry="24.13"/>
<text text-anchor="middle" x="690.14" y="-291.95" font-family="Times New Roman,serif" font-size="14.00">q7</text>
</g>
<!-- 8&#45;&gt;12 -->
<g id="edge22" class="edge">
<title>8&#45;&gt;12</title>
<path fill="none" stroke="black" d="M513.19,-374.09C521.66,-367.43 532.92,-359.99 544.43,-356.5 552.27,-354.13 560.18,-356.37 567.27,-360.45"/>
<polygon fill="black" stroke="black" points="564.93,-363.09 575.11,-366.03 568.99,-357.38 564.93,-363.09"/>
<text text-anchor="middle" x="547.81" y="-359.7" font-family="Times New Roman,serif" font-size="14.00">b</text>
</g>
<!-- 8&#45;&gt;16 -->
<g id="edge8" class="edge">
<title>8&#45;&gt;16</title>
<path fill="none" stroke="black" d="M478.21,-381.03C447.08,-370.97 383.77,-350.51 344.6,-337.86"/>
<polygon fill="black" stroke="black" points="345.8,-334.57 335.2,-334.82 343.64,-341.23 345.8,-334.57"/>
<text text-anchor="middle" x="401.47" y="-367.14" font-family="Times New Roman,serif" font-size="14.00">a</text>
</g>
<!-- 9 -->
<g id="node9" class="node">
<title>9</title>
<ellipse fill="none" stroke="black" cx="690.14" cy="-203" rx="20.13" ry="20.13"/>
<ellipse fill="none" stroke="black" cx="690.14" cy="-203" rx="24.13" ry="24.13"/>
<text text-anchor="middle" x="690.14" y="-197.95" font-family="Times New Roman,serif" font-size="14.00">q9</text>
</g>
<!-- 9&#45;&gt;12 -->
<g id="edge23" class="edge">
<title>9&#45;&gt;12</title>
<path fill="none" stroke="black" d="M678.17,-224.19C661.72,-255.97 630.54,-316.2 611.35,-353.25"/>
<polygon fill="black" stroke="black" points="608.47,-351.21 606.98,-361.7 614.69,-354.43 608.47,-351.21"/>
<text text-anchor="middle" x="640.03" y="-302.66" font-family="Times New Roman,serif" font-size="14.00">b</text>
</g>
<!-- 9&#45;&gt;16 -->
<g id="edge9" class="edge">
<title>9&#45;&gt;16</title>
<path fill="none" stroke="black" d="M667.71,-193.27C628.13,-176.61 541.05,-146.03 468.96,-163.5 424.15,-174.36 409.98,-179.06 376.73,-211 352.59,-234.19 334.75,-268.19 323.79,-293.39"/>
<polygon fill="black" stroke="black" points="320.6,-291.97 319.97,-302.54 327.05,-294.67 320.6,-291.97"/>
<text text-anchor="middle" x="497.69" y="-166.7" font-family="Times New Roman,serif" font-size="14.00">a</text>
</g>
<!-- 10&#45;&gt;12 -->
<g id="edge24" class="edge">
<title>10&#45;&gt;12</title>
<path fill="none" stroke="black" d="M667.75,-514.38C657.24,-507.79 645.05,-498.72 636.66,-488 620.92,-467.92 610.31,-441.1 603.72,-419.86"/>
<polygon fill="black" stroke="black" points="607.14,-419.09 600.98,-410.48 600.42,-421.06 607.14,-419.09"/>
<text text-anchor="middle" x="640.03" y="-497.77" font-family="Times New Roman,serif" font-size="14.00">b</text>
</g>
<!-- 12&#45;&gt;7 -->
<g id="edge36" class="edge">
<title>12&#45;&gt;7</title>
<path fill="none" stroke="black" d="M612.25,-367.92C619.71,-360.64 628.55,-352.09 636.66,-344.5 645.18,-336.52 654.6,-327.92 663.08,-320.26"/>
<polygon fill="black" stroke="black" points="665.29,-322.98 670.38,-313.69 660.61,-317.78 665.29,-322.98"/>
<text text-anchor="middle" x="640.03" y="-347.7" font-family="Times New Roman,serif" font-size="14.00">c</text>
</g>
<!-- 12&#45;&gt;8 -->
<g id="edge35" class="edge">
<title>12&#45;&gt;8</title>
<path fill="none" stroke="black" d="M568.73,-385.51C556.84,-385.77 542.38,-386.07 529.7,-386.34"/>
<polygon fill="black" stroke="black" points="529.65,-382.84 519.73,-386.55 529.8,-389.84 529.65,-382.84"/>
<text text-anchor="middle" x="547.81" y="-389.2" font-family="Times New Roman,serif" font-size="14.00">c</text>
</g>
<!-- 12&#45;&gt;9 -->
<g id="edge34" class="edge">
<title>12&#45;&gt;9</title>
<path fill="none" stroke="black" d="M601.71,-361.1C608.79,-337.93 621.03,-302.17 636.66,-273.5 645.06,-258.08 656.51,-242.28 666.58,-229.56"/>
<polygon fill="black" stroke="black" points="669.07,-232.03 672.64,-222.06 663.63,-227.63 669.07,-232.03"/>
<text text-anchor="middle" x="640.03" y="-276.7" font-family="Times New Roman,serif" font-size="14.00">c</text>
</g>
<!-- 12&#45;&gt;10 -->
<g id="edge37" class="edge">
<title>12&#45;&gt;10</title>
<path fill="none" stroke="black" d="M608.62,-405.5C624.62,-429.45 651.22,-469.25 669.43,-496.51"/>
<polygon fill="black" stroke="black" points="666.42,-498.3 674.89,-504.67 672.24,-494.41 666.42,-498.3"/>
<text text-anchor="middle" x="640.03" y="-458.7" font-family="Times New Roman,serif" font-size="14.00">c</text>
</g>
<!-- 13 -->
<g id="node12" class="node">
<title>13</title>
<ellipse fill="none" stroke="black" cx="690.14" cy="-405" rx="24.74" ry="24.74"/>
<ellipse fill="none" stroke="black" cx="690.14" cy="-405" rx="28.74" ry="28.74"/>
<text text-anchor="middle" x="690.14" y="-399.95" font-family="Times New Roman,serif" font-size="14.00">q13</text>
</g>
<!-- 12&#45;&gt;13 -->
<g id="edge33" class="edge">
<title>12&#45;&gt;13</title>
<path fill="none" stroke="black" d="M618.21,-389.94C628,-392.02 639.65,-394.49 650.65,-396.83"/>
<polygon fill="black" stroke="black" points="649.78,-400.22 660.29,-398.88 651.24,-393.38 649.78,-400.22"/>
<text text-anchor="middle" x="640.03" y="-398.2" font-family="Times New Roman,serif" font-size="14.00">c</text>
</g>
<!-- 12&#45;&gt;14 -->
<g id="edge38" class="edge">
<title>12&#45;&gt;14</title>
<path fill="none" stroke="black" d="M601.84,-361.29C610.11,-333.01 624.36,-284.29 636.66,-242.5 651.27,-192.85 668.27,-135.41 678.87,-99.64"/>
<polygon fill="black" stroke="black" points="682.16,-100.86 681.65,-90.27 675.45,-98.87 682.16,-100.86"/>
<text text-anchor="middle" x="640.03" y="-245.7" font-family="Times New Roman,serif" font-size="14.00">c</text>
</g>
<!-- 13&#45;&gt;12 -->
<g id="edge25" class="edge">
<title>13&#45;&gt;12</title>
<path fill="none" stroke="black" d="M670.2,-383.9C662.63,-376.98 653.35,-370.13 643.41,-366.5 637.48,-364.34 631.17,-364.74 625.13,-366.47"/>
<polygon fill="black" stroke="black" points="624.02,-363.14 616.09,-370.17 626.67,-369.62 624.02,-363.14"/>
<text text-anchor="middle" x="640.03" y="-369.7" font-family="Times New Roman,serif" font-size="14.00">b</text>
</g>
<!-- 13&#45;&gt;16 -->
<g id="edge10" class="edge">
<title>13&#45;&gt;16</title>
<path fill="none" stroke="black" d="M663.5,-416.72C634.76,-428.47 586.65,-444.03 544.43,-438 466.92,-426.93 444.52,-423.19 376.73,-384 362.04,-375.51 347.58,-363.49 335.98,-352.67"/>
<polygon fill="black" stroke="black" points="338.43,-350.18 328.8,-345.77 333.58,-355.22 338.43,-350.18"/>
<text text-anchor="middle" x="497.69" y="-438.59" font-family="Times New Roman,serif" font-size="14.00">a</text>
</g>
<!-- 14&#45;&gt;16 -->
<g id="edge11" class="edge">
<title>14&#45;&gt;16</title>
<path fill="none" stroke="black" d="M666.17,-57.71C647.25,-52.35 619.62,-46 594.92,-46 400.47,-46 400.47,-46 400.47,-46 349.68,-46 323.88,-214.75 314.83,-290.71"/>
<polygon fill="black" stroke="black" points="311.37,-290.22 313.7,-300.56 318.32,-291.03 311.37,-290.22"/>
<text text-anchor="middle" x="497.69" y="-49.2" font-family="Times New Roman,serif" font-size="14.00">a</text>
</g>
<!-- 18 -->
<g id="node15" class="node">
<title>18</title>
<ellipse fill="none" stroke="black" cx="401.47" cy="-245" rx="24.74" ry="24.74"/>
<text text-anchor="middle" x="401.47" y="-239.95" font-family="Times New Roman,serif" font-size="14.00">q18</text>
</g>
<!-- 16&#45;&gt;18 -->
<g id="edge39" class="edge">
<title>16&#45;&gt;18</title>
<path fill="none" stroke="black" d="M324.72,-307.13C332.29,-296.99 342.26,-284.85 352.73,-275.5 358.03,-270.77 364.13,-266.28 370.17,-262.28"/>
<polygon fill="black" stroke="black" points="371.6,-265.51 378.19,-257.22 367.86,-259.59 371.6,-265.51"/>
<text text-anchor="middle" x="355.73" y="-278.7" font-family="Times New Roman,serif" font-size="14.00">c</text>
</g>
<!-- 18&#45;&gt;7 -->
<g id="edge29" class="edge">
<title>18&#45;&gt;7</title>
<path fill="none" stroke="black" d="M426.47,-244.55C439.11,-244.34 454.87,-244.11 468.96,-244 494.5,-243.81 501.2,-239.99 526.43,-244 573.15,-251.42 624.7,-270.11 657,-283.18"/>
<polygon fill="black" stroke="black" points="655.6,-286.39 666.18,-286.97 658.27,-279.92 655.6,-286.39"/>
<text text-anchor="middle" x="547.81" y="-251.98" font-family="Times New Roman,serif" font-size="14.00">b</text>
</g>
<!-- 18&#45;&gt;8 -->
<g id="edge28" class="edge">
<title>18&#45;&gt;8</title>
<path fill="none" stroke="black" d="M415.2,-265.83C433.67,-296.05 466.05,-348.92 468.96,-353 471.4,-356.43 474.07,-359.96 476.77,-363.4"/>
<polygon fill="black" stroke="black" points="473.86,-365.36 482.87,-370.93 479.3,-360.95 473.86,-365.36"/>
<text text-anchor="middle" x="447.58" y="-324.68" font-family="Times New Roman,serif" font-size="14.00">b</text>
</g>
<!-- 18&#45;&gt;9 -->
<g id="edge27" class="edge">
<title>18&#45;&gt;9</title>
<path fill="none" stroke="black" d="M417.06,-225.66C424.28,-217.55 433.71,-208.88 444.21,-204 513.48,-171.77 606.18,-184.29 655.29,-194.62"/>
<polygon fill="black" stroke="black" points="654.51,-198.03 665.03,-196.78 656.03,-191.2 654.51,-198.03"/>
<text text-anchor="middle" x="547.81" y="-186.6" font-family="Times New Roman,serif" font-size="14.00">b</text>
</g>
<!-- 18&#45;&gt;10 -->
<g id="edge30" class="edge">
<title>18&#45;&gt;10</title>
<path fill="none" stroke="black" d="M417.34,-264.45C430.07,-280.39 449.38,-303.01 468.96,-320 492.08,-340.07 507.43,-333.98 526.43,-358 540.83,-376.19 532.71,-386.98 544.43,-407 576.31,-461.48 582.37,-482.8 636.66,-515 642.01,-518.18 648.15,-520.44 654.3,-522.06"/>
<polygon fill="black" stroke="black" points="653.22,-525.41 663.73,-524.02 654.64,-518.56 653.22,-525.41"/>
<text text-anchor="middle" x="547.81" y="-421.05" font-family="Times New Roman,serif" font-size="14.00">b</text>
</g>
<!-- 18&#45;&gt;14 -->
<g id="edge31" class="edge">
<title>18&#45;&gt;14</title>
<path fill="none" stroke="black" d="M417.85,-225.84C425.38,-216.95 434.83,-206.5 444.21,-198 509.35,-138.91 605.46,-96.69 655.72,-77.16"/>
<polygon fill="black" stroke="black" points="656.8,-80.5 664.9,-73.66 654.3,-73.96 656.8,-80.5"/>
<text text-anchor="middle" x="547.81" y="-131.56" font-family="Times New Roman,serif" font-size="14.00">b</text>
</g>
<!-- 19 -->
<g id="node16" class="node">
<title>19</title>
<ellipse fill="none" stroke="black" cx="497.69" cy="-282" rx="24.74" ry="24.74"/>
<ellipse fill="none" stroke="black" cx="497.69" cy="-282" rx="28.74" ry="28.74"/>
<text text-anchor="middle" x="497.69" y="-276.95" font-family="Times New Roman,serif" font-size="14.00">q19</text>
</g>
<!-- 18&#45;&gt;19 -->
<g id="edge26" class="edge">
<title>18&#45;&gt;19</title>
<path fill="none" stroke="black" d="M426.16,-246.66C434.22,-247.74 443.15,-249.53 450.96,-252.5 455.65,-254.29 460.37,-256.6 464.9,-259.15"/>
<polygon fill="black" stroke="black" points="462.79,-261.96 473.15,-264.2 466.45,-255.99 462.79,-261.96"/>
<text text-anchor="middle" x="447.58" y="-255.7" font-family="Times New Roman,serif" font-size="14.00">b</text>
</g>
<!-- 19&#45;&gt;12 -->
<g id="edge32" class="edge">
<title>19&#45;&gt;12</title>
<path fill="none" stroke="black" d="M519,-301.98C528.89,-311.89 540.85,-324.14 551.18,-335.5 557.56,-342.52 564.27,-350.28 570.4,-357.55"/>
<polygon fill="black" stroke="black" points="567.71,-359.79 576.81,-365.22 573.08,-355.3 567.71,-359.79"/>
<text text-anchor="middle" x="547.81" y="-338.7" font-family="Times New Roman,serif" font-size="14.00">b</text>
</g>
<!-- 19&#45;&gt;16 -->
<g id="edge12" class="edge">
<title>19&#45;&gt;16</title>
<path fill="none" stroke="black" d="M482.02,-306.49C474.25,-317.04 463.66,-328.25 450.96,-334 439.54,-339.16 438.09,-324.46 426.21,-320.5 400.03,-311.77 368.67,-314.32 345.28,-318.53"/>
<polygon fill="black" stroke="black" points="344.77,-315.07 335.66,-320.47 346.15,-321.93 344.77,-315.07"/>
<text text-anchor="middle" x="401.47" y="-323.7" font-family="Times New Roman,serif" font-size="14.00">a</text>
</g>
</g>
</svg>
