<?xml version="1.0" encoding="UTF-8" standalone="no"?>
<!DOCTYPE svg PUBLIC "-//W3C//DTD SVG 1.1//EN"
 "http://www.w3.org/Graphics/SVG/1.1/DTD/svg11.dtd">
<!-- Generated by graphviz version 12.1.0 (20240811.2233)
 -->
<!-- Title: G Pages: 1 -->
<svg width="725pt" height="306pt"
 viewBox="0.00 0.00 725.47 305.50" xmlns="http://www.w3.org/2000/svg" xmlns:xlink="http://www.w3.org/1999/xlink">
<g id="graph0" class="graph" transform="scale(1 1) rotate(0) translate(4 301.5)">
<title>G</title>
<polygon fill="white" stroke="none" points="-4,4 -4,-301.5 721.47,-301.5 721.47,4 -4,4"/>
<!-- n__ -->
<g id="node1" class="node">
<title>n__</title>
</g>
<!-- 0 -->
<g id="node2" class="node">
<title>0</title>
<ellipse fill="none" stroke="black" cx="55.72" cy="-125" rx="18" ry="18"/>
</g>
<!-- n__&#45;&gt;0 -->
<g id="edge1" class="edge">
<title>n__&#45;&gt;0</title>
<path fill="none" stroke="black" d="M0.87,-125C2.34,-125 13.93,-125 25.99,-125"/>
<polygon fill="black" stroke="black" points="25.86,-128.5 35.86,-125 25.86,-121.5 25.86,-128.5"/>
</g>
<!-- 1 -->
<g id="node3" class="node">
<title>1</title>
<ellipse fill="none" stroke="black" cx="133.72" cy="-125" rx="18" ry="18"/>
</g>
<!-- 0&#45;&gt;1 -->
<g id="edge2" class="edge">
<title>0&#45;&gt;1</title>
<path fill="none" stroke="black" d="M73.97,-125C82.84,-125 93.9,-125 104.02,-125"/>
<polygon fill="black" stroke="black" points="103.77,-128.5 113.77,-125 103.77,-121.5 103.77,-128.5"/>
<text text-anchor="middle" x="94.72" y="-128.2" font-family="Times New Roman,serif" font-size="14.00">a</text>
</g>
<!-- 6 -->
<g id="node8" class="node">
<title>6</title>
<ellipse fill="none" stroke="black" cx="612.72" cy="-129" rx="18" ry="18"/>
</g>
<!-- 0&#45;&gt;6 -->
<g id="edge4" class="edge">
<title>0&#45;&gt;6</title>
<path fill="none" stroke="black" d="M59.17,-107.09C65.02,-72.53 83.19,0 132.72,0 132.72,0 132.72,0 530.97,0 577.9,0 598.58,-62.1 606.84,-100.13"/>
<polygon fill="black" stroke="black" points="603.34,-100.46 608.73,-109.58 610.21,-99.09 603.34,-100.46"/>
<text text-anchor="middle" x="329.85" y="-3.2" font-family="Times New Roman,serif" font-size="14.00">b</text>
</g>
<!-- 8 -->
<g id="node10" class="node">
<title>8</title>
<ellipse fill="none" stroke="black" cx="369.22" cy="-225" rx="18" ry="18"/>
</g>
<!-- 0&#45;&gt;8 -->
<g id="edge3" class="edge">
<title>0&#45;&gt;8</title>
<path fill="none" stroke="black" d="M58.53,-143.21C63.29,-180.06 79.73,-260 132.72,-260 132.72,-260 132.72,-260 291.47,-260 310.75,-260 330.49,-250.75 345.12,-241.76"/>
<polygon fill="black" stroke="black" points="346.66,-244.93 353.11,-236.52 342.82,-239.08 346.66,-244.93"/>
<text text-anchor="middle" x="212.47" y="-263.2" font-family="Times New Roman,serif" font-size="14.00">a</text>
</g>
<!-- 2 -->
<g id="node4" class="node">
<title>2</title>
<ellipse fill="none" stroke="black" cx="212.47" cy="-153" rx="18" ry="18"/>
</g>
<!-- 1&#45;&gt;2 -->
<g id="edge5" class="edge">
<title>1&#45;&gt;2</title>
<path fill="none" stroke="black" d="M151,-130.94C160.77,-134.5 173.43,-139.12 184.65,-143.21"/>
<polygon fill="black" stroke="black" points="183.2,-146.41 193.79,-146.55 185.6,-139.84 183.2,-146.41"/>
<text text-anchor="middle" x="173.1" y="-143.04" font-family="Times New Roman,serif" font-size="14.00">b</text>
</g>
<!-- 4 -->
<g id="node6" class="node">
<title>4</title>
<ellipse fill="none" stroke="black" cx="212.47" cy="-99" rx="18" ry="18"/>
</g>
<!-- 1&#45;&gt;4 -->
<g id="edge6" class="edge">
<title>1&#45;&gt;4</title>
<path fill="none" stroke="black" d="M150.02,-116.26C156.01,-113.12 163.04,-109.8 169.72,-107.5 174.08,-106 178.79,-104.72 183.43,-103.65"/>
<polygon fill="black" stroke="black" points="183.95,-107.12 193.06,-101.71 182.56,-100.25 183.95,-107.12"/>
<text text-anchor="middle" x="173.1" y="-110.7" font-family="Times New Roman,serif" font-size="14.00">b</text>
</g>
<!-- 3 -->
<g id="node5" class="node">
<title>3</title>
<ellipse fill="none" stroke="black" cx="290.47" cy="-180" rx="18" ry="18"/>
</g>
<!-- 2&#45;&gt;3 -->
<g id="edge7" class="edge">
<title>2&#45;&gt;3</title>
<path fill="none" stroke="black" d="M229.96,-158.86C239.42,-162.22 251.54,-166.52 262.36,-170.37"/>
<polygon fill="black" stroke="black" points="260.99,-173.6 271.59,-173.65 263.33,-167 260.99,-173.6"/>
<text text-anchor="middle" x="251.47" y="-170.51" font-family="Times New Roman,serif" font-size="14.00">c</text>
</g>
<!-- 3&#45;&gt;1 -->
<g id="edge8" class="edge">
<title>3&#45;&gt;1</title>
<path fill="none" stroke="black" d="M272.87,-184.6C267.09,-185.98 260.54,-187.32 254.47,-188 227.74,-191.02 219.11,-190.81 194.47,-180 178.21,-172.87 163.49,-159.45 152.73,-147.65"/>
<polygon fill="black" stroke="black" points="155.5,-145.49 146.31,-140.22 150.2,-150.07 155.5,-145.49"/>
<text text-anchor="middle" x="212.47" y="-192.84" font-family="Times New Roman,serif" font-size="14.00">a</text>
</g>
<!-- 3&#45;&gt;6 -->
<g id="edge10" class="edge">
<title>3&#45;&gt;6</title>
<path fill="none" stroke="black" d="M302.67,-166.33C316.4,-151.23 341.18,-129 368.22,-129 368.22,-129 368.22,-129 530.97,-129 548.23,-129 567.56,-129 582.98,-129"/>
<polygon fill="black" stroke="black" points="582.88,-132.5 592.88,-129 582.88,-125.5 582.88,-132.5"/>
<text text-anchor="middle" x="447.22" y="-132.2" font-family="Times New Roman,serif" font-size="14.00">b</text>
</g>
<!-- 3&#45;&gt;8 -->
<g id="edge9" class="edge">
<title>3&#45;&gt;8</title>
<path fill="none" stroke="black" d="M306.63,-188.89C317.15,-195.05 331.38,-203.4 343.52,-210.52"/>
<polygon fill="black" stroke="black" points="341.39,-213.32 351.78,-215.36 344.93,-207.29 341.39,-213.32"/>
<text text-anchor="middle" x="329.85" y="-207.05" font-family="Times New Roman,serif" font-size="14.00">a</text>
</g>
<!-- 5 -->
<g id="node7" class="node">
<title>5</title>
<ellipse fill="none" stroke="black" cx="290.47" cy="-91" rx="18" ry="18"/>
</g>
<!-- 4&#45;&gt;5 -->
<g id="edge11" class="edge">
<title>4&#45;&gt;5</title>
<path fill="none" stroke="black" d="M230.72,-97.18C239.66,-96.24 250.81,-95.07 260.98,-94"/>
<polygon fill="black" stroke="black" points="261.21,-97.49 270.79,-92.97 260.48,-90.53 261.21,-97.49"/>
<text text-anchor="middle" x="251.47" y="-98.44" font-family="Times New Roman,serif" font-size="14.00">c</text>
</g>
<!-- 5&#45;&gt;1 -->
<g id="edge12" class="edge">
<title>5&#45;&gt;1</title>
<path fill="none" stroke="black" d="M276.32,-79.48C257.76,-64.7 222.95,-42.43 194.47,-55.5 174.71,-64.57 159.02,-83.76 148.69,-99.68"/>
<polygon fill="black" stroke="black" points="145.98,-97.4 143.75,-107.76 151.95,-101.05 145.98,-97.4"/>
<text text-anchor="middle" x="212.47" y="-58.7" font-family="Times New Roman,serif" font-size="14.00">a</text>
</g>
<!-- 5&#45;&gt;6 -->
<g id="edge14" class="edge">
<title>5&#45;&gt;6</title>
<path fill="none" stroke="black" d="M306.5,-82.31C321.59,-74.42 345.76,-64 368.22,-64 368.22,-64 368.22,-64 530.97,-64 557.94,-64 581.01,-86.28 595.5,-104.75"/>
<polygon fill="black" stroke="black" points="592.62,-106.74 601.37,-112.71 598.25,-102.58 592.62,-106.74"/>
<text text-anchor="middle" x="447.22" y="-67.2" font-family="Times New Roman,serif" font-size="14.00">b</text>
</g>
<!-- 5&#45;&gt;8 -->
<g id="edge13" class="edge">
<title>5&#45;&gt;8</title>
<path fill="none" stroke="black" d="M300.27,-106.37C313.4,-129.29 338.24,-172.66 353.98,-200.13"/>
<polygon fill="black" stroke="black" points="350.76,-201.56 358.77,-208.49 356.83,-198.08 350.76,-201.56"/>
<text text-anchor="middle" x="329.85" y="-165.22" font-family="Times New Roman,serif" font-size="14.00">a</text>
</g>
<!-- 7 -->
<g id="node9" class="node">
<title>7</title>
<ellipse fill="none" stroke="black" cx="695.47" cy="-169" rx="18" ry="18"/>
<ellipse fill="none" stroke="black" cx="695.47" cy="-169" rx="22" ry="22"/>
</g>
<!-- 6&#45;&gt;7 -->
<g id="edge15" class="edge">
<title>6&#45;&gt;7</title>
<path fill="none" stroke="black" d="M629.01,-136.97C635.12,-140.13 642.24,-143.77 648.72,-147 654.01,-149.63 659.67,-152.39 665.13,-155.04"/>
<polygon fill="black" stroke="black" points="663.38,-158.08 673.91,-159.25 666.41,-151.77 663.38,-158.08"/>
<text text-anchor="middle" x="652.1" y="-153.26" font-family="Times New Roman,serif" font-size="14.00">c</text>
</g>
<!-- 7&#45;&gt;6 -->
<g id="edge17" class="edge">
<title>7&#45;&gt;6</title>
<path fill="none" stroke="black" d="M683.12,-150.74C676.34,-141.62 666.84,-131.5 655.47,-126.5 651.25,-124.65 646.56,-123.86 641.89,-123.74"/>
<polygon fill="black" stroke="black" points="641.84,-120.23 632.11,-124.43 642.33,-127.22 641.84,-120.23"/>
<text text-anchor="middle" x="652.1" y="-129.7" font-family="Times New Roman,serif" font-size="14.00">b</text>
</g>
<!-- 7&#45;&gt;8 -->
<g id="edge16" class="edge">
<title>7&#45;&gt;8</title>
<path fill="none" stroke="black" d="M689.37,-190.59C680.25,-223.14 657.83,-281 613.72,-281 446.22,-281 446.22,-281 446.22,-281 422.79,-281 401.83,-263.54 387.89,-248.12"/>
<polygon fill="black" stroke="black" points="390.63,-245.95 381.5,-240.58 385.29,-250.47 390.63,-245.95"/>
<text text-anchor="middle" x="529.97" y="-284.2" font-family="Times New Roman,serif" font-size="14.00">a</text>
</g>
<!-- 9 -->
<g id="node11" class="node">
<title>9</title>
<ellipse fill="none" stroke="black" cx="447.22" cy="-235" rx="18" ry="18"/>
</g>
<!-- 8&#45;&gt;9 -->
<g id="edge18" class="edge">
<title>8&#45;&gt;9</title>
<path fill="none" stroke="black" d="M387.47,-227.27C396.41,-228.45 407.56,-229.91 417.73,-231.25"/>
<polygon fill="black" stroke="black" points="417.17,-234.71 427.54,-232.54 418.08,-227.77 417.17,-234.71"/>
<text text-anchor="middle" x="408.22" y="-233.5" font-family="Times New Roman,serif" font-size="14.00">c</text>
</g>
<!-- 10 -->
<g id="node12" class="node">
<title>10</title>
<ellipse fill="none" stroke="black" cx="529.97" cy="-182" rx="18" ry="18"/>
<ellipse fill="none" stroke="black" cx="529.97" cy="-182" rx="22" ry="22"/>
</g>
<!-- 9&#45;&gt;10 -->
<g id="edge19" class="edge">
<title>9&#45;&gt;10</title>
<path fill="none" stroke="black" d="M462.66,-225.52C473.43,-218.45 488.47,-208.58 501.51,-200.02"/>
<polygon fill="black" stroke="black" points="503.28,-203.05 509.72,-194.64 499.44,-197.2 503.28,-203.05"/>
<text text-anchor="middle" x="486.6" y="-214.87" font-family="Times New Roman,serif" font-size="14.00">b</text>
</g>
<!-- 10&#45;&gt;6 -->
<g id="edge21" class="edge">
<title>10&#45;&gt;6</title>
<path fill="none" stroke="black" d="M548.89,-170.24C560.33,-162.73 575.29,-152.91 587.75,-144.73"/>
<polygon fill="black" stroke="black" points="589.38,-147.85 595.82,-139.44 585.54,-142 589.38,-147.85"/>
<text text-anchor="middle" x="573.35" y="-158.7" font-family="Times New Roman,serif" font-size="14.00">b</text>
</g>
<!-- 10&#45;&gt;8 -->
<g id="edge20" class="edge">
<title>10&#45;&gt;8</title>
<path fill="none" stroke="black" d="M507.83,-181.47C487.29,-181.55 455.43,-183.23 429.22,-191.5 416.92,-195.38 404.35,-202.07 393.99,-208.46"/>
<polygon fill="black" stroke="black" points="392.22,-205.43 385.73,-213.8 396.02,-211.31 392.22,-205.43"/>
<text text-anchor="middle" x="447.22" y="-194.7" font-family="Times New Roman,serif" font-size="14.00">a</text>
</g>
</g>
</svg>
