<?xml version="1.0" encoding="UTF-8" standalone="no"?>
<!DOCTYPE svg PUBLIC "-//W3C//DTD SVG 1.1//EN"
 "http://www.w3.org/Graphics/SVG/1.1/DTD/svg11.dtd">
<!-- Generated by graphviz version 12.1.0 (20240811.2233)
 -->
<!-- Title: G Pages: 1 -->
<svg width="774pt" height="345pt"
 viewBox="0.00 0.00 774.08 344.50" xmlns="http://www.w3.org/2000/svg" xmlns:xlink="http://www.w3.org/1999/xlink">
<g id="graph0" class="graph" transform="scale(1 1) rotate(0) translate(4 340.5)">
<title>G</title>
<polygon fill="white" stroke="none" points="-4,4 -4,-340.5 770.08,-340.5 770.08,4 -4,4"/>
<!-- n__ -->
<g id="node1" class="node">
<title>n__</title>
</g>
<!-- 0 -->
<g id="node2" class="node">
<title>0</title>
<ellipse fill="none" stroke="black" cx="61.85" cy="-119" rx="20.13" ry="20.13"/>
<ellipse fill="none" stroke="black" cx="61.85" cy="-119" rx="24.13" ry="24.13"/>
<text text-anchor="middle" x="61.85" y="-113.95" font-family="Times New Roman,serif" font-size="14.00">q0</text>
</g>
<!-- n__&#45;&gt;0 -->
<g id="edge1" class="edge">
<title>n__&#45;&gt;0</title>
<path fill="none" stroke="black" d="M0.76,-119C1.56,-119 13.19,-119 26.01,-119"/>
<polygon fill="black" stroke="black" points="25.83,-122.5 35.83,-119 25.83,-115.5 25.83,-122.5"/>
</g>
<!-- 1 -->
<g id="node3" class="node">
<title>1</title>
<ellipse fill="none" stroke="black" cx="152.86" cy="-162" rx="20.13" ry="20.13"/>
<ellipse fill="none" stroke="black" cx="152.86" cy="-162" rx="24.13" ry="24.13"/>
<text text-anchor="middle" x="152.86" y="-156.95" font-family="Times New Roman,serif" font-size="14.00">q1</text>
</g>
<!-- 0&#45;&gt;1 -->
<g id="edge2" class="edge">
<title>0&#45;&gt;1</title>
<path fill="none" stroke="black" d="M83.95,-129.19C94.84,-134.45 108.35,-140.98 120.45,-146.82"/>
<polygon fill="black" stroke="black" points="118.72,-149.88 129.25,-151.08 121.77,-143.57 118.72,-149.88"/>
<text text-anchor="middle" x="107.36" y="-144.99" font-family="Times New Roman,serif" font-size="14.00">0</text>
</g>
<!-- 2 -->
<g id="node4" class="node">
<title>2</title>
<ellipse fill="none" stroke="black" cx="239.88" cy="-103" rx="20.13" ry="20.13"/>
<text text-anchor="middle" x="239.88" y="-97.95" font-family="Times New Roman,serif" font-size="14.00">q2</text>
</g>
<!-- 0&#45;&gt;2 -->
<g id="edge3" class="edge">
<title>0&#45;&gt;2</title>
<path fill="none" stroke="black" d="M86.32,-116.61C98.9,-115.35 114.66,-113.8 128.73,-112.5 155.5,-110.03 185.95,-107.41 208.04,-105.56"/>
<polygon fill="black" stroke="black" points="208.19,-109.06 217.86,-104.74 207.61,-102.08 208.19,-109.06"/>
<text text-anchor="middle" x="152.86" y="-115.7" font-family="Times New Roman,serif" font-size="14.00">1</text>
</g>
<!-- 1&#45;&gt;1 -->
<g id="edge4" class="edge">
<title>1&#45;&gt;1</title>
<path fill="none" stroke="black" d="M144.46,-184.97C143.66,-195.24 146.46,-204.13 152.86,-204.13 156.66,-204.13 159.19,-201 160.46,-196.3"/>
<polygon fill="black" stroke="black" points="163.94,-196.7 161.15,-186.48 156.95,-196.2 163.94,-196.7"/>
<text text-anchor="middle" x="152.86" y="-207.33" font-family="Times New Roman,serif" font-size="14.00">0</text>
</g>
<!-- 1&#45;&gt;2 -->
<g id="edge5" class="edge">
<title>1&#45;&gt;2</title>
<path fill="none" stroke="black" d="M173.15,-148.61C185.1,-140.32 200.57,-129.58 213.51,-120.61"/>
<polygon fill="black" stroke="black" points="215.34,-123.6 221.56,-115.02 211.35,-117.85 215.34,-123.6"/>
<text text-anchor="middle" x="198.37" y="-135.7" font-family="Times New Roman,serif" font-size="14.00">1</text>
</g>
<!-- 3 -->
<g id="node5" class="node">
<title>3</title>
<ellipse fill="none" stroke="black" cx="322.89" cy="-154" rx="20.13" ry="20.13"/>
<text text-anchor="middle" x="322.89" y="-148.95" font-family="Times New Roman,serif" font-size="14.00">q3</text>
</g>
<!-- 2&#45;&gt;3 -->
<g id="edge6" class="edge">
<title>2&#45;&gt;3</title>
<path fill="none" stroke="black" d="M257.27,-113.32C268.29,-120.26 283.05,-129.55 295.68,-137.5"/>
<polygon fill="black" stroke="black" points="293.63,-140.35 303.96,-142.71 297.36,-134.42 293.63,-140.35"/>
<text text-anchor="middle" x="281.38" y="-133.23" font-family="Times New Roman,serif" font-size="14.00">0</text>
</g>
<!-- 8 -->
<g id="node10" class="node">
<title>8</title>
<ellipse fill="none" stroke="black" cx="741.95" cy="-114" rx="20.13" ry="20.13"/>
<ellipse fill="none" stroke="black" cx="741.95" cy="-114" rx="24.13" ry="24.13"/>
<text text-anchor="middle" x="741.95" y="-108.95" font-family="Times New Roman,serif" font-size="14.00">q4</text>
</g>
<!-- 2&#45;&gt;8 -->
<g id="edge7" class="edge">
<title>2&#45;&gt;8</title>
<path fill="none" stroke="black" d="M254.24,-88.27C269.16,-73.52 294.78,-53 321.89,-53 321.89,-53 321.89,-53 655.94,-53 680.84,-53 703.45,-70.5 719.09,-86.75"/>
<polygon fill="black" stroke="black" points="716.27,-88.86 725.58,-93.91 721.46,-84.15 716.27,-88.86"/>
<text text-anchor="middle" x="488.91" y="-56.2" font-family="Times New Roman,serif" font-size="14.00">1</text>
</g>
<!-- 4 -->
<g id="node6" class="node">
<title>4</title>
<ellipse fill="none" stroke="black" cx="405.9" cy="-154" rx="20.13" ry="20.13"/>
<text text-anchor="middle" x="405.9" y="-148.95" font-family="Times New Roman,serif" font-size="14.00">q7</text>
</g>
<!-- 3&#45;&gt;4 -->
<g id="edge10" class="edge">
<title>3&#45;&gt;4</title>
<path fill="none" stroke="black" d="M343.5,-154C352.65,-154 363.77,-154 374.01,-154"/>
<polygon fill="black" stroke="black" points="373.96,-157.5 383.96,-154 373.96,-150.5 373.96,-157.5"/>
<text text-anchor="middle" x="364.39" y="-157.2" font-family="Times New Roman,serif" font-size="14.00">1</text>
</g>
<!-- 5 -->
<g id="node7" class="node">
<title>5</title>
<ellipse fill="none" stroke="black" cx="488.91" cy="-115" rx="20.13" ry="20.13"/>
<text text-anchor="middle" x="488.91" y="-109.95" font-family="Times New Roman,serif" font-size="14.00">q5</text>
</g>
<!-- 3&#45;&gt;5 -->
<g id="edge8" class="edge">
<title>3&#45;&gt;5</title>
<path fill="none" stroke="black" d="M337.62,-139.82C349.26,-128.9 367.02,-114.65 385.77,-108.5 409.31,-100.78 437.5,-103.39 458.3,-107.38"/>
<polygon fill="black" stroke="black" points="457.32,-110.75 467.83,-109.43 458.79,-103.9 457.32,-110.75"/>
<text text-anchor="middle" x="405.9" y="-111.7" font-family="Times New Roman,serif" font-size="14.00">0</text>
</g>
<!-- 7 -->
<g id="node9" class="node">
<title>7</title>
<ellipse fill="none" stroke="black" cx="654.94" cy="-173" rx="20.13" ry="20.13"/>
<text text-anchor="middle" x="654.94" y="-167.95" font-family="Times New Roman,serif" font-size="14.00">q6</text>
</g>
<!-- 3&#45;&gt;7 -->
<g id="edge9" class="edge">
<title>3&#45;&gt;7</title>
<path fill="none" stroke="black" d="M327.69,-173.98C335.51,-208.35 356.87,-275 404.9,-275 404.9,-275 404.9,-275 572.92,-275 610.18,-275 633.04,-232.75 644.6,-202.63"/>
<polygon fill="black" stroke="black" points="647.75,-204.2 647.84,-193.61 641.17,-201.84 647.75,-204.2"/>
<text text-anchor="middle" x="488.91" y="-278.2" font-family="Times New Roman,serif" font-size="14.00">0</text>
</g>
<!-- 4&#45;&gt;4 -->
<g id="edge13" class="edge">
<title>4&#45;&gt;4</title>
<path fill="none" stroke="black" d="M398.44,-172.83C397.17,-182.93 399.66,-192.13 405.9,-192.13 409.61,-192.13 411.99,-188.89 413.05,-184.14"/>
<polygon fill="black" stroke="black" points="416.54,-184.44 413.32,-174.35 409.54,-184.25 416.54,-184.44"/>
<text text-anchor="middle" x="405.9" y="-195.33" font-family="Times New Roman,serif" font-size="14.00">1</text>
</g>
<!-- 4&#45;&gt;5 -->
<g id="edge11" class="edge">
<title>4&#45;&gt;5</title>
<path fill="none" stroke="black" d="M424.48,-145.54C434.88,-140.53 448.29,-134.07 460.1,-128.39"/>
<polygon fill="black" stroke="black" points="461.51,-131.59 469,-124.1 458.48,-125.29 461.51,-131.59"/>
<text text-anchor="middle" x="447.41" y="-138.87" font-family="Times New Roman,serif" font-size="14.00">0</text>
</g>
<!-- 4&#45;&gt;7 -->
<g id="edge12" class="edge">
<title>4&#45;&gt;7</title>
<path fill="none" stroke="black" d="M426.28,-155.49C469.04,-158.78 571.71,-166.68 623.28,-170.64"/>
<polygon fill="black" stroke="black" points="622.89,-174.12 633.13,-171.4 623.43,-167.14 622.89,-174.12"/>
<text text-anchor="middle" x="530.42" y="-166.92" font-family="Times New Roman,serif" font-size="14.00">0</text>
</g>
<!-- 6 -->
<g id="node8" class="node">
<title>6</title>
<ellipse fill="none" stroke="black" cx="571.92" cy="-125" rx="20.13" ry="20.13"/>
<text text-anchor="middle" x="571.92" y="-119.95" font-family="Times New Roman,serif" font-size="14.00">q8</text>
</g>
<!-- 5&#45;&gt;6 -->
<g id="edge14" class="edge">
<title>5&#45;&gt;6</title>
<path fill="none" stroke="black" d="M509.11,-117.37C518.43,-118.52 529.84,-119.93 540.32,-121.22"/>
<polygon fill="black" stroke="black" points="539.73,-124.68 550.08,-122.43 540.58,-117.73 539.73,-124.68"/>
<text text-anchor="middle" x="530.42" y="-123.5" font-family="Times New Roman,serif" font-size="14.00">0</text>
</g>
<!-- 6&#45;&gt;5 -->
<g id="edge15" class="edge">
<title>6&#45;&gt;5</title>
<path fill="none" stroke="black" d="M556.13,-111.8C549.73,-106.93 541.86,-102 533.79,-99.5 528.15,-97.75 522.15,-98.26 516.46,-99.89"/>
<polygon fill="black" stroke="black" points="515.43,-96.53 507.47,-103.52 518.05,-103.02 515.43,-96.53"/>
<text text-anchor="middle" x="530.42" y="-102.7" font-family="Times New Roman,serif" font-size="14.00">0</text>
</g>
<!-- 6&#45;&gt;7 -->
<g id="edge16" class="edge">
<title>6&#45;&gt;7</title>
<path fill="none" stroke="black" d="M591.45,-130.95C599.51,-133.89 608.9,-137.83 616.81,-142.5 621.58,-145.32 626.38,-148.74 630.87,-152.24"/>
<polygon fill="black" stroke="black" points="628.44,-154.77 638.38,-158.45 632.9,-149.38 628.44,-154.77"/>
<text text-anchor="middle" x="613.43" y="-145.7" font-family="Times New Roman,serif" font-size="14.00">0</text>
</g>
<!-- 7&#45;&gt;3 -->
<g id="edge17" class="edge">
<title>7&#45;&gt;3</title>
<path fill="none" stroke="black" d="M636.54,-182.31C592.65,-204.45 474.65,-255.69 385.77,-218 367.44,-210.23 351.9,-194.08 340.97,-179.95"/>
<polygon fill="black" stroke="black" points="344.09,-178.29 335.36,-172.28 338.44,-182.42 344.09,-178.29"/>
<text text-anchor="middle" x="488.91" y="-234.38" font-family="Times New Roman,serif" font-size="14.00">0</text>
</g>
<!-- 7&#45;&gt;8 -->
<g id="edge18" class="edge">
<title>7&#45;&gt;8</title>
<path fill="none" stroke="black" d="M671.93,-161.9C683.23,-154.06 698.69,-143.33 712.12,-134.01"/>
<polygon fill="black" stroke="black" points="713.99,-136.97 720.21,-128.4 709.99,-131.22 713.99,-136.97"/>
<text text-anchor="middle" x="696.44" y="-150.23" font-family="Times New Roman,serif" font-size="14.00">1</text>
</g>
<!-- 8&#45;&gt;1 -->
<g id="edge19" class="edge">
<title>8&#45;&gt;1</title>
<path fill="none" stroke="black" d="M741.63,-138.44C741.76,-193.01 733.7,-320 655.94,-320 238.88,-320 238.88,-320 238.88,-320 183.6,-320 164.11,-244.08 157.35,-197.49"/>
<polygon fill="black" stroke="black" points="160.86,-197.3 156.09,-187.84 153.91,-198.21 160.86,-197.3"/>
<text text-anchor="middle" x="447.41" y="-323.2" font-family="Times New Roman,serif" font-size="14.00">0</text>
</g>
<!-- 8&#45;&gt;2 -->
<g id="edge20" class="edge">
<title>8&#45;&gt;2</title>
<path fill="none" stroke="black" d="M734.93,-90.66C724.75,-57.3 700.75,0 655.94,0 321.89,0 321.89,0 321.89,0 284.4,0 261.61,-42.67 250.13,-73.08"/>
<polygon fill="black" stroke="black" points="246.94,-71.6 246.91,-82.2 253.54,-73.94 246.94,-71.6"/>
<text text-anchor="middle" x="488.91" y="-3.2" font-family="Times New Roman,serif" font-size="14.00">1</text>
</g>
</g>
</svg>
