<?xml version="1.0" encoding="UTF-8" standalone="no"?>
<!DOCTYPE svg PUBLIC "-//W3C//DTD SVG 1.1//EN"
 "http://www.w3.org/Graphics/SVG/1.1/DTD/svg11.dtd">
<!-- Generated by graphviz version 12.1.1 (20240910.0053)
 -->
<!-- Title: G Pages: 1 -->
<svg width="845pt" height="964pt"
 viewBox="0.00 0.00 845.47 963.50" xmlns="http://www.w3.org/2000/svg" xmlns:xlink="http://www.w3.org/1999/xlink">
<g id="graph0" class="graph" transform="scale(1 1) rotate(0) translate(4 959.5)">
<title>G</title>
<polygon fill="white" stroke="none" points="-4,4 -4,-959.5 841.47,-959.5 841.47,4 -4,4"/>
<!-- n__ -->
<g id="node1" class="node">
<title>n__</title>
</g>
<!-- 0 -->
<g id="node2" class="node">
<title>0</title>
<ellipse fill="none" stroke="black" cx="55.72" cy="-546" rx="18" ry="18"/>
</g>
<!-- n__&#45;&gt;0 -->
<g id="edge1" class="edge">
<title>n__&#45;&gt;0</title>
<path fill="none" stroke="black" d="M0.87,-546C2.34,-546 13.93,-546 25.99,-546"/>
<polygon fill="black" stroke="black" points="25.86,-549.5 35.86,-546 25.86,-542.5 25.86,-549.5"/>
</g>
<!-- 2 -->
<g id="node3" class="node">
<title>2</title>
<ellipse fill="none" stroke="black" cx="137.72" cy="-546" rx="18" ry="18"/>
<ellipse fill="none" stroke="black" cx="137.72" cy="-546" rx="22" ry="22"/>
</g>
<!-- 0&#45;&gt;2 -->
<g id="edge2" class="edge">
<title>0&#45;&gt;2</title>
<path fill="none" stroke="black" d="M74.08,-546C82.89,-546 93.9,-546 104.21,-546"/>
<polygon fill="black" stroke="black" points="103.89,-549.5 113.89,-546 103.89,-542.5 103.89,-549.5"/>
<text text-anchor="middle" x="94.72" y="-549.2" font-family="Times New Roman,serif" font-size="14.00">a</text>
</g>
<!-- 3 -->
<g id="node4" class="node">
<title>3</title>
<ellipse fill="none" stroke="black" cx="815.47" cy="-634" rx="18" ry="18"/>
<ellipse fill="none" stroke="black" cx="815.47" cy="-634" rx="22" ry="22"/>
</g>
<!-- 0&#45;&gt;3 -->
<g id="edge4" class="edge">
<title>0&#45;&gt;3</title>
<path fill="none" stroke="black" d="M57.42,-527.83C61.32,-433.09 82.11,0 136.72,0 136.72,0 136.72,0 716.22,0 742.5,0 758.16,-51.98 775.47,-126 796.69,-216.74 809.4,-502.27 813.23,-600.45"/>
<polygon fill="black" stroke="black" points="809.73,-600.36 813.61,-610.22 816.72,-600.09 809.73,-600.36"/>
<text text-anchor="middle" x="430.47" y="-3.2" font-family="Times New Roman,serif" font-size="14.00">a</text>
</g>
<!-- 4 -->
<g id="node5" class="node">
<title>4</title>
<ellipse fill="none" stroke="black" cx="233.97" cy="-434" rx="18" ry="18"/>
</g>
<!-- 0&#45;&gt;4 -->
<g id="edge3" class="edge">
<title>0&#45;&gt;4</title>
<path fill="none" stroke="black" d="M69.8,-534.36C81.43,-524.29 99.12,-509.63 115.72,-498.5 145.85,-478.31 182.83,-458.76 207.1,-446.58"/>
<polygon fill="black" stroke="black" points="208.53,-449.78 215.93,-442.2 205.42,-443.51 208.53,-449.78"/>
<text text-anchor="middle" x="137.72" y="-501.7" font-family="Times New Roman,serif" font-size="14.00">a</text>
</g>
<!-- 6 -->
<g id="node7" class="node">
<title>6</title>
<ellipse fill="none" stroke="black" cx="618.97" cy="-576" rx="18" ry="18"/>
</g>
<!-- 0&#45;&gt;6 -->
<g id="edge5" class="edge">
<title>0&#45;&gt;6</title>
<path fill="none" stroke="black" d="M56.49,-564.43C56.01,-642.13 59.26,-939 136.72,-939 136.72,-939 136.72,-939 481.6,-939 501.71,-939 575.53,-807.69 582.97,-789 607.68,-726.88 614.95,-647.91 617.08,-605.73"/>
<polygon fill="black" stroke="black" points="620.57,-606.02 617.51,-595.88 613.58,-605.72 620.57,-606.02"/>
<text text-anchor="middle" x="330.22" y="-942.2" font-family="Times New Roman,serif" font-size="14.00">a</text>
</g>
<!-- 8 -->
<g id="node9" class="node">
<title>8</title>
<ellipse fill="none" stroke="black" cx="526.72" cy="-605" rx="18" ry="18"/>
</g>
<!-- 0&#45;&gt;8 -->
<g id="edge6" class="edge">
<title>0&#45;&gt;8</title>
<path fill="none" stroke="black" d="M57.01,-564.01C58.62,-634.79 69.12,-890 136.72,-890 136.72,-890 136.72,-890 331.22,-890 435.15,-890 454.49,-816.41 490.72,-719 501.4,-690.28 511.43,-656.67 517.99,-633.42"/>
<polygon fill="black" stroke="black" points="521.29,-634.62 520.6,-624.05 514.54,-632.75 521.29,-634.62"/>
<text text-anchor="middle" x="280.1" y="-893.2" font-family="Times New Roman,serif" font-size="14.00">a</text>
</g>
<!-- 2&#45;&gt;3 -->
<g id="edge10" class="edge">
<title>2&#45;&gt;3</title>
<path fill="none" stroke="black" d="M153.6,-530.13C156.06,-526.69 158.28,-522.9 159.72,-519 191.06,-433.83 144.86,-195.6 177.72,-111 191.57,-75.34 194.72,-45 232.97,-45 232.97,-45 232.97,-45 716.22,-45 772.91,-45 804.45,-474.93 812.43,-600.16"/>
<polygon fill="black" stroke="black" points="808.94,-600.36 813.06,-610.12 815.92,-599.92 808.94,-600.36"/>
<text text-anchor="middle" x="480.6" y="-48.2" font-family="Times New Roman,serif" font-size="14.00">b, c</text>
</g>
<!-- 2&#45;&gt;4 -->
<g id="edge9" class="edge">
<title>2&#45;&gt;4</title>
<path fill="none" stroke="black" d="M152.63,-529.47C168.95,-510.07 196.1,-477.81 214.26,-456.23"/>
<polygon fill="black" stroke="black" points="216.93,-458.49 220.69,-448.59 211.58,-453.99 216.93,-458.49"/>
<text text-anchor="middle" x="187.85" y="-499.91" font-family="Times New Roman,serif" font-size="14.00">b, c</text>
</g>
<!-- 5 -->
<g id="node6" class="node">
<title>5</title>
<ellipse fill="none" stroke="black" cx="330.22" cy="-546" rx="18" ry="18"/>
<ellipse fill="none" stroke="black" cx="330.22" cy="-546" rx="22" ry="22"/>
</g>
<!-- 2&#45;&gt;5 -->
<g id="edge8" class="edge">
<title>2&#45;&gt;5</title>
<path fill="none" stroke="black" d="M160.2,-546C193.38,-546 257.31,-546 296.33,-546"/>
<polygon fill="black" stroke="black" points="296.3,-549.5 306.3,-546 296.3,-542.5 296.3,-549.5"/>
<text text-anchor="middle" x="233.97" y="-549.2" font-family="Times New Roman,serif" font-size="14.00">b, c</text>
</g>
<!-- 2&#45;&gt;6 -->
<g id="edge11" class="edge">
<title>2&#45;&gt;6</title>
<path fill="none" stroke="black" d="M145.93,-566.75C152.92,-585.84 164.42,-614.63 177.72,-638 191.92,-662.93 196.98,-668.5 215.97,-690 278.46,-760.75 283.96,-797.67 370.22,-836 385.8,-842.92 391.43,-838.33 408.47,-839 428.01,-839.77 433.97,-845.32 452.47,-839 521.87,-815.28 543.86,-800.04 582.97,-738 608.91,-696.85 615.85,-639.39 617.58,-605.12"/>
<polygon fill="black" stroke="black" points="621.06,-605.66 617.94,-595.54 614.06,-605.4 621.06,-605.66"/>
<text text-anchor="middle" x="380.35" y="-843.08" font-family="Times New Roman,serif" font-size="14.00">b, c</text>
</g>
<!-- 7 -->
<g id="node8" class="node">
<title>7</title>
<ellipse fill="none" stroke="black" cx="715.22" cy="-483" rx="18" ry="18"/>
<ellipse fill="none" stroke="black" cx="715.22" cy="-483" rx="22" ry="22"/>
</g>
<!-- 2&#45;&gt;7 -->
<g id="edge7" class="edge">
<title>2&#45;&gt;7</title>
<path fill="none" stroke="black" d="M153.21,-529.98C155.71,-526.55 158.04,-522.8 159.72,-519 198.65,-430.71 136.48,-91 232.97,-91 232.97,-91 232.97,-91 381.35,-91 518.34,-91 597.41,-71.25 675.22,-184 704.46,-226.37 711.79,-380.14 713.62,-449.11"/>
<polygon fill="black" stroke="black" points="710.12,-449.15 713.86,-459.06 717.12,-448.98 710.12,-449.15"/>
<text text-anchor="middle" x="430.47" y="-93.94" font-family="Times New Roman,serif" font-size="14.00">b</text>
</g>
<!-- 2&#45;&gt;8 -->
<g id="edge12" class="edge">
<title>2&#45;&gt;8</title>
<path fill="none" stroke="black" d="M149.12,-565.24C171.81,-604.89 230.04,-694.85 308.22,-729 383.2,-761.75 403.51,-689.02 470.47,-642 480.57,-634.91 491.86,-627.29 501.6,-620.82"/>
<polygon fill="black" stroke="black" points="503.39,-623.83 509.8,-615.4 499.53,-617.99 503.39,-623.83"/>
<text text-anchor="middle" x="330.22" y="-740.41" font-family="Times New Roman,serif" font-size="14.00">b, c</text>
</g>
<!-- 9 -->
<g id="node10" class="node">
<title>9</title>
<ellipse fill="none" stroke="black" cx="430.47" cy="-740" rx="18" ry="18"/>
<ellipse fill="none" stroke="black" cx="430.47" cy="-740" rx="22" ry="22"/>
</g>
<!-- 2&#45;&gt;9 -->
<g id="edge43" class="edge">
<title>2&#45;&gt;9</title>
<path fill="none" stroke="black" d="M138.47,-568.29C138.34,-626.14 141.51,-778.74 177.72,-810 244.2,-867.38 354.1,-797.95 403.74,-760.68"/>
<polygon fill="black" stroke="black" points="405.82,-763.49 411.63,-754.63 401.56,-757.94 405.82,-763.49"/>
<text text-anchor="middle" x="280.1" y="-831.54" font-family="Times New Roman,serif" font-size="14.00">c</text>
</g>
<!-- 4&#45;&gt;3 -->
<g id="edge16" class="edge">
<title>4&#45;&gt;3</title>
<path fill="none" stroke="black" d="M235.57,-415.62C237.57,-363.72 245.3,-217.2 269.97,-177 286.72,-149.71 297.2,-136 329.22,-136 329.22,-136 329.22,-136 481.6,-136 570.26,-136 615.61,-118.37 675.22,-184 786.99,-307.06 809.06,-518.43 813.41,-600.27"/>
<polygon fill="black" stroke="black" points="809.9,-600.26 813.87,-610.09 816.89,-599.93 809.9,-600.26"/>
<text text-anchor="middle" x="526.72" y="-138.67" font-family="Times New Roman,serif" font-size="14.00">b, c</text>
</g>
<!-- 4&#45;&gt;4 -->
<g id="edge15" class="edge">
<title>4&#45;&gt;4</title>
<path fill="none" stroke="black" d="M225.93,-450.29C223.99,-460.39 226.67,-470 233.97,-470 238.3,-470 241.01,-466.61 242.08,-461.74"/>
<polygon fill="black" stroke="black" points="245.58,-461.78 242.02,-451.8 238.58,-461.83 245.58,-461.78"/>
<text text-anchor="middle" x="233.97" y="-473.2" font-family="Times New Roman,serif" font-size="14.00">b, c</text>
</g>
<!-- 4&#45;&gt;5 -->
<g id="edge14" class="edge">
<title>4&#45;&gt;5</title>
<path fill="none" stroke="black" d="M250.02,-442.16C262.02,-449.25 278.69,-460.4 290.22,-473.5 301.02,-485.77 309.96,-501.56 316.54,-515.26"/>
<polygon fill="black" stroke="black" points="313.34,-516.68 320.68,-524.33 319.71,-513.78 313.34,-516.68"/>
<text text-anchor="middle" x="280.1" y="-476.7" font-family="Times New Roman,serif" font-size="14.00">b, c</text>
</g>
<!-- 4&#45;&gt;6 -->
<g id="edge17" class="edge">
<title>4&#45;&gt;6</title>
<path fill="none" stroke="black" d="M236.24,-415.83C240.47,-370.86 258.16,-258 329.22,-258 329.22,-258 329.22,-258 527.72,-258 659.25,-258 554.21,-419.7 602.17,-551.87"/>
<polygon fill="black" stroke="black" points="598.9,-553.13 605.85,-561.13 605.41,-550.55 598.9,-553.13"/>
<text text-anchor="middle" x="430.47" y="-261.2" font-family="Times New Roman,serif" font-size="14.00">b, c</text>
</g>
<!-- 4&#45;&gt;7 -->
<g id="edge13" class="edge">
<title>4&#45;&gt;7</title>
<path fill="none" stroke="black" d="M234.91,-415.71C235.14,-365.59 238.68,-227.76 269.97,-198 341.34,-130.13 392.48,-171.48 490.72,-178.5 573.35,-184.4 616.74,-146.33 675.22,-205 708.82,-238.71 713.85,-382.84 714.35,-449.25"/>
<polygon fill="black" stroke="black" points="710.85,-449.2 714.39,-459.19 717.85,-449.18 710.85,-449.2"/>
<text text-anchor="middle" x="480.6" y="-181.7" font-family="Times New Roman,serif" font-size="14.00">b</text>
</g>
<!-- 4&#45;&gt;8 -->
<g id="edge18" class="edge">
<title>4&#45;&gt;8</title>
<path fill="none" stroke="black" d="M252.08,-430.95C281.57,-426.47 343.35,-420.56 390.47,-439.5 445.89,-461.77 455.2,-480.98 490.72,-529 501.53,-543.61 510.13,-562.09 516.1,-577.17"/>
<polygon fill="black" stroke="black" points="512.82,-578.38 519.62,-586.5 519.37,-575.91 512.82,-578.38"/>
<text text-anchor="middle" x="380.35" y="-442.7" font-family="Times New Roman,serif" font-size="14.00">b, c</text>
</g>
<!-- 4&#45;&gt;9 -->
<g id="edge44" class="edge">
<title>4&#45;&gt;9</title>
<path fill="none" stroke="black" d="M240.51,-451.2C247.01,-470.93 258.37,-504.15 269.97,-532 285.12,-568.38 287.01,-578.79 308.22,-612 319.86,-630.22 355.23,-671.41 370.22,-687 380.83,-698.04 393.37,-709.46 404.18,-718.86"/>
<polygon fill="black" stroke="black" points="401.75,-721.39 411.62,-725.25 406.31,-716.08 401.75,-721.39"/>
<text text-anchor="middle" x="330.22" y="-669.68" font-family="Times New Roman,serif" font-size="14.00">c</text>
</g>
<!-- 5&#45;&gt;3 -->
<g id="edge22" class="edge">
<title>5&#45;&gt;3</title>
<path fill="none" stroke="black" d="M338.81,-566.49C343.09,-578.48 348.34,-593.98 352.22,-608 376.63,-696.17 343.49,-741.61 408.47,-806 429.04,-826.38 441.87,-821.5 470.47,-826 592.01,-845.12 638.77,-825.78 737.22,-752 756.9,-737.25 761.31,-732.11 775.47,-712 785.78,-697.36 794.89,-679.59 801.7,-664.72"/>
<polygon fill="black" stroke="black" points="804.77,-666.43 805.63,-655.87 798.38,-663.59 804.77,-666.43"/>
<text text-anchor="middle" x="572.85" y="-835.59" font-family="Times New Roman,serif" font-size="14.00">b, c</text>
</g>
<!-- 5&#45;&gt;4 -->
<g id="edge21" class="edge">
<title>5&#45;&gt;4</title>
<path fill="none" stroke="black" d="M312.54,-532.28C300.02,-521.52 282.88,-505.77 269.97,-490 262.21,-480.52 254.83,-469.19 248.86,-459.22"/>
<polygon fill="black" stroke="black" points="252,-457.65 243.96,-450.75 245.94,-461.16 252,-457.65"/>
<text text-anchor="middle" x="280.1" y="-514.56" font-family="Times New Roman,serif" font-size="14.00">b, c</text>
</g>
<!-- 5&#45;&gt;5 -->
<g id="edge20" class="edge">
<title>5&#45;&gt;5</title>
<path fill="none" stroke="black" d="M321.15,-566.17C319.76,-576.6 322.78,-586 330.22,-586 334.75,-586 337.65,-582.51 338.9,-577.42"/>
<polygon fill="black" stroke="black" points="342.39,-577.8 339.24,-567.68 335.39,-577.56 342.39,-577.8"/>
<text text-anchor="middle" x="330.22" y="-589.2" font-family="Times New Roman,serif" font-size="14.00">b, c</text>
</g>
<!-- 5&#45;&gt;6 -->
<g id="edge23" class="edge">
<title>5&#45;&gt;6</title>
<path fill="none" stroke="black" d="M352.53,-547.18C396.02,-549.76 498.06,-556.67 582.97,-569 585.18,-569.32 587.46,-569.69 589.74,-570.09"/>
<polygon fill="black" stroke="black" points="588.98,-573.5 599.46,-571.93 590.29,-566.63 588.98,-573.5"/>
<text text-anchor="middle" x="480.6" y="-561.13" font-family="Times New Roman,serif" font-size="14.00">b, c</text>
</g>
<!-- 5&#45;&gt;7 -->
<g id="edge19" class="edge">
<title>5&#45;&gt;7</title>
<path fill="none" stroke="black" d="M351.22,-537.94C357.25,-535.75 363.94,-533.56 370.22,-532 482.75,-504.1 620.2,-490.47 681.73,-485.41"/>
<polygon fill="black" stroke="black" points="681.79,-488.92 691.48,-484.64 681.24,-481.94 681.79,-488.92"/>
<text text-anchor="middle" x="526.72" y="-508.22" font-family="Times New Roman,serif" font-size="14.00">b</text>
</g>
<!-- 5&#45;&gt;8 -->
<g id="edge24" class="edge">
<title>5&#45;&gt;8</title>
<path fill="none" stroke="black" d="M351.8,-551.84C391.82,-563.22 477.38,-587.6 490.72,-592 493.32,-592.86 496.01,-593.78 498.69,-594.73"/>
<polygon fill="black" stroke="black" points="497.41,-597.99 508.01,-598.14 499.82,-591.42 497.41,-597.99"/>
<text text-anchor="middle" x="430.47" y="-583.37" font-family="Times New Roman,serif" font-size="14.00">b, c</text>
</g>
<!-- 5&#45;&gt;9 -->
<g id="edge45" class="edge">
<title>5&#45;&gt;9</title>
<path fill="none" stroke="black" d="M337.04,-567.07C343.39,-588.2 354.76,-621.2 370.22,-647 377.31,-658.83 382.56,-659.21 390.47,-670.5 399.28,-683.07 407.78,-697.8 414.58,-710.45"/>
<polygon fill="black" stroke="black" points="411.41,-711.94 419.16,-719.16 417.6,-708.68 411.41,-711.94"/>
<text text-anchor="middle" x="380.35" y="-673.7" font-family="Times New Roman,serif" font-size="14.00">c</text>
</g>
<!-- 6&#45;&gt;3 -->
<g id="edge28" class="edge">
<title>6&#45;&gt;3</title>
<path fill="none" stroke="black" d="M636.55,-580.95C668.97,-590.61 741.2,-612.15 782.97,-624.61"/>
<polygon fill="black" stroke="black" points="781.86,-627.93 792.44,-627.43 783.86,-621.22 781.86,-627.93"/>
<text text-anchor="middle" x="715.22" y="-613.97" font-family="Times New Roman,serif" font-size="14.00">b</text>
</g>
<!-- 6&#45;&gt;4 -->
<g id="edge27" class="edge">
<title>6&#45;&gt;4</title>
<path fill="none" stroke="black" d="M606.05,-562.97C591.56,-547.13 566.35,-519.6 544.72,-496 484.52,-430.33 477.62,-386.46 390.47,-368 340.25,-357.36 286,-392.13 256.71,-415.19"/>
<polygon fill="black" stroke="black" points="254.84,-412.2 249.29,-421.23 259.26,-417.63 254.84,-412.2"/>
<text text-anchor="middle" x="430.47" y="-395.17" font-family="Times New Roman,serif" font-size="14.00">b</text>
</g>
<!-- 6&#45;&gt;5 -->
<g id="edge26" class="edge">
<title>6&#45;&gt;5</title>
<path fill="none" stroke="black" d="M601.91,-568.95C578.17,-558.98 532.04,-541.32 490.72,-535.5 446.79,-529.32 395.52,-534.95 363.22,-540.05"/>
<polygon fill="black" stroke="black" points="363,-536.54 353.72,-541.64 364.15,-543.45 363,-536.54"/>
<text text-anchor="middle" x="480.6" y="-538.7" font-family="Times New Roman,serif" font-size="14.00">b</text>
</g>
<!-- 6&#45;&gt;6 -->
<g id="edge29" class="edge">
<title>6&#45;&gt;6</title>
<path fill="none" stroke="black" d="M610.93,-592.29C608.99,-602.39 611.67,-612 618.97,-612 623.3,-612 626.01,-608.61 627.08,-603.74"/>
<polygon fill="black" stroke="black" points="630.58,-603.78 627.02,-593.8 623.58,-603.83 630.58,-603.78"/>
<text text-anchor="middle" x="618.97" y="-615.2" font-family="Times New Roman,serif" font-size="14.00">b</text>
</g>
<!-- 6&#45;&gt;7 -->
<g id="edge25" class="edge">
<title>6&#45;&gt;7</title>
<path fill="none" stroke="black" d="M628.84,-560.39C635.28,-549.85 644.65,-535.99 654.97,-525.5 664.19,-516.13 675.67,-507.37 686.07,-500.27"/>
<polygon fill="black" stroke="black" points="687.91,-503.25 694.34,-494.83 684.06,-497.4 687.91,-503.25"/>
<text text-anchor="middle" x="665.1" y="-528.7" font-family="Times New Roman,serif" font-size="14.00">b</text>
</g>
<!-- 6&#45;&gt;8 -->
<g id="edge30" class="edge">
<title>6&#45;&gt;8</title>
<path fill="none" stroke="black" d="M603.97,-586.15C597.81,-590.14 590.31,-594.39 582.97,-597 574.56,-600 565.05,-601.87 556.31,-603.04"/>
<polygon fill="black" stroke="black" points="556.14,-599.54 546.57,-604.09 556.89,-606.5 556.14,-599.54"/>
<text text-anchor="middle" x="572.85" y="-605.1" font-family="Times New Roman,serif" font-size="14.00">b</text>
</g>
<!-- 7&#45;&gt;3 -->
<g id="edge34" class="edge">
<title>7&#45;&gt;3</title>
<path fill="none" stroke="black" d="M728.07,-501.21C745.04,-527.29 776.39,-575.48 796.3,-606.08"/>
<polygon fill="black" stroke="black" points="793.36,-607.98 801.75,-614.45 799.23,-604.16 793.36,-607.98"/>
<text text-anchor="middle" x="765.35" y="-575.22" font-family="Times New Roman,serif" font-size="14.00">b, c</text>
</g>
<!-- 7&#45;&gt;4 -->
<g id="edge33" class="edge">
<title>7&#45;&gt;4</title>
<path fill="none" stroke="black" d="M709.88,-461.45C704.32,-436.93 693.2,-396.23 675.22,-365 624.19,-276.37 591.87,-242.61 490.72,-227.5 391.99,-212.75 334.51,-192.84 269.97,-269 252.91,-289.13 242.52,-362.68 237.87,-404.47"/>
<polygon fill="black" stroke="black" points="234.4,-404.02 236.82,-414.33 241.36,-404.76 234.4,-404.02"/>
<text text-anchor="middle" x="480.6" y="-230.7" font-family="Times New Roman,serif" font-size="14.00">b, c</text>
</g>
<!-- 7&#45;&gt;5 -->
<g id="edge32" class="edge">
<title>7&#45;&gt;5</title>
<path fill="none" stroke="black" d="M708.9,-461.46C698.5,-425.22 671.86,-356 619.97,-356 429.47,-356 429.47,-356 429.47,-356 359.76,-356 339.45,-458.17 333.58,-512.67"/>
<polygon fill="black" stroke="black" points="330.13,-512.04 332.65,-522.33 337.09,-512.71 330.13,-512.04"/>
<text text-anchor="middle" x="526.72" y="-359.2" font-family="Times New Roman,serif" font-size="14.00">b, c</text>
</g>
<!-- 7&#45;&gt;6 -->
<g id="edge35" class="edge">
<title>7&#45;&gt;6</title>
<path fill="none" stroke="black" d="M704.3,-502.36C697.32,-514.69 687.13,-530.47 675.22,-542 666.57,-550.37 655.51,-557.68 645.57,-563.35"/>
<polygon fill="black" stroke="black" points="644.22,-560.1 637.08,-567.93 647.55,-566.26 644.22,-560.1"/>
<text text-anchor="middle" x="665.1" y="-560.44" font-family="Times New Roman,serif" font-size="14.00">b, c</text>
</g>
<!-- 7&#45;&gt;7 -->
<g id="edge31" class="edge">
<title>7&#45;&gt;7</title>
<path fill="none" stroke="black" d="M706.15,-503.17C704.76,-513.6 707.78,-523 715.22,-523 719.75,-523 722.65,-519.51 723.9,-514.42"/>
<polygon fill="black" stroke="black" points="727.39,-514.8 724.24,-504.68 720.39,-514.56 727.39,-514.8"/>
<text text-anchor="middle" x="715.22" y="-526.2" font-family="Times New Roman,serif" font-size="14.00">b</text>
</g>
<!-- 7&#45;&gt;8 -->
<g id="edge36" class="edge">
<title>7&#45;&gt;8</title>
<path fill="none" stroke="black" d="M693.97,-489.87C682.41,-493.95 667.73,-499.4 654.97,-505 630.3,-515.82 622.94,-516.93 600.97,-532.5 581.8,-546.09 579.41,-552.46 562.72,-569 557.8,-573.87 552.56,-579.19 547.68,-584.2"/>
<polygon fill="black" stroke="black" points="545.41,-581.52 540.97,-591.14 550.44,-586.39 545.41,-581.52"/>
<text text-anchor="middle" x="618.97" y="-535.7" font-family="Times New Roman,serif" font-size="14.00">b, c</text>
</g>
<!-- 7&#45;&gt;9 -->
<g id="edge46" class="edge">
<title>7&#45;&gt;9</title>
<path fill="none" stroke="black" d="M706.88,-503.86C699.71,-523.43 688.03,-553.31 675.22,-578 634.53,-656.44 622.44,-685.96 544.72,-728 519.88,-741.44 487.49,-743.62 463.72,-742.91"/>
<polygon fill="black" stroke="black" points="464.16,-739.43 454,-742.43 463.81,-746.42 464.16,-739.43"/>
<text text-anchor="middle" x="572.85" y="-720.76" font-family="Times New Roman,serif" font-size="14.00">c</text>
</g>
<!-- 8&#45;&gt;3 -->
<g id="edge50" class="edge">
<title>8&#45;&gt;3</title>
<path fill="none" stroke="black" d="M532.09,-622.51C539.64,-652.12 555.08,-709.41 562.72,-715 634.47,-767.46 741.67,-694.26 789.67,-655.45"/>
<polygon fill="black" stroke="black" points="791.81,-658.22 797.29,-649.16 787.35,-652.83 791.81,-658.22"/>
<text text-anchor="middle" x="665.1" y="-731.95" font-family="Times New Roman,serif" font-size="14.00">c</text>
</g>
<!-- 8&#45;&gt;4 -->
<g id="edge49" class="edge">
<title>8&#45;&gt;4</title>
<path fill="none" stroke="black" d="M522.64,-587.07C515.99,-553.83 497.09,-482.53 452.47,-444 390.67,-390.64 349.92,-406.42 269.97,-423 267.34,-423.55 264.62,-424.21 261.93,-424.94"/>
<polygon fill="black" stroke="black" points="261.2,-421.5 252.62,-427.73 263.21,-428.21 261.2,-421.5"/>
<text text-anchor="middle" x="380.35" y="-412.93" font-family="Times New Roman,serif" font-size="14.00">c</text>
</g>
<!-- 8&#45;&gt;5 -->
<g id="edge48" class="edge">
<title>8&#45;&gt;5</title>
<path fill="none" stroke="black" d="M508.48,-607.42C485.13,-610.03 442.45,-612.43 408.47,-601 388.63,-594.33 369.44,-580.72 355.15,-568.7"/>
<polygon fill="black" stroke="black" points="357.48,-566.09 347.65,-562.13 352.86,-571.35 357.48,-566.09"/>
<text text-anchor="middle" x="430.47" y="-612.18" font-family="Times New Roman,serif" font-size="14.00">c</text>
</g>
<!-- 8&#45;&gt;6 -->
<g id="edge51" class="edge">
<title>8&#45;&gt;6</title>
<path fill="none" stroke="black" d="M539.68,-591.82C545.91,-585.94 554.02,-579.64 562.72,-576.5 571.09,-573.48 580.66,-572.58 589.45,-572.67"/>
<polygon fill="black" stroke="black" points="589.09,-576.15 599.26,-573.2 589.47,-569.16 589.09,-576.15"/>
<text text-anchor="middle" x="572.85" y="-579.7" font-family="Times New Roman,serif" font-size="14.00">c</text>
</g>
<!-- 8&#45;&gt;8 -->
<g id="edge52" class="edge">
<title>8&#45;&gt;8</title>
<path fill="none" stroke="black" d="M518.68,-621.29C516.74,-631.39 519.42,-641 526.72,-641 531.05,-641 533.76,-637.61 534.83,-632.74"/>
<polygon fill="black" stroke="black" points="538.33,-632.78 534.77,-622.8 531.33,-632.83 538.33,-632.78"/>
<text text-anchor="middle" x="526.72" y="-644.2" font-family="Times New Roman,serif" font-size="14.00">c</text>
</g>
<!-- 8&#45;&gt;9 -->
<g id="edge47" class="edge">
<title>8&#45;&gt;9</title>
<path fill="none" stroke="black" d="M519.54,-622.01C513.46,-637.59 503.27,-660.9 490.72,-679 485.06,-687.16 468.97,-703.6 454.99,-717.36"/>
<polygon fill="black" stroke="black" points="452.89,-714.52 448.18,-724.01 457.78,-719.53 452.89,-714.52"/>
<text text-anchor="middle" x="480.6" y="-703.83" font-family="Times New Roman,serif" font-size="14.00">c</text>
</g>
<!-- 9&#45;&gt;3 -->
<g id="edge40" class="edge">
<title>9&#45;&gt;3</title>
<path fill="none" stroke="black" d="M437.16,-761.33C442.73,-777.57 453,-798.81 470.47,-809 491.7,-821.39 492.32,-818.17 582.97,-789 674.94,-759.41 709.08,-758.19 775.47,-688 782.98,-680.06 790.25,-670.63 796.45,-661.89"/>
<polygon fill="black" stroke="black" points="799.31,-663.9 802.08,-653.68 793.54,-659.95 799.31,-663.9"/>
<text text-anchor="middle" x="618.97" y="-786.32" font-family="Times New Roman,serif" font-size="14.00">b, c</text>
</g>
<!-- 9&#45;&gt;4 -->
<g id="edge39" class="edge">
<title>9&#45;&gt;4</title>
<path fill="none" stroke="black" d="M409.31,-732.48C370.46,-717.58 287.48,-683.61 269.97,-659 239.46,-616.14 260.06,-593.99 251.97,-542 247.81,-515.26 243.01,-484.8 239.57,-463.06"/>
<polygon fill="black" stroke="black" points="243.07,-462.79 238.05,-453.45 236.16,-463.88 243.07,-462.79"/>
<text text-anchor="middle" x="330.22" y="-711.55" font-family="Times New Roman,serif" font-size="14.00">b, c</text>
</g>
<!-- 9&#45;&gt;5 -->
<g id="edge38" class="edge">
<title>9&#45;&gt;5</title>
<path fill="none" stroke="black" d="M424.32,-718.4C418.29,-695.55 407.01,-658.94 390.47,-630.5 383.54,-618.58 378.45,-618.06 370.22,-607 362.54,-596.69 354.77,-584.87 348.21,-574.41"/>
<polygon fill="black" stroke="black" points="351.35,-572.84 343.12,-566.17 345.4,-576.52 351.35,-572.84"/>
<text text-anchor="middle" x="380.35" y="-633.7" font-family="Times New Roman,serif" font-size="14.00">b, c</text>
</g>
<!-- 9&#45;&gt;6 -->
<g id="edge41" class="edge">
<title>9&#45;&gt;6</title>
<path fill="none" stroke="black" d="M452.52,-735.83C464.34,-732.88 479.01,-728.15 490.72,-721 540.77,-690.46 581.87,-633.89 602.86,-601.16"/>
<polygon fill="black" stroke="black" points="605.81,-603.05 608.15,-592.72 599.87,-599.34 605.81,-603.05"/>
<text text-anchor="middle" x="526.72" y="-711.08" font-family="Times New Roman,serif" font-size="14.00">b, c</text>
</g>
<!-- 9&#45;&gt;7 -->
<g id="edge37" class="edge">
<title>9&#45;&gt;7</title>
<path fill="none" stroke="black" d="M440.06,-760.02C446.48,-772.26 456.57,-786.89 470.47,-794 478.48,-798.1 482.07,-796.5 490.72,-794 588.85,-765.68 622.73,-744.62 675.22,-657 682.42,-644.97 698.96,-562.84 708.02,-515.84"/>
<polygon fill="black" stroke="black" points="711.42,-516.68 709.86,-506.2 704.54,-515.36 711.42,-516.68"/>
<text text-anchor="middle" x="572.85" y="-771.68" font-family="Times New Roman,serif" font-size="14.00">b</text>
</g>
<!-- 9&#45;&gt;8 -->
<g id="edge42" class="edge">
<title>9&#45;&gt;8</title>
<path fill="none" stroke="black" d="M442.8,-721.55C446.06,-715.98 449.53,-709.81 452.47,-704 461.55,-686.06 459.33,-679.24 470.47,-662.5 475.81,-654.48 491.66,-638.2 505.02,-625"/>
<polygon fill="black" stroke="black" points="507.13,-627.84 511.83,-618.34 502.23,-622.83 507.13,-627.84"/>
<text text-anchor="middle" x="480.6" y="-665.7" font-family="Times New Roman,serif" font-size="14.00">b, c</text>
</g>
<!-- 9&#45;&gt;9 -->
<g id="edge53" class="edge">
<title>9&#45;&gt;9</title>
<path fill="none" stroke="black" d="M421.4,-760.17C420.01,-770.6 423.03,-780 430.47,-780 435,-780 437.9,-776.51 439.15,-771.42"/>
<polygon fill="black" stroke="black" points="442.64,-771.8 439.49,-761.68 435.64,-771.56 442.64,-771.8"/>
<text text-anchor="middle" x="430.47" y="-783.2" font-family="Times New Roman,serif" font-size="14.00">c</text>
</g>
</g>
</svg>
