<?xml version="1.0" encoding="UTF-8" standalone="no"?>
<!DOCTYPE svg PUBLIC "-//W3C//DTD SVG 1.1//EN"
 "http://www.w3.org/Graphics/SVG/1.1/DTD/svg11.dtd">
<!-- Generated by graphviz version 12.1.1 (20240910.0053)
 -->
<!-- Title: G Pages: 1 -->
<svg width="517pt" height="279pt"
 viewBox="0.00 0.00 517.04 279.13" xmlns="http://www.w3.org/2000/svg" xmlns:xlink="http://www.w3.org/1999/xlink">
<g id="graph0" class="graph" transform="scale(1 1) rotate(0) translate(4 275.13)">
<title>G</title>
<polygon fill="white" stroke="none" points="-4,4 -4,-275.13 513.04,-275.13 513.04,4 -4,4"/>
<!-- n__ -->
<g id="node1" class="node">
<title>n__</title>
</g>
<!-- 0 -->
<g id="node2" class="node">
<title>0</title>
<ellipse fill="none" stroke="black" cx="57.85" cy="-131" rx="20.13" ry="20.13"/>
<text text-anchor="middle" x="57.85" y="-125.95" font-family="Times New Roman,serif" font-size="14.00">q0</text>
</g>
<!-- n__&#45;&gt;0 -->
<g id="edge1" class="edge">
<title>n__&#45;&gt;0</title>
<path fill="none" stroke="black" d="M0.88,-131C2.37,-131 13.93,-131 26.16,-131"/>
<polygon fill="black" stroke="black" points="25.79,-134.5 35.79,-131 25.79,-127.5 25.79,-134.5"/>
</g>
<!-- 2 -->
<g id="node3" class="node">
<title>2</title>
<ellipse fill="none" stroke="black" cx="140.86" cy="-179" rx="20.13" ry="20.13"/>
<text text-anchor="middle" x="140.86" y="-173.95" font-family="Times New Roman,serif" font-size="14.00">q1</text>
</g>
<!-- 0&#45;&gt;2 -->
<g id="edge2" class="edge">
<title>0&#45;&gt;2</title>
<path fill="none" stroke="black" d="M75.64,-140.95C86.5,-147.38 100.88,-155.9 113.27,-163.24"/>
<polygon fill="black" stroke="black" points="111.41,-166.21 121.8,-168.3 114.98,-160.19 111.41,-166.21"/>
<text text-anchor="middle" x="99.36" y="-159.64" font-family="Times New Roman,serif" font-size="14.00">x</text>
</g>
<!-- 3 -->
<g id="node4" class="node">
<title>3</title>
<ellipse fill="none" stroke="black" cx="314.89" cy="-251" rx="20.13" ry="20.13"/>
<text text-anchor="middle" x="314.89" y="-245.95" font-family="Times New Roman,serif" font-size="14.00">q4</text>
</g>
<!-- 0&#45;&gt;3 -->
<g id="edge9" class="edge">
<title>0&#45;&gt;3</title>
<path fill="none" stroke="black" d="M69.02,-148.02C79.96,-165.12 98.78,-191.26 120.73,-208 175.94,-250.1 200.78,-248.81 270.01,-254 274.29,-254.32 278.82,-254.36 283.27,-254.22"/>
<polygon fill="black" stroke="black" points="283.39,-257.72 293.15,-253.6 282.95,-250.73 283.39,-257.72"/>
<text text-anchor="middle" x="182.37" y="-246.66" font-family="Times New Roman,serif" font-size="14.00">y</text>
</g>
<!-- 5 -->
<g id="node6" class="node">
<title>5</title>
<ellipse fill="none" stroke="black" cx="314.89" cy="-48" rx="20.13" ry="20.13"/>
<text text-anchor="middle" x="314.89" y="-42.95" font-family="Times New Roman,serif" font-size="14.00">q2</text>
</g>
<!-- 0&#45;&gt;5 -->
<g id="edge3" class="edge">
<title>0&#45;&gt;5</title>
<path fill="none" stroke="black" d="M76.91,-123.97C82.95,-121.68 89.73,-119.17 95.98,-117 162.81,-93.84 242.22,-69.48 284.29,-56.82"/>
<polygon fill="black" stroke="black" points="285.1,-60.23 293.67,-54 283.09,-53.53 285.1,-60.23"/>
<text text-anchor="middle" x="182.37" y="-92.08" font-family="Times New Roman,serif" font-size="14.00">x</text>
</g>
<!-- 6 -->
<g id="node7" class="node">
<title>6</title>
<ellipse fill="none" stroke="black" cx="484.91" cy="-80" rx="20.13" ry="20.13"/>
<ellipse fill="none" stroke="black" cx="484.91" cy="-80" rx="24.13" ry="24.13"/>
<text text-anchor="middle" x="484.91" y="-74.95" font-family="Times New Roman,serif" font-size="14.00">q5</text>
</g>
<!-- 0&#45;&gt;6 -->
<g id="edge13" class="edge">
<title>0&#45;&gt;6</title>
<path fill="none" stroke="black" d="M78.17,-131C94.58,-131 118.77,-131 139.86,-131 139.86,-131 139.86,-131 398.9,-131 421.34,-131 442.98,-117.77 458.81,-104.78"/>
<polygon fill="black" stroke="black" points="461.05,-107.47 466.28,-98.26 456.45,-102.2 461.05,-107.47"/>
<text text-anchor="middle" x="273.38" y="-134.2" font-family="Times New Roman,serif" font-size="14.00">z</text>
</g>
<!-- 7 -->
<g id="node8" class="node">
<title>7</title>
<ellipse fill="none" stroke="black" cx="397.9" cy="-24" rx="20.13" ry="20.13"/>
<text text-anchor="middle" x="397.9" y="-18.95" font-family="Times New Roman,serif" font-size="14.00">q3</text>
</g>
<!-- 0&#45;&gt;7 -->
<g id="edge4" class="edge">
<title>0&#45;&gt;7</title>
<path fill="none" stroke="black" d="M61.83,-110.82C68.52,-74.07 88.39,0 139.86,0 139.86,0 139.86,0 315.89,0 334.07,0 353.63,-5.62 368.97,-11.43"/>
<polygon fill="black" stroke="black" points="367.34,-14.54 377.92,-15.04 369.96,-8.05 367.34,-14.54"/>
<text text-anchor="middle" x="227.88" y="-3.2" font-family="Times New Roman,serif" font-size="14.00">x</text>
</g>
<!-- 4 -->
<g id="node5" class="node">
<title>4</title>
<ellipse fill="none" stroke="black" cx="227.88" cy="-211" rx="20.13" ry="20.13"/>
<ellipse fill="none" stroke="black" cx="227.88" cy="-211" rx="24.13" ry="24.13"/>
<text text-anchor="middle" x="227.88" y="-205.95" font-family="Times New Roman,serif" font-size="14.00">q6</text>
</g>
<!-- 2&#45;&gt;4 -->
<g id="edge10" class="edge">
<title>2&#45;&gt;4</title>
<path fill="none" stroke="black" d="M159.99,-185.84C166.04,-188.12 172.8,-190.67 178.99,-193 184.03,-194.9 189.36,-196.9 194.57,-198.86"/>
<polygon fill="black" stroke="black" points="192.94,-201.98 203.53,-202.23 195.4,-195.43 192.94,-201.98"/>
<text text-anchor="middle" x="182.37" y="-198.65" font-family="Times New Roman,serif" font-size="14.00">y</text>
</g>
<!-- 3&#45;&gt;4 -->
<g id="edge14" class="edge">
<title>3&#45;&gt;4</title>
<path fill="none" stroke="black" d="M296.17,-242.66C285.86,-237.81 272.55,-231.55 260.49,-225.88"/>
<polygon fill="black" stroke="black" points="262.24,-222.83 251.7,-221.74 259.26,-229.16 262.24,-222.83"/>
<text text-anchor="middle" x="273.38" y="-236.59" font-family="Times New Roman,serif" font-size="14.00">z</text>
</g>
<!-- 4&#45;&gt;2 -->
<g id="edge5" class="edge">
<title>4&#45;&gt;2</title>
<path fill="none" stroke="black" d="M211.01,-193.19C204,-186.62 195.2,-179.94 185.74,-176.5 181.43,-174.93 176.72,-174.24 172.04,-174.09"/>
<polygon fill="black" stroke="black" points="172.02,-170.59 162.22,-174.61 172.39,-177.58 172.02,-170.59"/>
<text text-anchor="middle" x="182.37" y="-179.7" font-family="Times New Roman,serif" font-size="14.00">x</text>
</g>
<!-- 4&#45;&gt;3 -->
<g id="edge11" class="edge">
<title>4&#45;&gt;3</title>
<path fill="none" stroke="black" d="M252.08,-208.24C260.18,-208.16 269.15,-209.13 276.76,-212.5 283.66,-215.56 289.93,-220.57 295.27,-225.97"/>
<polygon fill="black" stroke="black" points="292.61,-228.25 301.85,-233.44 297.86,-223.62 292.61,-228.25"/>
<text text-anchor="middle" x="273.38" y="-215.7" font-family="Times New Roman,serif" font-size="14.00">y</text>
</g>
<!-- 4&#45;&gt;5 -->
<g id="edge12" class="edge">
<title>4&#45;&gt;5</title>
<path fill="none" stroke="black" d="M244.9,-193.31C255.05,-181.43 267.87,-165.07 276.76,-149 289.2,-126.48 299.01,-98.96 305.41,-78.33"/>
<polygon fill="black" stroke="black" points="308.74,-79.4 308.26,-68.82 302.03,-77.39 308.74,-79.4"/>
<text text-anchor="middle" x="273.38" y="-163.16" font-family="Times New Roman,serif" font-size="14.00">y</text>
</g>
<!-- 5&#45;&gt;5 -->
<g id="edge6" class="edge">
<title>5&#45;&gt;5</title>
<path fill="none" stroke="black" d="M307.43,-66.83C306.16,-76.93 308.65,-86.13 314.89,-86.13 318.59,-86.13 320.98,-82.89 322.04,-78.14"/>
<polygon fill="black" stroke="black" points="325.53,-78.44 322.31,-68.35 318.53,-78.25 325.53,-78.44"/>
<text text-anchor="middle" x="314.89" y="-89.33" font-family="Times New Roman,serif" font-size="14.00">x</text>
</g>
<!-- 5&#45;&gt;6 -->
<g id="edge15" class="edge">
<title>5&#45;&gt;6</title>
<path fill="none" stroke="black" d="M334.72,-52.81C340.57,-54.24 347.05,-55.75 353.02,-57 385.53,-63.79 422.87,-70.22 449.32,-74.54"/>
<polygon fill="black" stroke="black" points="448.73,-77.99 459.16,-76.13 449.85,-71.08 448.73,-77.99"/>
<text text-anchor="middle" x="397.9" y="-72.2" font-family="Times New Roman,serif" font-size="14.00">z</text>
</g>
<!-- 5&#45;&gt;7 -->
<g id="edge7" class="edge">
<title>5&#45;&gt;7</title>
<path fill="none" stroke="black" d="M334.68,-42.43C344.39,-39.56 356.47,-35.98 367.39,-32.74"/>
<polygon fill="black" stroke="black" points="368.17,-36.16 376.76,-29.97 366.18,-29.45 368.17,-36.16"/>
<text text-anchor="middle" x="356.39" y="-39.92" font-family="Times New Roman,serif" font-size="14.00">x</text>
</g>
<!-- 7&#45;&gt;6 -->
<g id="edge8" class="edge">
<title>7&#45;&gt;6</title>
<path fill="none" stroke="black" d="M415.84,-33.26C424.1,-37.92 434.1,-43.78 442.78,-49.5 447.28,-52.46 451.95,-55.73 456.46,-58.99"/>
<polygon fill="black" stroke="black" points="454.05,-61.56 464.17,-64.68 458.2,-55.93 454.05,-61.56"/>
<text text-anchor="middle" x="439.41" y="-52.7" font-family="Times New Roman,serif" font-size="14.00">x</text>
</g>
</g>
</svg>
