<?xml version="1.0" encoding="UTF-8" standalone="no"?>
<!DOCTYPE svg PUBLIC "-//W3C//DTD SVG 1.1//EN"
 "http://www.w3.org/Graphics/SVG/1.1/DTD/svg11.dtd">
<!-- Generated by graphviz version 12.1.0 (20240811.2233)
 -->
<!-- Title: G Pages: 1 -->
<svg width="647pt" height="323pt"
 viewBox="0.00 0.00 646.72 323.31" xmlns="http://www.w3.org/2000/svg" xmlns:xlink="http://www.w3.org/1999/xlink">
<g id="graph0" class="graph" transform="scale(1 1) rotate(0) translate(4 319.31)">
<title>G</title>
<polygon fill="white" stroke="none" points="-4,4 -4,-319.31 642.72,-319.31 642.72,4 -4,4"/>
<!-- n__ -->
<g id="node1" class="node">
<title>n__</title>
</g>
<!-- 0 -->
<g id="node2" class="node">
<title>0</title>
<ellipse fill="none" stroke="black" cx="55.72" cy="-95" rx="18" ry="18"/>
</g>
<!-- n__&#45;&gt;0 -->
<g id="edge1" class="edge">
<title>n__&#45;&gt;0</title>
<path fill="none" stroke="black" d="M0.87,-95C2.34,-95 13.93,-95 25.99,-95"/>
<polygon fill="black" stroke="black" points="25.86,-98.5 35.86,-95 25.86,-91.5 25.86,-98.5"/>
</g>
<!-- 1 -->
<g id="node3" class="node">
<title>1</title>
<ellipse fill="none" stroke="black" cx="133.72" cy="-95" rx="18" ry="18"/>
</g>
<!-- 0&#45;&gt;1 -->
<g id="edge2" class="edge">
<title>0&#45;&gt;1</title>
<path fill="none" stroke="black" d="M73.97,-95C82.84,-95 93.9,-95 104.02,-95"/>
<polygon fill="black" stroke="black" points="103.77,-98.5 113.77,-95 103.77,-91.5 103.77,-98.5"/>
<text text-anchor="middle" x="94.72" y="-98.2" font-family="Times New Roman,serif" font-size="14.00">a</text>
</g>
<!-- 3 -->
<g id="node5" class="node">
<title>3</title>
<ellipse fill="none" stroke="black" cx="533.97" cy="-137" rx="18" ry="18"/>
</g>
<!-- 0&#45;&gt;3 -->
<g id="edge10" class="edge">
<title>0&#45;&gt;3</title>
<path fill="none" stroke="black" d="M61.85,-77.58C71.12,-50.15 93.43,0 132.72,0 132.72,0 132.72,0 452.22,0 501.74,0 521.51,-67.26 528.91,-107.52"/>
<polygon fill="black" stroke="black" points="525.44,-108.03 530.54,-117.31 532.35,-106.88 525.44,-108.03"/>
<text text-anchor="middle" x="290.47" y="-3.2" font-family="Times New Roman,serif" font-size="14.00">b</text>
</g>
<!-- 5 -->
<g id="node7" class="node">
<title>5</title>
<ellipse fill="none" stroke="black" cx="290.47" cy="-191" rx="18" ry="18"/>
</g>
<!-- 0&#45;&gt;5 -->
<g id="edge3" class="edge">
<title>0&#45;&gt;5</title>
<path fill="none" stroke="black" d="M60.37,-112.61C69.92,-153.63 99.92,-255.17 169.72,-296 213.57,-321.65 256.16,-256.4 276.71,-217.51"/>
<polygon fill="black" stroke="black" points="279.79,-219.19 281.22,-208.69 273.55,-216 279.79,-219.19"/>
<text text-anchor="middle" x="173.1" y="-302.01" font-family="Times New Roman,serif" font-size="14.00">a</text>
</g>
<!-- 2 -->
<g id="node4" class="node">
<title>2</title>
<ellipse fill="none" stroke="black" cx="212.47" cy="-56" rx="18" ry="18"/>
</g>
<!-- 1&#45;&gt;2 -->
<g id="edge11" class="edge">
<title>1&#45;&gt;2</title>
<path fill="none" stroke="black" d="M150.25,-87.11C160.45,-81.93 174.02,-75.03 185.8,-69.04"/>
<polygon fill="black" stroke="black" points="187.28,-72.22 194.61,-64.57 184.11,-65.98 187.28,-72.22"/>
<text text-anchor="middle" x="173.1" y="-79.87" font-family="Times New Roman,serif" font-size="14.00">b</text>
</g>
<!-- 2&#45;&gt;1 -->
<g id="edge4" class="edge">
<title>2&#45;&gt;1</title>
<path fill="none" stroke="black" d="M197.88,-45.17C189.5,-39.88 178.68,-35.61 169.72,-40.5 158.91,-46.4 150.95,-57.23 145.37,-67.68"/>
<polygon fill="black" stroke="black" points="142.34,-65.92 141.22,-76.45 148.66,-68.91 142.34,-65.92"/>
<text text-anchor="middle" x="173.1" y="-43.7" font-family="Times New Roman,serif" font-size="14.00">a</text>
</g>
<!-- 2&#45;&gt;3 -->
<g id="edge12" class="edge">
<title>2&#45;&gt;3</title>
<path fill="none" stroke="black" d="M230.59,-52.45C245.94,-49.57 269.11,-46 289.47,-46 289.47,-46 289.47,-46 452.22,-46 486.75,-46 510.11,-83.11 522.48,-109.93"/>
<polygon fill="black" stroke="black" points="519.19,-111.13 526.37,-118.92 525.61,-108.35 519.19,-111.13"/>
<text text-anchor="middle" x="368.47" y="-49.2" font-family="Times New Roman,serif" font-size="14.00">b</text>
</g>
<!-- 2&#45;&gt;5 -->
<g id="edge5" class="edge">
<title>2&#45;&gt;5</title>
<path fill="none" stroke="black" d="M222.19,-71.49C235.19,-94.58 259.79,-138.27 275.37,-165.95"/>
<polygon fill="black" stroke="black" points="272.16,-167.38 280.11,-174.38 278.26,-163.94 272.16,-167.38"/>
<text text-anchor="middle" x="251.47" y="-130.75" font-family="Times New Roman,serif" font-size="14.00">a</text>
</g>
<!-- 4 -->
<g id="node6" class="node">
<title>4</title>
<ellipse fill="none" stroke="black" cx="616.72" cy="-213" rx="18" ry="18"/>
<ellipse fill="none" stroke="black" cx="616.72" cy="-213" rx="22" ry="22"/>
</g>
<!-- 3&#45;&gt;4 -->
<g id="edge16" class="edge">
<title>3&#45;&gt;4</title>
<path fill="none" stroke="black" d="M546.54,-150.42C553.17,-157.89 561.78,-167.22 569.97,-175 576.25,-180.96 583.32,-187.1 590,-192.65"/>
<polygon fill="black" stroke="black" points="587.61,-195.22 597.57,-198.84 592.04,-189.8 587.61,-195.22"/>
<text text-anchor="middle" x="573.35" y="-183.69" font-family="Times New Roman,serif" font-size="14.00">c</text>
</g>
<!-- 4&#45;&gt;1 -->
<g id="edge6" class="edge">
<title>4&#45;&gt;1</title>
<path fill="none" stroke="black" d="M604.64,-231.85C591.04,-252.28 565.95,-282 534.97,-282 211.47,-282 211.47,-282 211.47,-282 144.24,-282 134.65,-177.28 134.08,-124.57"/>
<polygon fill="black" stroke="black" points="137.58,-124.79 134.09,-114.78 130.58,-124.78 137.58,-124.79"/>
<text text-anchor="middle" x="368.47" y="-285.2" font-family="Times New Roman,serif" font-size="14.00">a</text>
</g>
<!-- 4&#45;&gt;3 -->
<g id="edge13" class="edge">
<title>4&#45;&gt;3</title>
<path fill="none" stroke="black" d="M605.15,-193.84C598.19,-182.5 588.25,-168.47 576.72,-158.5 572.13,-154.54 566.69,-151.06 561.27,-148.13"/>
<polygon fill="black" stroke="black" points="563.01,-145.08 552.48,-143.83 559.93,-151.37 563.01,-145.08"/>
<text text-anchor="middle" x="573.35" y="-161.7" font-family="Times New Roman,serif" font-size="14.00">b</text>
</g>
<!-- 4&#45;&gt;5 -->
<g id="edge7" class="edge">
<title>4&#45;&gt;5</title>
<path fill="none" stroke="black" d="M596.25,-221.83C580.16,-228.31 556.54,-236 534.97,-236 367.47,-236 367.47,-236 367.47,-236 346.59,-236 326.42,-223.27 312.11,-211.35"/>
<polygon fill="black" stroke="black" points="314.53,-208.82 304.74,-204.78 309.88,-214.05 314.53,-208.82"/>
<text text-anchor="middle" x="451.22" y="-239.2" font-family="Times New Roman,serif" font-size="14.00">a</text>
</g>
<!-- 6 -->
<g id="node8" class="node">
<title>6</title>
<ellipse fill="none" stroke="black" cx="368.47" cy="-137" rx="18" ry="18"/>
</g>
<!-- 5&#45;&gt;6 -->
<g id="edge17" class="edge">
<title>5&#45;&gt;6</title>
<path fill="none" stroke="black" d="M304.26,-178.77C310.68,-172.93 318.72,-166.02 326.47,-160.5 331.36,-157.02 336.8,-153.61 342.08,-150.52"/>
<polygon fill="black" stroke="black" points="343.53,-153.72 350.52,-145.76 340.09,-147.62 343.53,-153.72"/>
<text text-anchor="middle" x="329.47" y="-163.7" font-family="Times New Roman,serif" font-size="14.00">c</text>
</g>
<!-- 7 -->
<g id="node9" class="node">
<title>7</title>
<ellipse fill="none" stroke="black" cx="451.22" cy="-137" rx="18" ry="18"/>
<ellipse fill="none" stroke="black" cx="451.22" cy="-137" rx="22" ry="22"/>
</g>
<!-- 6&#45;&gt;7 -->
<g id="edge14" class="edge">
<title>6&#45;&gt;7</title>
<path fill="none" stroke="black" d="M386.59,-137C395.54,-137 406.8,-137 417.35,-137"/>
<polygon fill="black" stroke="black" points="417.29,-140.5 427.29,-137 417.29,-133.5 417.29,-140.5"/>
<text text-anchor="middle" x="407.85" y="-140.2" font-family="Times New Roman,serif" font-size="14.00">b</text>
</g>
<!-- 7&#45;&gt;1 -->
<g id="edge8" class="edge">
<title>7&#45;&gt;1</title>
<path fill="none" stroke="black" d="M431.27,-126.95C418.88,-120.9 402.15,-113.67 386.47,-110 383.78,-109.37 228.62,-100.4 163.26,-96.64"/>
<polygon fill="black" stroke="black" points="163.5,-93.15 153.31,-96.07 163.1,-100.13 163.5,-93.15"/>
<text text-anchor="middle" x="290.47" y="-108.19" font-family="Times New Roman,serif" font-size="14.00">a</text>
</g>
<!-- 7&#45;&gt;3 -->
<g id="edge15" class="edge">
<title>7&#45;&gt;3</title>
<path fill="none" stroke="black" d="M473.44,-137C482.91,-137 494.21,-137 504.41,-137"/>
<polygon fill="black" stroke="black" points="504.19,-140.5 514.19,-137 504.19,-133.5 504.19,-140.5"/>
<text text-anchor="middle" x="494.6" y="-140.2" font-family="Times New Roman,serif" font-size="14.00">b</text>
</g>
<!-- 7&#45;&gt;5 -->
<g id="edge9" class="edge">
<title>7&#45;&gt;5</title>
<path fill="none" stroke="black" d="M431.98,-147.92C425.57,-151.46 418.21,-155.19 411.22,-158 380.78,-170.21 344.23,-179.56 319.59,-185.14"/>
<polygon fill="black" stroke="black" points="319.02,-181.68 310,-187.25 320.52,-188.52 319.02,-181.68"/>
<text text-anchor="middle" x="368.47" y="-180.32" font-family="Times New Roman,serif" font-size="14.00">a</text>
</g>
</g>
</svg>
