<?xml version="1.0" encoding="UTF-8" standalone="no"?>
<!DOCTYPE svg PUBLIC "-//W3C//DTD SVG 1.1//EN"
 "http://www.w3.org/Graphics/SVG/1.1/DTD/svg11.dtd">
<!-- Generated by graphviz version 12.1.1 (20240910.0053)
 -->
<!-- Title: G Pages: 1 -->
<svg width="1455pt" height="3339pt"
 viewBox="0.00 0.00 1455.29 3339.29" xmlns="http://www.w3.org/2000/svg" xmlns:xlink="http://www.w3.org/1999/xlink">
<g id="graph0" class="graph" transform="scale(1 1) rotate(0) translate(4 3335.29)">
<title>G</title>
<polygon fill="white" stroke="none" points="-4,4 -4,-3335.29 1451.29,-3335.29 1451.29,4 -4,4"/>
<!-- n__ -->
<g id="node1" class="node">
<title>n__</title>
</g>
<!-- 0 -->
<g id="node2" class="node">
<title>0</title>
<ellipse fill="none" stroke="black" cx="61.85" cy="-521" rx="20.13" ry="20.13"/>
<ellipse fill="none" stroke="black" cx="61.85" cy="-521" rx="24.13" ry="24.13"/>
<text text-anchor="middle" x="61.85" y="-515.95" font-family="Times New Roman,serif" font-size="14.00">q0</text>
</g>
<!-- n__&#45;&gt;0 -->
<g id="edge1" class="edge">
<title>n__&#45;&gt;0</title>
<path fill="none" stroke="black" d="M0.76,-521C1.56,-521 13.19,-521 26.01,-521"/>
<polygon fill="black" stroke="black" points="25.83,-524.5 35.83,-521 25.83,-517.5 25.83,-524.5"/>
</g>
<!-- 1 -->
<g id="node3" class="node">
<title>1</title>
<ellipse fill="none" stroke="black" cx="1330.33" cy="-1254" rx="20.13" ry="20.13"/>
<ellipse fill="none" stroke="black" cx="1330.33" cy="-1254" rx="24.13" ry="24.13"/>
<text text-anchor="middle" x="1330.33" y="-1248.95" font-family="Times New Roman,serif" font-size="14.00">q4</text>
</g>
<!-- 0&#45;&gt;1 -->
<g id="edge5" class="edge">
<title>0&#45;&gt;1</title>
<path fill="none" stroke="black" d="M62.85,-545.46C63.02,-749.47 67.21,-2161 151.86,-2161 151.86,-2161 151.86,-2161 290.38,-2161 472.19,-2161 508.31,-2093.29 687.66,-2063.5 778.13,-2048.47 1007.05,-2027 1098.77,-2027 1098.77,-2027 1098.77,-2027 1239.1,-2027 1314.33,-2027 1326.96,-1441.92 1328.97,-1289.8"/>
<polygon fill="black" stroke="black" points="1332.46,-1289.97 1329.09,-1279.92 1325.46,-1289.88 1332.46,-1289.97"/>
<text text-anchor="middle" x="712.39" y="-2066.7" font-family="Times New Roman,serif" font-size="14.00">0</text>
</g>
<!-- 2 -->
<g id="node4" class="node">
<title>2</title>
<ellipse fill="none" stroke="black" cx="152.86" cy="-1143" rx="20.13" ry="20.13"/>
<ellipse fill="none" stroke="black" cx="152.86" cy="-1143" rx="24.13" ry="24.13"/>
<text text-anchor="middle" x="152.86" y="-1137.95" font-family="Times New Roman,serif" font-size="14.00">q3</text>
</g>
<!-- 0&#45;&gt;2 -->
<g id="edge4" class="edge">
<title>0&#45;&gt;2</title>
<path fill="none" stroke="black" d="M66.29,-545C79.97,-640.63 130.65,-994.8 146.85,-1107.98"/>
<polygon fill="black" stroke="black" points="143.34,-1108.17 148.22,-1117.57 150.27,-1107.18 143.34,-1108.17"/>
<text text-anchor="middle" x="107.36" y="-853.85" font-family="Times New Roman,serif" font-size="14.00">0</text>
</g>
<!-- 3 -->
<g id="node5" class="node">
<title>3</title>
<ellipse fill="none" stroke="black" cx="243.88" cy="-875" rx="20.13" ry="20.13"/>
<ellipse fill="none" stroke="black" cx="243.88" cy="-875" rx="24.13" ry="24.13"/>
<text text-anchor="middle" x="243.88" y="-869.95" font-family="Times New Roman,serif" font-size="14.00">q2</text>
</g>
<!-- 0&#45;&gt;3 -->
<g id="edge3" class="edge">
<title>0&#45;&gt;3</title>
<path fill="none" stroke="black" d="M73.71,-542.35C104.22,-602.35 190.86,-772.72 226.87,-843.54"/>
<polygon fill="black" stroke="black" points="223.67,-844.95 231.32,-852.28 229.91,-841.78 223.67,-844.95"/>
<text text-anchor="middle" x="152.86" y="-747.9" font-family="Times New Roman,serif" font-size="14.00">0</text>
</g>
<!-- 4 -->
<g id="node6" class="node">
<title>4</title>
<ellipse fill="none" stroke="black" cx="800.01" cy="-615" rx="20.13" ry="20.13"/>
<text text-anchor="middle" x="800.01" y="-609.95" font-family="Times New Roman,serif" font-size="14.00">q5</text>
</g>
<!-- 0&#45;&gt;4 -->
<g id="edge6" class="edge">
<title>0&#45;&gt;4</title>
<path fill="none" stroke="black" d="M63.8,-496.65C67.04,-419.38 78.94,-183.43 103.98,-161 150.81,-119.07 623.14,-116.73 669.66,-159 700.71,-187.23 672.78,-307.75 687.66,-347 700.9,-381.95 720.08,-381.74 737.13,-415 753.15,-446.23 751.38,-456.51 761.88,-490 771.98,-522.22 782.92,-559.33 790.28,-584.69"/>
<polygon fill="black" stroke="black" points="786.84,-585.37 792.98,-594 793.56,-583.43 786.84,-585.37"/>
<text text-anchor="middle" x="431.72" y="-132.44" font-family="Times New Roman,serif" font-size="14.00">0</text>
</g>
<!-- 5 -->
<g id="node7" class="node">
<title>5</title>
<ellipse fill="none" stroke="black" cx="1238.1" cy="-1254" rx="20.13" ry="20.13"/>
<ellipse fill="none" stroke="black" cx="1238.1" cy="-1254" rx="24.13" ry="24.13"/>
<text text-anchor="middle" x="1238.1" y="-1248.95" font-family="Times New Roman,serif" font-size="14.00">q1</text>
</g>
<!-- 0&#45;&gt;5 -->
<g id="edge2" class="edge">
<title>0&#45;&gt;5</title>
<path fill="none" stroke="black" d="M63.88,-496.66C67.43,-417.1 80.32,-165.45 103.98,-88 116.99,-45.42 107.34,0 151.86,0 151.86,0 151.86,0 759.51,0 836.25,0 846.78,-54 923.53,-54 923.53,-54 923.53,-54 1100.77,-54 1207.2,-54 1172.77,-169.99 1195.37,-274 1214.9,-363.92 1205.25,-1010.34 1213.37,-1102 1216.95,-1142.46 1224.65,-1188.49 1230.32,-1219.19"/>
<polygon fill="black" stroke="black" points="1226.81,-1219.49 1232.09,-1228.68 1233.69,-1218.2 1226.81,-1219.49"/>
<text text-anchor="middle" x="666.28" y="-3.2" font-family="Times New Roman,serif" font-size="14.00">0</text>
</g>
<!-- 6 -->
<g id="node8" class="node">
<title>6</title>
<ellipse fill="none" stroke="black" cx="1053.65" cy="-1031" rx="20.13" ry="20.13"/>
<ellipse fill="none" stroke="black" cx="1053.65" cy="-1031" rx="24.13" ry="24.13"/>
<text text-anchor="middle" x="1053.65" y="-1025.95" font-family="Times New Roman,serif" font-size="14.00">q6</text>
</g>
<!-- 0&#45;&gt;6 -->
<g id="edge7" class="edge">
<title>0&#45;&gt;6</title>
<path fill="none" stroke="black" d="M83.57,-509.55C125.12,-487.33 222.24,-439.02 310.76,-422 332.35,-417.85 338.38,-419.59 360.23,-422 431.07,-429.83 937.81,-509.65 986.17,-562 1044.36,-624.99 1051.86,-896.61 1052.65,-995.13"/>
<polygon fill="black" stroke="black" points="1049.15,-995.03 1052.7,-1005.01 1056.15,-994.99 1049.15,-995.03"/>
<text text-anchor="middle" x="574.06" y="-459.21" font-family="Times New Roman,serif" font-size="14.00">0</text>
</g>
<!-- 7 -->
<g id="node9" class="node">
<title>7</title>
<ellipse fill="none" stroke="black" cx="1145.88" cy="-1024" rx="20.13" ry="20.13"/>
<ellipse fill="none" stroke="black" cx="1145.88" cy="-1024" rx="24.13" ry="24.13"/>
<text text-anchor="middle" x="1145.88" y="-1018.95" font-family="Times New Roman,serif" font-size="14.00">q8</text>
</g>
<!-- 0&#45;&gt;7 -->
<g id="edge9" class="edge">
<title>0&#45;&gt;7</title>
<path fill="none" stroke="black" d="M62.32,-496.54C60.9,-401.23 62.1,-60 151.86,-60 151.86,-60 151.86,-60 382.61,-60 488.28,-60 513.49,-84 619.17,-84 619.17,-84 619.17,-84 759.51,-84 908.17,-84 978.49,-74.91 1078.39,-185 1133.06,-245.25 1142.93,-835.7 1144.57,-988.2"/>
<polygon fill="black" stroke="black" points="1141.07,-988.13 1144.67,-998.09 1148.07,-988.06 1141.07,-988.13"/>
<text text-anchor="middle" x="620.17" y="-87.2" font-family="Times New Roman,serif" font-size="14.00">0</text>
</g>
<!-- 8 -->
<g id="node10" class="node">
<title>8</title>
<ellipse fill="none" stroke="black" cx="883.02" cy="-1289" rx="20.13" ry="20.13"/>
<text text-anchor="middle" x="883.02" y="-1283.95" font-family="Times New Roman,serif" font-size="14.00">q7</text>
</g>
<!-- 0&#45;&gt;8 -->
<g id="edge8" class="edge">
<title>0&#45;&gt;8</title>
<path fill="none" stroke="black" d="M82.02,-534.66C157.57,-588.88 440.54,-795.89 644.91,-998 665.94,-1018.8 661.29,-1035.59 687.66,-1049 740.26,-1075.76 774.57,-1020.5 820.14,-1058 850.9,-1083.3 870.31,-1200.42 878.11,-1257.52"/>
<polygon fill="black" stroke="black" points="874.61,-1257.79 879.4,-1267.24 881.55,-1256.87 874.61,-1257.79"/>
<text text-anchor="middle" x="481.83" y="-853.91" font-family="Times New Roman,serif" font-size="14.00">0</text>
</g>
<!-- 10 -->
<g id="node11" class="node">
<title>10</title>
<ellipse fill="none" stroke="black" cx="966.04" cy="-1494" rx="20.13" ry="20.13"/>
<text text-anchor="middle" x="966.04" y="-1488.95" font-family="Times New Roman,serif" font-size="14.00">q9</text>
</g>
<!-- 0&#45;&gt;10 -->
<g id="edge104" class="edge">
<title>0&#45;&gt;10</title>
<path fill="none" stroke="black" d="M62.92,-545.57C63.61,-744.54 71.29,-2085 151.86,-2085 151.86,-2085 151.86,-2085 382.61,-2085 481.23,-2085 829.11,-1885.27 844.89,-1877 871.06,-1863.28 885.95,-1869.02 903.16,-1845 907.85,-1838.45 945.93,-1609.8 959.91,-1525.13"/>
<polygon fill="black" stroke="black" points="963.34,-1525.88 961.51,-1515.44 956.43,-1524.74 963.34,-1525.88"/>
<text text-anchor="middle" x="527.94" y="-2053.01" font-family="Times New Roman,serif" font-size="14.00">1</text>
</g>
<!-- 12 -->
<g id="node12" class="node">
<title>12</title>
<ellipse fill="none" stroke="black" cx="527.94" cy="-2302" rx="24.74" ry="24.74"/>
<text text-anchor="middle" x="527.94" y="-2296.95" font-family="Times New Roman,serif" font-size="14.00">q10</text>
</g>
<!-- 0&#45;&gt;12 -->
<g id="edge105" class="edge">
<title>0&#45;&gt;12</title>
<path fill="none" stroke="black" d="M63.05,-545.41C64.65,-737.85 76.24,-2007.45 103.98,-2175 115.62,-2245.3 80.61,-2328 151.86,-2328 151.86,-2328 151.86,-2328 432.72,-2328 453.7,-2328 476.39,-2321.94 494.25,-2315.67"/>
<polygon fill="black" stroke="black" points="495.38,-2318.98 503.53,-2312.21 492.94,-2312.42 495.38,-2318.98"/>
<text text-anchor="middle" x="289.38" y="-2331.2" font-family="Times New Roman,serif" font-size="14.00">1</text>
</g>
<!-- 26 -->
<g id="node22" class="node">
<title>26</title>
<ellipse fill="none" stroke="black" cx="335.49" cy="-1310" rx="24.74" ry="24.74"/>
<text text-anchor="middle" x="335.49" y="-1304.95" font-family="Times New Roman,serif" font-size="14.00">q11</text>
</g>
<!-- 0&#45;&gt;26 -->
<g id="edge106" class="edge">
<title>0&#45;&gt;26</title>
<path fill="none" stroke="black" d="M62.78,-545.49C62.91,-708 73.1,-1628.82 286.01,-1774 325.91,-1801.21 293.95,-1385.28 310.76,-1340 311.11,-1339.05 311.51,-1338.1 311.94,-1337.16"/>
<polygon fill="black" stroke="black" points="314.76,-1339.27 316.89,-1328.89 308.75,-1335.67 314.76,-1339.27"/>
<text text-anchor="middle" x="198.37" y="-1653.79" font-family="Times New Roman,serif" font-size="14.00">1</text>
</g>
<!-- 2&#45;&gt;1 -->
<g id="edge13" class="edge">
<title>2&#45;&gt;1</title>
<path fill="none" stroke="black" d="M155.53,-1118.69C159.61,-1058.67 170.26,-898.63 176.99,-765 187.16,-563.32 168.74,-511.22 194.99,-311 207.61,-214.79 145.85,-98 242.88,-98 242.88,-98 242.88,-98 382.61,-98 625.76,-98 680.37,-16 923.53,-16 923.53,-16 923.53,-16 1239.1,-16 1301.04,-16 1324.5,-1014.67 1328.64,-1218.09"/>
<polygon fill="black" stroke="black" points="1325.14,-1218.11 1328.84,-1228.04 1332.14,-1217.97 1325.14,-1218.11"/>
<text text-anchor="middle" x="758.51" y="-34.89" font-family="Times New Roman,serif" font-size="14.00">0</text>
</g>
<!-- 2&#45;&gt;2 -->
<g id="edge12" class="edge">
<title>2&#45;&gt;2</title>
<path fill="none" stroke="black" d="M144.46,-1165.97C143.66,-1176.24 146.46,-1185.13 152.86,-1185.13 156.66,-1185.13 159.19,-1182 160.46,-1177.3"/>
<polygon fill="black" stroke="black" points="163.94,-1177.7 161.15,-1167.48 156.95,-1177.2 163.94,-1177.7"/>
<text text-anchor="middle" x="152.86" y="-1188.33" font-family="Times New Roman,serif" font-size="14.00">0</text>
</g>
<!-- 2&#45;&gt;3 -->
<g id="edge11" class="edge">
<title>2&#45;&gt;3</title>
<path fill="none" stroke="black" d="M161.45,-1120.15C177.19,-1072.78 213.42,-963.69 231.78,-908.41"/>
<polygon fill="black" stroke="black" points="235,-909.82 234.83,-899.23 228.35,-907.62 235,-909.82"/>
<text text-anchor="middle" x="198.37" y="-1020.24" font-family="Times New Roman,serif" font-size="14.00">0</text>
</g>
<!-- 2&#45;&gt;4 -->
<g id="edge14" class="edge">
<title>2&#45;&gt;4</title>
<path fill="none" stroke="black" d="M155.46,-1118.68C159.39,-1058.65 169.71,-898.6 176.99,-765 178.13,-744.12 181.95,-405.35 194.99,-389 232.55,-341.95 402.63,-318.25 460.46,-335 519.54,-352.12 527.7,-372.79 577.43,-409 585.85,-415.13 586.96,-417.95 595.43,-424 655.38,-466.81 685.38,-457.57 737.13,-510 758.97,-532.13 776.13,-563.45 786.78,-586.12"/>
<polygon fill="black" stroke="black" points="783.54,-587.44 790.86,-595.1 789.91,-584.55 783.54,-587.44"/>
<text text-anchor="middle" x="481.83" y="-346.66" font-family="Times New Roman,serif" font-size="14.00">0</text>
</g>
<!-- 2&#45;&gt;5 -->
<g id="edge10" class="edge">
<title>2&#45;&gt;5</title>
<path fill="none" stroke="black" d="M154.22,-1167.29C156.28,-1299.56 167.48,-1928.21 194.99,-1958 281.2,-2051.33 351.67,-1986.76 478.46,-1995 524.16,-1997.97 528.18,-1966.09 570.68,-1949 620.74,-1928.87 635.16,-1928.96 687.66,-1916.5 901.61,-1865.7 992.13,-1937.46 1170.62,-1809 1187.28,-1797.01 1188.85,-1789.47 1195.37,-1770 1225.29,-1680.63 1234.2,-1391.38 1236.44,-1289.73"/>
<polygon fill="black" stroke="black" points="1239.94,-1289.87 1236.65,-1279.8 1232.94,-1289.72 1239.94,-1289.87"/>
<text text-anchor="middle" x="712.39" y="-1919.7" font-family="Times New Roman,serif" font-size="14.00">0</text>
</g>
<!-- 2&#45;&gt;6 -->
<g id="edge15" class="edge">
<title>2&#45;&gt;6</title>
<path fill="none" stroke="black" d="M155.34,-1118.56C162.22,-1005.49 190.84,-538.21 194.99,-532 220.08,-494.49 242.07,-497.27 286.01,-487 363.28,-468.94 384.81,-501.03 460.46,-525 677.34,-593.72 713.65,-656.11 903.16,-782 951.97,-814.43 977.99,-809.52 1010.92,-858 1025.98,-880.18 1039.81,-951.82 1047.15,-995.65"/>
<polygon fill="black" stroke="black" points="1043.68,-996.15 1048.75,-1005.45 1050.59,-995.02 1043.68,-996.15"/>
<text text-anchor="middle" x="620.17" y="-605.58" font-family="Times New Roman,serif" font-size="14.00">0</text>
</g>
<!-- 2&#45;&gt;7 -->
<g id="edge17" class="edge">
<title>2&#45;&gt;7</title>
<path fill="none" stroke="black" d="M155.49,-1118.69C159.49,-1058.66 169.95,-898.61 176.99,-765 181.75,-674.81 169.75,-445.71 194.99,-359 201.16,-337.83 202.44,-329.67 219.74,-316 252.86,-289.85 270.09,-300.24 310.76,-289 469.47,-245.13 511.69,-243.51 669.66,-197 677.75,-194.62 679.39,-192.67 687.66,-191 745.46,-179.36 766.91,-158.63 820.14,-184 937.38,-239.88 917.16,-314.57 1004.17,-411 1035.37,-445.59 1053.77,-445.46 1078.39,-485 1096.5,-514.08 1096.06,-524.48 1103.14,-558 1120.51,-640.23 1137.07,-894 1142.78,-988.26"/>
<polygon fill="black" stroke="black" points="1139.28,-988.43 1143.38,-998.2 1146.27,-988.01 1139.28,-988.43"/>
<text text-anchor="middle" x="666.28" y="-202.04" font-family="Times New Roman,serif" font-size="14.00">0</text>
</g>
<!-- 2&#45;&gt;8 -->
<g id="edge16" class="edge">
<title>2&#45;&gt;8</title>
<path fill="none" stroke="black" d="M177.3,-1140.77C238.94,-1135.29 410.61,-1122.54 552.68,-1135.5 646.83,-1144.09 669.9,-1152.18 761.88,-1174 788.13,-1180.23 798.6,-1174.77 820.14,-1191 843.51,-1208.61 860.3,-1237.84 870.44,-1259.8"/>
<polygon fill="black" stroke="black" points="867.18,-1261.08 874.41,-1268.84 873.59,-1258.27 867.18,-1261.08"/>
<text text-anchor="middle" x="527.94" y="-1138.7" font-family="Times New Roman,serif" font-size="14.00">0</text>
</g>
<!-- 2&#45;&gt;10 -->
<g id="edge107" class="edge">
<title>2&#45;&gt;10</title>
<path fill="none" stroke="black" d="M154.11,-1167.3C155.62,-1289.16 165.37,-1829.74 219.74,-1878 256.64,-1910.74 216.53,-1919.14 485.21,-1833 506.01,-1826.33 825.24,-1683.54 844.89,-1674 882.46,-1655.77 901.81,-1662.6 927.91,-1630 951.97,-1599.94 960.48,-1555.46 963.46,-1525.64"/>
<polygon fill="black" stroke="black" points="966.95,-1525.99 964.28,-1515.74 959.97,-1525.41 966.95,-1525.99"/>
<text text-anchor="middle" x="574.06" y="-1799.67" font-family="Times New Roman,serif" font-size="14.00">1</text>
</g>
<!-- 2&#45;&gt;12 -->
<g id="edge108" class="edge">
<title>2&#45;&gt;12</title>
<path fill="none" stroke="black" d="M153.86,-1167.5C153.99,-1296.05 156.68,-1893.58 194.99,-2074 201.24,-2103.43 199.8,-2114.48 219.74,-2137 281.12,-2206.29 321.41,-2192.25 402.98,-2236 434.57,-2252.94 470.75,-2272.19 495.84,-2285.51"/>
<polygon fill="black" stroke="black" points="494.06,-2288.52 504.53,-2290.12 497.34,-2282.34 494.06,-2288.52"/>
<text text-anchor="middle" x="335.49" y="-2219.22" font-family="Times New Roman,serif" font-size="14.00">1</text>
</g>
<!-- 2&#45;&gt;26 -->
<g id="edge109" class="edge">
<title>2&#45;&gt;26</title>
<path fill="none" stroke="black" d="M171.18,-1159.01C202.98,-1188.41 270.84,-1251.15 308.31,-1285.79"/>
<polygon fill="black" stroke="black" points="305.86,-1288.3 315.58,-1292.52 310.62,-1283.16 305.86,-1288.3"/>
<text text-anchor="middle" x="243.88" y="-1249.03" font-family="Times New Roman,serif" font-size="14.00">1</text>
</g>
<!-- 3&#45;&gt;1 -->
<g id="edge21" class="edge">
<title>3&#45;&gt;1</title>
<path fill="none" stroke="black" d="M244.78,-850.64C244.97,-765.54 250.25,-483.29 310.76,-422 316.95,-415.73 587.35,-285.51 595.43,-282 635.64,-264.53 645.99,-260.63 687.66,-247 728.07,-233.77 737.74,-227.22 779.88,-221.5 897.47,-205.54 853.78,-121.78 1170.62,-238 1219.18,-255.81 1238.38,-263.42 1262.84,-309 1306.51,-390.39 1324.73,-1056.53 1328.55,-1218.57"/>
<polygon fill="black" stroke="black" points="1325.04,-1218.34 1328.77,-1228.26 1332.04,-1218.18 1325.04,-1218.34"/>
<text text-anchor="middle" x="800.01" y="-224.7" font-family="Times New Roman,serif" font-size="14.00">0</text>
</g>
<!-- 3&#45;&gt;2 -->
<g id="edge20" class="edge">
<title>3&#45;&gt;2</title>
<path fill="none" stroke="black" d="M231.82,-896.36C221.28,-917.35 205.5,-950.51 194.99,-980.5 179.89,-1023.62 167.84,-1074.96 160.78,-1108.23"/>
<polygon fill="black" stroke="black" points="157.42,-1107.21 158.81,-1117.72 164.27,-1108.64 157.42,-1107.21"/>
<text text-anchor="middle" x="198.37" y="-983.7" font-family="Times New Roman,serif" font-size="14.00">0</text>
</g>
<!-- 3&#45;&gt;3 -->
<g id="edge19" class="edge">
<title>3&#45;&gt;3</title>
<path fill="none" stroke="black" d="M235.48,-897.97C234.68,-908.24 237.48,-917.13 243.88,-917.13 247.68,-917.13 250.21,-914 251.47,-909.3"/>
<polygon fill="black" stroke="black" points="254.95,-909.7 252.17,-899.48 247.97,-909.2 254.95,-909.7"/>
<text text-anchor="middle" x="243.88" y="-920.33" font-family="Times New Roman,serif" font-size="14.00">0</text>
</g>
<!-- 3&#45;&gt;4 -->
<g id="edge22" class="edge">
<title>3&#45;&gt;4</title>
<path fill="none" stroke="black" d="M247.22,-850.9C253.07,-805.98 272.59,-714 334.49,-714 334.49,-714 334.49,-714 575.06,-714 607.88,-714 616.23,-705.98 644.91,-690 666.35,-678.04 666.29,-667.1 687.66,-655 713.65,-640.27 746.05,-629.37 769.18,-622.7"/>
<polygon fill="black" stroke="black" points="769.89,-626.14 778.58,-620.09 768.01,-619.39 769.89,-626.14"/>
<text text-anchor="middle" x="527.94" y="-717.2" font-family="Times New Roman,serif" font-size="14.00">0</text>
</g>
<!-- 3&#45;&gt;5 -->
<g id="edge18" class="edge">
<title>3&#45;&gt;5</title>
<path fill="none" stroke="black" d="M244.41,-850.54C243.44,-774.78 244.11,-545.62 286.01,-487 362.01,-380.66 445.68,-438.07 552.68,-363 574.74,-347.52 574.06,-336.42 595.43,-320 632.92,-291.2 644.01,-285.17 687.66,-267 716.36,-255.05 724.34,-252.85 755.13,-248.5 875.63,-231.5 907.23,-245.78 1028.92,-245 1105.1,-244.51 1150.61,-224.34 1195.37,-286 1222,-322.7 1209.36,-1056.83 1213.37,-1102 1216.96,-1142.46 1224.66,-1188.49 1230.32,-1219.19"/>
<polygon fill="black" stroke="black" points="1226.81,-1219.49 1232.1,-1228.68 1233.69,-1218.2 1226.81,-1219.49"/>
<text text-anchor="middle" x="758.51" y="-251.7" font-family="Times New Roman,serif" font-size="14.00">0</text>
</g>
<!-- 3&#45;&gt;6 -->
<g id="edge23" class="edge">
<title>3&#45;&gt;6</title>
<path fill="none" stroke="black" d="M255.65,-853.67C262.67,-842.05 272.95,-828.55 286.01,-821 491.51,-702.09 597.33,-747.98 820.14,-830 831.47,-834.17 1002.79,-925.08 1010.92,-934 1026.99,-951.64 1037.51,-976.42 1043.97,-996.52"/>
<polygon fill="black" stroke="black" points="1040.58,-997.4 1046.8,-1005.98 1047.28,-995.39 1040.58,-997.4"/>
<text text-anchor="middle" x="666.28" y="-779.79" font-family="Times New Roman,serif" font-size="14.00">0</text>
</g>
<!-- 3&#45;&gt;7 -->
<g id="edge25" class="edge">
<title>3&#45;&gt;7</title>
<path fill="none" stroke="black" d="M244.41,-850.43C244.79,-810.46 250.39,-730.28 286.01,-675 293.37,-663.57 298.56,-663.01 310.76,-657 369.92,-627.84 531.08,-587.47 595.43,-573 738.39,-540.86 775.07,-533.37 921.16,-522 941.69,-520.4 942.7,-512.97 986.17,-524 1050.81,-540.4 1084.12,-554.08 1103.14,-618 1142.5,-750.25 1146.13,-916.23 1145.61,-988.09"/>
<polygon fill="black" stroke="black" points="1142.12,-988.05 1145.51,-998.08 1149.11,-988.12 1142.12,-988.05"/>
<text text-anchor="middle" x="712.39" y="-555.88" font-family="Times New Roman,serif" font-size="14.00">0</text>
</g>
<!-- 3&#45;&gt;8 -->
<g id="edge24" class="edge">
<title>3&#45;&gt;8</title>
<path fill="none" stroke="black" d="M265.01,-887.33C318.68,-920.18 469.61,-1012.52 595.43,-1089 695.19,-1149.64 728.88,-1152.21 820.14,-1225 835.26,-1237.06 850.38,-1252.62 861.9,-1265.38"/>
<polygon fill="black" stroke="black" points="858.99,-1267.38 868.24,-1272.55 864.24,-1262.74 858.99,-1267.38"/>
<text text-anchor="middle" x="574.06" y="-1080.32" font-family="Times New Roman,serif" font-size="14.00">0</text>
</g>
<!-- 3&#45;&gt;10 -->
<g id="edge110" class="edge">
<title>3&#45;&gt;10</title>
<path fill="none" stroke="black" d="M245.24,-899.28C246.76,-940.62 253.89,-1026.39 286.01,-1090 376.33,-1268.9 435.77,-1296.88 595.43,-1418 624.75,-1440.24 628.4,-1453.2 662.91,-1466 669.23,-1468.35 859.23,-1484.9 934.63,-1491.39"/>
<polygon fill="black" stroke="black" points="933.93,-1494.84 944.19,-1492.21 934.53,-1487.87 933.93,-1494.84"/>
<text text-anchor="middle" x="620.17" y="-1461.06" font-family="Times New Roman,serif" font-size="14.00">1</text>
</g>
<!-- 3&#45;&gt;12 -->
<g id="edge111" class="edge">
<title>3&#45;&gt;12</title>
<path fill="none" stroke="black" d="M246.9,-899.04C251.37,-952.88 262.14,-1087.3 268.01,-1200 280.64,-1442.91 250.73,-1506.33 286.01,-1747 286.93,-1753.3 399.67,-2184.57 402.98,-2190 426.87,-2229.22 468.63,-2262.77 497.01,-2282.66"/>
<polygon fill="black" stroke="black" points="494.97,-2285.5 505.2,-2288.26 498.92,-2279.72 494.97,-2285.5"/>
<text text-anchor="middle" x="381.61" y="-2128.21" font-family="Times New Roman,serif" font-size="14.00">1</text>
</g>
<!-- 3&#45;&gt;26 -->
<g id="edge112" class="edge">
<title>3&#45;&gt;26</title>
<path fill="none" stroke="black" d="M248,-899.22C254.01,-944.44 268.18,-1044.67 286.01,-1128 297.09,-1179.79 313.56,-1238.9 324.16,-1275.34"/>
<polygon fill="black" stroke="black" points="320.79,-1276.27 326.96,-1284.88 327.5,-1274.3 320.79,-1276.27"/>
<text text-anchor="middle" x="289.38" y="-1156.19" font-family="Times New Roman,serif" font-size="14.00">1</text>
</g>
<!-- 4&#45;&gt;1 -->
<g id="edge29" class="edge">
<title>4&#45;&gt;1</title>
<path fill="none" stroke="black" d="M803.1,-594.84C807.85,-557.61 822.38,-477.05 862.89,-424 960.31,-296.44 1074.37,-177.55 1195.37,-283 1267.68,-346.02 1316.53,-1051.26 1327.15,-1218.56"/>
<polygon fill="black" stroke="black" points="1323.65,-1218.6 1327.77,-1228.36 1330.64,-1218.16 1323.65,-1218.6"/>
<text text-anchor="middle" x="1053.65" y="-264.14" font-family="Times New Roman,serif" font-size="14.00">0</text>
</g>
<!-- 4&#45;&gt;2 -->
<g id="edge28" class="edge">
<title>4&#45;&gt;2</title>
<path fill="none" stroke="black" d="M794.71,-595.44C787.29,-565.29 769.63,-506.88 737.13,-468 674.41,-392.96 639.34,-393.33 552.68,-348 421.56,-279.42 345.6,-268.17 219.74,-346 204.45,-355.46 201.2,-361.13 194.99,-378 180.14,-418.4 179.31,-722.02 176.99,-765 170.21,-891.04 160.59,-1040.61 156.21,-1107.54"/>
<polygon fill="black" stroke="black" points="152.74,-1106.97 155.57,-1117.17 159.72,-1107.43 152.74,-1106.97"/>
<text text-anchor="middle" x="481.83" y="-319.06" font-family="Times New Roman,serif" font-size="14.00">0</text>
</g>
<!-- 4&#45;&gt;3 -->
<g id="edge27" class="edge">
<title>4&#45;&gt;3</title>
<path fill="none" stroke="black" d="M779.68,-617.25C757.45,-619.88 719.88,-624.46 687.66,-629 642.04,-635.43 528.9,-661 482.83,-661 334.49,-661 334.49,-661 334.49,-661 258.22,-661 245.75,-778.11 244.43,-839.06"/>
<polygon fill="black" stroke="black" points="240.93,-838.9 244.31,-848.94 247.93,-838.98 240.93,-838.9"/>
<text text-anchor="middle" x="527.94" y="-663.06" font-family="Times New Roman,serif" font-size="14.00">0</text>
</g>
<!-- 4&#45;&gt;4 -->
<g id="edge30" class="edge">
<title>4&#45;&gt;4</title>
<path fill="none" stroke="black" d="M792.55,-633.83C791.28,-643.93 793.77,-653.13 800.01,-653.13 803.72,-653.13 806.1,-649.89 807.16,-645.14"/>
<polygon fill="black" stroke="black" points="810.65,-645.44 807.43,-635.35 803.65,-645.25 810.65,-645.44"/>
<text text-anchor="middle" x="800.01" y="-656.33" font-family="Times New Roman,serif" font-size="14.00">0</text>
</g>
<!-- 4&#45;&gt;5 -->
<g id="edge26" class="edge">
<title>4&#45;&gt;5</title>
<path fill="none" stroke="black" d="M811.25,-598.31C850.94,-535.56 997.64,-321.95 1103.14,-412 1105.12,-413.69 1206.77,-1060.69 1231.65,-1219.24"/>
<polygon fill="black" stroke="black" points="1228.13,-1219.38 1233.14,-1228.71 1235.04,-1218.29 1228.13,-1219.38"/>
<text text-anchor="middle" x="1007.54" y="-402.21" font-family="Times New Roman,serif" font-size="14.00">0</text>
</g>
<!-- 4&#45;&gt;6 -->
<g id="edge31" class="edge">
<title>4&#45;&gt;6</title>
<path fill="none" stroke="black" d="M814.01,-630.06C820.69,-637.11 829.27,-645.21 838.14,-651 874.21,-674.53 893.73,-661.29 927.91,-687.5 976.37,-724.66 986.43,-741.05 1010.92,-797 1039.84,-863.07 1048.72,-948 1051.45,-995.24"/>
<polygon fill="black" stroke="black" points="1047.95,-995.36 1051.95,-1005.17 1054.94,-995.01 1047.95,-995.36"/>
<text text-anchor="middle" x="924.53" y="-690.7" font-family="Times New Roman,serif" font-size="14.00">0</text>
</g>
<!-- 4&#45;&gt;7 -->
<g id="edge33" class="edge">
<title>4&#45;&gt;7</title>
<path fill="none" stroke="black" d="M818.97,-622.82C835.14,-629.14 859.73,-637 882.02,-637 882.02,-637 882.02,-637 1054.65,-637 1126.36,-637 1141.1,-892.14 1144.11,-988.09"/>
<polygon fill="black" stroke="black" points="1140.61,-988.09 1144.4,-997.98 1147.61,-987.89 1140.61,-988.09"/>
<text text-anchor="middle" x="966.04" y="-640.2" font-family="Times New Roman,serif" font-size="14.00">0</text>
</g>
<!-- 4&#45;&gt;8 -->
<g id="edge32" class="edge">
<title>4&#45;&gt;8</title>
<path fill="none" stroke="black" d="M803.44,-635.17C814.95,-731 864.17,-1140.49 878.25,-1257.6"/>
<polygon fill="black" stroke="black" points="874.76,-1257.89 879.43,-1267.4 881.71,-1257.06 874.76,-1257.89"/>
<text text-anchor="middle" x="841.52" y="-975.41" font-family="Times New Roman,serif" font-size="14.00">0</text>
</g>
<!-- 5&#45;&gt;1 -->
<g id="edge37" class="edge">
<title>5&#45;&gt;1</title>
<path fill="none" stroke="black" d="M1262.34,-1254C1272.16,-1254 1283.79,-1254 1294.6,-1254"/>
<polygon fill="black" stroke="black" points="1294.35,-1257.5 1304.35,-1254 1294.35,-1250.5 1294.35,-1257.5"/>
<text text-anchor="middle" x="1284.22" y="-1257.2" font-family="Times New Roman,serif" font-size="14.00">0</text>
</g>
<!-- 5&#45;&gt;2 -->
<g id="edge36" class="edge">
<title>5&#45;&gt;2</title>
<path fill="none" stroke="black" d="M1236.41,-1278.39C1233.86,-1359.29 1223.64,-1618.11 1195.37,-1696 1188.74,-1714.25 1186.85,-1721.35 1170.62,-1732 1096.64,-1780.5 865.66,-1786.38 779.88,-1808 688.5,-1831.03 669.45,-1850.69 577.43,-1871 316.05,-1928.68 278.24,-1947.42 219.74,-1904 160.84,-1860.27 154.54,-1323.57 153.92,-1178.79"/>
<polygon fill="black" stroke="black" points="157.42,-1179.02 153.88,-1169.04 150.42,-1179.05 157.42,-1179.02"/>
<text text-anchor="middle" x="712.39" y="-1840.42" font-family="Times New Roman,serif" font-size="14.00">0</text>
</g>
<!-- 5&#45;&gt;3 -->
<g id="edge35" class="edge">
<title>5&#45;&gt;3</title>
<path fill="none" stroke="black" d="M1232.47,-1230.16C1226.88,-1200.32 1217.69,-1147.6 1213.37,-1102 1195.22,-910.64 1226.9,-570.06 1170.62,-420 1143.53,-347.79 1145.88,-310.33 1078.39,-273 916.37,-183.38 430.34,-455.64 310.76,-597 294.74,-615.93 293.78,-623.46 286.01,-647 264.18,-713.09 253.06,-794 248.16,-839.51"/>
<polygon fill="black" stroke="black" points="244.69,-839.01 247.14,-849.32 251.65,-839.73 244.69,-839.01"/>
<text text-anchor="middle" x="758.51" y="-317.43" font-family="Times New Roman,serif" font-size="14.00">0</text>
</g>
<!-- 5&#45;&gt;4 -->
<g id="edge38" class="edge">
<title>5&#45;&gt;4</title>
<path fill="none" stroke="black" d="M1232.75,-1230.13C1227.46,-1200.26 1218.57,-1147.51 1213.37,-1102 1183.7,-842.55 1249.66,-764.89 1170.62,-516 1153.03,-460.61 1142.42,-446.83 1103.14,-404 1027.98,-322.03 929.48,-384.92 862.89,-474 837.2,-508.37 819.4,-555.06 809.7,-585.12"/>
<polygon fill="black" stroke="black" points="806.46,-583.73 806.83,-594.32 813.15,-585.82 806.46,-583.73"/>
<text text-anchor="middle" x="1007.54" y="-370.77" font-family="Times New Roman,serif" font-size="14.00">0</text>
</g>
<!-- 5&#45;&gt;5 -->
<g id="edge34" class="edge">
<title>5&#45;&gt;5</title>
<path fill="none" stroke="black" d="M1229.59,-1276.97C1228.78,-1287.24 1231.62,-1296.13 1238.1,-1296.13 1241.95,-1296.13 1244.52,-1293 1245.8,-1288.3"/>
<polygon fill="black" stroke="black" points="1249.28,-1288.7 1246.51,-1278.48 1242.3,-1288.2 1249.28,-1288.7"/>
<text text-anchor="middle" x="1238.1" y="-1299.33" font-family="Times New Roman,serif" font-size="14.00">0</text>
</g>
<!-- 5&#45;&gt;6 -->
<g id="edge39" class="edge">
<title>5&#45;&gt;6</title>
<path fill="none" stroke="black" d="M1217.15,-1241.91C1187.16,-1222.83 1130.37,-1183.03 1096.39,-1136 1081.01,-1114.7 1070.3,-1086.95 1063.58,-1065.33"/>
<polygon fill="black" stroke="black" points="1066.95,-1064.39 1060.77,-1055.79 1060.24,-1066.37 1066.95,-1064.39"/>
<text text-anchor="middle" x="1145.88" y="-1210.93" font-family="Times New Roman,serif" font-size="14.00">0</text>
</g>
<!-- 5&#45;&gt;7 -->
<g id="edge41" class="edge">
<title>5&#45;&gt;7</title>
<path fill="none" stroke="black" d="M1234.57,-1229.68C1230.28,-1195.52 1219.54,-1132.06 1195.37,-1083.5 1189.17,-1071.04 1179.96,-1058.85 1171.23,-1048.78"/>
<polygon fill="black" stroke="black" points="1174.08,-1046.72 1164.78,-1041.64 1168.89,-1051.41 1174.08,-1046.72"/>
<text text-anchor="middle" x="1191.99" y="-1086.7" font-family="Times New Roman,serif" font-size="14.00">0</text>
</g>
<!-- 5&#45;&gt;8 -->
<g id="edge40" class="edge">
<title>5&#45;&gt;8</title>
<path fill="none" stroke="black" d="M1232.54,-1277.74C1227.29,-1297.97 1216.51,-1325.95 1195.37,-1340 1149.23,-1370.67 981.59,-1321.02 913.29,-1298.84"/>
<polygon fill="black" stroke="black" points="914.5,-1295.56 903.91,-1295.76 912.32,-1302.21 914.5,-1295.56"/>
<text text-anchor="middle" x="1053.65" y="-1345.39" font-family="Times New Roman,serif" font-size="14.00">0</text>
</g>
<!-- 5&#45;&gt;10 -->
<g id="edge113" class="edge">
<title>5&#45;&gt;10</title>
<path fill="none" stroke="black" d="M1232.93,-1278.05C1227.51,-1304.34 1216.19,-1346.84 1195.37,-1378 1157.04,-1435.35 1141.34,-1451.8 1078.39,-1480 1052.8,-1491.46 1020.79,-1494.46 997.67,-1494.89"/>
<polygon fill="black" stroke="black" points="997.97,-1491.39 987.98,-1494.91 997.99,-1498.39 997.97,-1491.39"/>
<text text-anchor="middle" x="1099.77" y="-1474.43" font-family="Times New Roman,serif" font-size="14.00">1</text>
</g>
<!-- 5&#45;&gt;12 -->
<g id="edge114" class="edge">
<title>5&#45;&gt;12</title>
<path fill="none" stroke="black" d="M1236.25,-1278.28C1232.84,-1371.3 1219.17,-1704.85 1195.37,-1808 1170.42,-1916.12 1185.36,-1965.49 1103.14,-2040 992.37,-2140.39 919.43,-2079.37 779.88,-2133 683.32,-2170.11 647.51,-2165.74 570.68,-2235 560.05,-2244.58 551.15,-2257.49 544.34,-2269.42"/>
<polygon fill="black" stroke="black" points="541.26,-2267.75 539.61,-2278.21 547.43,-2271.06 541.26,-2267.75"/>
<text text-anchor="middle" x="883.02" y="-2114.45" font-family="Times New Roman,serif" font-size="14.00">1</text>
</g>
<!-- 5&#45;&gt;26 -->
<g id="edge115" class="edge">
<title>5&#45;&gt;26</title>
<path fill="none" stroke="black" d="M1215.25,-1262.26C1208.91,-1264.4 1201.93,-1266.52 1195.37,-1268 1184.56,-1270.44 1181.68,-1270.33 1170.62,-1271 1099.27,-1275.31 1081.52,-1263.17 1010.92,-1252 908.78,-1235.84 883.26,-1221.98 779.88,-1224.5 738.86,-1225.5 728.6,-1226.23 687.66,-1229 646.61,-1231.78 636.26,-1231.92 595.43,-1237 554.22,-1242.13 544.1,-1244.8 503.21,-1252 458.56,-1259.86 445.43,-1255.07 402.98,-1271 390.22,-1275.79 377.09,-1282.94 365.91,-1289.81"/>
<polygon fill="black" stroke="black" points="364.08,-1286.83 357.53,-1295.16 367.84,-1292.73 364.08,-1286.83"/>
<text text-anchor="middle" x="800.01" y="-1227.7" font-family="Times New Roman,serif" font-size="14.00">1</text>
</g>
<!-- 6&#45;&gt;1 -->
<g id="edge45" class="edge">
<title>6&#45;&gt;1</title>
<path fill="none" stroke="black" d="M1070.5,-1048.59C1083.19,-1061.87 1101.97,-1079.82 1121.14,-1092 1151.24,-1111.13 1165.59,-1102.87 1195.37,-1122.5 1240.05,-1151.97 1282.53,-1197.74 1307.25,-1226.78"/>
<polygon fill="black" stroke="black" points="1304.55,-1229 1313.66,-1234.42 1309.91,-1224.5 1304.55,-1229"/>
<text text-anchor="middle" x="1191.99" y="-1125.7" font-family="Times New Roman,serif" font-size="14.00">0</text>
</g>
<!-- 6&#45;&gt;2 -->
<g id="edge44" class="edge">
<title>6&#45;&gt;2</title>
<path fill="none" stroke="black" d="M1047.48,-1007.32C1039.53,-976.47 1021.39,-922.84 986.17,-892 715.86,-655.34 601.82,-637.34 460.46,-606 384.76,-589.22 347.34,-560.57 286.01,-608 205.58,-670.2 167.62,-997.87 157.04,-1107.34"/>
<polygon fill="black" stroke="black" points="153.57,-1106.92 156.11,-1117.21 160.54,-1107.58 153.57,-1106.92"/>
<text text-anchor="middle" x="620.17" y="-661.46" font-family="Times New Roman,serif" font-size="14.00">0</text>
</g>
<!-- 6&#45;&gt;3 -->
<g id="edge43" class="edge">
<title>6&#45;&gt;3</title>
<path fill="none" stroke="black" d="M1033.85,-1016.37C989.38,-982.58 873.1,-898.98 761.88,-859 644.74,-816.89 607.31,-835 482.83,-835 334.49,-835 334.49,-835 334.49,-835 312.56,-835 290.02,-845.12 273.04,-855.17"/>
<polygon fill="black" stroke="black" points="271.62,-851.93 265.01,-860.21 275.34,-857.86 271.62,-851.93"/>
<text text-anchor="middle" x="666.28" y="-837.76" font-family="Times New Roman,serif" font-size="14.00">0</text>
</g>
<!-- 6&#45;&gt;4 -->
<g id="edge46" class="edge">
<title>6&#45;&gt;4</title>
<path fill="none" stroke="black" d="M1051.91,-1006.47C1049.8,-965.98 1041.73,-883.54 1010.92,-822 986.18,-772.61 969.29,-766.08 927.91,-729.5 891.48,-697.31 872.72,-701.17 838.14,-667 830.46,-659.41 823.25,-650.07 817.27,-641.41"/>
<polygon fill="black" stroke="black" points="820.34,-639.72 811.9,-633.32 814.51,-643.59 820.34,-639.72"/>
<text text-anchor="middle" x="924.53" y="-732.7" font-family="Times New Roman,serif" font-size="14.00">0</text>
</g>
<!-- 6&#45;&gt;5 -->
<g id="edge42" class="edge">
<title>6&#45;&gt;5</title>
<path fill="none" stroke="black" d="M1055.54,-1055.37C1058.43,-1097.18 1070.57,-1182.48 1121.14,-1228 1143.12,-1247.78 1176.83,-1253.56 1202.25,-1254.82"/>
<polygon fill="black" stroke="black" points="1202.02,-1258.32 1212.11,-1255.08 1202.2,-1251.32 1202.02,-1258.32"/>
<text text-anchor="middle" x="1145.88" y="-1254.02" font-family="Times New Roman,serif" font-size="14.00">0</text>
</g>
<!-- 6&#45;&gt;6 -->
<g id="edge47" class="edge">
<title>6&#45;&gt;6</title>
<path fill="none" stroke="black" d="M1045.14,-1053.97C1044.33,-1064.24 1047.17,-1073.13 1053.65,-1073.13 1057.5,-1073.13 1060.07,-1070 1061.35,-1065.3"/>
<polygon fill="black" stroke="black" points="1064.83,-1065.7 1062.06,-1055.48 1057.85,-1065.2 1064.83,-1065.7"/>
<text text-anchor="middle" x="1053.65" y="-1076.33" font-family="Times New Roman,serif" font-size="14.00">0</text>
</g>
<!-- 6&#45;&gt;7 -->
<g id="edge49" class="edge">
<title>6&#45;&gt;7</title>
<path fill="none" stroke="black" d="M1077.89,-1029.2C1087.71,-1028.44 1099.35,-1027.53 1110.15,-1026.69"/>
<polygon fill="black" stroke="black" points="1110.2,-1030.2 1119.9,-1025.94 1109.66,-1023.22 1110.2,-1030.2"/>
<text text-anchor="middle" x="1099.77" y="-1030.91" font-family="Times New Roman,serif" font-size="14.00">0</text>
</g>
<!-- 6&#45;&gt;8 -->
<g id="edge48" class="edge">
<title>6&#45;&gt;8</title>
<path fill="none" stroke="black" d="M1042.56,-1052.56C1034.61,-1068.96 1022.9,-1091.89 1010.92,-1111 985.18,-1152.05 974.03,-1159.05 945.91,-1198.5 930.52,-1220.08 913.57,-1244.95 901.3,-1263.15"/>
<polygon fill="black" stroke="black" points="898.53,-1261.01 895.86,-1271.26 904.34,-1264.91 898.53,-1261.01"/>
<text text-anchor="middle" x="966.04" y="-1201.7" font-family="Times New Roman,serif" font-size="14.00">0</text>
</g>
<!-- 6&#45;&gt;10 -->
<g id="edge116" class="edge">
<title>6&#45;&gt;10</title>
<path fill="none" stroke="black" d="M1047.65,-1054.6C1038.57,-1097.77 1018.92,-1192.38 1004.17,-1272.5 991.71,-1340.15 978.79,-1419.75 971.96,-1462.7"/>
<polygon fill="black" stroke="black" points="968.54,-1461.89 970.44,-1472.31 975.46,-1462.98 968.54,-1461.89"/>
<text text-anchor="middle" x="1007.54" y="-1275.7" font-family="Times New Roman,serif" font-size="14.00">1</text>
</g>
<!-- 6&#45;&gt;12 -->
<g id="edge117" class="edge">
<title>6&#45;&gt;12</title>
<path fill="none" stroke="black" d="M1037.85,-1049.22C1030.31,-1057.89 1020.68,-1068.07 1010.92,-1076 974.78,-1105.36 952.04,-1095.16 921.16,-1130 879.16,-1177.38 887.04,-1201.47 862.89,-1260 802.57,-1406.25 799.59,-1447.65 737.13,-1593 670.07,-1749.05 617.99,-1773.87 570.68,-1937 570.54,-1937.49 543.54,-2174.02 533.05,-2266.01"/>
<polygon fill="black" stroke="black" points="529.6,-2265.4 531.94,-2275.73 536.55,-2266.2 529.6,-2265.4"/>
<text text-anchor="middle" x="800.01" y="-1489.04" font-family="Times New Roman,serif" font-size="14.00">1</text>
</g>
<!-- 6&#45;&gt;26 -->
<g id="edge118" class="edge">
<title>6&#45;&gt;26</title>
<path fill="none" stroke="black" d="M1029.81,-1026.01C990.63,-1018.08 908.05,-1004.04 838.14,-1010 811.96,-1012.23 805.37,-1013.65 779.88,-1020 732.38,-1031.84 615.75,-1069.89 570.68,-1089 481.75,-1126.7 441.28,-1116.81 378.23,-1190 357.76,-1213.77 347.15,-1248.16 341.77,-1274.04"/>
<polygon fill="black" stroke="black" points="338.34,-1273.3 339.92,-1283.78 345.22,-1274.6 338.34,-1273.3"/>
<text text-anchor="middle" x="712.39" y="-1050.64" font-family="Times New Roman,serif" font-size="14.00">1</text>
</g>
<!-- 7&#45;&gt;1 -->
<g id="edge53" class="edge">
<title>7&#45;&gt;1</title>
<path fill="none" stroke="black" d="M1169.26,-1031.06C1200.73,-1042.19 1257.56,-1066.87 1287.59,-1108 1311.51,-1140.76 1321.75,-1186.87 1326.12,-1218.46"/>
<polygon fill="black" stroke="black" points="1322.63,-1218.8 1327.34,-1228.29 1329.58,-1217.94 1322.63,-1218.8"/>
<text text-anchor="middle" x="1238.1" y="-1084.55" font-family="Times New Roman,serif" font-size="14.00">0</text>
</g>
<!-- 7&#45;&gt;2 -->
<g id="edge52" class="edge">
<title>7&#45;&gt;2</title>
<path fill="none" stroke="black" d="M1144.32,-999.75C1141.22,-874.32 1124.64,-302.53 1078.39,-240 990.93,-121.73 901.99,-160.59 755.13,-169 496.03,-183.83 268.49,-85.1 194.99,-334 167.85,-425.94 181.92,-669.27 176.99,-765 170.51,-891.05 160.74,-1040.62 156.26,-1107.55"/>
<polygon fill="black" stroke="black" points="152.79,-1106.96 155.62,-1117.18 159.78,-1107.43 152.79,-1106.96"/>
<text text-anchor="middle" x="666.28" y="-173.54" font-family="Times New Roman,serif" font-size="14.00">0</text>
</g>
<!-- 7&#45;&gt;3 -->
<g id="edge51" class="edge">
<title>7&#45;&gt;3</title>
<path fill="none" stroke="black" d="M1143.42,-999.71C1138.55,-920.89 1122.07,-672.9 1103.14,-595 1096.14,-566.17 1099.42,-553.93 1078.39,-533 962.86,-417.98 897.29,-428.92 737.13,-398.5 715.53,-394.4 708.79,-392.44 687.66,-398.5 663.92,-405.31 329.46,-617.88 310.76,-634 297.92,-645.06 293.36,-647.74 286.01,-663 258.26,-720.58 249.23,-795.48 246.29,-839.1"/>
<polygon fill="black" stroke="black" points="242.8,-838.84 245.7,-849.03 249.79,-839.25 242.8,-838.84"/>
<text text-anchor="middle" x="712.39" y="-401.7" font-family="Times New Roman,serif" font-size="14.00">0</text>
</g>
<!-- 7&#45;&gt;4 -->
<g id="edge54" class="edge">
<title>7&#45;&gt;4</title>
<path fill="none" stroke="black" d="M1145.12,-999.4C1145.38,-906.74 1140.14,-584 1054.65,-584 882.02,-584 882.02,-584 882.02,-584 862.94,-584 842.89,-591.6 827.51,-599.27"/>
<polygon fill="black" stroke="black" points="826.2,-596.01 819.02,-603.79 829.49,-602.18 826.2,-596.01"/>
<text text-anchor="middle" x="966.04" y="-587.2" font-family="Times New Roman,serif" font-size="14.00">0</text>
</g>
<!-- 7&#45;&gt;5 -->
<g id="edge50" class="edge">
<title>7&#45;&gt;5</title>
<path fill="none" stroke="black" d="M1154.38,-1047C1162.37,-1071.11 1175.64,-1109.99 1188.62,-1143 1199.15,-1169.79 1212.28,-1199.66 1222.22,-1221.66"/>
<polygon fill="black" stroke="black" points="1219.01,-1223.06 1226.33,-1230.71 1225.38,-1220.16 1219.01,-1223.06"/>
<text text-anchor="middle" x="1191.99" y="-1161.48" font-family="Times New Roman,serif" font-size="14.00">0</text>
</g>
<!-- 7&#45;&gt;6 -->
<g id="edge55" class="edge">
<title>7&#45;&gt;6</title>
<path fill="none" stroke="black" d="M1125.3,-1011.12C1116.55,-1006.89 1106.06,-1003.87 1096.39,-1006.5 1092.05,-1007.68 1087.69,-1009.44 1083.52,-1011.49"/>
<polygon fill="black" stroke="black" points="1082,-1008.33 1074.97,-1016.25 1085.41,-1014.44 1082,-1008.33"/>
<text text-anchor="middle" x="1099.77" y="-1009.7" font-family="Times New Roman,serif" font-size="14.00">0</text>
</g>
<!-- 7&#45;&gt;7 -->
<g id="edge57" class="edge">
<title>7&#45;&gt;7</title>
<path fill="none" stroke="black" d="M1137.37,-1046.97C1136.56,-1057.24 1139.39,-1066.13 1145.88,-1066.13 1149.73,-1066.13 1152.29,-1063 1153.57,-1058.3"/>
<polygon fill="black" stroke="black" points="1157.05,-1058.7 1154.28,-1048.48 1150.07,-1058.2 1157.05,-1058.7"/>
<text text-anchor="middle" x="1145.88" y="-1069.33" font-family="Times New Roman,serif" font-size="14.00">0</text>
</g>
<!-- 7&#45;&gt;8 -->
<g id="edge56" class="edge">
<title>7&#45;&gt;8</title>
<path fill="none" stroke="black" d="M1142.26,-1048.24C1138.09,-1077.81 1127.73,-1128.27 1103.14,-1164 1079.56,-1198.26 1051.97,-1186.38 1028.92,-1221 1011.59,-1247.02 1035.69,-1269.93 1010.92,-1289 978.67,-1313.82 960.81,-1261.89 921.16,-1271 917.77,-1271.78 914.34,-1272.9 911,-1274.22"/>
<polygon fill="black" stroke="black" points="909.82,-1270.91 902.18,-1278.25 912.73,-1277.28 909.82,-1270.91"/>
<text text-anchor="middle" x="1007.54" y="-1296.3" font-family="Times New Roman,serif" font-size="14.00">0</text>
</g>
<!-- 7&#45;&gt;10 -->
<g id="edge119" class="edge">
<title>7&#45;&gt;10</title>
<path fill="none" stroke="black" d="M1140.63,-1047.84C1127.21,-1122.85 1086.15,-1349.95 1078.39,-1364 1063.8,-1390.41 1048.98,-1387.95 1028.92,-1410.5 1012.68,-1428.76 996.3,-1451.06 984.48,-1468.03"/>
<polygon fill="black" stroke="black" points="981.72,-1465.86 978.94,-1476.08 987.49,-1469.83 981.72,-1465.86"/>
<text text-anchor="middle" x="1053.65" y="-1413.7" font-family="Times New Roman,serif" font-size="14.00">1</text>
</g>
<!-- 7&#45;&gt;12 -->
<g id="edge120" class="edge">
<title>7&#45;&gt;12</title>
<path fill="none" stroke="black" d="M1140.25,-1047.78C1133.77,-1079.13 1120.78,-1135.74 1103.14,-1182 1077.21,-1250.02 1057.59,-1261.09 1028.92,-1328 1019.45,-1350.09 1022.3,-1357.83 1010.92,-1379 988.23,-1421.2 965.99,-1421.5 945.91,-1465 909.07,-1544.76 925.31,-1572.98 903.16,-1658 887.47,-1718.18 878.29,-1731.75 862.89,-1792 853.33,-1829.41 860.91,-1841.86 844.89,-1877 819.5,-1932.73 805.57,-1944.07 761.88,-1987 732.78,-2015.59 718.4,-2014.19 687.66,-2041 627.82,-2093.18 604.69,-2104.26 570.68,-2176 556.58,-2205.75 545.22,-2241.53 537.93,-2267.35"/>
<polygon fill="black" stroke="black" points="534.65,-2266.08 535.37,-2276.65 541.4,-2267.94 534.65,-2266.08"/>
<text text-anchor="middle" x="841.52" y="-1894.17" font-family="Times New Roman,serif" font-size="14.00">1</text>
</g>
<!-- 7&#45;&gt;26 -->
<g id="edge121" class="edge">
<title>7&#45;&gt;26</title>
<path fill="none" stroke="black" d="M1145.11,-999.46C1145.13,-937.44 1141.39,-776.97 1103.14,-744 1050.21,-698.37 1013.62,-726.72 945.91,-744 894.69,-757.07 787.02,-840.54 737.13,-858 637.5,-892.87 599.3,-855.32 503.21,-899 438.19,-928.55 413.25,-937.76 378.23,-1000 352.19,-1046.29 341.58,-1202.83 338.02,-1274.11"/>
<polygon fill="black" stroke="black" points="334.54,-1273.52 337.56,-1283.68 341.53,-1273.86 334.54,-1273.52"/>
<text text-anchor="middle" x="758.51" y="-853.39" font-family="Times New Roman,serif" font-size="14.00">1</text>
</g>
<!-- 8&#45;&gt;10 -->
<g id="edge122" class="edge">
<title>8&#45;&gt;10</title>
<path fill="none" stroke="black" d="M893.27,-1306.79C902.65,-1325.2 917.27,-1354.93 927.91,-1381.5 938.89,-1408.94 949.25,-1441.03 956.21,-1463.9"/>
<polygon fill="black" stroke="black" points="952.78,-1464.61 959.01,-1473.18 959.48,-1462.6 952.78,-1464.61"/>
<text text-anchor="middle" x="924.53" y="-1384.7" font-family="Times New Roman,serif" font-size="14.00">1</text>
</g>
<!-- 8&#45;&gt;12 -->
<g id="edge123" class="edge">
<title>8&#45;&gt;12</title>
<path fill="none" stroke="black" d="M868.76,-1303.84C866.49,-1307.01 864.38,-1310.48 862.89,-1314 841.7,-1364.07 853.35,-1381.29 844.89,-1435 799.43,-1723.84 899.95,-1841.14 737.13,-2084 688.69,-2156.26 625.55,-2119.49 570.68,-2187 551.95,-2210.05 541.23,-2242.24 535.35,-2266.7"/>
<polygon fill="black" stroke="black" points="532,-2265.67 533.24,-2276.19 538.83,-2267.19 532,-2265.67"/>
<text text-anchor="middle" x="712.39" y="-2129.45" font-family="Times New Roman,serif" font-size="14.00">1</text>
</g>
<!-- 8&#45;&gt;26 -->
<g id="edge124" class="edge">
<title>8&#45;&gt;26</title>
<path fill="none" stroke="black" d="M866.73,-1301.62C845.41,-1317.6 806.37,-1340.81 779.88,-1321 757.24,-1304.08 783.74,-1277.92 761.88,-1260 704.56,-1213.01 669.07,-1241.01 595.43,-1249.5 513.28,-1258.97 419.31,-1284.81 370.29,-1299.47"/>
<polygon fill="black" stroke="black" points="369.4,-1296.09 360.84,-1302.33 371.43,-1302.79 369.4,-1296.09"/>
<text text-anchor="middle" x="620.17" y="-1252.7" font-family="Times New Roman,serif" font-size="14.00">1</text>
</g>
<!-- 10&#45;&gt;1 -->
<g id="edge130" class="edge">
<title>10&#45;&gt;1</title>
<path fill="none" stroke="black" d="M969.28,-1514.01C976.43,-1567.05 1003.95,-1711.23 1096.39,-1770 1133.51,-1793.6 1160.57,-1796.91 1195.37,-1770 1272.82,-1710.09 1313.76,-1396.7 1325.63,-1289.78"/>
<polygon fill="black" stroke="black" points="1329.1,-1290.19 1326.71,-1279.87 1322.14,-1289.43 1329.1,-1290.19"/>
<text text-anchor="middle" x="1145.88" y="-1792.16" font-family="Times New Roman,serif" font-size="14.00">1</text>
</g>
<!-- 10&#45;&gt;2 -->
<g id="edge129" class="edge">
<title>10&#45;&gt;2</title>
<path fill="none" stroke="black" d="M957.09,-1512.57C950.42,-1527.05 940.05,-1547.28 927.91,-1563 918.72,-1574.88 915.41,-1577.33 903.16,-1586 860.35,-1616.28 536.11,-1792.47 485.21,-1805 398.2,-1826.41 363.12,-1819.62 286.01,-1774 244.78,-1749.61 239.03,-1732.84 219.74,-1689 179.11,-1596.64 160.67,-1284.62 155.47,-1178.6"/>
<polygon fill="black" stroke="black" points="158.97,-1178.62 155,-1168.8 151.98,-1178.95 158.97,-1178.62"/>
<text text-anchor="middle" x="574.06" y="-1770.18" font-family="Times New Roman,serif" font-size="14.00">1</text>
</g>
<!-- 10&#45;&gt;3 -->
<g id="edge128" class="edge">
<title>10&#45;&gt;3</title>
<path fill="none" stroke="black" d="M947.04,-1486.49C881.48,-1458.96 656.16,-1362.62 595.43,-1314 439.13,-1188.87 308.08,-982.13 262.3,-905.13"/>
<polygon fill="black" stroke="black" points="265.52,-903.7 257.42,-896.87 259.49,-907.26 265.52,-903.7"/>
<text text-anchor="middle" x="620.17" y="-1348.35" font-family="Times New Roman,serif" font-size="14.00">1</text>
</g>
<!-- 10&#45;&gt;4 -->
<g id="edge131" class="edge">
<title>10&#45;&gt;4</title>
<path fill="none" stroke="black" d="M955.99,-1476.47C944.27,-1453.98 922.97,-1413.89 903.16,-1380.5 886.29,-1352.09 873.6,-1349.26 862.89,-1318 819.37,-1190.95 805.01,-765.98 801.78,-646.49"/>
<polygon fill="black" stroke="black" points="805.29,-646.71 801.53,-636.8 798.29,-646.89 805.29,-646.71"/>
<text text-anchor="middle" x="883.02" y="-1383.7" font-family="Times New Roman,serif" font-size="14.00">1</text>
</g>
<!-- 10&#45;&gt;6 -->
<g id="edge132" class="edge">
<title>10&#45;&gt;6</title>
<path fill="none" stroke="black" d="M973.11,-1474.74C982.42,-1444.58 1000.26,-1384.25 1010.92,-1332 1030.3,-1236.93 1043.38,-1123.1 1049.2,-1066.54"/>
<polygon fill="black" stroke="black" points="1052.66,-1067.17 1050.18,-1056.87 1045.69,-1066.47 1052.66,-1067.17"/>
<text text-anchor="middle" x="1007.54" y="-1362.02" font-family="Times New Roman,serif" font-size="14.00">1</text>
</g>
<!-- 10&#45;&gt;7 -->
<g id="edge127" class="edge">
<title>10&#45;&gt;7</title>
<path fill="none" stroke="black" d="M984.81,-1485.6C1013.14,-1471.85 1066.56,-1444.33 1078.39,-1427 1145.67,-1328.48 1102.18,-1279.78 1121.14,-1162 1126.79,-1126.93 1133.72,-1086.93 1138.64,-1059.06"/>
<polygon fill="black" stroke="black" points="1142.05,-1059.85 1140.34,-1049.4 1135.16,-1058.64 1142.05,-1059.85"/>
<text text-anchor="middle" x="1053.65" y="-1465.06" font-family="Times New Roman,serif" font-size="14.00">1</text>
</g>
<!-- 10&#45;&gt;8 -->
<g id="edge126" class="edge">
<title>10&#45;&gt;8</title>
<path fill="none" stroke="black" d="M962.69,-1473.88C958.68,-1444.46 948.83,-1388.52 927.91,-1345.5 922.06,-1333.48 913.37,-1321.58 905.27,-1311.83"/>
<polygon fill="black" stroke="black" points="907.98,-1309.61 898.78,-1304.34 902.69,-1314.19 907.98,-1309.61"/>
<text text-anchor="middle" x="924.53" y="-1348.7" font-family="Times New Roman,serif" font-size="14.00">1</text>
</g>
<!-- 14 -->
<g id="node13" class="node">
<title>14</title>
<ellipse fill="none" stroke="black" cx="620.17" cy="-2669" rx="24.74" ry="24.74"/>
<text text-anchor="middle" x="620.17" y="-2663.95" font-family="Times New Roman,serif" font-size="14.00">q12</text>
</g>
<!-- 10&#45;&gt;14 -->
<g id="edge58" class="edge">
<title>10&#45;&gt;14</title>
<path fill="none" stroke="black" d="M962.67,-1514.2C957.4,-1558.39 943.86,-1666.87 927.91,-1757 918.71,-1808.91 916.81,-1822.08 903.16,-1873 888.14,-1928.96 878.58,-1941.22 862.89,-1997 840.75,-2075.74 852.61,-2100.93 820.14,-2176 769.67,-2292.7 709.17,-2296.57 662.91,-2415 634.08,-2488.8 625.16,-2582.2 622.4,-2632.66"/>
<polygon fill="black" stroke="black" points="618.92,-2632.26 621.93,-2642.42 625.91,-2632.6 618.92,-2632.26"/>
<text text-anchor="middle" x="800.01" y="-2249.78" font-family="Times New Roman,serif" font-size="14.00">0</text>
</g>
<!-- 16 -->
<g id="node14" class="node">
<title>16</title>
<ellipse fill="none" stroke="black" cx="1053.65" cy="-2750" rx="24.74" ry="24.74"/>
<text text-anchor="middle" x="1053.65" y="-2744.95" font-family="Times New Roman,serif" font-size="14.00">q13</text>
</g>
<!-- 10&#45;&gt;16 -->
<g id="edge59" class="edge">
<title>10&#45;&gt;16</title>
<path fill="none" stroke="black" d="M967.55,-1514.45C970.42,-1624.05 985.99,-2152.91 1028.92,-2583 1033.46,-2628.49 1041.29,-2680.59 1046.71,-2714.33"/>
<polygon fill="black" stroke="black" points="1043.21,-2714.66 1048.27,-2723.97 1050.12,-2713.53 1043.21,-2714.66"/>
<text text-anchor="middle" x="1007.54" y="-2378.3" font-family="Times New Roman,serif" font-size="14.00">0</text>
</g>
<!-- 18 -->
<g id="node16" class="node">
<title>18</title>
<ellipse fill="none" stroke="black" cx="1238.1" cy="-2409" rx="24.74" ry="24.74"/>
<text text-anchor="middle" x="1238.1" y="-2403.95" font-family="Times New Roman,serif" font-size="14.00">q14</text>
</g>
<!-- 10&#45;&gt;18 -->
<g id="edge60" class="edge">
<title>10&#45;&gt;18</title>
<path fill="none" stroke="black" d="M967.17,-1514.29C967.98,-1564.9 973.13,-1700.4 1004.17,-1808 1059,-1998.1 1132.13,-2022.53 1195.37,-2210 1214.11,-2265.56 1226.1,-2332.8 1232.21,-2373.17"/>
<polygon fill="black" stroke="black" points="1228.71,-2373.42 1233.63,-2382.81 1235.64,-2372.4 1228.71,-2373.42"/>
<text text-anchor="middle" x="1099.77" y="-2023.03" font-family="Times New Roman,serif" font-size="14.00">0</text>
</g>
<!-- 20 -->
<g id="node17" class="node">
<title>20</title>
<ellipse fill="none" stroke="black" cx="1238.1" cy="-2706" rx="24.74" ry="24.74"/>
<text text-anchor="middle" x="1238.1" y="-2700.95" font-family="Times New Roman,serif" font-size="14.00">q15</text>
</g>
<!-- 10&#45;&gt;20 -->
<g id="edge61" class="edge">
<title>10&#45;&gt;20</title>
<path fill="none" stroke="black" d="M968.48,-1514.36C972.39,-1567.2 984.27,-1712.97 1004.17,-1833 1032.51,-2004.03 1185.56,-2530.54 1226.84,-2671.17"/>
<polygon fill="black" stroke="black" points="1223.45,-2672.03 1229.63,-2680.64 1230.17,-2670.06 1223.45,-2672.03"/>
<text text-anchor="middle" x="1099.77" y="-2238.19" font-family="Times New Roman,serif" font-size="14.00">0</text>
</g>
<!-- 24 -->
<g id="node20" class="node">
<title>24</title>
<ellipse fill="none" stroke="black" cx="1422.55" cy="-3033" rx="24.74" ry="24.74"/>
<text text-anchor="middle" x="1422.55" y="-3027.95" font-family="Times New Roman,serif" font-size="14.00">q16</text>
</g>
<!-- 10&#45;&gt;24 -->
<g id="edge62" class="edge">
<title>10&#45;&gt;24</title>
<path fill="none" stroke="black" d="M967.34,-1514.37C969.05,-1621.32 978.22,-2128.78 1004.17,-2543 1011.84,-2665.48 961.9,-2715.2 1028.92,-2818 1075.87,-2890.03 1311.45,-2928.86 1379.82,-2981 1387.89,-2987.16 1395.33,-2995.2 1401.62,-3003.11"/>
<polygon fill="black" stroke="black" points="1398.74,-3005.1 1407.54,-3011 1404.34,-3000.9 1398.74,-3005.1"/>
<text text-anchor="middle" x="1191.99" y="-2909.44" font-family="Times New Roman,serif" font-size="14.00">0</text>
</g>
<!-- 27 -->
<g id="node23" class="node">
<title>27</title>
<ellipse fill="none" stroke="black" cx="431.72" cy="-1572" rx="24.74" ry="24.74"/>
<ellipse fill="none" stroke="black" cx="431.72" cy="-1572" rx="28.74" ry="28.74"/>
<text text-anchor="middle" x="431.72" y="-1566.95" font-family="Times New Roman,serif" font-size="14.00">q17</text>
</g>
<!-- 10&#45;&gt;27 -->
<g id="edge125" class="edge">
<title>10&#45;&gt;27</title>
<path fill="none" stroke="black" d="M945.73,-1494.4C925.12,-1495.03 891.54,-1496.7 862.89,-1501 843.6,-1503.9 839.4,-1507.85 820.14,-1511 761.77,-1520.54 746.21,-1515.19 687.66,-1523.5 610.43,-1534.46 521.07,-1552.78 471.3,-1563.49"/>
<polygon fill="black" stroke="black" points="470.63,-1560.05 461.6,-1565.59 472.11,-1566.89 470.63,-1560.05"/>
<text text-anchor="middle" x="712.39" y="-1526.7" font-family="Times New Roman,serif" font-size="14.00">1</text>
</g>
<!-- 12&#45;&gt;14 -->
<g id="edge63" class="edge">
<title>12&#45;&gt;14</title>
<path fill="none" stroke="black" d="M534.86,-2326.08C550.38,-2389.2 592.29,-2559.68 610.51,-2633.79"/>
<polygon fill="black" stroke="black" points="607.08,-2634.49 612.87,-2643.36 613.88,-2632.82 607.08,-2634.49"/>
<text text-anchor="middle" x="574.06" y="-2499.7" font-family="Times New Roman,serif" font-size="14.00">0</text>
</g>
<!-- 12&#45;&gt;16 -->
<g id="edge64" class="edge">
<title>12&#45;&gt;16</title>
<path fill="none" stroke="black" d="M529.84,-2327.12C534.38,-2438.44 558.96,-2885.35 662.91,-2966 691.68,-2988.32 895.92,-2953.17 903.16,-2949 970.04,-2910.43 1016.39,-2828.76 1038.28,-2782.94"/>
<polygon fill="black" stroke="black" points="1041.39,-2784.57 1042.44,-2774.03 1035.04,-2781.61 1041.39,-2784.57"/>
<text text-anchor="middle" x="800.01" y="-2971.84" font-family="Times New Roman,serif" font-size="14.00">0</text>
</g>
<!-- 12&#45;&gt;18 -->
<g id="edge65" class="edge">
<title>12&#45;&gt;18</title>
<path fill="none" stroke="black" d="M552.24,-2295.76C596.29,-2284.31 695,-2260.37 779.88,-2252 797.69,-2250.24 802.25,-2251.52 820.14,-2252 903.08,-2254.22 923.58,-2262 1006.54,-2262 1006.54,-2262 1006.54,-2262 1146.88,-2262 1198.97,-2262 1221.93,-2329.88 1231.29,-2373.38"/>
<polygon fill="black" stroke="black" points="1227.81,-2373.79 1233.19,-2382.91 1234.67,-2372.42 1227.81,-2373.79"/>
<text text-anchor="middle" x="883.02" y="-2260.09" font-family="Times New Roman,serif" font-size="14.00">0</text>
</g>
<!-- 12&#45;&gt;20 -->
<g id="edge66" class="edge">
<title>12&#45;&gt;20</title>
<path fill="none" stroke="black" d="M528.96,-2326.9C529.4,-2465.33 535.81,-3134 619.17,-3134 619.17,-3134 619.17,-3134 842.52,-3134 963.05,-3134 1022.61,-3148.68 1103.14,-3059 1204.49,-2946.14 1140.76,-2869.18 1213.37,-2736 1213.77,-2735.26 1214.2,-2734.51 1214.64,-2733.77"/>
<polygon fill="black" stroke="black" points="1217.45,-2735.86 1220.15,-2725.61 1211.65,-2731.94 1217.45,-2735.86"/>
<text text-anchor="middle" x="883.02" y="-3137.93" font-family="Times New Roman,serif" font-size="14.00">0</text>
</g>
<!-- 12&#45;&gt;24 -->
<g id="edge67" class="edge">
<title>12&#45;&gt;24</title>
<path fill="none" stroke="black" d="M530.44,-2327.02C534.27,-2391.15 544.67,-2566.7 552.68,-2713 561.15,-2867.64 543.31,-2908.56 570.68,-3061 577.18,-3097.21 568.48,-3114.95 595.43,-3140 622.86,-3165.49 886.08,-3217 923.53,-3217 923.53,-3217 923.53,-3217 1331.33,-3217 1396.49,-3217 1414.6,-3122.82 1419.62,-3069.22"/>
<polygon fill="black" stroke="black" points="1423.11,-3069.58 1420.43,-3059.32 1416.13,-3069.01 1423.11,-3069.58"/>
<text text-anchor="middle" x="966.04" y="-3220.2" font-family="Times New Roman,serif" font-size="14.00">0</text>
</g>
<!-- 14&#45;&gt;12 -->
<g id="edge70" class="edge">
<title>14&#45;&gt;12</title>
<path fill="none" stroke="black" d="M615.35,-2644.23C608.92,-2603.93 594.91,-2521.8 577.43,-2453.5 566.94,-2412.52 551.65,-2366.33 541.05,-2335.85"/>
<polygon fill="black" stroke="black" points="544.49,-2335.07 537.88,-2326.79 537.88,-2337.39 544.49,-2335.07"/>
<text text-anchor="middle" x="574.06" y="-2456.7" font-family="Times New Roman,serif" font-size="14.00">0</text>
</g>
<!-- 14&#45;&gt;16 -->
<g id="edge134" class="edge">
<title>14&#45;&gt;16</title>
<path fill="none" stroke="black" d="M629.85,-2692.15C646.72,-2733.3 688.24,-2818.07 755.13,-2852 849.77,-2900.01 972.17,-2816.35 1025.65,-2773.26"/>
<polygon fill="black" stroke="black" points="1027.85,-2775.99 1033.35,-2766.94 1023.4,-2770.58 1027.85,-2775.99"/>
<text text-anchor="middle" x="841.52" y="-2868.25" font-family="Times New Roman,serif" font-size="14.00">1</text>
</g>
<!-- 17 -->
<g id="node15" class="node">
<title>17</title>
<ellipse fill="none" stroke="black" cx="1145.88" cy="-2776" rx="24.74" ry="24.74"/>
<text text-anchor="middle" x="1145.88" y="-2770.95" font-family="Times New Roman,serif" font-size="14.00">q20</text>
</g>
<!-- 14&#45;&gt;17 -->
<g id="edge133" class="edge">
<title>14&#45;&gt;17</title>
<path fill="none" stroke="black" d="M625.39,-2693.58C632.54,-2728.4 650.06,-2792.26 687.66,-2832 752.42,-2900.47 970.41,-2947.94 1028.92,-2957 1050.65,-2960.36 1060.36,-2969.59 1078.39,-2957 1125.19,-2924.34 1139.14,-2854.91 1143.24,-2812.17"/>
<polygon fill="black" stroke="black" points="1146.72,-2812.63 1144.04,-2802.38 1139.74,-2812.07 1146.72,-2812.63"/>
<text text-anchor="middle" x="883.02" y="-2932.01" font-family="Times New Roman,serif" font-size="14.00">1</text>
</g>
<!-- 14&#45;&gt;18 -->
<g id="edge135" class="edge">
<title>14&#45;&gt;18</title>
<path fill="none" stroke="black" d="M627.51,-2645.09C636.75,-2613.62 656.31,-2557.76 687.66,-2519 710.96,-2490.18 721.72,-2486.05 755.13,-2470 908.39,-2396.38 1119.14,-2400.88 1201.81,-2406.12"/>
<polygon fill="black" stroke="black" points="1201.33,-2409.59 1211.54,-2406.78 1201.81,-2402.61 1201.33,-2409.59"/>
<text text-anchor="middle" x="924.53" y="-2422.41" font-family="Times New Roman,serif" font-size="14.00">1</text>
</g>
<!-- 14&#45;&gt;20 -->
<g id="edge136" class="edge">
<title>14&#45;&gt;20</title>
<path fill="none" stroke="black" d="M645.05,-2669.79C696.68,-2671.56 822.55,-2676.18 927.91,-2682.5 1027.24,-2688.46 1144.34,-2698.07 1201.75,-2702.94"/>
<polygon fill="black" stroke="black" points="1201.3,-2706.42 1211.56,-2703.78 1201.89,-2699.44 1201.3,-2706.42"/>
<text text-anchor="middle" x="924.53" y="-2685.7" font-family="Times New Roman,serif" font-size="14.00">1</text>
</g>
<!-- 22 -->
<g id="node18" class="node">
<title>22</title>
<ellipse fill="none" stroke="black" cx="1330.33" cy="-2711" rx="24.74" ry="24.74"/>
<text text-anchor="middle" x="1330.33" y="-2705.95" font-family="Times New Roman,serif" font-size="14.00">q18</text>
</g>
<!-- 14&#45;&gt;22 -->
<g id="edge68" class="edge">
<title>14&#45;&gt;22</title>
<path fill="none" stroke="black" d="M622.62,-2694.05C626.36,-2735.29 639.76,-2817.57 687.66,-2864 802.07,-2974.93 870.01,-2962.1 1028.92,-2974 1138.78,-2982.23 1190.02,-2974.67 1262.84,-2892 1299.52,-2850.36 1316.57,-2786.77 1324.04,-2747.1"/>
<polygon fill="black" stroke="black" points="1327.47,-2747.8 1325.76,-2737.35 1320.58,-2746.59 1327.47,-2747.8"/>
<text text-anchor="middle" x="966.04" y="-2974.3" font-family="Times New Roman,serif" font-size="14.00">0</text>
</g>
<!-- 14&#45;&gt;24 -->
<g id="edge137" class="edge">
<title>14&#45;&gt;24</title>
<path fill="none" stroke="black" d="M624.68,-2693.56C630.25,-2729.24 642.6,-2797.14 662.91,-2852 671.1,-2874.14 673.54,-2880.08 687.66,-2899 715.51,-2936.32 959.97,-3171 1006.54,-3171 1006.54,-3171 1006.54,-3171 1331.33,-3171 1380.28,-3171 1404.1,-3109.41 1414.51,-3068.52"/>
<polygon fill="black" stroke="black" points="1417.91,-3069.36 1416.81,-3058.83 1411.1,-3067.75 1417.91,-3069.36"/>
<text text-anchor="middle" x="1007.54" y="-3174.2" font-family="Times New Roman,serif" font-size="14.00">1</text>
</g>
<!-- 25 -->
<g id="node21" class="node">
<title>25</title>
<ellipse fill="none" stroke="black" cx="712.39" cy="-2553" rx="24.74" ry="24.74"/>
<text text-anchor="middle" x="712.39" y="-2547.95" font-family="Times New Roman,serif" font-size="14.00">q19</text>
</g>
<!-- 14&#45;&gt;25 -->
<g id="edge69" class="edge">
<title>14&#45;&gt;25</title>
<path fill="none" stroke="black" d="M636.27,-2649.58C650.87,-2630.82 673.13,-2602.19 689.64,-2580.97"/>
<polygon fill="black" stroke="black" points="692.24,-2583.33 695.61,-2573.29 686.71,-2579.03 692.24,-2583.33"/>
<text text-anchor="middle" x="666.28" y="-2617.68" font-family="Times New Roman,serif" font-size="14.00">0</text>
</g>
<!-- 14&#45;&gt;26 -->
<g id="edge71" class="edge">
<title>14&#45;&gt;26</title>
<path fill="none" stroke="black" d="M608.9,-2646.6C585.26,-2593.83 527.19,-2457 503.21,-2336 475.55,-2196.49 514.65,-2155.64 485.21,-2016.5 457.32,-1884.75 405.42,-1864.9 378.23,-1733 360.58,-1647.38 390.83,-1421.9 360.23,-1340 359.88,-1339.05 359.48,-1338.1 359.04,-1337.16"/>
<polygon fill="black" stroke="black" points="362.23,-1335.67 354.08,-1328.9 356.23,-1339.27 362.23,-1335.67"/>
<text text-anchor="middle" x="481.83" y="-2019.7" font-family="Times New Roman,serif" font-size="14.00">0</text>
</g>
<!-- 16&#45;&gt;16 -->
<g id="edge139" class="edge">
<title>16&#45;&gt;16</title>
<path fill="none" stroke="black" d="M1045.11,-2773.73C1044.41,-2783.97 1047.26,-2792.74 1053.65,-2792.74 1057.45,-2792.74 1060,-2789.65 1061.29,-2784.99"/>
<polygon fill="black" stroke="black" points="1064.76,-2785.49 1062.08,-2775.24 1057.79,-2784.93 1064.76,-2785.49"/>
<text text-anchor="middle" x="1053.65" y="-2795.94" font-family="Times New Roman,serif" font-size="14.00">1</text>
</g>
<!-- 16&#45;&gt;17 -->
<g id="edge138" class="edge">
<title>16&#45;&gt;17</title>
<path fill="none" stroke="black" d="M1072.39,-2766.48C1079.34,-2771.88 1087.73,-2777.21 1096.39,-2780 1100.7,-2781.39 1105.33,-2782.02 1109.96,-2782.15"/>
<polygon fill="black" stroke="black" points="1109.95,-2785.66 1119.76,-2781.67 1109.6,-2778.66 1109.95,-2785.66"/>
<text text-anchor="middle" x="1099.77" y="-2784.7" font-family="Times New Roman,serif" font-size="14.00">1</text>
</g>
<!-- 16&#45;&gt;18 -->
<g id="edge140" class="edge">
<title>16&#45;&gt;18</title>
<path fill="none" stroke="black" d="M1066.21,-2728.41C1097.42,-2670.06 1183.59,-2509.02 1220.25,-2440.51"/>
<polygon fill="black" stroke="black" points="1223.14,-2442.52 1224.77,-2432.05 1216.97,-2439.22 1223.14,-2442.52"/>
<text text-anchor="middle" x="1145.88" y="-2627.69" font-family="Times New Roman,serif" font-size="14.00">1</text>
</g>
<!-- 16&#45;&gt;20 -->
<g id="edge141" class="edge">
<title>16&#45;&gt;20</title>
<path fill="none" stroke="black" d="M1076.79,-2740.66C1089.56,-2735.57 1106.04,-2729.51 1121.14,-2725.5 1147.86,-2718.4 1178.75,-2713.35 1201.93,-2710.18"/>
<polygon fill="black" stroke="black" points="1202.33,-2713.66 1211.79,-2708.88 1201.41,-2706.72 1202.33,-2713.66"/>
<text text-anchor="middle" x="1145.88" y="-2728.7" font-family="Times New Roman,serif" font-size="14.00">1</text>
</g>
<!-- 16&#45;&gt;24 -->
<g id="edge142" class="edge">
<title>16&#45;&gt;24</title>
<path fill="none" stroke="black" d="M1064.71,-2772.61C1075.53,-2794.27 1094.79,-2826.23 1121.14,-2844 1219.07,-2910.05 1292.88,-2825.04 1379.82,-2905 1405.37,-2928.5 1415.32,-2967.82 1419.17,-2996.69"/>
<polygon fill="black" stroke="black" points="1415.68,-2996.91 1420.27,-3006.46 1422.63,-2996.13 1415.68,-2996.91"/>
<text text-anchor="middle" x="1238.1" y="-2874.6" font-family="Times New Roman,serif" font-size="14.00">1</text>
</g>
<!-- 17&#45;&gt;12 -->
<g id="edge74" class="edge">
<title>17&#45;&gt;12</title>
<path fill="none" stroke="black" d="M1143.47,-2800.87C1140.49,-2836.39 1131.31,-2902.71 1103.14,-2951 1095.58,-2963.97 1090.26,-2964.81 1078.39,-2974 961.54,-3064.49 895.21,-3099.14 755.13,-3052 663.98,-3021.33 636.95,-2992.74 595.43,-2906 546.82,-2804.45 533.05,-2452.35 529.81,-2338.1"/>
<polygon fill="black" stroke="black" points="533.32,-2338.3 529.55,-2328.4 526.32,-2338.49 533.32,-2338.3"/>
<text text-anchor="middle" x="841.52" y="-3075.31" font-family="Times New Roman,serif" font-size="14.00">0</text>
</g>
<!-- 17&#45;&gt;16 -->
<g id="edge144" class="edge">
<title>17&#45;&gt;16</title>
<path fill="none" stroke="black" d="M1122.62,-2766.33C1116.39,-2763.86 1109.57,-2761.38 1103.14,-2759.5 1098.82,-2758.23 1094.23,-2757.09 1089.67,-2756.07"/>
<polygon fill="black" stroke="black" points="1090.52,-2752.67 1080.02,-2754.09 1089.11,-2759.52 1090.52,-2752.67"/>
<text text-anchor="middle" x="1099.77" y="-2762.7" font-family="Times New Roman,serif" font-size="14.00">1</text>
</g>
<!-- 17&#45;&gt;17 -->
<g id="edge143" class="edge">
<title>17&#45;&gt;17</title>
<path fill="none" stroke="black" d="M1137.34,-2799.73C1136.64,-2809.97 1139.49,-2818.74 1145.88,-2818.74 1149.68,-2818.74 1152.22,-2815.65 1153.52,-2810.99"/>
<polygon fill="black" stroke="black" points="1156.99,-2811.49 1154.3,-2801.24 1150.01,-2810.93 1156.99,-2811.49"/>
<text text-anchor="middle" x="1145.88" y="-2821.94" font-family="Times New Roman,serif" font-size="14.00">1</text>
</g>
<!-- 17&#45;&gt;18 -->
<g id="edge145" class="edge">
<title>17&#45;&gt;18</title>
<path fill="none" stroke="black" d="M1161.11,-2756.21C1164.65,-2750.54 1168.14,-2744.22 1170.62,-2738 1211.03,-2636.49 1227.91,-2507.19 1234.05,-2445.26"/>
<polygon fill="black" stroke="black" points="1237.54,-2445.59 1235,-2435.3 1230.57,-2444.93 1237.54,-2445.59"/>
<text text-anchor="middle" x="1191.99" y="-2689.49" font-family="Times New Roman,serif" font-size="14.00">1</text>
</g>
<!-- 17&#45;&gt;20 -->
<g id="edge146" class="edge">
<title>17&#45;&gt;20</title>
<path fill="none" stroke="black" d="M1165.99,-2761.1C1173.09,-2755.57 1181.22,-2749.24 1188.62,-2743.5 1195.32,-2738.3 1202.55,-2732.7 1209.34,-2727.45"/>
<polygon fill="black" stroke="black" points="1211.24,-2730.4 1217.01,-2721.51 1206.96,-2724.86 1211.24,-2730.4"/>
<text text-anchor="middle" x="1191.99" y="-2746.7" font-family="Times New Roman,serif" font-size="14.00">1</text>
</g>
<!-- 17&#45;&gt;22 -->
<g id="edge72" class="edge">
<title>17&#45;&gt;22</title>
<path fill="none" stroke="black" d="M1170.17,-2769.39C1193.72,-2762.56 1231.07,-2751.33 1262.84,-2740 1274.02,-2736.02 1276.69,-2734.68 1287.59,-2730 1290.61,-2728.7 1293.74,-2727.33 1296.86,-2725.94"/>
<polygon fill="black" stroke="black" points="1298.25,-2729.16 1305.93,-2721.86 1295.38,-2722.77 1298.25,-2729.16"/>
<text text-anchor="middle" x="1238.1" y="-2759.51" font-family="Times New Roman,serif" font-size="14.00">0</text>
</g>
<!-- 17&#45;&gt;24 -->
<g id="edge147" class="edge">
<title>17&#45;&gt;24</title>
<path fill="none" stroke="black" d="M1171.08,-2776.24C1218.51,-2778.1 1323.94,-2789.26 1379.82,-2850 1399.24,-2871.11 1411.69,-2949.76 1417.57,-2996.8"/>
<polygon fill="black" stroke="black" points="1414.07,-2997.02 1418.74,-3006.52 1421.02,-2996.18 1414.07,-2997.02"/>
<text text-anchor="middle" x="1284.22" y="-2798.74" font-family="Times New Roman,serif" font-size="14.00">1</text>
</g>
<!-- 17&#45;&gt;25 -->
<g id="edge73" class="edge">
<title>17&#45;&gt;25</title>
<path fill="none" stroke="black" d="M1129.56,-2756.87C1117.3,-2743.02 1098.81,-2725.18 1078.39,-2716 1064.81,-2709.89 808.68,-2708.53 755.13,-2659 735.26,-2640.62 724.7,-2611.59 719.19,-2588.56"/>
<polygon fill="black" stroke="black" points="722.64,-2587.99 717.12,-2578.95 715.8,-2589.47 722.64,-2587.99"/>
<text text-anchor="middle" x="924.53" y="-2706.56" font-family="Times New Roman,serif" font-size="14.00">0</text>
</g>
<!-- 17&#45;&gt;26 -->
<g id="edge75" class="edge">
<title>17&#45;&gt;26</title>
<path fill="none" stroke="black" d="M1144.5,-2801.19C1142.47,-2847.52 1131.72,-2946.91 1078.39,-3006 940.45,-3158.84 873.42,-3194.52 669.66,-3224 626.12,-3230.3 603.08,-3253.75 570.68,-3224 487.07,-3147.23 504.02,-2317.94 485.21,-2206 451.49,-2005.4 401.8,-1963.04 378.23,-1761 367.38,-1667.99 392.87,-1427.77 360.23,-1340 359.88,-1339.05 359.48,-1338.1 359.05,-1337.16"/>
<polygon fill="black" stroke="black" points="362.23,-1335.67 354.09,-1328.89 356.23,-1339.27 362.23,-1335.67"/>
<text text-anchor="middle" x="758.51" y="-3212.45" font-family="Times New Roman,serif" font-size="14.00">0</text>
</g>
<!-- 18&#45;&gt;12 -->
<g id="edge78" class="edge">
<title>18&#45;&gt;12</title>
<path fill="none" stroke="black" d="M1214.84,-2399.64C1174.87,-2383.41 1087.94,-2350.65 1010.92,-2339 908.59,-2323.53 882.51,-2381.27 779.88,-2368 700.43,-2357.73 610.27,-2329.88 562.62,-2313.83"/>
<polygon fill="black" stroke="black" points="563.76,-2310.52 553.16,-2310.6 561.5,-2317.14 563.76,-2310.52"/>
<text text-anchor="middle" x="883.02" y="-2365.98" font-family="Times New Roman,serif" font-size="14.00">0</text>
</g>
<!-- 18&#45;&gt;22 -->
<g id="edge76" class="edge">
<title>18&#45;&gt;22</title>
<path fill="none" stroke="black" d="M1246.18,-2432.7C1262.06,-2485.84 1300.57,-2614.73 1319.07,-2676.66"/>
<polygon fill="black" stroke="black" points="1315.63,-2677.38 1321.85,-2685.96 1322.34,-2675.38 1315.63,-2677.38"/>
<text text-anchor="middle" x="1284.22" y="-2572.26" font-family="Times New Roman,serif" font-size="14.00">0</text>
</g>
<!-- 18&#45;&gt;25 -->
<g id="edge77" class="edge">
<title>18&#45;&gt;25</title>
<path fill="none" stroke="black" d="M1219.44,-2425.38C1212.36,-2431.27 1203.88,-2437.55 1195.37,-2442 1116.67,-2483.15 1086.39,-2466.45 1004.17,-2500 930.26,-2530.16 921.14,-2559.37 844.89,-2583 806.77,-2594.82 792.83,-2599.1 755.13,-2586 749.49,-2584.04 744.05,-2580.97 739.05,-2577.47"/>
<polygon fill="black" stroke="black" points="741.28,-2574.77 731.25,-2571.34 736.95,-2580.27 741.28,-2574.77"/>
<text text-anchor="middle" x="966.04" y="-2533.45" font-family="Times New Roman,serif" font-size="14.00">0</text>
</g>
<!-- 18&#45;&gt;26 -->
<g id="edge79" class="edge">
<title>18&#45;&gt;26</title>
<path fill="none" stroke="black" d="M1234.77,-2384.22C1229.89,-2347.7 1215.03,-2280.25 1170.62,-2248 1152.54,-2234.87 1007.87,-2173.3 986.17,-2168 856.97,-2136.42 803.4,-2212.51 687.66,-2147 684.4,-2145.15 379.45,-1708.54 378.23,-1705 351.92,-1628.17 388.79,-1416.02 360.23,-1340 359.87,-1339.05 359.47,-1338.1 359.04,-1337.17"/>
<polygon fill="black" stroke="black" points="362.22,-1335.67 354.07,-1328.9 356.22,-1339.28 362.22,-1335.67"/>
<text text-anchor="middle" x="800.01" y="-2177.76" font-family="Times New Roman,serif" font-size="14.00">0</text>
</g>
<!-- 20&#45;&gt;22 -->
<g id="edge80" class="edge">
<title>20&#45;&gt;22</title>
<path fill="none" stroke="black" d="M1260.68,-2695.38C1269.03,-2692.49 1278.7,-2690.62 1287.59,-2692.5 1290.97,-2693.22 1294.41,-2694.22 1297.79,-2695.4"/>
<polygon fill="black" stroke="black" points="1296.26,-2698.56 1306.84,-2699.05 1298.87,-2692.07 1296.26,-2698.56"/>
<text text-anchor="middle" x="1284.22" y="-2695.7" font-family="Times New Roman,serif" font-size="14.00">0</text>
</g>
<!-- 22&#45;&gt;20 -->
<g id="edge82" class="edge">
<title>22&#45;&gt;20</title>
<path fill="none" stroke="black" d="M1305.15,-2710.15C1297.39,-2709.84 1288.75,-2709.45 1280.84,-2709 1278.67,-2708.88 1276.43,-2708.74 1274.17,-2708.6"/>
<polygon fill="black" stroke="black" points="1274.66,-2705.12 1264.44,-2707.94 1274.18,-2712.11 1274.66,-2705.12"/>
<text text-anchor="middle" x="1284.22" y="-2712.55" font-family="Times New Roman,serif" font-size="14.00">0</text>
</g>
<!-- 23 -->
<g id="node19" class="node">
<title>23</title>
<ellipse fill="none" stroke="black" cx="1422.55" cy="-2542" rx="24.74" ry="24.74"/>
<text text-anchor="middle" x="1422.55" y="-2536.95" font-family="Times New Roman,serif" font-size="14.00">q21</text>
</g>
<!-- 22&#45;&gt;23 -->
<g id="edge81" class="edge">
<title>22&#45;&gt;23</title>
<path fill="none" stroke="black" d="M1342.94,-2689.25C1358.64,-2659.84 1386.74,-2607.21 1404.75,-2573.48"/>
<polygon fill="black" stroke="black" points="1407.65,-2575.47 1409.28,-2565 1401.48,-2572.17 1407.65,-2575.47"/>
<text text-anchor="middle" x="1376.44" y="-2634.77" font-family="Times New Roman,serif" font-size="14.00">0</text>
</g>
<!-- 22&#45;&gt;24 -->
<g id="edge83" class="edge">
<title>22&#45;&gt;24</title>
<path fill="none" stroke="black" d="M1346.39,-2729.98C1357.37,-2744.8 1371.7,-2766.36 1379.82,-2787.5 1407.09,-2858.53 1416.59,-2947.92 1419.86,-2996.86"/>
<polygon fill="black" stroke="black" points="1416.36,-2996.83 1420.46,-3006.6 1423.34,-2996.4 1416.36,-2996.83"/>
<text text-anchor="middle" x="1376.44" y="-2790.7" font-family="Times New Roman,serif" font-size="14.00">0</text>
</g>
<!-- 23&#45;&gt;12 -->
<g id="edge86" class="edge">
<title>23&#45;&gt;12</title>
<path fill="none" stroke="black" d="M1414.21,-2518.51C1392.78,-2454.6 1323.61,-2277.81 1195.37,-2210 995.17,-2104.15 911.9,-2221.42 687.66,-2253 646.38,-2258.81 635.05,-2257.07 595.43,-2270 583.43,-2273.92 570.82,-2279.56 559.85,-2285.01"/>
<polygon fill="black" stroke="black" points="558.54,-2281.75 551.25,-2289.44 561.74,-2287.98 558.54,-2281.75"/>
<text text-anchor="middle" x="966.04" y="-2184.35" font-family="Times New Roman,serif" font-size="14.00">0</text>
</g>
<!-- 23&#45;&gt;22 -->
<g id="edge84" class="edge">
<title>23&#45;&gt;22</title>
<path fill="none" stroke="black" d="M1415,-2565.74C1408.11,-2588.72 1396,-2624.08 1379.82,-2652 1373.1,-2663.59 1364.13,-2675.23 1355.73,-2685.06"/>
<polygon fill="black" stroke="black" points="1353.25,-2682.59 1349.26,-2692.4 1358.5,-2687.22 1353.25,-2682.59"/>
<text text-anchor="middle" x="1376.44" y="-2665.73" font-family="Times New Roman,serif" font-size="14.00">0</text>
</g>
<!-- 23&#45;&gt;25 -->
<g id="edge85" class="edge">
<title>23&#45;&gt;25</title>
<path fill="none" stroke="black" d="M1397.43,-2542C1379.26,-2542 1353.73,-2542 1331.33,-2542 1190.99,-2542 1190.99,-2542 1190.99,-2542 997.26,-2542 948.44,-2535.13 755.13,-2548 752.95,-2548.15 750.7,-2548.33 748.44,-2548.53"/>
<polygon fill="black" stroke="black" points="748.28,-2545.03 738.7,-2549.55 749.01,-2551.99 748.28,-2545.03"/>
<text text-anchor="middle" x="1053.65" y="-2544.43" font-family="Times New Roman,serif" font-size="14.00">0</text>
</g>
<!-- 23&#45;&gt;26 -->
<g id="edge87" class="edge">
<title>23&#45;&gt;26</title>
<path fill="none" stroke="black" d="M1421.78,-2516.82C1421.97,-2423.54 1416.43,-2103 1331.33,-2103 1098.77,-2103 1098.77,-2103 1098.77,-2103 971.8,-2103 962.92,-2018.81 844.89,-1972 777.32,-1945.2 750.86,-1962.91 687.66,-1927 625.61,-1891.74 622.19,-1866.4 570.68,-1817 495.44,-1744.84 458.69,-1741.11 402.98,-1653 327.95,-1534.33 411.26,-1470.8 360.23,-1340 359.86,-1339.05 359.45,-1338.11 359.01,-1337.18"/>
<polygon fill="black" stroke="black" points="362.18,-1335.65 353.99,-1328.93 356.2,-1339.29 362.18,-1335.65"/>
<text text-anchor="middle" x="883.02" y="-2005.82" font-family="Times New Roman,serif" font-size="14.00">0</text>
</g>
<!-- 24&#45;&gt;12 -->
<g id="edge89" class="edge">
<title>24&#45;&gt;12</title>
<path fill="none" stroke="black" d="M1419.21,-3057.93C1415.12,-3093.31 1404.61,-3159.39 1379.82,-3210 1364.73,-3240.79 1365.61,-3270 1331.33,-3270 1006.54,-3270 1006.54,-3270 1006.54,-3270 942.25,-3270 607.94,-3175.55 595.43,-3164 573.33,-3143.59 576.96,-3130.42 570.68,-3101 552.66,-3016.59 557.17,-2799.2 552.68,-2713 545.46,-2574.39 535.54,-2409.58 531.16,-2338.07"/>
<polygon fill="black" stroke="black" points="534.68,-2338.29 530.58,-2328.53 527.7,-2338.72 534.68,-2338.29"/>
<text text-anchor="middle" x="966.04" y="-3271.37" font-family="Times New Roman,serif" font-size="14.00">0</text>
</g>
<!-- 24&#45;&gt;25 -->
<g id="edge88" class="edge">
<title>24&#45;&gt;25</title>
<path fill="none" stroke="black" d="M1401.77,-3019.28C1384.13,-3008.4 1357.16,-2995 1331.33,-2995 1190.99,-2995 1190.99,-2995 1190.99,-2995 1124.79,-2995 1134.77,-2932.19 1078.39,-2897.5 956.25,-2822.35 907.92,-2839.58 779.88,-2775 768.4,-2769.21 762.52,-2770.52 755.13,-2760 736.07,-2732.87 723.1,-2640.71 717.14,-2588.98"/>
<polygon fill="black" stroke="black" points="720.63,-2588.73 716.04,-2579.18 713.68,-2589.51 720.63,-2588.73"/>
<text text-anchor="middle" x="1053.65" y="-2900.7" font-family="Times New Roman,serif" font-size="14.00">0</text>
</g>
<!-- 24&#45;&gt;26 -->
<g id="edge90" class="edge">
<title>24&#45;&gt;26</title>
<path fill="none" stroke="black" d="M1419.03,-3057.53C1411.31,-3126.14 1385.17,-3315 1331.33,-3315 1006.54,-3315 1006.54,-3315 1006.54,-3315 0.21,-3315 596.84,-3268.04 570.68,-3241 483.79,-3151.16 526.32,-3090.83 503.21,-2968 406.64,-2454.93 404.56,-2321.41 378.23,-1800 375.65,-1748.91 377.97,-1387.97 360.23,-1340 359.88,-1339.05 359.48,-1338.1 359.05,-1337.16"/>
<polygon fill="black" stroke="black" points="362.24,-1335.67 354.1,-1328.89 356.23,-1339.27 362.24,-1335.67"/>
<text text-anchor="middle" x="883.02" y="-3317.99" font-family="Times New Roman,serif" font-size="14.00">0</text>
</g>
<!-- 25&#45;&gt;1 -->
<g id="edge153" class="edge">
<title>25&#45;&gt;1</title>
<path fill="none" stroke="black" d="M730.12,-2535.76C737.2,-2529.61 745.94,-2523.37 755.13,-2520 851.58,-2484.59 883.86,-2521.5 986.17,-2512 1027.45,-2508.17 1037.7,-2505.93 1078.39,-2498 1119.75,-2489.94 1130.22,-2488.01 1170.62,-2476 1212.35,-2463.6 1236.69,-2477.81 1262.84,-2443 1333.66,-2348.73 1331.06,-1478.37 1329.66,-1289.89"/>
<polygon fill="black" stroke="black" points="1333.16,-1289.96 1329.58,-1279.99 1326.16,-1290.02 1333.16,-1289.96"/>
<text text-anchor="middle" x="1007.54" y="-2513.39" font-family="Times New Roman,serif" font-size="14.00">1</text>
</g>
<!-- 25&#45;&gt;2 -->
<g id="edge152" class="edge">
<title>25&#45;&gt;2</title>
<path fill="none" stroke="black" d="M703.01,-2529.95C683.32,-2478.22 629.87,-2350.89 552.68,-2268 423.22,-2128.98 289.19,-2198.97 194.99,-2034 152.06,-1958.8 152.75,-1334.83 153.61,-1178.44"/>
<polygon fill="black" stroke="black" points="157.11,-1178.72 153.67,-1168.7 150.11,-1178.68 157.11,-1178.72"/>
<text text-anchor="middle" x="431.72" y="-2201.08" font-family="Times New Roman,serif" font-size="14.00">1</text>
</g>
<!-- 25&#45;&gt;3 -->
<g id="edge151" class="edge">
<title>25&#45;&gt;3</title>
<path fill="none" stroke="black" d="M707.05,-2528.39C700.42,-2492.21 686.72,-2422.71 669.66,-2365 627.42,-2222.19 615.17,-2186.18 552.68,-2051 495.43,-1927.16 456.77,-1908.38 402.98,-1783 348.49,-1655.98 339.54,-1621.19 310.76,-1486 291.37,-1394.94 296.23,-1370.53 286.01,-1278 271,-1142.2 255.08,-980.44 248.28,-910.32"/>
<polygon fill="black" stroke="black" points="251.79,-910.21 247.34,-900.6 244.82,-910.89 251.79,-910.21"/>
<text text-anchor="middle" x="481.83" y="-1933.1" font-family="Times New Roman,serif" font-size="14.00">1</text>
</g>
<!-- 25&#45;&gt;4 -->
<g id="edge154" class="edge">
<title>25&#45;&gt;4</title>
<path fill="none" stroke="black" d="M715.18,-2528.17C719.76,-2463.68 731.86,-2285.56 737.13,-2137 747.33,-1849.49 725.77,-1128.69 755.13,-842.5 762.44,-771.21 780.83,-688.96 791.34,-645.53"/>
<polygon fill="black" stroke="black" points="794.67,-646.62 793.65,-636.08 787.87,-644.96 794.67,-646.62"/>
<text text-anchor="middle" x="758.51" y="-845.7" font-family="Times New Roman,serif" font-size="14.00">1</text>
</g>
<!-- 25&#45;&gt;6 -->
<g id="edge155" class="edge">
<title>25&#45;&gt;6</title>
<path fill="none" stroke="black" d="M716.51,-2528.24C724.88,-2463.15 749.29,-2281.97 779.88,-2133 794.54,-2061.59 806.52,-2045.61 820.14,-1974 831.86,-1912.37 828.71,-1896.02 838.14,-1834 870.18,-1623.43 859.18,-1565.78 921.16,-1362 941.94,-1293.65 959.57,-1281.3 986.17,-1215 1007.03,-1163.01 1028.61,-1101.63 1041.32,-1064.55"/>
<polygon fill="black" stroke="black" points="1044.56,-1065.88 1044.48,-1055.29 1037.94,-1063.62 1044.56,-1065.88"/>
<text text-anchor="middle" x="883.02" y="-1641.18" font-family="Times New Roman,serif" font-size="14.00">1</text>
</g>
<!-- 25&#45;&gt;7 -->
<g id="edge150" class="edge">
<title>25&#45;&gt;7</title>
<path fill="none" stroke="black" d="M724.22,-2530.76C731.84,-2516.18 742.85,-2497.08 755.13,-2482 811.16,-2413.18 858.12,-2424.46 903.16,-2348 915.55,-2326.96 1099.69,-1516.17 1103.14,-1492 1123.93,-1346.59 1104.66,-1307.96 1121.14,-1162 1125.13,-1126.7 1132.3,-1086.74 1137.72,-1058.93"/>
<polygon fill="black" stroke="black" points="1141.12,-1059.79 1139.62,-1049.3 1134.25,-1058.43 1141.12,-1059.79"/>
<text text-anchor="middle" x="924.53" y="-2285.57" font-family="Times New Roman,serif" font-size="14.00">1</text>
</g>
<!-- 25&#45;&gt;8 -->
<g id="edge149" class="edge">
<title>25&#45;&gt;8</title>
<path fill="none" stroke="black" d="M721.71,-2529.84C729.81,-2507.64 742.7,-2473.28 755.13,-2444 781.79,-2381.22 804.07,-2371.28 820.14,-2305 844.82,-2203.21 833.65,-1938.65 838.14,-1834 838.45,-1826.78 860.41,-1320.79 862.89,-1314 862.98,-1313.77 863.06,-1313.54 863.15,-1313.31"/>
<polygon fill="black" stroke="black" points="866.1,-1315.21 867.94,-1304.77 860,-1311.79 866.1,-1315.21"/>
<text text-anchor="middle" x="800.01" y="-2397.99" font-family="Times New Roman,serif" font-size="14.00">1</text>
</g>
<!-- 25&#45;&gt;14 -->
<g id="edge91" class="edge">
<title>25&#45;&gt;14</title>
<path fill="none" stroke="black" d="M690.3,-2564.84C681.07,-2570.77 670.61,-2578.59 662.91,-2587.5 650.74,-2601.57 640.98,-2619.8 633.96,-2635.45"/>
<polygon fill="black" stroke="black" points="630.85,-2633.83 630.14,-2644.4 637.29,-2636.58 630.85,-2633.83"/>
<text text-anchor="middle" x="666.28" y="-2590.7" font-family="Times New Roman,serif" font-size="14.00">0</text>
</g>
<!-- 25&#45;&gt;16 -->
<g id="edge92" class="edge">
<title>25&#45;&gt;16</title>
<path fill="none" stroke="black" d="M712.64,-2578.21C712.4,-2633.8 720.39,-2762 799.01,-2762 799.01,-2762 799.01,-2762 967.04,-2762 983.9,-2762 1002.45,-2759.69 1017.97,-2757.09"/>
<polygon fill="black" stroke="black" points="1018.44,-2760.57 1027.67,-2755.36 1017.21,-2753.67 1018.44,-2760.57"/>
<text text-anchor="middle" x="883.02" y="-2765.2" font-family="Times New Roman,serif" font-size="14.00">0</text>
</g>
<!-- 25&#45;&gt;18 -->
<g id="edge93" class="edge">
<title>25&#45;&gt;18</title>
<path fill="none" stroke="black" d="M737.39,-2552.21C745.3,-2551.5 754.07,-2550.24 761.88,-2548 878.3,-2514.6 885.43,-2428 1006.54,-2428 1006.54,-2428 1006.54,-2428 1146.88,-2428 1165.87,-2428 1186.63,-2423.92 1203.45,-2419.54"/>
<polygon fill="black" stroke="black" points="1204.23,-2422.96 1212.93,-2416.91 1202.36,-2416.21 1204.23,-2422.96"/>
<text text-anchor="middle" x="966.04" y="-2439.9" font-family="Times New Roman,serif" font-size="14.00">0</text>
</g>
<!-- 25&#45;&gt;20 -->
<g id="edge94" class="edge">
<title>25&#45;&gt;20</title>
<path fill="none" stroke="black" d="M726.52,-2573.6C733.79,-2583.37 743.68,-2594.33 755.13,-2601 780.18,-2615.58 791.17,-2606.58 820.14,-2606 859.1,-2605.22 1136.76,-2574.72 1170.62,-2594 1199.5,-2610.45 1217.14,-2644.93 1226.92,-2671.32"/>
<polygon fill="black" stroke="black" points="1223.56,-2672.33 1230.14,-2680.63 1230.18,-2670.03 1223.56,-2672.33"/>
<text text-anchor="middle" x="966.04" y="-2599.37" font-family="Times New Roman,serif" font-size="14.00">0</text>
</g>
<!-- 25&#45;&gt;24 -->
<g id="edge95" class="edge">
<title>25&#45;&gt;24</title>
<path fill="none" stroke="black" d="M712.76,-2578.05C712.77,-2621.54 717.71,-2712.5 755.13,-2777 762.37,-2789.48 768.35,-2789.33 779.88,-2798 782.62,-2800.06 1187.56,-3071 1190.99,-3071 1190.99,-3071 1190.99,-3071 1331.33,-3071 1352.72,-3071 1374.89,-3061.81 1391.9,-3052.47"/>
<polygon fill="black" stroke="black" points="1393.59,-3055.54 1400.46,-3047.48 1390.06,-3049.49 1393.59,-3055.54"/>
<text text-anchor="middle" x="1053.65" y="-3000.18" font-family="Times New Roman,serif" font-size="14.00">0</text>
</g>
<!-- 25&#45;&gt;27 -->
<g id="edge148" class="edge">
<title>25&#45;&gt;27</title>
<path fill="none" stroke="black" d="M707.17,-2528.61C700.12,-2488.49 685.19,-2406.13 669.66,-2337 623.79,-2132.86 616.65,-2080.21 552.68,-1881 520.45,-1780.63 472.92,-1665.67 448.49,-1608.41"/>
<polygon fill="black" stroke="black" points="451.81,-1607.28 444.66,-1599.46 445.38,-1610.03 451.81,-1607.28"/>
<text text-anchor="middle" x="574.06" y="-1963.08" font-family="Times New Roman,serif" font-size="14.00">1</text>
</g>
<!-- 26&#45;&gt;1 -->
<g id="edge161" class="edge">
<title>26&#45;&gt;1</title>
<path fill="none" stroke="black" d="M353.07,-1327.69C355.88,-1331.51 358.46,-1335.7 360.23,-1340 406.58,-1452.31 335.74,-1508.81 402.98,-1610 445.7,-1674.28 616.76,-1778.49 687.66,-1809 847.74,-1877.9 904.6,-1855.08 1078.39,-1842 1168.59,-1835.21 1214.59,-1832.51 1262.84,-1756 1311.96,-1678.11 1325.21,-1391.55 1328.41,-1289.98"/>
<polygon fill="black" stroke="black" points="1331.9,-1290.15 1328.7,-1280.05 1324.91,-1289.95 1331.9,-1290.15"/>
<text text-anchor="middle" x="841.52" y="-1857.35" font-family="Times New Roman,serif" font-size="14.00">1</text>
</g>
<!-- 26&#45;&gt;2 -->
<g id="edge160" class="edge">
<title>26&#45;&gt;2</title>
<path fill="none" stroke="black" d="M310.86,-1306C285.7,-1300.69 245.99,-1289.14 219.74,-1266 192.6,-1242.06 174.7,-1204.17 164.5,-1176.76"/>
<polygon fill="black" stroke="black" points="167.86,-1175.78 161.22,-1167.52 161.26,-1178.12 167.86,-1175.78"/>
<text text-anchor="middle" x="243.88" y="-1296.66" font-family="Times New Roman,serif" font-size="14.00">1</text>
</g>
<!-- 26&#45;&gt;3 -->
<g id="edge159" class="edge">
<title>26&#45;&gt;3</title>
<path fill="none" stroke="black" d="M324.8,-1287.16C313.78,-1260.32 296.03,-1214.19 286.01,-1173 263.35,-1079.86 252.04,-967.1 247.45,-910.73"/>
<polygon fill="black" stroke="black" points="250.94,-910.46 246.67,-900.77 243.96,-911.01 250.94,-910.46"/>
<text text-anchor="middle" x="289.38" y="-1199.14" font-family="Times New Roman,serif" font-size="14.00">1</text>
</g>
<!-- 26&#45;&gt;4 -->
<g id="edge162" class="edge">
<title>26&#45;&gt;4</title>
<path fill="none" stroke="black" d="M337.66,-1285.09C341.66,-1204.19 355.83,-952.36 378.23,-924 409.51,-884.41 445.14,-916.67 485.21,-886 496.37,-877.46 493.71,-870.36 503.21,-860 592.14,-763.06 719.68,-670.03 773.5,-632.45"/>
<polygon fill="black" stroke="black" points="775.49,-635.33 781.72,-626.76 771.51,-629.58 775.49,-635.33"/>
<text text-anchor="middle" x="574.06" y="-796.23" font-family="Times New Roman,serif" font-size="14.00">1</text>
</g>
<!-- 26&#45;&gt;6 -->
<g id="edge163" class="edge">
<title>26&#45;&gt;6</title>
<path fill="none" stroke="black" d="M343.23,-1286.05C350.88,-1259.57 364.15,-1215.78 378.23,-1179 387.82,-1153.97 386.89,-1145.44 402.98,-1124 436.71,-1079.06 542.7,-979.42 595.43,-960 670.02,-932.53 455.29,-886.03 986.17,-1009 997.42,-1011.61 1009.48,-1015.31 1020.19,-1018.93"/>
<polygon fill="black" stroke="black" points="1018.76,-1022.14 1029.35,-1022.13 1021.07,-1015.53 1018.76,-1022.14"/>
<text text-anchor="middle" x="712.39" y="-954.49" font-family="Times New Roman,serif" font-size="14.00">1</text>
</g>
<!-- 26&#45;&gt;7 -->
<g id="edge158" class="edge">
<title>26&#45;&gt;7</title>
<path fill="none" stroke="black" d="M337.81,-1284.94C341.39,-1237.02 354.63,-1130.72 402.98,-1058 460.69,-971.21 497.77,-960.41 595.43,-924 683.03,-891.34 926.57,-817.68 1010.92,-858 1068.76,-885.65 1109.64,-951.82 1130.04,-991.77"/>
<polygon fill="black" stroke="black" points="1126.88,-993.28 1134.46,-1000.69 1133.15,-990.17 1126.88,-993.28"/>
<text text-anchor="middle" x="758.51" y="-878.25" font-family="Times New Roman,serif" font-size="14.00">1</text>
</g>
<!-- 26&#45;&gt;8 -->
<g id="edge157" class="edge">
<title>26&#45;&gt;8</title>
<path fill="none" stroke="black" d="M360.67,-1308.35C449.58,-1302.32 753.64,-1282.17 761.88,-1288 781.5,-1301.88 760.26,-1325.12 779.88,-1339 803.6,-1355.79 820.38,-1347.61 844.89,-1332 849.23,-1329.24 856.2,-1321.59 862.93,-1313.5"/>
<polygon fill="black" stroke="black" points="865.48,-1315.9 869.05,-1305.93 860.04,-1311.5 865.48,-1315.9"/>
<text text-anchor="middle" x="620.17" y="-1296.69" font-family="Times New Roman,serif" font-size="14.00">1</text>
</g>
<!-- 26&#45;&gt;27 -->
<g id="edge156" class="edge">
<title>26&#45;&gt;27</title>
<path fill="none" stroke="black" d="M344.86,-1333.25C361.16,-1378.59 397.34,-1479.2 417.14,-1534.23"/>
<polygon fill="black" stroke="black" points="413.79,-1535.27 420.47,-1543.5 420.38,-1532.9 413.79,-1535.27"/>
<text text-anchor="middle" x="381.61" y="-1444.2" font-family="Times New Roman,serif" font-size="14.00">1</text>
</g>
<!-- 27&#45;&gt;1 -->
<g id="edge99" class="edge">
<title>27&#45;&gt;1</title>
<path fill="none" stroke="black" d="M453.53,-1590.93C461.3,-1597.92 470.23,-1605.88 478.46,-1613 479.17,-1613.62 686.77,-1787.66 687.66,-1788 787.71,-1827.1 1070.63,-1848.29 1170.62,-1809 1198.24,-1798.15 1243.72,-1748.37 1262.84,-1708 1298.08,-1633.6 1319.76,-1383.39 1326.8,-1289.76"/>
<polygon fill="black" stroke="black" points="1330.28,-1290.12 1327.53,-1279.89 1323.3,-1289.6 1330.28,-1290.12"/>
<text text-anchor="middle" x="883.02" y="-1829.38" font-family="Times New Roman,serif" font-size="14.00">0</text>
</g>
<!-- 27&#45;&gt;2 -->
<g id="edge98" class="edge">
<title>27&#45;&gt;2</title>
<path fill="none" stroke="black" d="M422.33,-1599.61C402.27,-1661.16 348.5,-1800.35 286.01,-1750 195.58,-1677.14 163.78,-1297.31 155.96,-1178.54"/>
<polygon fill="black" stroke="black" points="159.47,-1178.51 155.33,-1168.76 152.48,-1178.96 159.47,-1178.51"/>
<text text-anchor="middle" x="289.38" y="-1757.15" font-family="Times New Roman,serif" font-size="14.00">0</text>
</g>
<!-- 27&#45;&gt;3 -->
<g id="edge97" class="edge">
<title>27&#45;&gt;3</title>
<path fill="none" stroke="black" d="M413.16,-1549.79C402.31,-1535.49 388.55,-1516.23 378.23,-1498 341.43,-1432.96 332.98,-1415.34 310.76,-1344 262.03,-1187.57 249.24,-990.5 245.97,-910.84"/>
<polygon fill="black" stroke="black" points="249.47,-910.89 245.59,-901.03 242.48,-911.16 249.47,-910.89"/>
<text text-anchor="middle" x="335.49" y="-1468.74" font-family="Times New Roman,serif" font-size="14.00">0</text>
</g>
<!-- 27&#45;&gt;4 -->
<g id="edge100" class="edge">
<title>27&#45;&gt;4</title>
<path fill="none" stroke="black" d="M437.7,-1543.45C444.88,-1504.28 459.4,-1431.91 478.46,-1372 513.43,-1262.05 540.34,-1241.26 577.43,-1132 624.34,-993.82 593.2,-943.19 662.91,-815 694.32,-757.22 726.84,-760.65 761.88,-705 773.68,-686.26 783.13,-663.12 789.55,-645"/>
<polygon fill="black" stroke="black" points="792.83,-646.2 792.74,-635.61 786.2,-643.95 792.83,-646.2"/>
<text text-anchor="middle" x="620.17" y="-1071.31" font-family="Times New Roman,serif" font-size="14.00">0</text>
</g>
<!-- 27&#45;&gt;5 -->
<g id="edge96" class="edge">
<title>27&#45;&gt;5</title>
<path fill="none" stroke="black" d="M456.45,-1586.71C463.4,-1590.68 471.1,-1594.76 478.46,-1598 489.04,-1602.66 492.08,-1602.86 503.21,-1606 604.83,-1634.7 859.43,-1718 965.04,-1718 965.04,-1718 965.04,-1718 1146.88,-1718 1233.99,-1718 1238.67,-1398.92 1237.73,-1289.96"/>
<polygon fill="black" stroke="black" points="1241.23,-1290.09 1237.62,-1280.13 1234.23,-1290.17 1241.23,-1290.09"/>
<text text-anchor="middle" x="841.52" y="-1703.77" font-family="Times New Roman,serif" font-size="14.00">0</text>
</g>
<!-- 27&#45;&gt;6 -->
<g id="edge101" class="edge">
<title>27&#45;&gt;6</title>
<path fill="none" stroke="black" d="M434.71,-1543.04C438.38,-1510.17 448.81,-1456.65 478.46,-1422 529.57,-1362.24 578.27,-1403.75 644.91,-1362 717.34,-1316.62 718.15,-1284.12 779.88,-1225 815.79,-1190.61 824.49,-1181.58 862.89,-1150 898.46,-1120.76 907.04,-1112.69 945.91,-1088 970.33,-1072.48 999.37,-1057.16 1020.99,-1046.32"/>
<polygon fill="black" stroke="black" points="1022.5,-1049.48 1029.9,-1041.9 1019.39,-1043.21 1022.5,-1049.48"/>
<text text-anchor="middle" x="758.51" y="-1253.41" font-family="Times New Roman,serif" font-size="14.00">0</text>
</g>
<!-- 27&#45;&gt;7 -->
<g id="edge103" class="edge">
<title>27&#45;&gt;7</title>
<path fill="none" stroke="black" d="M450.52,-1549.84C464.18,-1533.41 483.91,-1510.85 503.21,-1493 506.2,-1490.23 733.9,-1317.49 737.13,-1315 830.37,-1243.13 843.85,-1210.67 945.91,-1152 1000.89,-1120.39 1026.52,-1135.49 1078.39,-1099 1096.19,-1086.48 1112.46,-1068.3 1124.46,-1052.97"/>
<polygon fill="black" stroke="black" points="1127.19,-1055.16 1130.43,-1045.08 1121.6,-1050.94 1127.19,-1055.16"/>
<text text-anchor="middle" x="800.01" y="-1283.06" font-family="Times New Roman,serif" font-size="14.00">0</text>
</g>
<!-- 27&#45;&gt;8 -->
<g id="edge102" class="edge">
<title>27&#45;&gt;8</title>
<path fill="none" stroke="black" d="M454.99,-1554.75C462.29,-1549.42 470.55,-1543.72 478.46,-1539 556.68,-1492.28 577.83,-1482.14 662.91,-1449.5 741.5,-1419.35 787.4,-1458.49 844.89,-1397 870.67,-1369.43 847.04,-1348.26 862.89,-1314 862.94,-1313.89 862.99,-1313.78 863.05,-1313.67"/>
<polygon fill="black" stroke="black" points="865.98,-1315.58 868.16,-1305.21 859.99,-1311.96 865.98,-1315.58"/>
<text text-anchor="middle" x="666.28" y="-1452.7" font-family="Times New Roman,serif" font-size="14.00">0</text>
</g>
<!-- 27&#45;&gt;10 -->
<g id="edge164" class="edge">
<title>27&#45;&gt;10</title>
<path fill="none" stroke="black" d="M459.89,-1578.84C534.86,-1596.22 749.19,-1635.85 903.16,-1564 922.63,-1554.91 938.52,-1536.48 949.32,-1520.81"/>
<polygon fill="black" stroke="black" points="952.03,-1523.08 954.55,-1512.79 946.16,-1519.25 952.03,-1523.08"/>
<text text-anchor="middle" x="712.39" y="-1608.68" font-family="Times New Roman,serif" font-size="14.00">1</text>
</g>
<!-- 27&#45;&gt;12 -->
<g id="edge165" class="edge">
<title>27&#45;&gt;12</title>
<path fill="none" stroke="black" d="M438.03,-1600.46C448.36,-1656.68 471.37,-1785.99 485.21,-1895.5 496.31,-1983.39 494.18,-2005.88 503.21,-2094 509.39,-2154.39 517.61,-2224.51 522.57,-2265.96"/>
<polygon fill="black" stroke="black" points="519.1,-2266.35 523.76,-2275.86 526.05,-2265.52 519.1,-2266.35"/>
<text text-anchor="middle" x="481.83" y="-1898.7" font-family="Times New Roman,serif" font-size="14.00">1</text>
</g>
<!-- 27&#45;&gt;26 -->
<g id="edge166" class="edge">
<title>27&#45;&gt;26</title>
<path fill="none" stroke="black" d="M417.1,-1546.78C405.64,-1524.83 389.39,-1491.94 378.23,-1462 363.7,-1423 351.71,-1376.7 344.36,-1345.53"/>
<polygon fill="black" stroke="black" points="347.79,-1344.8 342.12,-1335.85 340.97,-1346.38 347.79,-1344.8"/>
<text text-anchor="middle" x="381.61" y="-1480.62" font-family="Times New Roman,serif" font-size="14.00">1</text>
</g>
</g>
</svg>
