<?xml version="1.0" encoding="UTF-8" standalone="no"?>
<!DOCTYPE svg PUBLIC "-//W3C//DTD SVG 1.1//EN"
 "http://www.w3.org/Graphics/SVG/1.1/DTD/svg11.dtd">
<!-- Generated by graphviz version 12.1.0 (20240811.2233)
 -->
<!-- Title: G Pages: 1 -->
<svg width="758pt" height="238pt"
 viewBox="0.00 0.00 758.44 237.50" xmlns="http://www.w3.org/2000/svg" xmlns:xlink="http://www.w3.org/1999/xlink">
<g id="graph0" class="graph" transform="scale(1 1) rotate(0) translate(4 233.5)">
<title>G</title>
<polygon fill="white" stroke="none" points="-4,4 -4,-233.5 754.44,-233.5 754.44,4 -4,4"/>
<!-- n__ -->
<g id="node1" class="node">
<title>n__</title>
</g>
<!-- 0 -->
<g id="node2" class="node">
<title>0</title>
<ellipse fill="none" stroke="black" cx="55.72" cy="-56" rx="18" ry="18"/>
<text text-anchor="middle" x="55.72" y="-50.95" font-family="Times New Roman,serif" font-size="14.00">^</text>
</g>
<!-- n__&#45;&gt;0 -->
<g id="edge1" class="edge">
<title>n__&#45;&gt;0</title>
<path fill="none" stroke="black" d="M0.87,-56C2.34,-56 13.93,-56 25.99,-56"/>
<polygon fill="black" stroke="black" points="25.86,-59.5 35.86,-56 25.86,-52.5 25.86,-59.5"/>
</g>
<!-- 1 -->
<g id="node3" class="node">
<title>1</title>
<ellipse fill="none" stroke="black" cx="141.48" cy="-56" rx="25.76" ry="25.76"/>
<text text-anchor="middle" x="141.48" y="-50.95" font-family="Times New Roman,serif" font-size="14.00">a[1]</text>
</g>
<!-- 0&#45;&gt;1 -->
<g id="edge2" class="edge">
<title>0&#45;&gt;1</title>
<path fill="none" stroke="black" d="M74.08,-56C82.78,-56 93.67,-56 104.09,-56"/>
<polygon fill="black" stroke="black" points="104.01,-59.5 114.01,-56 104.01,-52.5 104.01,-59.5"/>
<text text-anchor="middle" x="94.72" y="-59.2" font-family="Times New Roman,serif" font-size="14.00">a</text>
</g>
<!-- 3 -->
<g id="node5" class="node">
<title>3</title>
<ellipse fill="none" stroke="black" cx="621.9" cy="-69" rx="26.27" ry="26.27"/>
<text text-anchor="middle" x="621.9" y="-63.95" font-family="Times New Roman,serif" font-size="14.00">b[3]</text>
</g>
<!-- 0&#45;&gt;3 -->
<g id="edge8" class="edge">
<title>0&#45;&gt;3</title>
<path fill="none" stroke="black" d="M67.88,-42.16C82.61,-25.57 110.22,0 140.48,0 140.48,0 140.48,0 523.6,0 552.88,0 579.49,-21.04 597.45,-39.88"/>
<polygon fill="black" stroke="black" points="594.75,-42.11 604.06,-47.18 599.94,-37.41 594.75,-42.11"/>
<text text-anchor="middle" x="330.3" y="-3.2" font-family="Times New Roman,serif" font-size="14.00">b</text>
</g>
<!-- 5 -->
<g id="node7" class="node">
<title>5</title>
<ellipse fill="none" stroke="black" cx="330.3" cy="-113" rx="25.76" ry="25.76"/>
<text text-anchor="middle" x="330.3" y="-107.95" font-family="Times New Roman,serif" font-size="14.00">a[5]</text>
</g>
<!-- 0&#45;&gt;5 -->
<g id="edge3" class="edge">
<title>0&#45;&gt;5</title>
<path fill="none" stroke="black" d="M70.41,-66.51C81.86,-74.69 98.96,-85.53 115.72,-91 175.65,-110.55 249.59,-113.87 292.89,-113.87"/>
<polygon fill="black" stroke="black" points="292.76,-117.38 302.74,-113.81 292.72,-110.38 292.76,-117.38"/>
<text text-anchor="middle" x="188.62" y="-110.59" font-family="Times New Roman,serif" font-size="14.00">a</text>
</g>
<!-- 2 -->
<g id="node4" class="node">
<title>2</title>
<ellipse fill="none" stroke="black" cx="236.26" cy="-57" rx="26.27" ry="26.27"/>
<text text-anchor="middle" x="236.26" y="-51.95" font-family="Times New Roman,serif" font-size="14.00">b[2]</text>
</g>
<!-- 1&#45;&gt;2 -->
<g id="edge9" class="edge">
<title>1&#45;&gt;2</title>
<path fill="none" stroke="black" d="M162.7,-41.32C171.49,-36.62 182.03,-33.16 191.99,-35.5 195.78,-36.39 199.62,-37.66 203.36,-39.15"/>
<polygon fill="black" stroke="black" points="201.62,-42.2 212.17,-43.15 204.51,-35.83 201.62,-42.2"/>
<text text-anchor="middle" x="188.62" y="-38.7" font-family="Times New Roman,serif" font-size="14.00">b</text>
</g>
<!-- 2&#45;&gt;1 -->
<g id="edge4" class="edge">
<title>2&#45;&gt;1</title>
<path fill="none" stroke="black" d="M209.68,-56.72C200.09,-56.62 189,-56.5 178.63,-56.39"/>
<polygon fill="black" stroke="black" points="178.9,-52.89 168.86,-56.28 178.82,-59.89 178.9,-52.89"/>
<text text-anchor="middle" x="188.62" y="-59.73" font-family="Times New Roman,serif" font-size="14.00">a</text>
</g>
<!-- 2&#45;&gt;3 -->
<g id="edge10" class="edge">
<title>2&#45;&gt;3</title>
<path fill="none" stroke="black" d="M262.56,-52.34C280.99,-49.34 306.61,-46 329.3,-46 329.3,-46 329.3,-46 523.6,-46 544.73,-46 567.77,-51.2 586.12,-56.66"/>
<polygon fill="black" stroke="black" points="584.85,-59.93 595.44,-59.59 586.95,-53.25 584.85,-59.93"/>
<text text-anchor="middle" x="423.82" y="-49.2" font-family="Times New Roman,serif" font-size="14.00">b</text>
</g>
<!-- 2&#45;&gt;5 -->
<g id="edge5" class="edge">
<title>2&#45;&gt;5</title>
<path fill="none" stroke="black" d="M260.2,-68.02C268.63,-72.29 278.15,-77.38 286.54,-82.5 290.95,-85.19 295.5,-88.19 299.91,-91.22"/>
<polygon fill="black" stroke="black" points="297.83,-94.03 308.02,-96.94 301.86,-88.31 297.83,-94.03"/>
<text text-anchor="middle" x="283.54" y="-85.7" font-family="Times New Roman,serif" font-size="14.00">a</text>
</g>
<!-- 4 -->
<g id="node6" class="node">
<title>4</title>
<ellipse fill="none" stroke="black" cx="720.68" cy="-109" rx="25.76" ry="25.76"/>
<ellipse fill="none" stroke="black" cx="720.68" cy="-109" rx="29.76" ry="29.76"/>
<text text-anchor="middle" x="720.68" y="-103.95" font-family="Times New Roman,serif" font-size="14.00">c[4]</text>
</g>
<!-- 3&#45;&gt;4 -->
<g id="edge14" class="edge">
<title>3&#45;&gt;4</title>
<path fill="none" stroke="black" d="M647.97,-63.76C656.16,-63.09 665.14,-63.49 672.92,-66.5 680.07,-69.26 686.8,-73.69 692.81,-78.65"/>
<polygon fill="black" stroke="black" points="690.2,-81.01 699.94,-85.17 694.92,-75.84 690.2,-81.01"/>
<text text-anchor="middle" x="669.55" y="-69.7" font-family="Times New Roman,serif" font-size="14.00">c</text>
</g>
<!-- 4&#45;&gt;3 -->
<g id="edge11" class="edge">
<title>4&#45;&gt;3</title>
<path fill="none" stroke="black" d="M692.73,-97.94C684.23,-94.45 674.81,-90.57 666.17,-87 663.21,-85.78 660.14,-84.5 657.06,-83.22"/>
<polygon fill="black" stroke="black" points="658.68,-80.11 648.1,-79.5 655.99,-86.57 658.68,-80.11"/>
<text text-anchor="middle" x="669.55" y="-92.6" font-family="Times New Roman,serif" font-size="14.00">b</text>
</g>
<!-- 4&#45;&gt;5 -->
<g id="edge6" class="edge">
<title>4&#45;&gt;5</title>
<path fill="none" stroke="black" d="M708.32,-136.6C693.58,-167.41 664.71,-213 622.9,-213 422.82,-213 422.82,-213 422.82,-213 386.24,-213 360.35,-176.14 345.64,-147.18"/>
<polygon fill="black" stroke="black" points="348.87,-145.82 341.39,-138.32 342.56,-148.85 348.87,-145.82"/>
<text text-anchor="middle" x="522.6" y="-216.2" font-family="Times New Roman,serif" font-size="14.00">a</text>
</g>
<!-- 6 -->
<g id="node8" class="node">
<title>6</title>
<ellipse fill="none" stroke="black" cx="423.82" cy="-159" rx="25.76" ry="25.76"/>
<text text-anchor="middle" x="423.82" y="-153.95" font-family="Times New Roman,serif" font-size="14.00">c[6]</text>
</g>
<!-- 5&#45;&gt;6 -->
<g id="edge15" class="edge">
<title>5&#45;&gt;6</title>
<path fill="none" stroke="black" d="M353.92,-124.37C364.89,-129.89 378.27,-136.61 390.32,-142.66"/>
<polygon fill="black" stroke="black" points="388.6,-145.72 399.11,-147.08 391.74,-139.46 388.6,-145.72"/>
<text text-anchor="middle" x="377.06" y="-140.58" font-family="Times New Roman,serif" font-size="14.00">c</text>
</g>
<!-- 7 -->
<g id="node9" class="node">
<title>7</title>
<ellipse fill="none" stroke="black" cx="522.6" cy="-104" rx="26.27" ry="26.27"/>
<ellipse fill="none" stroke="black" cx="522.6" cy="-104" rx="30.27" ry="30.27"/>
<text text-anchor="middle" x="522.6" y="-98.95" font-family="Times New Roman,serif" font-size="14.00">b[7]</text>
</g>
<!-- 6&#45;&gt;7 -->
<g id="edge12" class="edge">
<title>6&#45;&gt;7</title>
<path fill="none" stroke="black" d="M446.78,-146.52C458.43,-139.9 473.02,-131.61 486.21,-124.11"/>
<polygon fill="black" stroke="black" points="487.68,-127.3 494.64,-119.32 484.22,-121.22 487.68,-127.3"/>
<text text-anchor="middle" x="470.96" y="-136.35" font-family="Times New Roman,serif" font-size="14.00">b</text>
</g>
<!-- 7&#45;&gt;3 -->
<g id="edge13" class="edge">
<title>7&#45;&gt;3</title>
<path fill="none" stroke="black" d="M551.49,-93.97C562.29,-90.08 574.79,-85.59 586.17,-81.49"/>
<polygon fill="black" stroke="black" points="587,-84.91 595.23,-78.24 584.63,-78.33 587,-84.91"/>
<text text-anchor="middle" x="574.25" y="-89.7" font-family="Times New Roman,serif" font-size="14.00">b</text>
</g>
<!-- 7&#45;&gt;5 -->
<g id="edge7" class="edge">
<title>7&#45;&gt;5</title>
<path fill="none" stroke="black" d="M491.88,-104.39C466.84,-104.83 430.09,-105.73 398.06,-107.5 388.13,-108.05 377.38,-108.85 367.47,-109.66"/>
<polygon fill="black" stroke="black" points="367.49,-106.15 357.83,-110.49 368.09,-113.12 367.49,-106.15"/>
<text text-anchor="middle" x="423.82" y="-110.7" font-family="Times New Roman,serif" font-size="14.00">a</text>
</g>
</g>
</svg>
