<?xml version="1.0" encoding="UTF-8" standalone="no"?>
<!DOCTYPE svg PUBLIC "-//W3C//DTD SVG 1.1//EN"
 "http://www.w3.org/Graphics/SVG/1.1/DTD/svg11.dtd">
<!-- Generated by graphviz version 12.1.1 (20240910.0053)
 -->
<!-- Title: G Pages: 1 -->
<svg width="599pt" height="179pt"
 viewBox="0.00 0.00 599.31 179.45" xmlns="http://www.w3.org/2000/svg" xmlns:xlink="http://www.w3.org/1999/xlink">
<g id="graph0" class="graph" transform="scale(1 1) rotate(0) translate(4 175.45)">
<title>G</title>
<polygon fill="white" stroke="none" points="-4,4 -4,-175.45 595.31,-175.45 595.31,4 -4,4"/>
<!-- n__ -->
<g id="node1" class="node">
<title>n__</title>
</g>
<!-- 0 -->
<g id="node2" class="node">
<title>0</title>
<ellipse fill="none" stroke="black" cx="57.85" cy="-54.13" rx="20.13" ry="20.13"/>
<text text-anchor="middle" x="57.85" y="-49.08" font-family="Times New Roman,serif" font-size="14.00">q0</text>
</g>
<!-- n__&#45;&gt;0 -->
<g id="edge1" class="edge">
<title>n__&#45;&gt;0</title>
<path fill="none" stroke="black" d="M0.88,-54.13C2.37,-54.13 13.93,-54.13 26.16,-54.13"/>
<polygon fill="black" stroke="black" points="25.79,-57.63 35.79,-54.13 25.79,-50.63 25.79,-57.63"/>
</g>
<!-- 1 -->
<g id="node3" class="node">
<title>1</title>
<ellipse fill="none" stroke="black" cx="140.11" cy="-119.13" rx="20.13" ry="20.13"/>
<text text-anchor="middle" x="140.11" y="-114.08" font-family="Times New Roman,serif" font-size="14.00">q1</text>
</g>
<!-- 0&#45;&gt;1 -->
<g id="edge2" class="edge">
<title>0&#45;&gt;1</title>
<path fill="none" stroke="black" d="M73.95,-66.36C85.53,-75.74 101.75,-88.87 115.11,-99.69"/>
<polygon fill="black" stroke="black" points="112.66,-102.21 122.64,-105.79 117.07,-96.77 112.66,-102.21"/>
<text text-anchor="middle" x="98.98" y="-91.78" font-family="Times New Roman,serif" font-size="14.00">ε</text>
</g>
<!-- 5 -->
<g id="node7" class="node">
<title>5</title>
<ellipse fill="none" stroke="black" cx="397.15" cy="-48.13" rx="20.13" ry="20.13"/>
<text text-anchor="middle" x="397.15" y="-43.08" font-family="Times New Roman,serif" font-size="14.00">q2</text>
</g>
<!-- 0&#45;&gt;5 -->
<g id="edge3" class="edge">
<title>0&#45;&gt;5</title>
<path fill="none" stroke="black" d="M77.45,-48.26C93.59,-43.7 117.66,-38.13 139.11,-38.13 139.11,-38.13 139.11,-38.13 311.14,-38.13 329.43,-38.13 349.79,-40.44 366,-42.85"/>
<polygon fill="black" stroke="black" points="365.06,-46.24 375.49,-44.34 366.15,-39.33 365.06,-46.24"/>
<text text-anchor="middle" x="223.13" y="-41.33" font-family="Times New Roman,serif" font-size="14.00">ε</text>
</g>
<!-- 2 -->
<g id="node4" class="node">
<title>2</title>
<ellipse fill="none" stroke="black" cx="223.13" cy="-119.13" rx="20.13" ry="20.13"/>
<text text-anchor="middle" x="223.13" y="-114.08" font-family="Times New Roman,serif" font-size="14.00">q3</text>
</g>
<!-- 1&#45;&gt;2 -->
<g id="edge4" class="edge">
<title>1&#45;&gt;2</title>
<path fill="none" stroke="black" d="M160.72,-119.13C169.88,-119.13 180.99,-119.13 191.24,-119.13"/>
<polygon fill="black" stroke="black" points="191.18,-122.63 201.18,-119.13 191.18,-115.63 191.18,-122.63"/>
<text text-anchor="middle" x="181.62" y="-122.33" font-family="Times New Roman,serif" font-size="14.00">x</text>
</g>
<!-- 3 -->
<g id="node5" class="node">
<title>3</title>
<ellipse fill="none" stroke="black" cx="397.15" cy="-151.13" rx="20.13" ry="20.13"/>
<text text-anchor="middle" x="397.15" y="-146.08" font-family="Times New Roman,serif" font-size="14.00">q4</text>
</g>
<!-- 1&#45;&gt;3 -->
<g id="edge5" class="edge">
<title>1&#45;&gt;3</title>
<path fill="none" stroke="black" d="M157.64,-129.8C169.67,-136.82 186.64,-145.22 202.99,-148.13 268.36,-159.78 285.88,-152.8 352.27,-154.13 355.27,-154.19 356.02,-154.25 359.02,-154.13 361.11,-154.05 363.26,-153.94 365.43,-153.81"/>
<polygon fill="black" stroke="black" points="365.66,-157.3 375.39,-153.09 365.16,-150.32 365.66,-157.3"/>
<text text-anchor="middle" x="264.63" y="-158.15" font-family="Times New Roman,serif" font-size="14.00">y</text>
</g>
<!-- 4 -->
<g id="node6" class="node">
<title>4</title>
<ellipse fill="none" stroke="black" cx="310.14" cy="-111.13" rx="20.13" ry="20.13"/>
<ellipse fill="none" stroke="black" cx="310.14" cy="-111.13" rx="24.13" ry="24.13"/>
<text text-anchor="middle" x="310.14" y="-106.08" font-family="Times New Roman,serif" font-size="14.00">q7</text>
</g>
<!-- 2&#45;&gt;4 -->
<g id="edge6" class="edge">
<title>2&#45;&gt;4</title>
<path fill="none" stroke="black" d="M240.88,-108.73C247.05,-105.46 254.25,-102.28 261.26,-100.63 266.24,-99.46 271.52,-99.42 276.69,-100.04"/>
<polygon fill="black" stroke="black" points="275.67,-103.4 286.17,-101.97 277.07,-96.54 275.67,-103.4"/>
<text text-anchor="middle" x="264.63" y="-103.83" font-family="Times New Roman,serif" font-size="14.00">y</text>
</g>
<!-- 3&#45;&gt;4 -->
<g id="edge7" class="edge">
<title>3&#45;&gt;4</title>
<path fill="none" stroke="black" d="M385.11,-134.7C378.59,-126.48 369.55,-117.3 359.02,-112.63 354.86,-110.79 350.29,-109.66 345.68,-109.03"/>
<polygon fill="black" stroke="black" points="346.04,-105.55 335.85,-108.46 345.63,-112.54 346.04,-105.55"/>
<text text-anchor="middle" x="355.64" y="-115.83" font-family="Times New Roman,serif" font-size="14.00">z</text>
</g>
<!-- 4&#45;&gt;2 -->
<g id="edge8" class="edge">
<title>4&#45;&gt;2</title>
<path fill="none" stroke="black" d="M286.13,-114.9C280.23,-115.75 273.9,-116.57 268.01,-117.13 263.73,-117.54 259.21,-117.86 254.77,-118.12"/>
<polygon fill="black" stroke="black" points="254.71,-114.62 244.89,-118.6 255.05,-121.61 254.71,-114.62"/>
<text text-anchor="middle" x="264.63" y="-120.84" font-family="Times New Roman,serif" font-size="14.00">x</text>
</g>
<!-- 4&#45;&gt;3 -->
<g id="edge9" class="edge">
<title>4&#45;&gt;3</title>
<path fill="none" stroke="black" d="M332.59,-121.22C343.44,-126.33 356.73,-132.58 368.35,-138.05"/>
<polygon fill="black" stroke="black" points="366.52,-141.06 377.06,-142.15 369.5,-134.73 366.52,-141.06"/>
<text text-anchor="middle" x="355.64" y="-136.73" font-family="Times New Roman,serif" font-size="14.00">y</text>
</g>
<!-- 4&#45;&gt;5 -->
<g id="edge10" class="edge">
<title>4&#45;&gt;5</title>
<path fill="none" stroke="black" d="M330,-97.15C342.21,-88.11 358.22,-76.24 371.43,-66.45"/>
<polygon fill="black" stroke="black" points="373.3,-69.42 379.25,-60.65 369.13,-63.8 373.3,-69.42"/>
<text text-anchor="middle" x="355.64" y="-82.83" font-family="Times New Roman,serif" font-size="14.00">y</text>
</g>
<!-- 5&#45;&gt;5 -->
<g id="edge11" class="edge">
<title>5&#45;&gt;5</title>
<path fill="none" stroke="black" d="M389.69,-66.97C388.42,-77.06 390.91,-86.26 397.15,-86.26 400.86,-86.26 403.24,-83.02 404.3,-78.27"/>
<polygon fill="black" stroke="black" points="407.79,-78.57 404.57,-68.48 400.79,-78.38 407.79,-78.57"/>
<text text-anchor="middle" x="397.15" y="-89.46" font-family="Times New Roman,serif" font-size="14.00">x</text>
</g>
<!-- 6 -->
<g id="node8" class="node">
<title>6</title>
<ellipse fill="none" stroke="black" cx="567.17" cy="-48.13" rx="20.13" ry="20.13"/>
<ellipse fill="none" stroke="black" cx="567.17" cy="-48.13" rx="24.13" ry="24.13"/>
<text text-anchor="middle" x="567.17" y="-43.08" font-family="Times New Roman,serif" font-size="14.00">q6</text>
</g>
<!-- 5&#45;&gt;6 -->
<g id="edge13" class="edge">
<title>5&#45;&gt;6</title>
<path fill="none" stroke="black" d="M416.94,-52.38C422.79,-53.51 429.27,-54.57 435.28,-55.13 475,-58.84 485.27,-57.26 525.04,-54.13 527.26,-53.96 529.53,-53.74 531.82,-53.49"/>
<polygon fill="black" stroke="black" points="532.2,-56.97 541.67,-52.23 531.31,-50.02 532.2,-56.97"/>
<text text-anchor="middle" x="480.16" y="-60.48" font-family="Times New Roman,serif" font-size="14.00">z</text>
</g>
<!-- 7 -->
<g id="node9" class="node">
<title>7</title>
<ellipse fill="none" stroke="black" cx="480.16" cy="-20.13" rx="20.13" ry="20.13"/>
<text text-anchor="middle" x="480.16" y="-15.08" font-family="Times New Roman,serif" font-size="14.00">q5</text>
</g>
<!-- 5&#45;&gt;7 -->
<g id="edge12" class="edge">
<title>5&#45;&gt;7</title>
<path fill="none" stroke="black" d="M416.53,-41.78C426.41,-38.36 438.81,-34.08 449.97,-30.22"/>
<polygon fill="black" stroke="black" points="450.83,-33.63 459.14,-27.05 448.55,-27.01 450.83,-33.63"/>
<text text-anchor="middle" x="438.66" y="-38.17" font-family="Times New Roman,serif" font-size="14.00">x</text>
</g>
<!-- 7&#45;&gt;6 -->
<g id="edge14" class="edge">
<title>7&#45;&gt;6</title>
<path fill="none" stroke="black" d="M499.61,-26.21C509.35,-29.42 521.61,-33.45 532.94,-37.18"/>
<polygon fill="black" stroke="black" points="531.81,-40.5 542.4,-40.3 534,-33.85 531.81,-40.5"/>
<text text-anchor="middle" x="521.67" y="-37.33" font-family="Times New Roman,serif" font-size="14.00">x</text>
</g>
</g>
</svg>
