<?xml version="1.0" encoding="UTF-8" standalone="no"?>
<!DOCTYPE svg PUBLIC "-//W3C//DTD SVG 1.1//EN"
 "http://www.w3.org/Graphics/SVG/1.1/DTD/svg11.dtd">
<!-- Generated by graphviz version 12.1.0 (20240811.2233)
 -->
<!-- Title: G Pages: 1 -->
<svg width="1081pt" height="173pt"
 viewBox="0.00 0.00 1080.69 173.13" xmlns="http://www.w3.org/2000/svg" xmlns:xlink="http://www.w3.org/1999/xlink">
<g id="graph0" class="graph" transform="scale(1 1) rotate(0) translate(4 169.13)">
<title>G</title>
<polygon fill="white" stroke="none" points="-4,4 -4,-169.13 1076.69,-169.13 1076.69,4 -4,4"/>
<!-- n__ -->
<g id="node1" class="node">
<title>n__</title>
</g>
<!-- 0 -->
<g id="node2" class="node">
<title>0</title>
<ellipse fill="none" stroke="black" cx="57.85" cy="-53" rx="20.13" ry="20.13"/>
<text text-anchor="middle" x="57.85" y="-47.95" font-family="Times New Roman,serif" font-size="14.00">q0</text>
</g>
<!-- n__&#45;&gt;0 -->
<g id="edge1" class="edge">
<title>n__&#45;&gt;0</title>
<path fill="none" stroke="black" d="M0.88,-53C2.37,-53 13.93,-53 26.16,-53"/>
<polygon fill="black" stroke="black" points="25.79,-56.5 35.79,-53 25.79,-49.5 25.79,-56.5"/>
</g>
<!-- 2 -->
<g id="node3" class="node">
<title>2</title>
<ellipse fill="none" stroke="black" cx="140.11" cy="-90" rx="20.13" ry="20.13"/>
<text text-anchor="middle" x="140.11" y="-84.95" font-family="Times New Roman,serif" font-size="14.00">q2</text>
</g>
<!-- 0&#45;&gt;2 -->
<g id="edge4" class="edge">
<title>0&#45;&gt;2</title>
<path fill="none" stroke="black" d="M76.66,-61.21C86.74,-65.86 99.58,-71.77 110.99,-77.03"/>
<polygon fill="black" stroke="black" points="109.43,-80.17 119.98,-81.18 112.36,-73.81 109.43,-80.17"/>
<text text-anchor="middle" x="98.98" y="-75.81" font-family="Times New Roman,serif" font-size="14.00">ε</text>
</g>
<!-- 6 -->
<g id="node6" class="node">
<title>6</title>
<ellipse fill="none" stroke="black" cx="387.65" cy="-53" rx="20.13" ry="20.13"/>
<text text-anchor="middle" x="387.65" y="-47.95" font-family="Times New Roman,serif" font-size="14.00">q6</text>
</g>
<!-- 0&#45;&gt;6 -->
<g id="edge5" class="edge">
<title>0&#45;&gt;6</title>
<path fill="none" stroke="black" d="M77.45,-47.13C93.59,-42.57 117.66,-37 139.11,-37 139.11,-37 139.11,-37 306.39,-37 323.48,-37 342.24,-40.53 357.32,-44.28"/>
<polygon fill="black" stroke="black" points="356.02,-47.56 366.58,-46.74 357.82,-40.79 356.02,-47.56"/>
<text text-anchor="middle" x="222.38" y="-40.2" font-family="Times New Roman,serif" font-size="14.00">ε</text>
</g>
<!-- 4 -->
<g id="node4" class="node">
<title>4</title>
<ellipse fill="none" stroke="black" cx="222.38" cy="-145" rx="20.13" ry="20.13"/>
<text text-anchor="middle" x="222.38" y="-139.95" font-family="Times New Roman,serif" font-size="14.00">q4</text>
</g>
<!-- 2&#45;&gt;4 -->
<g id="edge2" class="edge">
<title>2&#45;&gt;4</title>
<path fill="none" stroke="black" d="M157.36,-101.13C168.45,-108.73 183.38,-118.96 196.03,-127.63"/>
<polygon fill="black" stroke="black" points="193.68,-130.27 203.91,-133.03 197.64,-124.49 193.68,-130.27"/>
<text text-anchor="middle" x="181.24" y="-122.35" font-family="Times New Roman,serif" font-size="14.00">a</text>
</g>
<!-- 5 -->
<g id="node5" class="node">
<title>5</title>
<ellipse fill="none" stroke="black" cx="305.39" cy="-90" rx="20.13" ry="20.13"/>
<text text-anchor="middle" x="305.39" y="-84.95" font-family="Times New Roman,serif" font-size="14.00">q5</text>
</g>
<!-- 4&#45;&gt;5 -->
<g id="edge3" class="edge">
<title>4&#45;&gt;5</title>
<path fill="none" stroke="black" d="M239.38,-134.13C250.63,-126.5 265.9,-116.13 278.82,-107.36"/>
<polygon fill="black" stroke="black" points="280.58,-110.39 286.89,-101.88 276.65,-104.6 280.58,-110.39"/>
<text text-anchor="middle" x="263.88" y="-122.35" font-family="Times New Roman,serif" font-size="14.00">b</text>
</g>
<!-- 5&#45;&gt;2 -->
<g id="edge6" class="edge">
<title>5&#45;&gt;2</title>
<path fill="none" stroke="black" d="M284.79,-90C256.75,-90 204.91,-90 171.77,-90"/>
<polygon fill="black" stroke="black" points="172,-86.5 162,-90 172,-93.5 172,-86.5"/>
<text text-anchor="middle" x="222.38" y="-93.2" font-family="Times New Roman,serif" font-size="14.00">ε</text>
</g>
<!-- 5&#45;&gt;6 -->
<g id="edge7" class="edge">
<title>5&#45;&gt;6</title>
<path fill="none" stroke="black" d="M324.2,-81.79C334.28,-77.14 347.11,-71.23 358.52,-65.97"/>
<polygon fill="black" stroke="black" points="359.9,-69.19 367.51,-61.82 356.97,-62.83 359.9,-69.19"/>
<text text-anchor="middle" x="346.52" y="-75.81" font-family="Times New Roman,serif" font-size="14.00">ε</text>
</g>
<!-- 8 -->
<g id="node8" class="node">
<title>8</title>
<ellipse fill="none" stroke="black" cx="469.91" cy="-53" rx="20.13" ry="20.13"/>
<text text-anchor="middle" x="469.91" y="-47.95" font-family="Times New Roman,serif" font-size="14.00">q8</text>
</g>
<!-- 6&#45;&gt;8 -->
<g id="edge17" class="edge">
<title>6&#45;&gt;8</title>
<path fill="none" stroke="black" d="M408.08,-53C417.08,-53 428,-53 438.09,-53"/>
<polygon fill="black" stroke="black" points="437.87,-56.5 447.87,-53 437.87,-49.5 437.87,-56.5"/>
<text text-anchor="middle" x="428.78" y="-56.2" font-family="Times New Roman,serif" font-size="14.00">ε</text>
</g>
<!-- 7 -->
<g id="node7" class="node">
<title>7</title>
<ellipse fill="none" stroke="black" cx="1048.56" cy="-53" rx="20.13" ry="20.13"/>
<ellipse fill="none" stroke="black" cx="1048.56" cy="-53" rx="24.13" ry="24.13"/>
<text text-anchor="middle" x="1048.56" y="-47.95" font-family="Times New Roman,serif" font-size="14.00">q7</text>
</g>
<!-- 10 -->
<g id="node10" class="node">
<title>10</title>
<ellipse fill="none" stroke="black" cx="556.78" cy="-120" rx="24.74" ry="24.74"/>
<text text-anchor="middle" x="556.78" y="-114.95" font-family="Times New Roman,serif" font-size="14.00">q10</text>
</g>
<!-- 8&#45;&gt;10 -->
<g id="edge13" class="edge">
<title>8&#45;&gt;10</title>
<path fill="none" stroke="black" d="M486.48,-65.29C498.1,-74.46 514.28,-87.24 528.09,-98.14"/>
<polygon fill="black" stroke="black" points="525.54,-100.59 535.56,-104.04 529.88,-95.09 525.54,-100.59"/>
<text text-anchor="middle" x="511.04" y="-89.7" font-family="Times New Roman,serif" font-size="14.00">ε</text>
</g>
<!-- 14 -->
<g id="node13" class="node">
<title>14</title>
<ellipse fill="none" stroke="black" cx="556.78" cy="-53" rx="24.74" ry="24.74"/>
<text text-anchor="middle" x="556.78" y="-47.95" font-family="Times New Roman,serif" font-size="14.00">q14</text>
</g>
<!-- 8&#45;&gt;14 -->
<g id="edge14" class="edge">
<title>8&#45;&gt;14</title>
<path fill="none" stroke="black" d="M490.17,-53C499.12,-53 510.07,-53 520.43,-53"/>
<polygon fill="black" stroke="black" points="520.23,-56.5 530.23,-53 520.23,-49.5 520.23,-56.5"/>
<text text-anchor="middle" x="511.04" y="-56.2" font-family="Times New Roman,serif" font-size="14.00">ε</text>
</g>
<!-- 9 -->
<g id="node9" class="node">
<title>9</title>
<ellipse fill="none" stroke="black" cx="962.3" cy="-53" rx="20.13" ry="20.13"/>
<text text-anchor="middle" x="962.3" y="-47.95" font-family="Times New Roman,serif" font-size="14.00">q9</text>
</g>
<!-- 9&#45;&gt;7 -->
<g id="edge19" class="edge">
<title>9&#45;&gt;7</title>
<path fill="none" stroke="black" d="M982.84,-53C991.81,-53 1002.73,-53 1013.01,-53"/>
<polygon fill="black" stroke="black" points="1012.72,-56.5 1022.72,-53 1012.72,-49.5 1012.72,-56.5"/>
<text text-anchor="middle" x="1003.43" y="-56.2" font-family="Times New Roman,serif" font-size="14.00">ε</text>
</g>
<!-- 9&#45;&gt;8 -->
<g id="edge18" class="edge">
<title>9&#45;&gt;8</title>
<path fill="none" stroke="black" d="M948.18,-38.24C932.72,-22.55 905.44,0 876.43,0 555.78,0 555.78,0 555.78,0 531.3,0 508.06,-16.06 492.11,-30.49"/>
<polygon fill="black" stroke="black" points="489.92,-27.74 485.13,-37.19 494.77,-32.79 489.92,-27.74"/>
<text text-anchor="middle" x="694.74" y="-3.2" font-family="Times New Roman,serif" font-size="14.00">ε</text>
</g>
<!-- 12 -->
<g id="node11" class="node">
<title>12</title>
<ellipse fill="none" stroke="black" cx="649.01" cy="-120" rx="24.74" ry="24.74"/>
<text text-anchor="middle" x="649.01" y="-114.95" font-family="Times New Roman,serif" font-size="14.00">q12</text>
</g>
<!-- 10&#45;&gt;12 -->
<g id="edge8" class="edge">
<title>10&#45;&gt;12</title>
<path fill="none" stroke="black" d="M581.96,-120C591.44,-120 602.51,-120 612.84,-120"/>
<polygon fill="black" stroke="black" points="612.56,-123.5 622.56,-120 612.56,-116.5 612.56,-123.5"/>
<text text-anchor="middle" x="602.89" y="-123.2" font-family="Times New Roman,serif" font-size="14.00">b</text>
</g>
<!-- 13 -->
<g id="node12" class="node">
<title>13</title>
<ellipse fill="none" stroke="black" cx="807.96" cy="-118" rx="24.74" ry="24.74"/>
<text text-anchor="middle" x="807.96" y="-112.95" font-family="Times New Roman,serif" font-size="14.00">q13</text>
</g>
<!-- 12&#45;&gt;13 -->
<g id="edge9" class="edge">
<title>12&#45;&gt;13</title>
<path fill="none" stroke="black" d="M674.19,-119.69C700.22,-119.36 741.9,-118.83 771.61,-118.45"/>
<polygon fill="black" stroke="black" points="771.28,-121.95 781.23,-118.33 771.19,-114.96 771.28,-121.95"/>
<text text-anchor="middle" x="694.74" y="-122.66" font-family="Times New Roman,serif" font-size="14.00">c</text>
</g>
<!-- 13&#45;&gt;9 -->
<g id="edge15" class="edge">
<title>13&#45;&gt;9</title>
<path fill="none" stroke="black" d="M832.23,-111.28C850.91,-105.61 877.64,-96.85 900.17,-87 911.28,-82.14 913.55,-79.88 924.17,-74 927.47,-72.17 930.93,-70.24 934.36,-68.31"/>
<polygon fill="black" stroke="black" points="936.02,-71.39 943.01,-63.43 932.58,-65.3 936.02,-71.39"/>
<text text-anchor="middle" x="875.43" y="-108.52" font-family="Times New Roman,serif" font-size="14.00">ε</text>
</g>
<!-- 16 -->
<g id="node14" class="node">
<title>16</title>
<ellipse fill="none" stroke="black" cx="649.01" cy="-53" rx="24.74" ry="24.74"/>
<text text-anchor="middle" x="649.01" y="-47.95" font-family="Times New Roman,serif" font-size="14.00">q16</text>
</g>
<!-- 14&#45;&gt;16 -->
<g id="edge10" class="edge">
<title>14&#45;&gt;16</title>
<path fill="none" stroke="black" d="M581.96,-53C591.44,-53 602.51,-53 612.84,-53"/>
<polygon fill="black" stroke="black" points="612.56,-56.5 622.56,-53 612.56,-49.5 612.56,-56.5"/>
<text text-anchor="middle" x="602.89" y="-56.2" font-family="Times New Roman,serif" font-size="14.00">a</text>
</g>
<!-- 18 -->
<g id="node15" class="node">
<title>18</title>
<ellipse fill="none" stroke="black" cx="740.48" cy="-53" rx="24.74" ry="24.74"/>
<text text-anchor="middle" x="740.48" y="-47.95" font-family="Times New Roman,serif" font-size="14.00">q18</text>
</g>
<!-- 16&#45;&gt;18 -->
<g id="edge11" class="edge">
<title>16&#45;&gt;18</title>
<path fill="none" stroke="black" d="M673.98,-53C683.21,-53 693.95,-53 704.03,-53"/>
<polygon fill="black" stroke="black" points="703.92,-56.5 713.92,-53 703.92,-49.5 703.92,-56.5"/>
<text text-anchor="middle" x="694.74" y="-56.2" font-family="Times New Roman,serif" font-size="14.00">c</text>
</g>
<!-- 19 -->
<g id="node16" class="node">
<title>19</title>
<ellipse fill="none" stroke="black" cx="875.43" cy="-53" rx="24.74" ry="24.74"/>
<text text-anchor="middle" x="875.43" y="-47.95" font-family="Times New Roman,serif" font-size="14.00">q19</text>
</g>
<!-- 18&#45;&gt;19 -->
<g id="edge12" class="edge">
<title>18&#45;&gt;19</title>
<path fill="none" stroke="black" d="M765.56,-53C786.07,-53 815.84,-53 839.07,-53"/>
<polygon fill="black" stroke="black" points="839.02,-56.5 849.02,-53 839.02,-49.5 839.02,-56.5"/>
<text text-anchor="middle" x="807.96" y="-56.2" font-family="Times New Roman,serif" font-size="14.00">b</text>
</g>
<!-- 19&#45;&gt;9 -->
<g id="edge16" class="edge">
<title>19&#45;&gt;9</title>
<path fill="none" stroke="black" d="M900.52,-53C909.79,-53 920.5,-53 930.33,-53"/>
<polygon fill="black" stroke="black" points="930.2,-56.5 940.2,-53 930.2,-49.5 930.2,-56.5"/>
<text text-anchor="middle" x="921.17" y="-56.2" font-family="Times New Roman,serif" font-size="14.00">ε</text>
</g>
</g>
</svg>
