<?xml version="1.0" encoding="UTF-8" standalone="no"?>
<!DOCTYPE svg PUBLIC "-//W3C//DTD SVG 1.1//EN"
 "http://www.w3.org/Graphics/SVG/1.1/DTD/svg11.dtd">
<!-- Generated by graphviz version 12.1.0 (20240811.2233)
 -->
<!-- Title: G Pages: 1 -->
<svg width="1081pt" height="173pt"
 viewBox="0.00 0.00 1080.69 173.13" xmlns="http://www.w3.org/2000/svg" xmlns:xlink="http://www.w3.org/1999/xlink">
<g id="graph0" class="graph" transform="scale(1 1) rotate(0) translate(4 169.13)">
<title>G</title>
<polygon fill="white" stroke="none" points="-4,4 -4,-169.13 1076.69,-169.13 1076.69,4 -4,4"/>
<!-- n__ -->
<g id="node1" class="node">
<title>n__</title>
</g>
<!-- 0 -->
<g id="node2" class="node">
<title>0</title>
<ellipse fill="none" stroke="black" cx="57.85" cy="-53" rx="20.13" ry="20.13"/>
<text text-anchor="middle" x="57.85" y="-47.95" font-family="Times New Roman,serif" font-size="14.00">q0</text>
</g>
<!-- n__&#45;&gt;0 -->
<g id="edge1" class="edge">
<title>n__&#45;&gt;0</title>
<path fill="none" stroke="black" d="M0.88,-53C2.37,-53 13.93,-53 26.16,-53"/>
<polygon fill="black" stroke="black" points="25.79,-56.5 35.79,-53 25.79,-49.5 25.79,-56.5"/>
</g>
<!-- 2 -->
<g id="node3" class="node">
<title>2</title>
<ellipse fill="none" stroke="black" cx="140.11" cy="-90" rx="20.13" ry="20.13"/>
<text text-anchor="middle" x="140.11" y="-84.95" font-family="Times New Roman,serif" font-size="14.00">q1</text>
</g>
<!-- 0&#45;&gt;2 -->
<g id="edge4" class="edge">
<title>0&#45;&gt;2</title>
<path fill="none" stroke="black" d="M76.66,-61.21C86.74,-65.86 99.58,-71.77 110.99,-77.03"/>
<polygon fill="black" stroke="black" points="109.43,-80.17 119.98,-81.18 112.36,-73.81 109.43,-80.17"/>
<text text-anchor="middle" x="98.98" y="-75.81" font-family="Times New Roman,serif" font-size="14.00">ε</text>
</g>
<!-- 6 -->
<g id="node6" class="node">
<title>6</title>
<ellipse fill="none" stroke="black" cx="387.65" cy="-53" rx="20.13" ry="20.13"/>
<text text-anchor="middle" x="387.65" y="-47.95" font-family="Times New Roman,serif" font-size="14.00">q2</text>
</g>
<!-- 0&#45;&gt;6 -->
<g id="edge5" class="edge">
<title>0&#45;&gt;6</title>
<path fill="none" stroke="black" d="M77.45,-47.13C93.59,-42.57 117.66,-37 139.11,-37 139.11,-37 139.11,-37 306.39,-37 323.48,-37 342.24,-40.53 357.32,-44.28"/>
<polygon fill="black" stroke="black" points="356.02,-47.56 366.58,-46.74 357.82,-40.79 356.02,-47.56"/>
<text text-anchor="middle" x="222.38" y="-40.2" font-family="Times New Roman,serif" font-size="14.00">ε</text>
</g>
<!-- 4 -->
<g id="node4" class="node">
<title>4</title>
<ellipse fill="none" stroke="black" cx="222.38" cy="-145" rx="20.13" ry="20.13"/>
<text text-anchor="middle" x="222.38" y="-139.95" font-family="Times New Roman,serif" font-size="14.00">q3</text>
</g>
<!-- 2&#45;&gt;4 -->
<g id="edge2" class="edge">
<title>2&#45;&gt;4</title>
<path fill="none" stroke="black" d="M157.36,-101.13C168.45,-108.73 183.38,-118.96 196.03,-127.63"/>
<polygon fill="black" stroke="black" points="193.68,-130.27 203.91,-133.03 197.64,-124.49 193.68,-130.27"/>
<text text-anchor="middle" x="181.24" y="-122.35" font-family="Times New Roman,serif" font-size="14.00">a</text>
</g>
<!-- 5 -->
<g id="node5" class="node">
<title>5</title>
<ellipse fill="none" stroke="black" cx="305.39" cy="-90" rx="20.13" ry="20.13"/>
<text text-anchor="middle" x="305.39" y="-84.95" font-family="Times New Roman,serif" font-size="14.00">q5</text>
</g>
<!-- 4&#45;&gt;5 -->
<g id="edge3" class="edge">
<title>4&#45;&gt;5</title>
<path fill="none" stroke="black" d="M239.38,-134.13C250.63,-126.5 265.9,-116.13 278.82,-107.36"/>
<polygon fill="black" stroke="black" points="280.58,-110.39 286.89,-101.88 276.65,-104.6 280.58,-110.39"/>
<text text-anchor="middle" x="263.88" y="-122.35" font-family="Times New Roman,serif" font-size="14.00">b</text>
</g>
<!-- 5&#45;&gt;2 -->
<g id="edge6" class="edge">
<title>5&#45;&gt;2</title>
<path fill="none" stroke="black" d="M284.79,-90C256.75,-90 204.91,-90 171.77,-90"/>
<polygon fill="black" stroke="black" points="172,-86.5 162,-90 172,-93.5 172,-86.5"/>
<text text-anchor="middle" x="222.38" y="-93.2" font-family="Times New Roman,serif" font-size="14.00">ε</text>
</g>
<!-- 5&#45;&gt;6 -->
<g id="edge7" class="edge">
<title>5&#45;&gt;6</title>
<path fill="none" stroke="black" d="M324.2,-81.79C334.28,-77.14 347.11,-71.23 358.52,-65.97"/>
<polygon fill="black" stroke="black" points="359.9,-69.19 367.51,-61.82 356.97,-62.83 359.9,-69.19"/>
<text text-anchor="middle" x="346.52" y="-75.81" font-family="Times New Roman,serif" font-size="14.00">ε</text>
</g>
<!-- 8 -->
<g id="node8" class="node">
<title>8</title>
<ellipse fill="none" stroke="black" cx="469.91" cy="-53" rx="20.13" ry="20.13"/>
<text text-anchor="middle" x="469.91" y="-47.95" font-family="Times New Roman,serif" font-size="14.00">q4</text>
</g>
<!-- 6&#45;&gt;8 -->
<g id="edge17" class="edge">
<title>6&#45;&gt;8</title>
<path fill="none" stroke="black" d="M408.08,-53C417.08,-53 428,-53 438.09,-53"/>
<polygon fill="black" stroke="black" points="437.87,-56.5 447.87,-53 437.87,-49.5 437.87,-56.5"/>
<text text-anchor="middle" x="428.78" y="-56.2" font-family="Times New Roman,serif" font-size="14.00">ε</text>
</g>
<!-- 7 -->
<g id="node7" class="node">
<title>7</title>
<ellipse fill="none" stroke="black" cx="1043.95" cy="-53" rx="24.74" ry="24.74"/>
<ellipse fill="none" stroke="black" cx="1043.95" cy="-53" rx="28.74" ry="28.74"/>
<text text-anchor="middle" x="1043.95" y="-47.95" font-family="Times New Roman,serif" font-size="14.00">q14</text>
</g>
<!-- 10 -->
<g id="node10" class="node">
<title>10</title>
<ellipse fill="none" stroke="black" cx="552.17" cy="-111" rx="20.13" ry="20.13"/>
<text text-anchor="middle" x="552.17" y="-105.95" font-family="Times New Roman,serif" font-size="14.00">q6</text>
</g>
<!-- 8&#45;&gt;10 -->
<g id="edge13" class="edge">
<title>8&#45;&gt;10</title>
<path fill="none" stroke="black" d="M486.77,-64.46C497.98,-72.56 513.25,-83.59 526.1,-92.88"/>
<polygon fill="black" stroke="black" points="523.97,-95.66 534.12,-98.68 528.07,-89.98 523.97,-95.66"/>
<text text-anchor="middle" x="511.04" y="-86.94" font-family="Times New Roman,serif" font-size="14.00">ε</text>
</g>
<!-- 14 -->
<g id="node13" class="node">
<title>14</title>
<ellipse fill="none" stroke="black" cx="552.17" cy="-53" rx="20.13" ry="20.13"/>
<text text-anchor="middle" x="552.17" y="-47.95" font-family="Times New Roman,serif" font-size="14.00">q7</text>
</g>
<!-- 8&#45;&gt;14 -->
<g id="edge14" class="edge">
<title>8&#45;&gt;14</title>
<path fill="none" stroke="black" d="M490.34,-53C499.34,-53 510.26,-53 520.35,-53"/>
<polygon fill="black" stroke="black" points="520.13,-56.5 530.13,-53 520.13,-49.5 520.13,-56.5"/>
<text text-anchor="middle" x="511.04" y="-56.2" font-family="Times New Roman,serif" font-size="14.00">ε</text>
</g>
<!-- 9 -->
<g id="node9" class="node">
<title>9</title>
<ellipse fill="none" stroke="black" cx="948.48" cy="-53" rx="24.74" ry="24.74"/>
<text text-anchor="middle" x="948.48" y="-47.95" font-family="Times New Roman,serif" font-size="14.00">q12</text>
</g>
<!-- 9&#45;&gt;7 -->
<g id="edge19" class="edge">
<title>9&#45;&gt;7</title>
<path fill="none" stroke="black" d="M973.55,-53C982.75,-53 993.49,-53 1003.74,-53"/>
<polygon fill="black" stroke="black" points="1003.47,-56.5 1013.47,-53 1003.47,-49.5 1003.47,-56.5"/>
<text text-anchor="middle" x="994.22" y="-56.2" font-family="Times New Roman,serif" font-size="14.00">ε</text>
</g>
<!-- 9&#45;&gt;8 -->
<g id="edge18" class="edge">
<title>9&#45;&gt;8</title>
<path fill="none" stroke="black" d="M930.72,-35.65C913.93,-20.19 886.53,0 858,0 551.17,0 551.17,0 551.17,0 528.14,0 506.63,-15.39 491.69,-29.58"/>
<polygon fill="black" stroke="black" points="489.29,-27.02 484.75,-36.59 494.27,-31.94 489.29,-27.02"/>
<text text-anchor="middle" x="676.32" y="-3.2" font-family="Times New Roman,serif" font-size="14.00">ε</text>
</g>
<!-- 12 -->
<g id="node11" class="node">
<title>12</title>
<ellipse fill="none" stroke="black" cx="635.19" cy="-112" rx="20.13" ry="20.13"/>
<text text-anchor="middle" x="635.19" y="-106.95" font-family="Times New Roman,serif" font-size="14.00">q8</text>
</g>
<!-- 10&#45;&gt;12 -->
<g id="edge8" class="edge">
<title>10&#45;&gt;12</title>
<path fill="none" stroke="black" d="M572.79,-111.24C581.94,-111.36 593.06,-111.49 603.3,-111.62"/>
<polygon fill="black" stroke="black" points="603.2,-115.12 613.24,-111.74 603.29,-108.12 603.2,-115.12"/>
<text text-anchor="middle" x="593.68" y="-114.73" font-family="Times New Roman,serif" font-size="14.00">b</text>
</g>
<!-- 13 -->
<g id="node12" class="node">
<title>13</title>
<ellipse fill="none" stroke="black" cx="789.53" cy="-113" rx="24.74" ry="24.74"/>
<text text-anchor="middle" x="789.53" y="-107.95" font-family="Times New Roman,serif" font-size="14.00">q10</text>
</g>
<!-- 12&#45;&gt;13 -->
<g id="edge9" class="edge">
<title>12&#45;&gt;13</title>
<path fill="none" stroke="black" d="M655.79,-112.13C680.34,-112.29 722.84,-112.57 753.14,-112.77"/>
<polygon fill="black" stroke="black" points="752.95,-116.27 762.97,-112.83 753,-109.27 752.95,-116.27"/>
<text text-anchor="middle" x="676.32" y="-115.47" font-family="Times New Roman,serif" font-size="14.00">c</text>
</g>
<!-- 13&#45;&gt;9 -->
<g id="edge15" class="edge">
<title>13&#45;&gt;9</title>
<path fill="none" stroke="black" d="M813.82,-107.73C832.51,-103.17 859.24,-95.92 881.74,-87 893.51,-82.33 905.95,-76.22 916.81,-70.47"/>
<polygon fill="black" stroke="black" points="918.22,-73.69 925.34,-65.85 914.88,-67.54 918.22,-73.69"/>
<text text-anchor="middle" x="857" y="-106.06" font-family="Times New Roman,serif" font-size="14.00">ε</text>
</g>
<!-- 16 -->
<g id="node14" class="node">
<title>16</title>
<ellipse fill="none" stroke="black" cx="635.19" cy="-53" rx="20.13" ry="20.13"/>
<text text-anchor="middle" x="635.19" y="-47.95" font-family="Times New Roman,serif" font-size="14.00">q9</text>
</g>
<!-- 14&#45;&gt;16 -->
<g id="edge10" class="edge">
<title>14&#45;&gt;16</title>
<path fill="none" stroke="black" d="M572.79,-53C581.94,-53 593.06,-53 603.3,-53"/>
<polygon fill="black" stroke="black" points="603.24,-56.5 613.24,-53 603.24,-49.5 603.24,-56.5"/>
<text text-anchor="middle" x="593.68" y="-56.2" font-family="Times New Roman,serif" font-size="14.00">a</text>
</g>
<!-- 18 -->
<g id="node15" class="node">
<title>18</title>
<ellipse fill="none" stroke="black" cx="722.06" cy="-53" rx="24.74" ry="24.74"/>
<text text-anchor="middle" x="722.06" y="-47.95" font-family="Times New Roman,serif" font-size="14.00">q11</text>
</g>
<!-- 16&#45;&gt;18 -->
<g id="edge11" class="edge">
<title>16&#45;&gt;18</title>
<path fill="none" stroke="black" d="M655.44,-53C664.4,-53 675.34,-53 685.7,-53"/>
<polygon fill="black" stroke="black" points="685.5,-56.5 695.5,-53 685.5,-49.5 685.5,-56.5"/>
<text text-anchor="middle" x="676.32" y="-56.2" font-family="Times New Roman,serif" font-size="14.00">c</text>
</g>
<!-- 19 -->
<g id="node16" class="node">
<title>19</title>
<ellipse fill="none" stroke="black" cx="857" cy="-53" rx="24.74" ry="24.74"/>
<text text-anchor="middle" x="857" y="-47.95" font-family="Times New Roman,serif" font-size="14.00">q13</text>
</g>
<!-- 18&#45;&gt;19 -->
<g id="edge12" class="edge">
<title>18&#45;&gt;19</title>
<path fill="none" stroke="black" d="M747.13,-53C767.65,-53 797.42,-53 820.64,-53"/>
<polygon fill="black" stroke="black" points="820.59,-56.5 830.59,-53 820.59,-49.5 820.59,-56.5"/>
<text text-anchor="middle" x="789.53" y="-56.2" font-family="Times New Roman,serif" font-size="14.00">b</text>
</g>
<!-- 19&#45;&gt;9 -->
<g id="edge16" class="edge">
<title>19&#45;&gt;9</title>
<path fill="none" stroke="black" d="M881.98,-53C891.21,-53 901.95,-53 912.03,-53"/>
<polygon fill="black" stroke="black" points="911.92,-56.5 921.92,-53 911.92,-49.5 911.92,-56.5"/>
<text text-anchor="middle" x="902.74" y="-56.2" font-family="Times New Roman,serif" font-size="14.00">ε</text>
</g>
</g>
</svg>
