<?xml version="1.0" encoding="UTF-8" standalone="no"?>
<!DOCTYPE svg PUBLIC "-//W3C//DTD SVG 1.1//EN"
 "http://www.w3.org/Graphics/SVG/1.1/DTD/svg11.dtd">
<!-- Generated by graphviz version 12.1.1 (20240910.0053)
 -->
<!-- Title: G Pages: 1 -->
<svg width="558pt" height="165pt"
 viewBox="0.00 0.00 558.47 165.14" xmlns="http://www.w3.org/2000/svg" xmlns:xlink="http://www.w3.org/1999/xlink">
<g id="graph0" class="graph" transform="scale(1 1) rotate(0) translate(4 161.14)">
<title>G</title>
<polygon fill="white" stroke="none" points="-4,4 -4,-161.14 554.47,-161.14 554.47,4 -4,4"/>
<!-- n__ -->
<g id="node1" class="node">
<title>n__</title>
</g>
<!-- 0 -->
<g id="node2" class="node">
<title>0</title>
<ellipse fill="none" stroke="black" cx="55.72" cy="-117.64" rx="18" ry="18"/>
</g>
<!-- n__&#45;&gt;0 -->
<g id="edge1" class="edge">
<title>n__&#45;&gt;0</title>
<path fill="none" stroke="black" d="M0.87,-117.64C2.34,-117.64 13.93,-117.64 25.99,-117.64"/>
<polygon fill="black" stroke="black" points="25.86,-121.14 35.86,-117.64 25.86,-114.14 25.86,-121.14"/>
</g>
<!-- 2 -->
<g id="node3" class="node">
<title>2</title>
<ellipse fill="none" stroke="black" cx="133.72" cy="-117.64" rx="18" ry="18"/>
</g>
<!-- 0&#45;&gt;2 -->
<g id="edge2" class="edge">
<title>0&#45;&gt;2</title>
<path fill="none" stroke="black" d="M73.97,-117.64C82.84,-117.64 93.9,-117.64 104.02,-117.64"/>
<polygon fill="black" stroke="black" points="103.77,-121.14 113.77,-117.64 103.77,-114.14 103.77,-121.14"/>
<text text-anchor="middle" x="94.72" y="-120.84" font-family="Times New Roman,serif" font-size="14.00">a</text>
</g>
<!-- 3 -->
<g id="node4" class="node">
<title>3</title>
<ellipse fill="none" stroke="black" cx="528.47" cy="-117.64" rx="18" ry="18"/>
<ellipse fill="none" stroke="black" cx="528.47" cy="-117.64" rx="22" ry="22"/>
</g>
<!-- 2&#45;&gt;3 -->
<g id="edge10" class="edge">
<title>2&#45;&gt;3</title>
<path fill="none" stroke="black" d="M150.32,-125.3C165.4,-131.99 189.08,-140.64 210.72,-140.64 210.72,-140.64 210.72,-140.64 447.47,-140.64 464.4,-140.64 482.59,-135.83 497.33,-130.6"/>
<polygon fill="black" stroke="black" points="498.35,-133.96 506.45,-127.14 495.86,-127.42 498.35,-133.96"/>
<text text-anchor="middle" x="329.1" y="-143.84" font-family="Times New Roman,serif" font-size="14.00">ε</text>
</g>
<!-- 4 -->
<g id="node5" class="node">
<title>4</title>
<ellipse fill="none" stroke="black" cx="211.72" cy="-64.64" rx="18" ry="18"/>
</g>
<!-- 2&#45;&gt;4 -->
<g id="edge9" class="edge">
<title>2&#45;&gt;4</title>
<path fill="none" stroke="black" d="M149.02,-107.67C159.67,-100.24 174.46,-89.93 186.89,-81.26"/>
<polygon fill="black" stroke="black" points="188.79,-84.2 194.99,-75.61 184.78,-78.46 188.79,-84.2"/>
<text text-anchor="middle" x="172.72" y="-95.93" font-family="Times New Roman,serif" font-size="14.00">ε</text>
</g>
<!-- 6 -->
<g id="node7" class="node">
<title>6</title>
<ellipse fill="none" stroke="black" cx="289.72" cy="-94.64" rx="18" ry="18"/>
</g>
<!-- 4&#45;&gt;6 -->
<g id="edge5" class="edge">
<title>4&#45;&gt;6</title>
<path fill="none" stroke="black" d="M228.84,-71C238.51,-74.82 251.05,-79.77 262.16,-84.16"/>
<polygon fill="black" stroke="black" points="260.63,-87.32 271.22,-87.73 263.2,-80.81 260.63,-87.32"/>
<text text-anchor="middle" x="250.72" y="-83.74" font-family="Times New Roman,serif" font-size="14.00">ε</text>
</g>
<!-- 8 -->
<g id="node9" class="node">
<title>8</title>
<ellipse fill="none" stroke="black" cx="289.72" cy="-40.64" rx="18" ry="18"/>
</g>
<!-- 4&#45;&gt;8 -->
<g id="edge6" class="edge">
<title>4&#45;&gt;8</title>
<path fill="none" stroke="black" d="M228.47,-56.81C234.4,-54.1 241.27,-51.21 247.72,-49.14 251.84,-47.82 256.26,-46.65 260.61,-45.64"/>
<polygon fill="black" stroke="black" points="261.2,-49.09 270.27,-43.63 259.77,-42.24 261.2,-49.09"/>
<text text-anchor="middle" x="250.72" y="-52.34" font-family="Times New Roman,serif" font-size="14.00">ε</text>
</g>
<!-- 5 -->
<g id="node6" class="node">
<title>5</title>
<ellipse fill="none" stroke="black" cx="446.47" cy="-67.64" rx="18" ry="18"/>
</g>
<!-- 5&#45;&gt;3 -->
<g id="edge12" class="edge">
<title>5&#45;&gt;3</title>
<path fill="none" stroke="black" d="M462.14,-76.81C472.61,-83.35 487,-92.35 499.61,-100.23"/>
<polygon fill="black" stroke="black" points="497.62,-103.11 507.96,-105.44 501.33,-97.18 497.62,-103.11"/>
<text text-anchor="middle" x="485.47" y="-95.84" font-family="Times New Roman,serif" font-size="14.00">ε</text>
</g>
<!-- 5&#45;&gt;4 -->
<g id="edge11" class="edge">
<title>5&#45;&gt;4</title>
<path fill="none" stroke="black" d="M434.94,-53.2C424.38,-40.06 406.79,-21.54 386.47,-13.64 338.93,4.83 319.52,4.15 271.72,-13.64 256.1,-19.46 241.86,-31.47 231.29,-42.38"/>
<polygon fill="black" stroke="black" points="228.82,-39.89 224.65,-49.63 233.99,-44.61 228.82,-39.89"/>
<text text-anchor="middle" x="329.1" y="-3.31" font-family="Times New Roman,serif" font-size="14.00">ε</text>
</g>
<!-- 7 -->
<g id="node8" class="node">
<title>7</title>
<ellipse fill="none" stroke="black" cx="368.47" cy="-94.64" rx="18" ry="18"/>
</g>
<!-- 6&#45;&gt;7 -->
<g id="edge3" class="edge">
<title>6&#45;&gt;7</title>
<path fill="none" stroke="black" d="M308.14,-94.64C317.16,-94.64 328.42,-94.64 338.7,-94.64"/>
<polygon fill="black" stroke="black" points="338.61,-98.14 348.61,-94.64 338.61,-91.14 338.61,-98.14"/>
<text text-anchor="middle" x="329.1" y="-97.84" font-family="Times New Roman,serif" font-size="14.00">b</text>
</g>
<!-- 7&#45;&gt;5 -->
<g id="edge7" class="edge">
<title>7&#45;&gt;5</title>
<path fill="none" stroke="black" d="M385.96,-88.78C395.42,-85.42 407.54,-81.12 418.36,-77.27"/>
<polygon fill="black" stroke="black" points="419.33,-80.64 427.59,-74 416.99,-74.04 419.33,-80.64"/>
<text text-anchor="middle" x="407.47" y="-85.15" font-family="Times New Roman,serif" font-size="14.00">ε</text>
</g>
<!-- 9 -->
<g id="node10" class="node">
<title>9</title>
<ellipse fill="none" stroke="black" cx="368.47" cy="-40.64" rx="18" ry="18"/>
</g>
<!-- 8&#45;&gt;9 -->
<g id="edge4" class="edge">
<title>8&#45;&gt;9</title>
<path fill="none" stroke="black" d="M308.14,-40.64C317.16,-40.64 328.42,-40.64 338.7,-40.64"/>
<polygon fill="black" stroke="black" points="338.61,-44.14 348.61,-40.64 338.61,-37.14 338.61,-44.14"/>
<text text-anchor="middle" x="329.1" y="-43.84" font-family="Times New Roman,serif" font-size="14.00">c</text>
</g>
<!-- 9&#45;&gt;5 -->
<g id="edge8" class="edge">
<title>9&#45;&gt;5</title>
<path fill="none" stroke="black" d="M385.96,-46.5C395.42,-49.86 407.54,-54.16 418.36,-58.01"/>
<polygon fill="black" stroke="black" points="416.99,-61.24 427.59,-61.29 419.33,-54.64 416.99,-61.24"/>
<text text-anchor="middle" x="407.47" y="-58.15" font-family="Times New Roman,serif" font-size="14.00">ε</text>
</g>
</g>
</svg>
