<?xml version="1.0" encoding="UTF-8" standalone="no"?>
<!DOCTYPE svg PUBLIC "-//W3C//DTD SVG 1.1//EN"
 "http://www.w3.org/Graphics/SVG/1.1/DTD/svg11.dtd">
<!-- Generated by graphviz version 12.1.0 (20240811.2233)
 -->
<!-- Title: G Pages: 1 -->
<svg width="1807pt" height="431pt"
 viewBox="0.00 0.00 1807.03 430.50" xmlns="http://www.w3.org/2000/svg" xmlns:xlink="http://www.w3.org/1999/xlink">
<g id="graph0" class="graph" transform="scale(1 1) rotate(0) translate(4 426.5)">
<title>G</title>
<polygon fill="white" stroke="none" points="-4,4 -4,-426.5 1803.03,-426.5 1803.03,4 -4,4"/>
<!-- n__ -->
<g id="node1" class="node">
<title>n__</title>
</g>
<!-- 0 -->
<g id="node2" class="node">
<title>0</title>
<ellipse fill="none" stroke="black" cx="57.85" cy="-362" rx="20.13" ry="20.13"/>
<text text-anchor="middle" x="57.85" y="-356.95" font-family="Times New Roman,serif" font-size="14.00">q0</text>
</g>
<!-- n__&#45;&gt;0 -->
<g id="edge1" class="edge">
<title>n__&#45;&gt;0</title>
<path fill="none" stroke="black" d="M0.88,-362C2.37,-362 13.93,-362 26.16,-362"/>
<polygon fill="black" stroke="black" points="25.79,-365.5 35.79,-362 25.79,-358.5 25.79,-365.5"/>
</g>
<!-- 1 -->
<g id="node3" class="node">
<title>1</title>
<ellipse fill="none" stroke="black" cx="1774.9" cy="-382" rx="20.13" ry="20.13"/>
<ellipse fill="none" stroke="black" cx="1774.9" cy="-382" rx="24.13" ry="24.13"/>
<text text-anchor="middle" x="1774.9" y="-376.95" font-family="Times New Roman,serif" font-size="14.00">q2</text>
</g>
<!-- 0&#45;&gt;1 -->
<g id="edge31" class="edge">
<title>0&#45;&gt;1</title>
<path fill="none" stroke="black" d="M73.24,-375.68C88.38,-388.6 113.53,-406 139.11,-406 139.11,-406 139.11,-406 1689.63,-406 1707.38,-406 1726.46,-401.01 1741.96,-395.59"/>
<polygon fill="black" stroke="black" points="1742.99,-398.94 1751.13,-392.15 1740.54,-392.38 1742.99,-398.94"/>
<text text-anchor="middle" x="921.92" y="-409.2" font-family="Times New Roman,serif" font-size="14.00">ε</text>
</g>
<!-- 2 -->
<g id="node4" class="node">
<title>2</title>
<ellipse fill="none" stroke="black" cx="140.11" cy="-319" rx="20.13" ry="20.13"/>
<text text-anchor="middle" x="140.11" y="-313.95" font-family="Times New Roman,serif" font-size="14.00">q1</text>
</g>
<!-- 0&#45;&gt;2 -->
<g id="edge30" class="edge">
<title>0&#45;&gt;2</title>
<path fill="none" stroke="black" d="M75.87,-352.88C86.34,-347.27 99.98,-339.97 111.91,-333.57"/>
<polygon fill="black" stroke="black" points="113.34,-336.78 120.51,-328.97 110.04,-330.61 113.34,-336.78"/>
<text text-anchor="middle" x="98.98" y="-344.99" font-family="Times New Roman,serif" font-size="14.00">ε</text>
</g>
<!-- 4 -->
<g id="node6" class="node">
<title>4</title>
<ellipse fill="none" stroke="black" cx="222.38" cy="-358" rx="20.13" ry="20.13"/>
<text text-anchor="middle" x="222.38" y="-352.95" font-family="Times New Roman,serif" font-size="14.00">q3</text>
</g>
<!-- 2&#45;&gt;4 -->
<g id="edge26" class="edge">
<title>2&#45;&gt;4</title>
<path fill="none" stroke="black" d="M158.53,-327.46C168.77,-332.44 181.94,-338.84 193.58,-344.5"/>
<polygon fill="black" stroke="black" points="191.83,-347.54 202.36,-348.76 194.89,-341.24 191.83,-347.54"/>
<text text-anchor="middle" x="181.24" y="-342.87" font-family="Times New Roman,serif" font-size="14.00">ε</text>
</g>
<!-- 6 -->
<g id="node8" class="node">
<title>6</title>
<ellipse fill="none" stroke="black" cx="222.38" cy="-300" rx="20.13" ry="20.13"/>
<text text-anchor="middle" x="222.38" y="-294.95" font-family="Times New Roman,serif" font-size="14.00">q4</text>
</g>
<!-- 2&#45;&gt;6 -->
<g id="edge27" class="edge">
<title>2&#45;&gt;6</title>
<path fill="none" stroke="black" d="M160.13,-314.5C169.53,-312.27 181.08,-309.54 191.62,-307.04"/>
<polygon fill="black" stroke="black" points="192.09,-310.53 201.02,-304.82 190.48,-303.72 192.09,-310.53"/>
<text text-anchor="middle" x="181.24" y="-313.27" font-family="Times New Roman,serif" font-size="14.00">ε</text>
</g>
<!-- 3 -->
<g id="node5" class="node">
<title>3</title>
<ellipse fill="none" stroke="black" cx="1688.63" cy="-347" rx="20.13" ry="20.13"/>
<text text-anchor="middle" x="1688.63" y="-341.95" font-family="Times New Roman,serif" font-size="14.00">q8</text>
</g>
<!-- 3&#45;&gt;1 -->
<g id="edge33" class="edge">
<title>3&#45;&gt;1</title>
<path fill="none" stroke="black" d="M1707.5,-354.42C1717.49,-358.57 1730.24,-363.86 1741.88,-368.7"/>
<polygon fill="black" stroke="black" points="1740.19,-371.79 1750.76,-372.39 1742.87,-365.32 1740.19,-371.79"/>
<text text-anchor="middle" x="1729.77" y="-367.7" font-family="Times New Roman,serif" font-size="14.00">ε</text>
</g>
<!-- 3&#45;&gt;2 -->
<g id="edge32" class="edge">
<title>3&#45;&gt;2</title>
<path fill="none" stroke="black" d="M1687.31,-326.59C1685.61,-252.21 1674.85,0 1607.37,0 221.38,0 221.38,0 221.38,0 162.57,0 146.44,-206.42 142.38,-287.16"/>
<polygon fill="black" stroke="black" points="138.88,-286.89 141.91,-297.05 145.88,-287.22 138.88,-286.89"/>
<text text-anchor="middle" x="921.92" y="-3.2" font-family="Times New Roman,serif" font-size="14.00">ε</text>
</g>
<!-- 5 -->
<g id="node7" class="node">
<title>5</title>
<ellipse fill="none" stroke="black" cx="363.65" cy="-368" rx="20.13" ry="20.13"/>
<text text-anchor="middle" x="363.65" y="-362.95" font-family="Times New Roman,serif" font-size="14.00">q5</text>
</g>
<!-- 4&#45;&gt;5 -->
<g id="edge2" class="edge">
<title>4&#45;&gt;5</title>
<path fill="none" stroke="black" d="M242.74,-359.39C265.92,-361.05 305.01,-363.86 332.23,-365.82"/>
<polygon fill="black" stroke="black" points="331.71,-369.29 341.94,-366.51 332.22,-362.31 331.71,-369.29"/>
<text text-anchor="middle" x="263.88" y="-364.31" font-family="Times New Roman,serif" font-size="14.00">0</text>
</g>
<!-- 5&#45;&gt;3 -->
<g id="edge28" class="edge">
<title>5&#45;&gt;3</title>
<path fill="none" stroke="black" d="M384.05,-368C403.71,-368 434.99,-368 462.04,-368 462.04,-368 462.04,-368 1607.37,-368 1624.82,-368 1643.72,-363.3 1658.8,-358.35"/>
<polygon fill="black" stroke="black" points="1659.8,-361.7 1668.07,-355.08 1657.47,-355.1 1659.8,-361.7"/>
<text text-anchor="middle" x="1013.77" y="-371.2" font-family="Times New Roman,serif" font-size="14.00">ε</text>
</g>
<!-- 7 -->
<g id="node9" class="node">
<title>7</title>
<ellipse fill="none" stroke="black" cx="1606.37" cy="-320" rx="20.13" ry="20.13"/>
<text text-anchor="middle" x="1606.37" y="-314.95" font-family="Times New Roman,serif" font-size="14.00">q7</text>
</g>
<!-- 6&#45;&gt;7 -->
<g id="edge23" class="edge">
<title>6&#45;&gt;7</title>
<path fill="none" stroke="black" d="M240.09,-310.16C256.03,-318.86 280.99,-330 304.39,-330 304.39,-330 304.39,-330 1520.5,-330 1538.77,-330 1559.1,-327.69 1575.28,-325.29"/>
<polygon fill="black" stroke="black" points="1575.41,-328.81 1584.74,-323.79 1574.32,-321.89 1575.41,-328.81"/>
<text text-anchor="middle" x="921.92" y="-333.2" font-family="Times New Roman,serif" font-size="14.00">ε</text>
</g>
<!-- 8 -->
<g id="node10" class="node">
<title>8</title>
<ellipse fill="none" stroke="black" cx="305.39" cy="-110" rx="20.13" ry="20.13"/>
<text text-anchor="middle" x="305.39" y="-104.95" font-family="Times New Roman,serif" font-size="14.00">q6</text>
</g>
<!-- 6&#45;&gt;8 -->
<g id="edge22" class="edge">
<title>6&#45;&gt;8</title>
<path fill="none" stroke="black" d="M231.29,-281.44C245.45,-248.22 275.22,-178.41 292.07,-138.88"/>
<polygon fill="black" stroke="black" points="295.26,-140.32 295.97,-129.75 288.82,-137.58 295.26,-140.32"/>
<text text-anchor="middle" x="263.88" y="-213.9" font-family="Times New Roman,serif" font-size="14.00">ε</text>
</g>
<!-- 7&#45;&gt;3 -->
<g id="edge29" class="edge">
<title>7&#45;&gt;3</title>
<path fill="none" stroke="black" d="M1625.99,-326.26C1635.61,-329.5 1647.58,-333.53 1658.4,-337.17"/>
<polygon fill="black" stroke="black" points="1657.09,-340.42 1667.69,-340.29 1659.32,-333.78 1657.09,-340.42"/>
<text text-anchor="middle" x="1647.5" y="-337.51" font-family="Times New Roman,serif" font-size="14.00">ε</text>
</g>
<!-- 10 -->
<g id="node11" class="node">
<title>10</title>
<ellipse fill="none" stroke="black" cx="421.91" cy="-110" rx="20.13" ry="20.13"/>
<text text-anchor="middle" x="421.91" y="-104.95" font-family="Times New Roman,serif" font-size="14.00">q9</text>
</g>
<!-- 8&#45;&gt;10 -->
<g id="edge3" class="edge">
<title>8&#45;&gt;10</title>
<path fill="none" stroke="black" d="M325.82,-110C343.42,-110 369.66,-110 390.12,-110"/>
<polygon fill="black" stroke="black" points="389.88,-113.5 399.88,-110 389.88,-106.5 389.88,-113.5"/>
<text text-anchor="middle" x="363.65" y="-113.2" font-family="Times New Roman,serif" font-size="14.00">1</text>
</g>
<!-- 12 -->
<g id="node12" class="node">
<title>12</title>
<ellipse fill="none" stroke="black" cx="508.78" cy="-133" rx="24.74" ry="24.74"/>
<text text-anchor="middle" x="508.78" y="-127.95" font-family="Times New Roman,serif" font-size="14.00">q10</text>
</g>
<!-- 10&#45;&gt;12 -->
<g id="edge17" class="edge">
<title>10&#45;&gt;12</title>
<path fill="none" stroke="black" d="M441.75,-115.1C451.1,-117.64 462.69,-120.78 473.54,-123.72"/>
<polygon fill="black" stroke="black" points="472.43,-127.04 482.99,-126.28 474.26,-120.29 472.43,-127.04"/>
<text text-anchor="middle" x="463.04" y="-124.7" font-family="Times New Roman,serif" font-size="14.00">ε</text>
</g>
<!-- 26 -->
<g id="node22" class="node">
<title>26</title>
<ellipse fill="none" stroke="black" cx="1427.28" cy="-103" rx="24.74" ry="24.74"/>
<text text-anchor="middle" x="1427.28" y="-97.95" font-family="Times New Roman,serif" font-size="14.00">q11</text>
</g>
<!-- 10&#45;&gt;26 -->
<g id="edge18" class="edge">
<title>10&#45;&gt;26</title>
<path fill="none" stroke="black" d="M439.85,-100.18C456.55,-91.43 483.09,-80 507.78,-80 507.78,-80 507.78,-80 1336.8,-80 1355.83,-80 1376.44,-84.94 1393.07,-90.24"/>
<polygon fill="black" stroke="black" points="1391.86,-93.52 1402.45,-93.42 1394.11,-86.89 1391.86,-93.52"/>
<text text-anchor="middle" x="921.92" y="-83.2" font-family="Times New Roman,serif" font-size="14.00">ε</text>
</g>
<!-- 14 -->
<g id="node13" class="node">
<title>14</title>
<ellipse fill="none" stroke="black" cx="601.01" cy="-173" rx="24.74" ry="24.74"/>
<text text-anchor="middle" x="601.01" y="-167.95" font-family="Times New Roman,serif" font-size="14.00">q12</text>
</g>
<!-- 12&#45;&gt;14 -->
<g id="edge4" class="edge">
<title>12&#45;&gt;14</title>
<path fill="none" stroke="black" d="M531.62,-142.68C542.4,-147.46 555.63,-153.32 567.56,-158.62"/>
<polygon fill="black" stroke="black" points="566.11,-161.8 576.67,-162.65 568.95,-155.4 566.11,-161.8"/>
<text text-anchor="middle" x="554.89" y="-157.4" font-family="Times New Roman,serif" font-size="14.00">0</text>
</g>
<!-- 16 -->
<g id="node14" class="node">
<title>16</title>
<ellipse fill="none" stroke="black" cx="692.48" cy="-219" rx="24.74" ry="24.74"/>
<text text-anchor="middle" x="692.48" y="-213.95" font-family="Times New Roman,serif" font-size="14.00">q14</text>
</g>
<!-- 14&#45;&gt;16 -->
<g id="edge6" class="edge">
<title>14&#45;&gt;16</title>
<path fill="none" stroke="black" d="M623.21,-183.9C634.16,-189.53 647.74,-196.51 659.9,-202.77"/>
<polygon fill="black" stroke="black" points="658.28,-205.87 668.77,-207.33 661.48,-199.64 658.28,-205.87"/>
<text text-anchor="middle" x="646.74" y="-200.58" font-family="Times New Roman,serif" font-size="14.00">ε</text>
</g>
<!-- 18 -->
<g id="node16" class="node">
<title>18</title>
<ellipse fill="none" stroke="black" cx="876.18" cy="-183" rx="24.74" ry="24.74"/>
<text text-anchor="middle" x="876.18" y="-177.95" font-family="Times New Roman,serif" font-size="14.00">q15</text>
</g>
<!-- 14&#45;&gt;18 -->
<g id="edge7" class="edge">
<title>14&#45;&gt;18</title>
<path fill="none" stroke="black" d="M625.77,-173.87C674,-175.64 783.59,-179.65 840.07,-181.71"/>
<polygon fill="black" stroke="black" points="839.64,-185.2 849.76,-182.07 839.9,-178.21 839.64,-185.2"/>
<text text-anchor="middle" x="738.59" y="-181.32" font-family="Times New Roman,serif" font-size="14.00">ε</text>
</g>
<!-- 17 -->
<g id="node15" class="node">
<title>17</title>
<ellipse fill="none" stroke="black" cx="784.71" cy="-219" rx="24.74" ry="24.74"/>
<text text-anchor="middle" x="784.71" y="-213.95" font-family="Times New Roman,serif" font-size="14.00">q16</text>
</g>
<!-- 16&#45;&gt;17 -->
<g id="edge5" class="edge">
<title>16&#45;&gt;17</title>
<path fill="none" stroke="black" d="M716.19,-226.78C722.3,-228.52 728.95,-230.12 735.22,-231 740.28,-231.71 745.59,-231.46 750.75,-230.65"/>
<polygon fill="black" stroke="black" points="751.25,-234.13 760.21,-228.48 749.68,-227.31 751.25,-234.13"/>
<text text-anchor="middle" x="738.59" y="-234.62" font-family="Times New Roman,serif" font-size="14.00">1</text>
</g>
<!-- 17&#45;&gt;16 -->
<g id="edge8" class="edge">
<title>17&#45;&gt;16</title>
<path fill="none" stroke="black" d="M760.62,-212.32C752.61,-210.71 743.55,-209.66 735.22,-210.5 732.86,-210.74 730.44,-211.05 728.01,-211.41"/>
<polygon fill="black" stroke="black" points="727.48,-207.95 718.24,-213.14 728.7,-214.84 727.48,-207.95"/>
<text text-anchor="middle" x="738.59" y="-213.7" font-family="Times New Roman,serif" font-size="14.00">ε</text>
</g>
<!-- 17&#45;&gt;18 -->
<g id="edge9" class="edge">
<title>17&#45;&gt;18</title>
<path fill="none" stroke="black" d="M807.82,-210.1C818.18,-205.94 830.72,-200.89 842.17,-196.28"/>
<polygon fill="black" stroke="black" points="843.32,-199.59 851.29,-192.61 840.71,-193.1 843.32,-199.59"/>
<text text-anchor="middle" x="830.44" y="-205.28" font-family="Times New Roman,serif" font-size="14.00">ε</text>
</g>
<!-- 20 -->
<g id="node17" class="node">
<title>20</title>
<ellipse fill="none" stroke="black" cx="967.65" cy="-218" rx="24.74" ry="24.74"/>
<text text-anchor="middle" x="967.65" y="-212.95" font-family="Times New Roman,serif" font-size="14.00">q17</text>
</g>
<!-- 18&#45;&gt;20 -->
<g id="edge12" class="edge">
<title>18&#45;&gt;20</title>
<path fill="none" stroke="black" d="M899.76,-191.83C910.04,-195.85 922.4,-200.69 933.69,-205.11"/>
<polygon fill="black" stroke="black" points="932.09,-208.24 942.67,-208.62 934.64,-201.72 932.09,-208.24"/>
<text text-anchor="middle" x="921.92" y="-204.75" font-family="Times New Roman,serif" font-size="14.00">ε</text>
</g>
<!-- 24 -->
<g id="node20" class="node">
<title>24</title>
<ellipse fill="none" stroke="black" cx="1243.58" cy="-172" rx="24.74" ry="24.74"/>
<text text-anchor="middle" x="1243.58" y="-166.95" font-family="Times New Roman,serif" font-size="14.00">q18</text>
</g>
<!-- 18&#45;&gt;24 -->
<g id="edge13" class="edge">
<title>18&#45;&gt;24</title>
<path fill="none" stroke="black" d="M900.1,-175.78C918.03,-170.77 943.68,-165 966.65,-165 966.65,-165 966.65,-165 1153.1,-165 1171.03,-165 1190.92,-166.41 1207.39,-167.97"/>
<polygon fill="black" stroke="black" points="1206.89,-171.44 1217.19,-168.96 1207.59,-164.47 1206.89,-171.44"/>
<text text-anchor="middle" x="1059.88" y="-168.2" font-family="Times New Roman,serif" font-size="14.00">ε</text>
</g>
<!-- 22 -->
<g id="node18" class="node">
<title>22</title>
<ellipse fill="none" stroke="black" cx="1059.88" cy="-277" rx="24.74" ry="24.74"/>
<text text-anchor="middle" x="1059.88" y="-271.95" font-family="Times New Roman,serif" font-size="14.00">q19</text>
</g>
<!-- 20&#45;&gt;22 -->
<g id="edge10" class="edge">
<title>20&#45;&gt;22</title>
<path fill="none" stroke="black" d="M988.68,-231.09C1000.63,-238.91 1016.02,-248.97 1029.34,-257.68"/>
<polygon fill="black" stroke="black" points="1027.05,-260.37 1037.33,-262.91 1030.88,-254.51 1027.05,-260.37"/>
<text text-anchor="middle" x="1013.77" y="-252.47" font-family="Times New Roman,serif" font-size="14.00">0</text>
</g>
<!-- 23 -->
<g id="node19" class="node">
<title>23</title>
<ellipse fill="none" stroke="black" cx="1152.1" cy="-218" rx="24.74" ry="24.74"/>
<text text-anchor="middle" x="1152.1" y="-212.95" font-family="Times New Roman,serif" font-size="14.00">q21</text>
</g>
<!-- 22&#45;&gt;23 -->
<g id="edge11" class="edge">
<title>22&#45;&gt;23</title>
<path fill="none" stroke="black" d="M1080.9,-263.91C1092.85,-256.09 1108.24,-246.03 1121.57,-237.32"/>
<polygon fill="black" stroke="black" points="1123.1,-240.49 1129.56,-232.09 1119.27,-234.63 1123.1,-240.49"/>
<text text-anchor="middle" x="1105.99" y="-252.47" font-family="Times New Roman,serif" font-size="14.00">0</text>
</g>
<!-- 23&#45;&gt;20 -->
<g id="edge14" class="edge">
<title>23&#45;&gt;20</title>
<path fill="none" stroke="black" d="M1127.07,-218C1095.72,-218 1040.63,-218 1004.39,-218"/>
<polygon fill="black" stroke="black" points="1004.4,-214.5 994.4,-218 1004.4,-221.5 1004.4,-214.5"/>
<text text-anchor="middle" x="1059.88" y="-221.2" font-family="Times New Roman,serif" font-size="14.00">ε</text>
</g>
<!-- 23&#45;&gt;24 -->
<g id="edge15" class="edge">
<title>23&#45;&gt;24</title>
<path fill="none" stroke="black" d="M1174.31,-207.1C1185.26,-201.47 1198.84,-194.49 1211,-188.23"/>
<polygon fill="black" stroke="black" points="1212.58,-191.36 1219.87,-183.67 1209.38,-185.13 1212.58,-191.36"/>
<text text-anchor="middle" x="1197.84" y="-199.58" font-family="Times New Roman,serif" font-size="14.00">ε</text>
</g>
<!-- 25 -->
<g id="node21" class="node">
<title>25</title>
<ellipse fill="none" stroke="black" cx="1335.8" cy="-133" rx="24.74" ry="24.74"/>
<text text-anchor="middle" x="1335.8" y="-127.95" font-family="Times New Roman,serif" font-size="14.00">q20</text>
</g>
<!-- 24&#45;&gt;25 -->
<g id="edge16" class="edge">
<title>24&#45;&gt;25</title>
<path fill="none" stroke="black" d="M1266.88,-162.36C1277.59,-157.73 1290.62,-152.1 1302.4,-147.01"/>
<polygon fill="black" stroke="black" points="1303.58,-150.31 1311.37,-143.13 1300.8,-143.89 1303.58,-150.31"/>
<text text-anchor="middle" x="1289.69" y="-156.87" font-family="Times New Roman,serif" font-size="14.00">0</text>
</g>
<!-- 25&#45;&gt;12 -->
<g id="edge19" class="edge">
<title>25&#45;&gt;12</title>
<path fill="none" stroke="black" d="M1311.59,-127.39C1293.46,-123.49 1267.56,-119 1244.58,-119 1104.99,-119 1104.99,-119 1104.99,-119 1044.4,-119 1029.25,-120 968.65,-120 600.01,-120 600.01,-120 600.01,-120 581.49,-120 561.05,-122.72 544.32,-125.66"/>
<polygon fill="black" stroke="black" points="544.06,-122.15 534.88,-127.43 545.35,-129.03 544.06,-122.15"/>
<text text-anchor="middle" x="921.92" y="-123.2" font-family="Times New Roman,serif" font-size="14.00">ε</text>
</g>
<!-- 25&#45;&gt;26 -->
<g id="edge20" class="edge">
<title>25&#45;&gt;26</title>
<path fill="none" stroke="black" d="M1359.38,-125.43C1369.48,-122.04 1381.59,-117.98 1392.71,-114.25"/>
<polygon fill="black" stroke="black" points="1393.59,-117.65 1401.96,-111.15 1391.37,-111.01 1393.59,-117.65"/>
<text text-anchor="middle" x="1381.54" y="-122.1" font-family="Times New Roman,serif" font-size="14.00">ε</text>
</g>
<!-- 27 -->
<g id="node23" class="node">
<title>27</title>
<ellipse fill="none" stroke="black" cx="1519.5" cy="-103" rx="24.74" ry="24.74"/>
<text text-anchor="middle" x="1519.5" y="-97.95" font-family="Times New Roman,serif" font-size="14.00">q13</text>
</g>
<!-- 26&#45;&gt;27 -->
<g id="edge21" class="edge">
<title>26&#45;&gt;27</title>
<path fill="none" stroke="black" d="M1452.46,-103C1461.94,-103 1473.01,-103 1483.34,-103"/>
<polygon fill="black" stroke="black" points="1483.06,-106.5 1493.06,-103 1483.06,-99.5 1483.06,-106.5"/>
<text text-anchor="middle" x="1473.39" y="-106.2" font-family="Times New Roman,serif" font-size="14.00">1</text>
</g>
<!-- 27&#45;&gt;7 -->
<g id="edge25" class="edge">
<title>27&#45;&gt;7</title>
<path fill="none" stroke="black" d="M1529.43,-125.81C1544.93,-165.45 1576.82,-246.99 1593.93,-290.74"/>
<polygon fill="black" stroke="black" points="1590.59,-291.8 1597.49,-299.84 1597.1,-289.25 1590.59,-291.8"/>
<text text-anchor="middle" x="1565.24" y="-227.69" font-family="Times New Roman,serif" font-size="14.00">ε</text>
</g>
<!-- 27&#45;&gt;8 -->
<g id="edge24" class="edge">
<title>27&#45;&gt;8</title>
<path fill="none" stroke="black" d="M1503.46,-83.76C1487.14,-65.23 1459.23,-40 1428.28,-40 420.91,-40 420.91,-40 420.91,-40 384.05,-40 349.01,-66.73 327.62,-87.16"/>
<polygon fill="black" stroke="black" points="325.28,-84.55 320.66,-94.09 330.21,-89.51 325.28,-84.55"/>
<text text-anchor="middle" x="921.92" y="-43.2" font-family="Times New Roman,serif" font-size="14.00">ε</text>
</g>
</g>
</svg>
