<?xml version="1.0" encoding="UTF-8" standalone="no"?>
<!DOCTYPE svg PUBLIC "-//W3C//DTD SVG 1.1//EN"
 "http://www.w3.org/Graphics/SVG/1.1/DTD/svg11.dtd">
<!-- Generated by graphviz version 12.1.0 (20240811.2233)
 -->
<!-- Title: G Pages: 1 -->
<svg width="1213pt" height="196pt"
 viewBox="0.00 0.00 1213.22 196.00" xmlns="http://www.w3.org/2000/svg" xmlns:xlink="http://www.w3.org/1999/xlink">
<g id="graph0" class="graph" transform="scale(1 1) rotate(0) translate(4 192)">
<title>G</title>
<polygon fill="white" stroke="none" points="-4,4 -4,-192 1209.22,-192 1209.22,4 -4,4"/>
<!-- n__ -->
<g id="node1" class="node">
<title>n__</title>
</g>
<!-- 0 -->
<g id="node2" class="node">
<title>0</title>
<ellipse fill="none" stroke="black" cx="55.72" cy="-46" rx="18" ry="18"/>
</g>
<!-- n__&#45;&gt;0 -->
<g id="edge1" class="edge">
<title>n__&#45;&gt;0</title>
<path fill="none" stroke="black" d="M0.87,-46C2.34,-46 13.93,-46 25.99,-46"/>
<polygon fill="black" stroke="black" points="25.86,-49.5 35.86,-46 25.86,-42.5 25.86,-49.5"/>
</g>
<!-- 2 -->
<g id="node3" class="node">
<title>2</title>
<ellipse fill="none" stroke="black" cx="133.72" cy="-76" rx="18" ry="18"/>
</g>
<!-- 0&#45;&gt;2 -->
<g id="edge11" class="edge">
<title>0&#45;&gt;2</title>
<path fill="none" stroke="black" d="M72.84,-52.36C82.51,-56.18 95.05,-61.13 106.16,-65.52"/>
<polygon fill="black" stroke="black" points="104.63,-68.68 115.22,-69.09 107.2,-62.16 104.63,-68.68"/>
<text text-anchor="middle" x="94.72" y="-65.1" font-family="Times New Roman,serif" font-size="14.00">ε</text>
</g>
<!-- 14 -->
<g id="node12" class="node">
<title>14</title>
<ellipse fill="none" stroke="black" cx="602.47" cy="-46" rx="18" ry="18"/>
</g>
<!-- 0&#45;&gt;14 -->
<g id="edge12" class="edge">
<title>0&#45;&gt;14</title>
<path fill="none" stroke="black" d="M73.12,-40.49C88.37,-35.87 111.82,-30 132.72,-30 132.72,-30 132.72,-30 525.47,-30 541.8,-30 559.68,-33.58 574,-37.35"/>
<polygon fill="black" stroke="black" points="573.04,-40.72 583.62,-40.08 574.95,-33.99 573.04,-40.72"/>
<text text-anchor="middle" x="329.09" y="-33.2" font-family="Times New Roman,serif" font-size="14.00">ε</text>
</g>
<!-- 4 -->
<g id="node4" class="node">
<title>4</title>
<ellipse fill="none" stroke="black" cx="211.72" cy="-116" rx="18" ry="18"/>
</g>
<!-- 2&#45;&gt;4 -->
<g id="edge2" class="edge">
<title>2&#45;&gt;4</title>
<path fill="none" stroke="black" d="M150.1,-84.09C160.2,-89.41 173.64,-96.48 185.3,-102.62"/>
<polygon fill="black" stroke="black" points="183.54,-105.65 194.02,-107.21 186.8,-99.46 183.54,-105.65"/>
<text text-anchor="middle" x="172.72" y="-100.4" font-family="Times New Roman,serif" font-size="14.00">a</text>
</g>
<!-- 6 -->
<g id="node6" class="node">
<title>6</title>
<ellipse fill="none" stroke="black" cx="289.72" cy="-170" rx="18" ry="18"/>
</g>
<!-- 4&#45;&gt;6 -->
<g id="edge7" class="edge">
<title>4&#45;&gt;6</title>
<path fill="none" stroke="black" d="M227.02,-126.16C237.74,-133.77 252.65,-144.37 265.13,-153.24"/>
<polygon fill="black" stroke="black" points="263.08,-156.07 273.26,-159.01 267.13,-150.37 263.08,-156.07"/>
<text text-anchor="middle" x="250.72" y="-147.82" font-family="Times New Roman,serif" font-size="14.00">ε</text>
</g>
<!-- 10 -->
<g id="node9" class="node">
<title>10</title>
<ellipse fill="none" stroke="black" cx="289.72" cy="-116" rx="18" ry="18"/>
</g>
<!-- 4&#45;&gt;10 -->
<g id="edge8" class="edge">
<title>4&#45;&gt;10</title>
<path fill="none" stroke="black" d="M229.97,-116C238.84,-116 249.9,-116 260.02,-116"/>
<polygon fill="black" stroke="black" points="259.77,-119.5 269.77,-116 259.77,-112.5 259.77,-119.5"/>
<text text-anchor="middle" x="250.72" y="-119.2" font-family="Times New Roman,serif" font-size="14.00">ε</text>
</g>
<!-- 5 -->
<g id="node5" class="node">
<title>5</title>
<ellipse fill="none" stroke="black" cx="524.47" cy="-89" rx="18" ry="18"/>
</g>
<!-- 5&#45;&gt;2 -->
<g id="edge13" class="edge">
<title>5&#45;&gt;2</title>
<path fill="none" stroke="black" d="M507.45,-82.57C492.27,-77.06 468.69,-70 447.47,-70 210.72,-70 210.72,-70 210.72,-70 194.9,-70 177.28,-71.31 163,-72.7"/>
<polygon fill="black" stroke="black" points="162.98,-69.19 153.4,-73.71 163.71,-76.15 162.98,-69.19"/>
<text text-anchor="middle" x="329.09" y="-73.2" font-family="Times New Roman,serif" font-size="14.00">ε</text>
</g>
<!-- 5&#45;&gt;14 -->
<g id="edge14" class="edge">
<title>5&#45;&gt;14</title>
<path fill="none" stroke="black" d="M540.49,-80.5C550.72,-74.71 564.53,-66.9 576.41,-60.18"/>
<polygon fill="black" stroke="black" points="577.93,-63.34 584.91,-55.37 574.48,-57.25 577.93,-63.34"/>
<text text-anchor="middle" x="563.47" y="-71.99" font-family="Times New Roman,serif" font-size="14.00">ε</text>
</g>
<!-- 8 -->
<g id="node7" class="node">
<title>8</title>
<ellipse fill="none" stroke="black" cx="368.47" cy="-170" rx="18" ry="18"/>
</g>
<!-- 6&#45;&gt;8 -->
<g id="edge3" class="edge">
<title>6&#45;&gt;8</title>
<path fill="none" stroke="black" d="M308.14,-170C317.16,-170 328.42,-170 338.7,-170"/>
<polygon fill="black" stroke="black" points="338.61,-173.5 348.61,-170 338.61,-166.5 338.61,-173.5"/>
<text text-anchor="middle" x="329.09" y="-173.2" font-family="Times New Roman,serif" font-size="14.00">b</text>
</g>
<!-- 9 -->
<g id="node8" class="node">
<title>9</title>
<ellipse fill="none" stroke="black" cx="446.47" cy="-170" rx="18" ry="18"/>
</g>
<!-- 8&#45;&gt;9 -->
<g id="edge4" class="edge">
<title>8&#45;&gt;9</title>
<path fill="none" stroke="black" d="M386.72,-170C395.59,-170 406.65,-170 416.77,-170"/>
<polygon fill="black" stroke="black" points="416.52,-173.5 426.52,-170 416.52,-166.5 416.52,-173.5"/>
<text text-anchor="middle" x="407.47" y="-173.2" font-family="Times New Roman,serif" font-size="14.00">c</text>
</g>
<!-- 9&#45;&gt;5 -->
<g id="edge9" class="edge">
<title>9&#45;&gt;5</title>
<path fill="none" stroke="black" d="M459.34,-157.34C471.21,-144.7 489.66,-125.03 503.73,-110.04"/>
<polygon fill="black" stroke="black" points="506.1,-112.63 510.39,-102.94 501,-107.84 506.1,-112.63"/>
<text text-anchor="middle" x="485.47" y="-135.13" font-family="Times New Roman,serif" font-size="14.00">ε</text>
</g>
<!-- 12 -->
<g id="node10" class="node">
<title>12</title>
<ellipse fill="none" stroke="black" cx="368.47" cy="-116" rx="18" ry="18"/>
</g>
<!-- 10&#45;&gt;12 -->
<g id="edge5" class="edge">
<title>10&#45;&gt;12</title>
<path fill="none" stroke="black" d="M308.14,-116C317.16,-116 328.42,-116 338.7,-116"/>
<polygon fill="black" stroke="black" points="338.61,-119.5 348.61,-116 338.61,-112.5 338.61,-119.5"/>
<text text-anchor="middle" x="329.09" y="-119.2" font-family="Times New Roman,serif" font-size="14.00">b</text>
</g>
<!-- 13 -->
<g id="node11" class="node">
<title>13</title>
<ellipse fill="none" stroke="black" cx="446.47" cy="-116" rx="18" ry="18"/>
</g>
<!-- 12&#45;&gt;13 -->
<g id="edge6" class="edge">
<title>12&#45;&gt;13</title>
<path fill="none" stroke="black" d="M386.72,-116C395.59,-116 406.65,-116 416.77,-116"/>
<polygon fill="black" stroke="black" points="416.52,-119.5 426.52,-116 416.52,-112.5 416.52,-119.5"/>
<text text-anchor="middle" x="407.47" y="-119.2" font-family="Times New Roman,serif" font-size="14.00">c</text>
</g>
<!-- 13&#45;&gt;5 -->
<g id="edge10" class="edge">
<title>13&#45;&gt;5</title>
<path fill="none" stroke="black" d="M463.96,-110.14C473.42,-106.78 485.54,-102.48 496.36,-98.63"/>
<polygon fill="black" stroke="black" points="497.33,-102 505.59,-95.35 494.99,-95.4 497.33,-102"/>
<text text-anchor="middle" x="485.47" y="-106.51" font-family="Times New Roman,serif" font-size="14.00">ε</text>
</g>
<!-- 16 -->
<g id="node14" class="node">
<title>16</title>
<ellipse fill="none" stroke="black" cx="680.47" cy="-46" rx="18" ry="18"/>
</g>
<!-- 14&#45;&gt;16 -->
<g id="edge24" class="edge">
<title>14&#45;&gt;16</title>
<path fill="none" stroke="black" d="M620.72,-46C629.59,-46 640.65,-46 650.77,-46"/>
<polygon fill="black" stroke="black" points="650.52,-49.5 660.52,-46 650.52,-42.5 650.52,-49.5"/>
<text text-anchor="middle" x="641.47" y="-49.2" font-family="Times New Roman,serif" font-size="14.00">ε</text>
</g>
<!-- 15 -->
<g id="node13" class="node">
<title>15</title>
<ellipse fill="none" stroke="black" cx="1183.22" cy="-46" rx="18" ry="18"/>
<ellipse fill="none" stroke="black" cx="1183.22" cy="-46" rx="22" ry="22"/>
</g>
<!-- 18 -->
<g id="node16" class="node">
<title>18</title>
<ellipse fill="none" stroke="black" cx="758.47" cy="-100" rx="18" ry="18"/>
</g>
<!-- 16&#45;&gt;18 -->
<g id="edge20" class="edge">
<title>16&#45;&gt;18</title>
<path fill="none" stroke="black" d="M695.77,-56.16C706.49,-63.77 721.4,-74.37 733.88,-83.24"/>
<polygon fill="black" stroke="black" points="731.83,-86.07 742.01,-89.01 735.88,-80.37 731.83,-86.07"/>
<text text-anchor="middle" x="719.47" y="-77.82" font-family="Times New Roman,serif" font-size="14.00">ε</text>
</g>
<!-- 22 -->
<g id="node19" class="node">
<title>22</title>
<ellipse fill="none" stroke="black" cx="758.47" cy="-46" rx="18" ry="18"/>
</g>
<!-- 16&#45;&gt;22 -->
<g id="edge21" class="edge">
<title>16&#45;&gt;22</title>
<path fill="none" stroke="black" d="M698.72,-46C707.59,-46 718.65,-46 728.77,-46"/>
<polygon fill="black" stroke="black" points="728.52,-49.5 738.52,-46 728.52,-42.5 728.52,-49.5"/>
<text text-anchor="middle" x="719.47" y="-49.2" font-family="Times New Roman,serif" font-size="14.00">ε</text>
</g>
<!-- 17 -->
<g id="node15" class="node">
<title>17</title>
<ellipse fill="none" stroke="black" cx="1101.22" cy="-46" rx="18" ry="18"/>
</g>
<!-- 17&#45;&gt;15 -->
<g id="edge26" class="edge">
<title>17&#45;&gt;15</title>
<path fill="none" stroke="black" d="M1119.58,-46C1128.39,-46 1139.4,-46 1149.71,-46"/>
<polygon fill="black" stroke="black" points="1149.39,-49.5 1159.39,-46 1149.39,-42.5 1149.39,-49.5"/>
<text text-anchor="middle" x="1140.22" y="-49.2" font-family="Times New Roman,serif" font-size="14.00">ε</text>
</g>
<!-- 17&#45;&gt;16 -->
<g id="edge25" class="edge">
<title>17&#45;&gt;16</title>
<path fill="none" stroke="black" d="M1088.14,-32.94C1074.18,-19.34 1049.82,0 1024.22,0 757.47,0 757.47,0 757.47,0 736.47,0 716.31,-13.02 702.03,-25.2"/>
<polygon fill="black" stroke="black" points="699.7,-22.59 694.67,-31.92 704.41,-27.76 699.7,-22.59"/>
<text text-anchor="middle" x="876.22" y="-3.2" font-family="Times New Roman,serif" font-size="14.00">ε</text>
</g>
<!-- 20 -->
<g id="node17" class="node">
<title>20</title>
<ellipse fill="none" stroke="black" cx="837.22" cy="-100" rx="18" ry="18"/>
</g>
<!-- 18&#45;&gt;20 -->
<g id="edge15" class="edge">
<title>18&#45;&gt;20</title>
<path fill="none" stroke="black" d="M776.89,-100C785.91,-100 797.17,-100 807.45,-100"/>
<polygon fill="black" stroke="black" points="807.36,-103.5 817.36,-100 807.36,-96.5 807.36,-103.5"/>
<text text-anchor="middle" x="797.84" y="-103.2" font-family="Times New Roman,serif" font-size="14.00">b</text>
</g>
<!-- 21 -->
<g id="node18" class="node">
<title>21</title>
<ellipse fill="none" stroke="black" cx="969.22" cy="-100" rx="18" ry="18"/>
</g>
<!-- 20&#45;&gt;21 -->
<g id="edge16" class="edge">
<title>20&#45;&gt;21</title>
<path fill="none" stroke="black" d="M855.48,-100C876.95,-100 913.89,-100 939.61,-100"/>
<polygon fill="black" stroke="black" points="939.37,-103.5 949.37,-100 939.37,-96.5 939.37,-103.5"/>
<text text-anchor="middle" x="876.22" y="-103.2" font-family="Times New Roman,serif" font-size="14.00">c</text>
</g>
<!-- 21&#45;&gt;17 -->
<g id="edge22" class="edge">
<title>21&#45;&gt;17</title>
<path fill="none" stroke="black" d="M987.11,-95.29C1006.43,-89.63 1038.81,-79.35 1065.22,-67 1068.69,-65.38 1072.25,-63.51 1075.71,-61.56"/>
<polygon fill="black" stroke="black" points="1077.49,-64.58 1084.3,-56.46 1073.92,-58.56 1077.49,-64.58"/>
<text text-anchor="middle" x="1023.22" y="-92.77" font-family="Times New Roman,serif" font-size="14.00">ε</text>
</g>
<!-- 24 -->
<g id="node20" class="node">
<title>24</title>
<ellipse fill="none" stroke="black" cx="837.22" cy="-46" rx="18" ry="18"/>
</g>
<!-- 22&#45;&gt;24 -->
<g id="edge17" class="edge">
<title>22&#45;&gt;24</title>
<path fill="none" stroke="black" d="M776.89,-46C785.91,-46 797.17,-46 807.45,-46"/>
<polygon fill="black" stroke="black" points="807.36,-49.5 817.36,-46 807.36,-42.5 807.36,-49.5"/>
<text text-anchor="middle" x="797.84" y="-49.2" font-family="Times New Roman,serif" font-size="14.00">a</text>
</g>
<!-- 26 -->
<g id="node21" class="node">
<title>26</title>
<ellipse fill="none" stroke="black" cx="915.22" cy="-46" rx="18" ry="18"/>
</g>
<!-- 24&#45;&gt;26 -->
<g id="edge18" class="edge">
<title>24&#45;&gt;26</title>
<path fill="none" stroke="black" d="M855.47,-46C864.34,-46 875.4,-46 885.52,-46"/>
<polygon fill="black" stroke="black" points="885.27,-49.5 895.27,-46 885.27,-42.5 885.27,-49.5"/>
<text text-anchor="middle" x="876.22" y="-49.2" font-family="Times New Roman,serif" font-size="14.00">c</text>
</g>
<!-- 27 -->
<g id="node22" class="node">
<title>27</title>
<ellipse fill="none" stroke="black" cx="1023.22" cy="-46" rx="18" ry="18"/>
</g>
<!-- 26&#45;&gt;27 -->
<g id="edge19" class="edge">
<title>26&#45;&gt;27</title>
<path fill="none" stroke="black" d="M933.25,-46C949.46,-46 974.16,-46 993.43,-46"/>
<polygon fill="black" stroke="black" points="993.37,-49.5 1003.37,-46 993.37,-42.5 993.37,-49.5"/>
<text text-anchor="middle" x="969.22" y="-49.2" font-family="Times New Roman,serif" font-size="14.00">b</text>
</g>
<!-- 27&#45;&gt;17 -->
<g id="edge23" class="edge">
<title>27&#45;&gt;17</title>
<path fill="none" stroke="black" d="M1041.47,-46C1050.34,-46 1061.4,-46 1071.52,-46"/>
<polygon fill="black" stroke="black" points="1071.27,-49.5 1081.27,-46 1071.27,-42.5 1071.27,-49.5"/>
<text text-anchor="middle" x="1062.22" y="-49.2" font-family="Times New Roman,serif" font-size="14.00">ε</text>
</g>
</g>
</svg>
