<?xml version="1.0" encoding="UTF-8" standalone="no"?>
<!DOCTYPE svg PUBLIC "-//W3C//DTD SVG 1.1//EN"
 "http://www.w3.org/Graphics/SVG/1.1/DTD/svg11.dtd">
<!-- Generated by graphviz version 12.1.1 (20240910.0053)
 -->
<!-- Title: G Pages: 1 -->
<svg width="623pt" height="138pt"
 viewBox="0.00 0.00 622.57 138.28" xmlns="http://www.w3.org/2000/svg" xmlns:xlink="http://www.w3.org/1999/xlink">
<g id="graph0" class="graph" transform="scale(1 1) rotate(0) translate(4 134.28)">
<title>G</title>
<polygon fill="white" stroke="none" points="-4,4 -4,-134.28 618.57,-134.28 618.57,4 -4,4"/>
<!-- n__ -->
<g id="node1" class="node">
<title>n__</title>
</g>
<!-- 0 -->
<g id="node2" class="node">
<title>0</title>
<ellipse fill="none" stroke="black" cx="57.85" cy="-69.15" rx="20.13" ry="20.13"/>
<text text-anchor="middle" x="57.85" y="-64.1" font-family="Times New Roman,serif" font-size="14.00">q0</text>
</g>
<!-- n__&#45;&gt;0 -->
<g id="edge1" class="edge">
<title>n__&#45;&gt;0</title>
<path fill="none" stroke="black" d="M0.88,-69.15C2.37,-69.15 13.93,-69.15 26.16,-69.15"/>
<polygon fill="black" stroke="black" points="25.79,-72.65 35.79,-69.15 25.79,-65.65 25.79,-72.65"/>
</g>
<!-- 2 -->
<g id="node4" class="node">
<title>2</title>
<ellipse fill="none" stroke="black" cx="140.11" cy="-100.15" rx="20.13" ry="20.13"/>
<text text-anchor="middle" x="140.11" y="-95.1" font-family="Times New Roman,serif" font-size="14.00">q1</text>
</g>
<!-- 0&#45;&gt;2 -->
<g id="edge9" class="edge">
<title>0&#45;&gt;2</title>
<path fill="none" stroke="black" d="M77.06,-76.18C86.92,-79.99 99.31,-84.77 110.42,-89.07"/>
<polygon fill="black" stroke="black" points="108.97,-92.26 119.56,-92.6 111.49,-85.73 108.97,-92.26"/>
<text text-anchor="middle" x="98.98" y="-88.78" font-family="Times New Roman,serif" font-size="14.00">ε</text>
</g>
<!-- 4 -->
<g id="node6" class="node">
<title>4</title>
<ellipse fill="none" stroke="black" cx="140.11" cy="-40.15" rx="20.13" ry="20.13"/>
<text text-anchor="middle" x="140.11" y="-35.1" font-family="Times New Roman,serif" font-size="14.00">q2</text>
</g>
<!-- 0&#45;&gt;4 -->
<g id="edge10" class="edge">
<title>0&#45;&gt;4</title>
<path fill="none" stroke="black" d="M76.92,-61.89C82.95,-59.52 89.74,-56.92 95.98,-54.65 100.49,-53.01 105.29,-51.33 109.99,-49.73"/>
<polygon fill="black" stroke="black" points="110.78,-53.15 119.14,-46.65 108.55,-46.52 110.78,-53.15"/>
<text text-anchor="middle" x="98.98" y="-57.85" font-family="Times New Roman,serif" font-size="14.00">ε</text>
</g>
<!-- 1 -->
<g id="node3" class="node">
<title>1</title>
<ellipse fill="none" stroke="black" cx="590.44" cy="-81.15" rx="20.13" ry="20.13"/>
<ellipse fill="none" stroke="black" cx="590.44" cy="-81.15" rx="24.13" ry="24.13"/>
<text text-anchor="middle" x="590.44" y="-76.1" font-family="Times New Roman,serif" font-size="14.00">q6</text>
</g>
<!-- 3 -->
<g id="node5" class="node">
<title>3</title>
<ellipse fill="none" stroke="black" cx="280.64" cy="-110.15" rx="20.13" ry="20.13"/>
<text text-anchor="middle" x="280.64" y="-105.1" font-family="Times New Roman,serif" font-size="14.00">q3</text>
</g>
<!-- 2&#45;&gt;3 -->
<g id="edge2" class="edge">
<title>2&#45;&gt;3</title>
<path fill="none" stroke="black" d="M160.67,-101.56C183.56,-103.21 221.77,-105.97 248.7,-107.92"/>
<polygon fill="black" stroke="black" points="248.45,-111.41 258.67,-108.64 248.95,-104.42 248.45,-111.41"/>
<text text-anchor="middle" x="181.24" y="-106.26" font-family="Times New Roman,serif" font-size="14.00">ε</text>
</g>
<!-- 3&#45;&gt;1 -->
<g id="edge11" class="edge">
<title>3&#45;&gt;1</title>
<path fill="none" stroke="black" d="M301.03,-108.57C320.67,-107.1 351.94,-105.15 379.03,-105.15 379.03,-105.15 379.03,-105.15 505.17,-105.15 522.92,-105.15 542,-100.16 557.5,-94.74"/>
<polygon fill="black" stroke="black" points="558.53,-98.09 566.67,-91.3 556.08,-91.53 558.53,-98.09"/>
<text text-anchor="middle" x="421.16" y="-108.35" font-family="Times New Roman,serif" font-size="14.00">ε</text>
</g>
<!-- 6 -->
<g id="node7" class="node">
<title>6</title>
<ellipse fill="none" stroke="black" cx="222.38" cy="-40.15" rx="20.13" ry="20.13"/>
<text text-anchor="middle" x="222.38" y="-35.1" font-family="Times New Roman,serif" font-size="14.00">q4</text>
</g>
<!-- 4&#45;&gt;6 -->
<g id="edge4" class="edge">
<title>4&#45;&gt;6</title>
<path fill="none" stroke="black" d="M160.54,-40.15C169.55,-40.15 180.46,-40.15 190.55,-40.15"/>
<polygon fill="black" stroke="black" points="190.33,-43.65 200.33,-40.15 190.33,-36.65 190.33,-43.65"/>
<text text-anchor="middle" x="181.24" y="-43.35" font-family="Times New Roman,serif" font-size="14.00">ε</text>
</g>
<!-- 8 -->
<g id="node9" class="node">
<title>8</title>
<ellipse fill="none" stroke="black" cx="421.16" cy="-40.15" rx="20.13" ry="20.13"/>
<text text-anchor="middle" x="421.16" y="-35.1" font-family="Times New Roman,serif" font-size="14.00">q5</text>
</g>
<!-- 4&#45;&gt;8 -->
<g id="edge5" class="edge">
<title>4&#45;&gt;8</title>
<path fill="none" stroke="black" d="M158.21,-30.34C170.18,-23.9 186.73,-15.84 202.24,-11.15 244.31,1.58 256.93,0.53 300.77,-2.65 326.87,-4.54 333.98,-3.57 359.03,-11.15 370.55,-14.63 382.63,-19.97 392.99,-25.12"/>
<polygon fill="black" stroke="black" points="391.23,-28.15 401.72,-29.64 394.45,-21.94 391.23,-28.15"/>
<text text-anchor="middle" x="280.64" y="-5.85" font-family="Times New Roman,serif" font-size="14.00">ε</text>
</g>
<!-- 7 -->
<g id="node8" class="node">
<title>7</title>
<ellipse fill="none" stroke="black" cx="338.9" cy="-40.15" rx="20.13" ry="20.13"/>
<text text-anchor="middle" x="338.9" y="-35.1" font-family="Times New Roman,serif" font-size="14.00">q7</text>
</g>
<!-- 6&#45;&gt;7 -->
<g id="edge3" class="edge">
<title>6&#45;&gt;7</title>
<path fill="none" stroke="black" d="M242.58,-43.85C248.32,-44.8 254.65,-45.68 260.51,-46.15 278.34,-47.58 282.93,-47.58 300.77,-46.15 302.97,-45.97 305.23,-45.74 307.5,-45.46"/>
<polygon fill="black" stroke="black" points="307.8,-48.96 317.2,-44.07 306.8,-42.03 307.8,-48.96"/>
<text text-anchor="middle" x="280.64" y="-50.42" font-family="Times New Roman,serif" font-size="14.00">a</text>
</g>
<!-- 7&#45;&gt;6 -->
<g id="edge6" class="edge">
<title>7&#45;&gt;6</title>
<path fill="none" stroke="black" d="M320.17,-31.68C314.15,-29.22 307.3,-26.88 300.77,-25.65 283.18,-22.34 278.09,-22.34 260.51,-25.65 257.65,-26.19 254.73,-26.94 251.85,-27.82"/>
<polygon fill="black" stroke="black" points="250.76,-24.49 242.53,-31.17 253.13,-31.08 250.76,-24.49"/>
<text text-anchor="middle" x="280.64" y="-28.85" font-family="Times New Roman,serif" font-size="14.00">ε</text>
</g>
<!-- 7&#45;&gt;8 -->
<g id="edge7" class="edge">
<title>7&#45;&gt;8</title>
<path fill="none" stroke="black" d="M359.33,-40.15C368.33,-40.15 379.25,-40.15 389.34,-40.15"/>
<polygon fill="black" stroke="black" points="389.12,-43.65 399.12,-40.15 389.12,-36.65 389.12,-43.65"/>
<text text-anchor="middle" x="380.03" y="-43.35" font-family="Times New Roman,serif" font-size="14.00">ε</text>
</g>
<!-- 9 -->
<g id="node10" class="node">
<title>9</title>
<ellipse fill="none" stroke="black" cx="504.17" cy="-55.15" rx="20.13" ry="20.13"/>
<text text-anchor="middle" x="504.17" y="-50.1" font-family="Times New Roman,serif" font-size="14.00">q8</text>
</g>
<!-- 8&#45;&gt;9 -->
<g id="edge8" class="edge">
<title>8&#45;&gt;9</title>
<path fill="none" stroke="black" d="M441.36,-43.7C450.74,-45.44 462.26,-47.57 472.8,-49.52"/>
<polygon fill="black" stroke="black" points="472.16,-52.96 482.63,-51.34 473.43,-46.08 472.16,-52.96"/>
<text text-anchor="middle" x="462.67" y="-51.3" font-family="Times New Roman,serif" font-size="14.00">b</text>
</g>
<!-- 9&#45;&gt;1 -->
<g id="edge12" class="edge">
<title>9&#45;&gt;1</title>
<path fill="none" stroke="black" d="M523.88,-60.92C533.3,-63.83 545.03,-67.45 555.94,-70.81"/>
<polygon fill="black" stroke="black" points="554.86,-74.14 565.45,-73.75 556.92,-67.45 554.86,-74.14"/>
<text text-anchor="middle" x="545.31" y="-71.35" font-family="Times New Roman,serif" font-size="14.00">ε</text>
</g>
</g>
</svg>
