<?xml version="1.0" encoding="UTF-8" standalone="no"?>
<!DOCTYPE svg PUBLIC "-//W3C//DTD SVG 1.1//EN"
 "http://www.w3.org/Graphics/SVG/1.1/DTD/svg11.dtd">
<!-- Generated by graphviz version 12.1.1 (20240910.0053)
 -->
<!-- Title: G Pages: 1 -->
<svg width="657pt" height="142pt"
 viewBox="0.00 0.00 656.97 141.50" xmlns="http://www.w3.org/2000/svg" xmlns:xlink="http://www.w3.org/1999/xlink">
<g id="graph0" class="graph" transform="scale(1 1) rotate(0) translate(4 137.5)">
<title>G</title>
<polygon fill="white" stroke="none" points="-4,4 -4,-137.5 652.97,-137.5 652.97,4 -4,4"/>
<!-- n__ -->
<g id="node1" class="node">
<title>n__</title>
</g>
<!-- 0 -->
<g id="node2" class="node">
<title>0</title>
<ellipse fill="none" stroke="black" cx="55.72" cy="-18" rx="18" ry="18"/>
</g>
<!-- n__&#45;&gt;0 -->
<g id="edge1" class="edge">
<title>n__&#45;&gt;0</title>
<path fill="none" stroke="black" d="M0.87,-18C2.34,-18 13.93,-18 25.99,-18"/>
<polygon fill="black" stroke="black" points="25.86,-21.5 35.86,-18 25.86,-14.5 25.86,-21.5"/>
</g>
<!-- 1 -->
<g id="node3" class="node">
<title>1</title>
<ellipse fill="none" stroke="black" cx="134.47" cy="-81" rx="18" ry="18"/>
</g>
<!-- 0&#45;&gt;1 -->
<g id="edge2" class="edge">
<title>0&#45;&gt;1</title>
<path fill="none" stroke="black" d="M70.09,-28.97C81.46,-38.31 98.03,-51.91 111.38,-62.87"/>
<polygon fill="black" stroke="black" points="108.88,-65.34 118.83,-68.98 113.32,-59.93 108.88,-65.34"/>
<text text-anchor="middle" x="95.1" y="-54.59" font-family="Times New Roman,serif" font-size="14.00">0</text>
</g>
<!-- 2 -->
<g id="node4" class="node">
<title>2</title>
<ellipse fill="none" stroke="black" cx="213.22" cy="-34" rx="18" ry="18"/>
</g>
<!-- 0&#45;&gt;2 -->
<g id="edge4" class="edge">
<title>0&#45;&gt;2</title>
<path fill="none" stroke="black" d="M73.96,-19.77C100.46,-22.5 151.52,-27.75 183.62,-31.06"/>
<polygon fill="black" stroke="black" points="183.1,-34.52 193.4,-32.06 183.81,-27.56 183.1,-34.52"/>
<text text-anchor="middle" x="134.47" y="-31.05" font-family="Times New Roman,serif" font-size="14.00">1</text>
</g>
<!-- 3 -->
<g id="node5" class="node">
<title>3</title>
<ellipse fill="none" stroke="black" cx="291.97" cy="-34" rx="18" ry="18"/>
</g>
<!-- 0&#45;&gt;3 -->
<g id="edge3" class="edge">
<title>0&#45;&gt;3</title>
<path fill="none" stroke="black" d="M73.3,-13.98C104.58,-7.05 174.25,5.28 231.22,-7 243.11,-9.56 255.49,-14.69 265.87,-19.8"/>
<polygon fill="black" stroke="black" points="264.04,-22.79 274.53,-24.3 267.27,-16.58 264.04,-22.79"/>
<text text-anchor="middle" x="173.85" y="-5.03" font-family="Times New Roman,serif" font-size="14.00">0</text>
</g>
<!-- 1&#45;&gt;1 -->
<g id="edge5" class="edge">
<title>1&#45;&gt;1</title>
<path fill="none" stroke="black" d="M127.49,-98.04C126.07,-107.86 128.39,-117 134.47,-117 137.98,-117 140.24,-113.94 141.25,-109.47"/>
<polygon fill="black" stroke="black" points="144.75,-109.61 141.42,-99.55 137.75,-109.49 144.75,-109.61"/>
<text text-anchor="middle" x="134.47" y="-120.2" font-family="Times New Roman,serif" font-size="14.00">0</text>
</g>
<!-- 1&#45;&gt;2 -->
<g id="edge7" class="edge">
<title>1&#45;&gt;2</title>
<path fill="none" stroke="black" d="M148.47,-69.02C154.81,-63.55 162.72,-57.25 170.47,-52.5 175.2,-49.6 180.47,-46.9 185.63,-44.5"/>
<polygon fill="black" stroke="black" points="186.69,-47.86 194.47,-40.67 183.9,-41.44 186.69,-47.86"/>
<text text-anchor="middle" x="173.85" y="-55.7" font-family="Times New Roman,serif" font-size="14.00">1</text>
</g>
<!-- 1&#45;&gt;3 -->
<g id="edge6" class="edge">
<title>1&#45;&gt;3</title>
<path fill="none" stroke="black" d="M151.03,-88.44C170.52,-96.66 204.59,-107.32 231.22,-96 249.33,-88.3 264.61,-72.13 275.19,-58.23"/>
<polygon fill="black" stroke="black" points="277.87,-60.5 280.85,-50.34 272.18,-56.42 277.87,-60.5"/>
<text text-anchor="middle" x="213.22" y="-104.12" font-family="Times New Roman,serif" font-size="14.00">0</text>
</g>
<!-- 2&#45;&gt;1 -->
<g id="edge8" class="edge">
<title>2&#45;&gt;1</title>
<path fill="none" stroke="black" d="M201.22,-48C194.9,-55.21 186.4,-63.59 177.22,-69 172.98,-71.5 168.19,-73.5 163.4,-75.1"/>
<polygon fill="black" stroke="black" points="162.66,-71.68 153.97,-77.74 164.54,-78.42 162.66,-71.68"/>
<text text-anchor="middle" x="173.85" y="-75.41" font-family="Times New Roman,serif" font-size="14.00">0</text>
</g>
<!-- 2&#45;&gt;2 -->
<g id="edge10" class="edge">
<title>2&#45;&gt;2</title>
<path fill="none" stroke="black" d="M206.24,-51.04C204.82,-60.86 207.14,-70 213.22,-70 216.73,-70 218.99,-66.94 220,-62.47"/>
<polygon fill="black" stroke="black" points="223.5,-62.61 220.17,-52.55 216.5,-62.49 223.5,-62.61"/>
<text text-anchor="middle" x="213.22" y="-73.2" font-family="Times New Roman,serif" font-size="14.00">1</text>
</g>
<!-- 2&#45;&gt;3 -->
<g id="edge9" class="edge">
<title>2&#45;&gt;3</title>
<path fill="none" stroke="black" d="M231.64,-34C240.66,-34 251.92,-34 262.2,-34"/>
<polygon fill="black" stroke="black" points="262.11,-37.5 272.11,-34 262.11,-30.5 262.11,-37.5"/>
<text text-anchor="middle" x="252.6" y="-37.2" font-family="Times New Roman,serif" font-size="14.00">0</text>
</g>
<!-- 4 -->
<g id="node6" class="node">
<title>4</title>
<ellipse fill="none" stroke="black" cx="370.72" cy="-34" rx="18" ry="18"/>
</g>
<!-- 3&#45;&gt;4 -->
<g id="edge11" class="edge">
<title>3&#45;&gt;4</title>
<path fill="none" stroke="black" d="M310.39,-34C319.41,-34 330.67,-34 340.95,-34"/>
<polygon fill="black" stroke="black" points="340.86,-37.5 350.86,-34 340.86,-30.5 340.86,-37.5"/>
<text text-anchor="middle" x="331.35" y="-37.2" font-family="Times New Roman,serif" font-size="14.00">0</text>
</g>
<!-- 5 -->
<g id="node7" class="node">
<title>5</title>
<ellipse fill="none" stroke="black" cx="453.47" cy="-34" rx="18" ry="18"/>
<ellipse fill="none" stroke="black" cx="453.47" cy="-34" rx="22" ry="22"/>
</g>
<!-- 4&#45;&gt;5 -->
<g id="edge12" class="edge">
<title>4&#45;&gt;5</title>
<path fill="none" stroke="black" d="M388.84,-34C397.79,-34 409.05,-34 419.6,-34"/>
<polygon fill="black" stroke="black" points="419.54,-37.5 429.54,-34 419.54,-30.5 419.54,-37.5"/>
<text text-anchor="middle" x="410.1" y="-37.2" font-family="Times New Roman,serif" font-size="14.00">1</text>
</g>
<!-- 6 -->
<g id="node8" class="node">
<title>6</title>
<ellipse fill="none" stroke="black" cx="540.22" cy="-75" rx="18" ry="18"/>
<ellipse fill="none" stroke="black" cx="540.22" cy="-75" rx="22" ry="22"/>
</g>
<!-- 5&#45;&gt;6 -->
<g id="edge13" class="edge">
<title>5&#45;&gt;6</title>
<path fill="none" stroke="black" d="M473.7,-43.3C484.43,-48.49 498.01,-55.06 510.02,-60.88"/>
<polygon fill="black" stroke="black" points="508.18,-63.87 518.7,-65.07 511.22,-57.57 508.18,-63.87"/>
<text text-anchor="middle" x="496.85" y="-58.93" font-family="Times New Roman,serif" font-size="14.00">0</text>
</g>
<!-- 7 -->
<g id="node9" class="node">
<title>7</title>
<ellipse fill="none" stroke="black" cx="626.97" cy="-51" rx="18" ry="18"/>
<ellipse fill="none" stroke="black" cx="626.97" cy="-51" rx="22" ry="22"/>
</g>
<!-- 5&#45;&gt;7 -->
<g id="edge14" class="edge">
<title>5&#45;&gt;7</title>
<path fill="none" stroke="black" d="M475.3,-29.86C497.12,-26.19 532.33,-22.17 562.22,-27.5 573.68,-29.55 585.78,-33.51 596.33,-37.6"/>
<polygon fill="black" stroke="black" points="594.68,-40.71 605.26,-41.27 597.34,-34.24 594.68,-40.71"/>
<text text-anchor="middle" x="540.22" y="-30.7" font-family="Times New Roman,serif" font-size="14.00">1</text>
</g>
<!-- 6&#45;&gt;6 -->
<g id="edge15" class="edge">
<title>6&#45;&gt;6</title>
<path fill="none" stroke="black" d="M532.29,-95.99C531.31,-106.09 533.95,-115 540.22,-115 543.94,-115 546.39,-111.86 547.55,-107.19"/>
<polygon fill="black" stroke="black" points="551.03,-107.68 548.07,-97.5 544.04,-107.3 551.03,-107.68"/>
<text text-anchor="middle" x="540.22" y="-118.2" font-family="Times New Roman,serif" font-size="14.00">0</text>
</g>
<!-- 6&#45;&gt;7 -->
<g id="edge16" class="edge">
<title>6&#45;&gt;7</title>
<path fill="none" stroke="black" d="M558.64,-62.51C565.11,-58.55 572.7,-54.65 580.22,-52.5 584.36,-51.32 588.8,-50.57 593.22,-50.12"/>
<polygon fill="black" stroke="black" points="593.36,-53.62 603.17,-49.63 593.01,-46.63 593.36,-53.62"/>
<text text-anchor="middle" x="583.6" y="-55.7" font-family="Times New Roman,serif" font-size="14.00">1</text>
</g>
<!-- 7&#45;&gt;6 -->
<g id="edge17" class="edge">
<title>7&#45;&gt;6</title>
<path fill="none" stroke="black" d="M606.97,-61.16C600.75,-64.11 593.7,-67.05 586.97,-69 582.68,-70.24 578.08,-71.23 573.52,-72.01"/>
<polygon fill="black" stroke="black" points="573.36,-68.5 563.95,-73.35 574.34,-75.43 573.36,-68.5"/>
<text text-anchor="middle" x="583.6" y="-73.75" font-family="Times New Roman,serif" font-size="14.00">0</text>
</g>
<!-- 7&#45;&gt;7 -->
<g id="edge18" class="edge">
<title>7&#45;&gt;7</title>
<path fill="none" stroke="black" d="M619.04,-71.99C618.06,-82.09 620.7,-91 626.97,-91 630.69,-91 633.14,-87.86 634.3,-83.19"/>
<polygon fill="black" stroke="black" points="637.78,-83.68 634.82,-73.5 630.79,-83.3 637.78,-83.68"/>
<text text-anchor="middle" x="626.97" y="-94.2" font-family="Times New Roman,serif" font-size="14.00">1</text>
</g>
</g>
</svg>
