<?xml version="1.0" encoding="UTF-8" standalone="no"?>
<!DOCTYPE svg PUBLIC "-//W3C//DTD SVG 1.1//EN"
 "http://www.w3.org/Graphics/SVG/1.1/DTD/svg11.dtd">
<!-- Generated by graphviz version 12.1.1 (20240910.0053)
 -->
<!-- Title: G Pages: 1 -->
<svg width="246pt" height="116pt"
 viewBox="0.00 0.00 246.47 115.50" xmlns="http://www.w3.org/2000/svg" xmlns:xlink="http://www.w3.org/1999/xlink">
<g id="graph0" class="graph" transform="scale(1 1) rotate(0) translate(4 111.5)">
<title>G</title>
<polygon fill="white" stroke="none" points="-4,4 -4,-111.5 242.47,-111.5 242.47,4 -4,4"/>
<!-- n__ -->
<g id="node1" class="node">
<title>n__</title>
</g>
<!-- 0 -->
<g id="node2" class="node">
<title>0</title>
<ellipse fill="none" stroke="black" cx="55.72" cy="-18" rx="18" ry="18"/>
</g>
<!-- n__&#45;&gt;0 -->
<g id="edge1" class="edge">
<title>n__&#45;&gt;0</title>
<path fill="none" stroke="black" d="M0.87,-18C2.34,-18 13.93,-18 25.99,-18"/>
<polygon fill="black" stroke="black" points="25.86,-21.5 35.86,-18 25.86,-14.5 25.86,-21.5"/>
</g>
<!-- 0&#45;&gt;0 -->
<g id="edge2" class="edge">
<title>0&#45;&gt;0</title>
<path fill="none" stroke="black" d="M49.25,-35.04C47.93,-44.86 50.09,-54 55.72,-54 58.98,-54 61.07,-50.94 62,-46.47"/>
<polygon fill="black" stroke="black" points="65.5,-46.61 62.16,-36.55 58.5,-46.49 65.5,-46.61"/>
<text text-anchor="middle" x="55.72" y="-57.2" font-family="Times New Roman,serif" font-size="14.00">a, b</text>
</g>
<!-- 1 -->
<g id="node3" class="node">
<title>1</title>
<ellipse fill="none" stroke="black" cx="133.72" cy="-55" rx="18" ry="18"/>
</g>
<!-- 0&#45;&gt;1 -->
<g id="edge3" class="edge">
<title>0&#45;&gt;1</title>
<path fill="none" stroke="black" d="M72.47,-25.67C82.35,-30.48 95.34,-36.8 106.72,-42.34"/>
<polygon fill="black" stroke="black" points="105.11,-45.45 115.63,-46.68 108.17,-39.16 105.11,-45.45"/>
<text text-anchor="middle" x="94.72" y="-40.81" font-family="Times New Roman,serif" font-size="14.00">a</text>
</g>
<!-- 1&#45;&gt;1 -->
<g id="edge4" class="edge">
<title>1&#45;&gt;1</title>
<path fill="none" stroke="black" d="M126.81,-72.04C125.4,-81.86 127.7,-91 133.72,-91 137.2,-91 139.44,-87.94 140.43,-83.47"/>
<polygon fill="black" stroke="black" points="143.93,-83.61 140.6,-73.55 136.93,-83.49 143.93,-83.61"/>
<text text-anchor="middle" x="133.72" y="-94.2" font-family="Times New Roman,serif" font-size="14.00">a, b</text>
</g>
<!-- 2 -->
<g id="node4" class="node">
<title>2</title>
<ellipse fill="none" stroke="black" cx="216.47" cy="-35" rx="18" ry="18"/>
<ellipse fill="none" stroke="black" cx="216.47" cy="-35" rx="22" ry="22"/>
</g>
<!-- 1&#45;&gt;2 -->
<g id="edge5" class="edge">
<title>1&#45;&gt;2</title>
<path fill="none" stroke="black" d="M152,-55.65C159.6,-55.56 168.58,-54.93 176.47,-53 179.84,-52.18 183.27,-51.06 186.63,-49.78"/>
<polygon fill="black" stroke="black" points="187.78,-53.09 195.57,-45.91 185,-46.67 187.78,-53.09"/>
<text text-anchor="middle" x="173.1" y="-57.51" font-family="Times New Roman,serif" font-size="14.00">b</text>
</g>
<!-- 2&#45;&gt;0 -->
<g id="edge7" class="edge">
<title>2&#45;&gt;0</title>
<path fill="none" stroke="black" d="M196.16,-25.85C183.77,-20.49 167.16,-14.26 151.72,-11.5 129.45,-7.53 103.85,-9.66 84.84,-12.5"/>
<polygon fill="black" stroke="black" points="84.45,-9.02 75.16,-14.12 85.6,-15.92 84.45,-9.02"/>
<text text-anchor="middle" x="133.72" y="-14.7" font-family="Times New Roman,serif" font-size="14.00">b</text>
</g>
<!-- 2&#45;&gt;1 -->
<g id="edge6" class="edge">
<title>2&#45;&gt;1</title>
<path fill="none" stroke="black" d="M194.63,-30.94C186.7,-30.14 177.66,-30.17 169.72,-32.5 165.6,-33.71 161.5,-35.57 157.64,-37.72"/>
<polygon fill="black" stroke="black" points="155.93,-34.66 149.39,-43 159.7,-40.56 155.93,-34.66"/>
<text text-anchor="middle" x="173.1" y="-35.7" font-family="Times New Roman,serif" font-size="14.00">a</text>
</g>
</g>
</svg>
